<?xml version="1.0" encoding="UTF-8" standalone="no"?><!DOCTYPE svg PUBLIC "-//W3C//DTD SVG 1.1//EN" "http://www.w3.org/Graphics/SVG/1.1/DTD/svg11.dtd"><svg width="100%" height="100%" viewBox="0 0 45 45" version="1.1" xmlns="http://www.w3.org/2000/svg" xmlns:xlink="http://www.w3.org/1999/xlink" xml:space="preserve" xmlns:serif="http://www.serif.com/" style="fill-rule:evenodd;clip-rule:evenodd;stroke-linejoin:round;stroke-miterlimit:2;"><path d="M34.97,0.64l-25.9,-0c-4.31,-0 -7.803,3.531 -7.803,7.887l-0,17.168c-0,4.356 3.494,7.887 7.803,7.887l3.717,0c0.177,0 0.321,0.145 0.321,0.324l-0,8.469c-0,1.001 1.211,1.486 1.89,0.757l8.792,-9.448c0.06,-0.065 0.145,-0.102 0.233,-0.102l10.947,0c4.31,0 7.804,-3.531 7.804,-7.887l0,-17.168c0,-4.356 -3.494,-7.887 -7.804,-7.887Z" style="fill:#ea4672;fill-rule:nonzero;stroke:#32363e;stroke-width:0.86px;"/><path d="M16.442,30.491c-0,-0.184 -0.136,-0.334 -0.303,-0.334l-3.515,-0c-4.075,-0 -7.379,-3.651 -7.379,-8.154l-0,-17.75c-0,-0.762 0.095,-1.499 0.272,-2.199c-2.299,1.334 -3.848,3.848 -3.848,6.729l0,16.855c0,4.276 3.413,7.743 7.623,7.743l3.63,0c0.173,0 0.313,0.143 0.313,0.318l-0,8.314c-0,0.983 1.017,1.393 1.68,0.677l1.459,-1.74l0.068,-10.459l-0,0Z" style="fill:#e01a4f;fill-rule:nonzero;"/><path d="M30.948,9.968c-1.996,-2.019 -5.234,-2.019 -7.231,0l-1.128,1.141c-0.269,0.272 -0.705,0.272 -0.974,0l-1.11,-1.122c-1.996,-2.02 -5.234,-2.02 -7.231,-0c-1.996,2.019 -1.996,5.293 0,7.312l8.342,8.436c0.269,0.272 0.705,0.272 0.974,0l8.358,-8.454c1.997,-2.019 1.997,-5.293 0,-7.313Z" style="fill:#ec5569;fill-rule:nonzero;"/><path d="M30.948,9.968c-1.996,-2.019 -5.234,-2.019 -7.231,0l-1.128,1.141c-0.269,0.272 -0.705,0.272 -0.974,0l-1.11,-1.122c-1.996,-2.02 -5.234,-2.02 -7.231,-0c-1.996,2.019 -1.996,5.293 0,7.312l8.342,8.436c0.269,0.272 0.705,0.272 0.974,0l8.358,-8.454c1.997,-2.019 1.997,-5.293 0,-7.313Z" style="fill:#fff5f5;fill-rule:nonzero;"/><path d="M15.949,17.299c-1.997,-2.019 -1.997,-5.293 0,-7.312c0.655,-0.663 1.444,-1.106 2.278,-1.334c-1.709,-0.467 -3.611,-0.023 -4.953,1.334c-1.996,2.019 -1.996,5.293 0,7.312l8.342,8.436c0.269,0.272 0.705,0.272 0.974,0l0.85,-0.86l-7.491,-7.576Z" style="fill:#eaecea;fill-rule:nonzero;"/></svg>