<?xml version="1.0" encoding="UTF-8" standalone="no"?><!DOCTYPE svg PUBLIC "-//W3C//DTD SVG 1.1//EN" "http://www.w3.org/Graphics/SVG/1.1/DTD/svg11.dtd"><svg width="100%" height="100%" viewBox="0 0 173 173" version="1.1" xmlns="http://www.w3.org/2000/svg" xmlns:xlink="http://www.w3.org/1999/xlink" xml:space="preserve" xmlns:serif="http://www.serif.com/" style="fill-rule:evenodd;clip-rule:evenodd;stroke-linejoin:round;stroke-miterlimit:2;"><clipPath id="_clip1"><rect id="wu-motivate-icon" x="0" y="0" width="172.62" height="172.62"/></clipPath><g clip-path="url(#_clip1)"><g><rect x="119.405" y="82.195" width="6.502" height="3.151" style="fill:#eaecea;fill-rule:nonzero;"/><rect x="46.572" y="82.195" width="6.502" height="3.151" style="fill:#eaecea;fill-rule:nonzero;"/><path d="M118.151,84.048l-0,15.863c-0,17.544 -14.223,31.767 -31.767,31.767c-17.544,-0 -31.767,-14.223 -31.767,-31.767l0,-15.863l63.534,-0Z" style="fill:#20232a;fill-rule:nonzero;"/><path d="M118.151,31.768l-0,52.28l-63.534,-0l0,-52.28c-0.002,-1.999 0.186,-3.993 0.56,-5.955c0.484,-2.555 1.285,-5.039 2.385,-7.395c7.38,-15.921 26.269,-22.844 42.189,-15.464c3.382,1.568 6.463,3.719 9.1,6.355c4.495,4.505 7.539,10.253 8.74,16.503c0.373,1.963 0.561,3.957 0.56,5.956Z" style="fill:#eaecea;fill-rule:nonzero;stroke:#32363e;stroke-width:0.05px;"/><path d="M125.006,80.042l0,7.999l3.453,-0l-0,12.074c0,23.28 -18.871,42.154 -42.152,42.154c-23.28,0.001 -42.153,-18.871 -42.154,-42.151l-0,-12.073l3.999,-0l0,-7.999l-11.998,-0l-0,20.077c-0,27.701 22.456,50.156 50.156,50.156c27.7,0 50.156,-22.455 50.156,-50.156l-0,-20.081l-11.46,-0Z" style="fill:#282c34;fill-rule:nonzero;"/><rect x="51.779" y="80.042" width="69.221" height="8.003" style="fill:#32363e;fill-rule:nonzero;"/><g><path d="M117.589,25.813l-20.457,-0c-2.042,-0.049 -3.658,-1.744 -3.609,-3.786c0.047,-1.974 1.636,-3.562 3.609,-3.609l18.072,-0c1.099,2.355 1.9,4.84 2.385,7.395Z" style="fill:#32363e;fill-rule:nonzero;"/><path d="M118.151,33.527l-0,7.395l-21.019,0c-2.042,-0.001 -3.697,-1.656 -3.697,-3.698c0.011,-2.038 1.659,-3.687 3.697,-3.699l21.019,0.002Z" style="fill:#32363e;fill-rule:nonzero;"/><path d="M118.151,48.635l-0,7.395l-21.019,0c-2.04,-0.007 -3.69,-1.659 -3.697,-3.699c0.012,-2.036 1.66,-3.684 3.697,-3.696l21.019,-0Z" style="fill:#32363e;fill-rule:nonzero;"/><path d="M118.151,63.734l-0,7.412l-21.019,-0c-2.04,-0.007 -3.69,-1.659 -3.697,-3.699l0,-0.017c0.006,-2.039 1.657,-3.691 3.697,-3.698l21.019,0.002Z" style="fill:#32363e;fill-rule:nonzero;"/><path d="M79.332,22.112c0,2.042 -1.656,3.699 -3.698,3.699l-20.457,-0c0.484,-2.555 1.285,-5.039 2.385,-7.396l18.072,0c2.037,0.011 3.686,1.659 3.698,3.697Z" style="fill:#32363e;fill-rule:nonzero;"/><path d="M79.332,37.226c0,2.042 -1.656,3.698 -3.698,3.698l-21.017,0l0,-7.397l21.017,0c0.979,0.003 1.917,0.394 2.608,1.088c0.701,0.688 1.094,1.629 1.09,2.611Z" style="fill:#32363e;fill-rule:nonzero;"/><path d="M79.332,52.338c-0.005,2.04 -1.658,3.692 -3.698,3.698l-21.017,0l0,-7.401l21.017,-0c0.979,0.002 1.917,0.394 2.608,1.088c0.702,0.689 1.095,1.632 1.09,2.615Z" style="fill:#32363e;fill-rule:nonzero;"/><path d="M79.332,67.431l0,0.017c-0.005,2.04 -1.658,3.693 -3.698,3.698l-21.017,0l0,-7.411l21.017,-0c2.039,0.005 3.691,1.656 3.698,3.696Z" style="fill:#32363e;fill-rule:nonzero;"/></g><rect x="79.235" y="145.674" width="14.139" height="26.946" style="fill:#282c34;fill-rule:nonzero;"/><ellipse cx="86.93" cy="101.732" rx="6.624" ry="6.483" style="fill:#32363e;stroke:#e01a4f;stroke-width:0.51px;stroke-linecap:round;stroke-miterlimit:1.5;"/></g></g></svg>