<svg viewBox="0 0 4767 625" xmlns="http://www.w3.org/2000/svg" fill-rule="evenodd" clip-rule="evenodd" stroke-linecap="round" stroke-linejoin="round"><path fill="none" d="M0 0h4766.67v625H0z"/><g fill-rule="nonzero"><path d="M3597.04 439.025c-22.634 0-43.75-5.658-63.35-16.975s-35.234-26.542-46.9-45.675c-11.667-19.133-17.5-39.783-17.5-61.95s5.833-42.758 17.5-61.775c11.666-19.017 27.3-34.183 46.9-45.5 19.6-11.317 40.716-16.975 63.35-16.975 17.966 0 35 3.558 51.1 10.675 16.1 7.117 30.1 16.975 42 29.575l-37.45 33.6c-7-8.4-15.342-14.992-25.025-19.775-9.684-4.783-19.892-7.175-30.625-7.175-13.067 0-25.375 3.558-36.925 10.675-11.55 7.117-20.709 16.625-27.475 28.525-6.767 11.9-10.15 24.617-10.15 38.15 0 13.767 3.383 26.6 10.15 38.5 6.766 11.9 15.925 21.408 27.475 28.525 11.55 7.117 23.858 10.675 36.925 10.675 10.733 0 20.941-2.392 30.625-7.175 9.683-4.783 18.141-11.375 25.375-19.775l37.1 33.6c-11.9 12.6-25.959 22.458-42.175 29.575-16.217 7.117-33.192 10.675-50.925 10.675zM3710.79 466.675c18.433-18.9 31.908-38.208 40.425-57.925 8.516-19.717 12.775-41.942 12.775-66.675 0-24.967-4.259-47.25-12.775-66.85-8.517-19.6-21.992-38.967-40.425-58.1l25.9-27.3c24.966 17.967 44.275 40.133 57.925 66.5 13.65 26.367 20.475 54.95 20.475 85.75 0 30.8-6.825 59.383-20.475 85.75-13.65 26.367-32.959 48.533-57.925 66.5l-25.9-27.65zM4035.59 439.375c-20.534 0-39.084-3.675-55.65-11.025-16.567-7.35-30.217-17.208-40.95-29.575l30.45-34.3c8.633 9.1 18.433 16.1 29.4 21 10.966 4.9 22.516 7.35 34.65 7.35 12.833 0 23.041-2.742 30.625-8.225 7.583-5.483 11.375-12.542 11.375-21.175 0-18.667-15.634-27.883-46.9-27.65h-27.65v-44.1l27.65.35c13.3 0 23.625-2.333 30.975-7 7.35-4.667 11.025-11.317 11.025-19.95s-3.792-15.575-11.375-20.825c-7.584-5.25-17.325-7.875-29.225-7.875-10.734 0-20.65 2.392-29.75 7.175-9.1 4.783-17.967 11.725-26.6 20.825l-29.75-31.5c23.566-28.467 54.016-42.7 91.35-42.7 17.733 0 33.191 2.8 46.375 8.4 13.183 5.6 23.391 13.417 30.625 23.45 7.233 10.033 10.85 21.35 10.85 33.95 0 13.533-4.084 25.142-12.25 34.825-8.167 9.683-19.134 16.508-32.9 20.475 14.233 3.267 26.191 9.742 35.875 19.425 9.683 9.683 14.525 21.992 14.525 36.925 0 13.767-3.85 26.075-11.55 36.925-7.7 10.85-18.55 19.367-32.55 25.55-14 6.183-30.217 9.275-48.65 9.275zM4270.79 439.025c-21 0-39.667-5.308-56-15.925-16.334-10.617-29.109-25.375-38.325-44.275-9.217-18.9-13.825-40.367-13.825-64.4 0-24.033 4.608-45.442 13.825-64.225 9.216-18.783 21.991-33.483 38.325-44.1 16.333-10.617 35-15.925 56-15.925 20.766 0 39.316 5.308 55.65 15.925 16.333 10.617 29.108 25.317 38.325 44.1 9.216 18.783 13.825 40.192 13.825 64.225 0 24.033-4.609 45.5-13.825 64.4-9.217 18.9-21.992 33.658-38.325 44.275-16.334 10.617-34.884 15.925-55.65 15.925zm0-46.9c10.5 0 19.891-3.325 28.175-9.975 8.283-6.65 14.758-15.867 19.425-27.65 4.666-11.783 7-25.142 7-40.075 0-14.933-2.334-28.233-7-39.9-4.667-11.667-11.142-20.825-19.425-27.475-8.284-6.65-17.675-9.975-28.175-9.975-10.734 0-20.3 3.325-28.7 9.975-8.4 6.65-14.934 15.808-19.6 27.475-4.667 11.667-7 24.967-7 39.9s2.333 28.292 7 40.075c4.666 11.783 11.2 21 19.6 27.65 8.4 6.65 17.966 9.975 28.7 9.975zM4473.44 315.125c-11.667 0-22.05-2.683-31.15-8.05-9.1-5.367-16.159-12.717-21.175-22.05-5.017-9.333-7.525-19.717-7.525-31.15s2.508-21.875 7.525-31.325c5.016-9.45 12.133-16.917 21.35-22.4 9.216-5.483 19.658-8.225 31.325-8.225 11.9 0 22.341 2.742 31.325 8.225 8.983 5.483 15.983 12.892 21 22.225 5.016 9.333 7.525 19.717 7.525 31.15s-2.567 21.875-7.7 31.325c-5.134 9.45-12.25 16.858-21.35 22.225-9.1 5.367-19.484 8.05-31.15 8.05zm138.95-120.75h40.6l-167.3 240.45h-40.6l167.3-240.45zm-138.6 90.65c7.466 0 13.591-2.858 18.375-8.575 4.783-5.717 7.175-13.358 7.175-22.925 0-9.333-2.45-16.858-7.35-22.575-4.9-5.717-11.084-8.575-18.55-8.575-7.467 0-13.534 2.858-18.2 8.575-4.667 5.717-7 13.242-7 22.575 0 9.333 2.45 16.917 7.35 22.75 4.9 5.833 10.966 8.75 18.2 8.75zm150.15 153.65c-11.667 0-22.109-2.742-31.325-8.225-9.217-5.483-16.334-12.892-21.35-22.225-5.017-9.333-7.525-19.717-7.525-31.15s2.566-21.817 7.7-31.15c5.133-9.333 12.25-16.742 21.35-22.225 9.1-5.483 19.483-8.225 31.15-8.225 11.666 0 22.05 2.742 31.15 8.225 9.1 5.483 16.158 12.95 21.175 22.4 5.016 9.45 7.525 19.775 7.525 30.975 0 11.433-2.567 21.875-7.7 31.325-5.134 9.45-12.25 16.858-21.35 22.225-9.1 5.367-19.367 8.05-30.8 8.05zm0-30.45c7.466 0 13.591-2.858 18.375-8.575 4.783-5.717 7.175-13.242 7.175-22.575 0-9.333-2.45-16.917-7.35-22.75-4.9-5.833-10.967-8.75-18.2-8.75-7.7 0-13.942 2.858-18.725 8.575-4.784 5.717-7.175 13.358-7.175 22.925 0 9.333 2.45 16.858 7.35 22.575 4.9 5.717 11.083 8.575 18.55 8.575z" fill="#ededed"/><path d="M1916.08 194.375c14.234 0 26.892 2.567 37.975 7.7 11.084 5.133 19.717 12.308 25.9 21.525 6.184 9.217 9.275 19.542 9.275 30.975 0 11.9-2.916 22.342-8.75 31.325-5.833 8.983-14.233 16.392-25.2 22.225 14 6.3 24.909 14.817 32.725 25.55 7.817 10.733 11.725 22.75 11.725 36.05 0 12.6-3.383 23.858-10.15 33.775-6.766 9.917-16.158 17.617-28.175 23.1-12.016 5.483-25.608 8.225-40.775 8.225h-126.35v-240.45h121.8zm-12.6 96.95c9.334 0 17.092-2.508 23.275-7.525 6.184-5.017 9.275-11.375 9.275-19.075 0-7.467-3.091-13.708-9.275-18.725-6.183-5.017-13.941-7.525-23.275-7.525h-57.75v52.85h57.75zm7.7 99.4c10.267 0 18.725-2.742 25.375-8.225 6.65-5.483 9.975-12.542 9.975-21.175 0-8.633-3.325-15.692-9.975-21.175-6.65-5.483-15.108-8.225-25.375-8.225h-65.45v58.8h65.45zM2006.03 466.675c18.434-18.9 31.909-38.208 40.425-57.925 8.517-19.717 12.775-41.942 12.775-66.675 0-24.967-4.258-47.25-12.775-66.85-8.516-19.6-21.991-38.967-40.425-58.1l25.9-27.3c24.967 17.967 44.275 40.133 57.925 66.5 13.65 26.367 20.475 54.95 20.475 85.75 0 30.8-6.825 59.383-20.475 85.75-13.65 26.367-32.958 48.533-57.925 66.5l-25.9-27.65zM2328.38 324.225c14-10.967 23.8-20.767 29.4-29.4 5.6-8.633 8.4-17.267 8.4-25.9 0-9.567-3.5-17.267-10.5-23.1-7-5.833-15.633-8.75-25.9-8.75-11.2 0-21.466 2.683-30.8 8.05-9.333 5.367-18.666 13.3-28 23.8l-32.9-31.85c24.734-31.267 55.767-46.9 93.1-46.9 16.8 0 31.909 3.267 45.325 9.8 13.417 6.533 23.917 15.575 31.5 27.125 7.584 11.55 11.375 24.792 11.375 39.725 0 16.567-4.2 31.558-12.6 44.975-8.4 13.417-22.866 27.592-43.4 42.525l-43.75 33.95h101.85v46.55h-181.65v-42l88.55-68.6zM2566.38 439.025c-21 0-39.666-5.308-56-15.925-16.333-10.617-29.108-25.375-38.325-44.275-9.216-18.9-13.825-40.367-13.825-64.4 0-24.033 4.609-45.442 13.825-64.225 9.217-18.783 21.992-33.483 38.325-44.1 16.334-10.617 35-15.925 56-15.925 20.767 0 39.317 5.308 55.65 15.925 16.334 10.617 29.109 25.317 38.325 44.1 9.217 18.783 13.825 40.192 13.825 64.225 0 24.033-4.608 45.5-13.825 64.4-9.216 18.9-21.991 33.658-38.325 44.275-16.333 10.617-34.883 15.925-55.65 15.925zm0-46.9c10.5 0 19.892-3.325 28.175-9.975 8.284-6.65 14.759-15.867 19.425-27.65 4.667-11.783 7-25.142 7-40.075 0-14.933-2.333-28.233-7-39.9-4.666-11.667-11.141-20.825-19.425-27.475-8.283-6.65-17.675-9.975-28.175-9.975-10.733 0-20.3 3.325-28.7 9.975-8.4 6.65-14.933 15.808-19.6 27.475-4.666 11.667-7 24.967-7 39.9s2.334 28.292 7 40.075c4.667 11.783 11.2 21 19.6 27.65 8.4 6.65 17.967 9.975 28.7 9.975zM2769.03 315.125c-11.666 0-22.05-2.683-31.15-8.05-9.1-5.367-16.158-12.717-21.175-22.05-5.016-9.333-7.525-19.717-7.525-31.15s2.509-21.875 7.525-31.325c5.017-9.45 12.134-16.917 21.35-22.4 9.217-5.483 19.659-8.225 31.325-8.225 11.9 0 22.342 2.742 31.325 8.225 8.984 5.483 15.984 12.892 21 22.225 5.017 9.333 7.525 19.717 7.525 31.15s-2.566 21.875-7.7 31.325c-5.133 9.45-12.25 16.858-21.35 22.225-9.1 5.367-19.483 8.05-31.15 8.05zm138.95-120.75h40.6l-167.3 240.45h-40.6l167.3-240.45zm-138.6 90.65c7.467 0 13.592-2.858 18.375-8.575 4.784-5.717 7.175-13.358 7.175-22.925 0-9.333-2.45-16.858-7.35-22.575-4.9-5.717-11.083-8.575-18.55-8.575-7.466 0-13.533 2.858-18.2 8.575-4.666 5.717-7 13.242-7 22.575 0 9.333 2.45 16.917 7.35 22.75 4.9 5.833 10.967 8.75 18.2 8.75zm150.15 153.65c-11.666 0-22.108-2.742-31.325-8.225-9.216-5.483-16.333-12.892-21.35-22.225-5.016-9.333-7.525-19.717-7.525-31.15s2.567-21.817 7.7-31.15c5.134-9.333 12.25-16.742 21.35-22.225 9.1-5.483 19.484-8.225 31.15-8.225 11.667 0 22.05 2.742 31.15 8.225 9.1 5.483 16.159 12.95 21.175 22.4 5.017 9.45 7.525 19.775 7.525 30.975 0 11.433-2.566 21.875-7.7 31.325-5.133 9.45-12.25 16.858-21.35 22.225-9.1 5.367-19.366 8.05-30.8 8.05zm0-30.45c7.467 0 13.592-2.858 18.375-8.575 4.784-5.717 7.175-13.242 7.175-22.575 0-9.333-2.45-16.917-7.35-22.75-4.9-5.833-10.966-8.75-18.2-8.75-7.7 0-13.941 2.858-18.725 8.575-4.783 5.717-7.175 13.358-7.175 22.925 0 9.333 2.45 16.858 7.35 22.575 4.9 5.717 11.084 8.575 18.55 8.575z" fill="#61dafb"/><path d="M297.164 434.825l-16.8-41.3h-104.3l-16.8 41.3h-57.75l97.65-240.45h58.1l97.65 240.45h-57.75zm-104.65-81.55h71.4l-35.7-87.5-35.7 87.5zM358.064 466.675c18.433-18.9 31.908-38.208 40.425-57.925 8.516-19.717 12.775-41.942 12.775-66.675 0-24.967-4.259-47.25-12.775-66.85-8.517-19.6-21.992-38.967-40.425-58.1l25.9-27.3c24.966 17.967 44.275 40.133 57.925 66.5 13.65 26.367 20.475 54.95 20.475 85.75 0 30.8-6.825 59.383-20.475 85.75-13.65 26.367-32.959 48.533-57.925 66.5l-25.9-27.65zM647.164 253.525l-40.95 25.55-20.65-36.4 72.1-48.3h41.3v240.45h-51.8v-181.3zM852.614 439.025c-21 0-39.667-5.308-56-15.925-16.334-10.617-29.109-25.375-38.325-44.275-9.217-18.9-13.825-40.367-13.825-64.4 0-24.033 4.608-45.442 13.825-64.225 9.216-18.783 21.991-33.483 38.325-44.1 16.333-10.617 35-15.925 56-15.925 20.766 0 39.316 5.308 55.65 15.925 16.333 10.617 29.108 25.317 38.325 44.1 9.216 18.783 13.825 40.192 13.825 64.225 0 24.033-4.609 45.5-13.825 64.4-9.217 18.9-21.992 33.658-38.325 44.275-16.334 10.617-34.884 15.925-55.65 15.925zm0-46.9c10.5 0 19.891-3.325 28.175-9.975 8.283-6.65 14.758-15.867 19.425-27.65 4.666-11.783 7-25.142 7-40.075 0-14.933-2.334-28.233-7-39.9-4.667-11.667-11.142-20.825-19.425-27.475-8.284-6.65-17.675-9.975-28.175-9.975-10.734 0-20.3 3.325-28.7 9.975-8.4 6.65-14.934 15.808-19.6 27.475-4.667 11.667-7 24.967-7 39.9s2.333 28.292 7 40.075c4.666 11.783 11.2 21 19.6 27.65 8.4 6.65 17.966 9.975 28.7 9.975zM1055.26 315.125c-11.667 0-22.05-2.683-31.15-8.05-9.1-5.367-16.159-12.717-21.175-22.05-5.017-9.333-7.525-19.717-7.525-31.15s2.508-21.875 7.525-31.325c5.016-9.45 12.133-16.917 21.35-22.4 9.216-5.483 19.658-8.225 31.325-8.225 11.9 0 22.341 2.742 31.325 8.225 8.983 5.483 15.983 12.892 21 22.225 5.016 9.333 7.525 19.717 7.525 31.15s-2.567 21.875-7.7 31.325c-5.134 9.45-12.25 16.858-21.35 22.225-9.1 5.367-19.484 8.05-31.15 8.05zm138.95-120.75h40.6l-167.3 240.45h-40.6l167.3-240.45zm-138.6 90.65c7.466 0 13.591-2.858 18.375-8.575 4.783-5.717 7.175-13.358 7.175-22.925 0-9.333-2.45-16.858-7.35-22.575-4.9-5.717-11.084-8.575-18.55-8.575-7.467 0-13.534 2.858-18.2 8.575-4.667 5.717-7 13.242-7 22.575 0 9.333 2.45 16.917 7.35 22.75 4.9 5.833 10.966 8.75 18.2 8.75zm150.15 153.65c-11.667 0-22.109-2.742-31.325-8.225-9.217-5.483-16.334-12.892-21.35-22.225-5.017-9.333-7.525-19.717-7.525-31.15s2.566-21.817 7.7-31.15c5.133-9.333 12.25-16.742 21.35-22.225 9.1-5.483 19.483-8.225 31.15-8.225 11.666 0 22.05 2.742 31.15 8.225 9.1 5.483 16.158 12.95 21.175 22.4 5.016 9.45 7.525 19.775 7.525 30.975 0 11.433-2.567 21.875-7.7 31.325-5.134 9.45-12.25 16.858-21.35 22.225-9.1 5.367-19.367 8.05-30.8 8.05zm0-30.45c7.466 0 13.591-2.858 18.375-8.575 4.783-5.717 7.175-13.242 7.175-22.575 0-9.333-2.45-16.917-7.35-22.75-4.9-5.833-10.967-8.75-18.2-8.75-7.7 0-13.942 2.858-18.725 8.575-4.784 5.717-7.175 13.358-7.175 22.925 0 9.333 2.45 16.858 7.35 22.575 4.9 5.717 11.083 8.575 18.55 8.575z" fill="#ededed"/></g><g fill="#ededed"><ellipse cx="1511.49" cy="312.5" rx="46.413" ry="43.75"/><ellipse cx="3255.17" cy="312.5" rx="46.413" ry="43.75"/></g><path d="M1775.96 511.602c269.033 80.057 454.741 23.81 533.792-5.375 48.478-17.811-7.55 86.369 19.871 71.495 43.674-23.748 88.035-55.871 117.764-62.933 135.827-32.31-72.499 96.556 557.532-.438" fill="none" stroke="url(#_Linear1)" stroke-width="33.33"/><defs><linearGradient id="_Linear1" x1="0" y1="0" x2="1" y2="0" gradientUnits="userSpaceOnUse" gradientTransform="matrix(1245.89 0 0 2495.94 1766.72 561.906)"><stop offset="0" stop-color="#61dafb"/><stop offset=".5" stop-color="#df4759"/><stop offset="1" stop-color="#fb8261"/></linearGradient></defs></svg>