<svg viewBox="0 0 1144 150" height="150" width="1144" xmlns="http://www.w3.org/2000/svg" fill-rule="evenodd" fill="#fff" clip-rule="evenodd" stroke-linejoin="round" stroke-miterlimit="2"><path d="M24.78 120.206l8.1-24.9h39.3l8.1 24.9h24.75L67.38 11.156h-29.7L.03 120.206h24.75zm13.95-42.9l13.35-41.25h.9l13.35 41.25h-27.6zM199.648 11.156h-21.6l-27 17.1v20.4l24.9-15.6h.75v87.15h22.95V11.156zM265.998 121.706c24.45 0 42-13.5 42-32.1 0-13.65-8.7-23.25-24.6-25.35v-.9c12.15-2.1 20.55-10.8 20.55-22.95 0-17.25-15.15-30.75-37.65-30.75-22.35 0-39.15 13.05-39.6 31.95h22.2c.3-8.4 7.8-13.65 17.25-13.65 9.3 0 15.6 5.55 15.6 13.8 0 8.55-7.35 14.4-17.85 14.4h-10.2v16.95h10.2c12.45 0 20.1 6.15 20.1 15 0 8.55-7.5 14.55-18 14.55-10.2 0-17.7-5.25-18.15-13.35h-23.25c.3 19.2 17.4 32.4 41.4 32.4zM366.498-.044h8.875v149.5h-8.875zM435.569 120.206h46.65c24.45 0 37.5-12.75 37.5-30.15 0-16.2-11.55-25.95-24-26.4v-1.2c11.4-2.55 19.8-10.5 19.8-23.4 0-16.35-12.15-27.9-36.3-27.9h-43.65v109.05zm23.1-18.9v-28.95h19.35c11.1 0 18 6.45 18 15.45 0 8.1-5.7 13.5-18.6 13.5h-18.75zm0-44.55v-27h17.55c10.2 0 16.05 5.25 16.05 13.2 0 8.55-7.05 13.8-16.5 13.8h-17.1zM616.281 11.156h-21.6l-27 17.1v20.4l24.9-15.6h.75v87.15h22.95V11.156zM682.185 121.706c24.3 0 40.8-15.9 40.65-37.95.15-20.85-14.55-35.85-34.2-35.85-9.6 0-17.85 4.05-21.6 9.45h-.75l2.85-27.45h47.7v-18.75h-66.6l-5.25 57.45 20.55 3.75c3.3-4.5 9.75-7.35 16.2-7.35 11.1 0 18.9 7.95 18.9 19.35 0 11.4-7.65 19.2-18.45 19.2-9.3 0-16.65-5.7-17.1-14.25h-22.5c.45 18.9 16.95 32.4 39.6 32.4zM780.898-.044h8.875v149.5h-8.875zM946.269 49.256c-3-25.2-22.05-39.6-47.4-39.6-28.8 0-50.85 20.25-50.85 55.95s21.75 56.1 50.85 56.1c28.05 0 44.85-18.6 47.4-38.7l-23.4-.15c-2.1 11.7-11.25 18.45-23.55 18.45-16.65 0-27.9-12.3-27.9-35.7 0-22.65 11.1-35.55 28.05-35.55 12.6 0 21.75 7.2 23.4 19.2h23.4zM1044.373 11.156h-21.6l-27 17.1v20.4l24.9-15.6h.75v87.15h22.95V11.156zM1074.723 120.206h23.7l45.3-90v-19.05h-76.5v18.75h52.65v.75l-45.15 89.55z" fill-rule="nonzero"/></svg>