<svg width="100%" height="100%" viewBox="0 0 4767 625" version="1.1" xmlns="http://www.w3.org/2000/svg" xmlns:xlink="http://www.w3.org/1999/xlink" xml:space="preserve" xmlns:serif="http://www.serif.com/" style="fill-rule:evenodd;clip-rule:evenodd;stroke-linejoin:round;stroke-miterlimit:2;"><rect id="Answers" x="0" y="0" width="4766.67" height="625" style="fill:none;"/><g id="Answers1" serif:id="Answers"><g><g><g transform="matrix(4.16667,0,0,4.16667,3350,-47.9167)"><g transform="matrix(72,0,0,72,47.92,111.664)"><path d="M0.401,0.012c-0.065,0 -0.125,-0.016 -0.181,-0.049c-0.056,-0.032 -0.101,-0.075 -0.134,-0.13c-0.033,-0.055 -0.05,-0.114 -0.05,-0.177c-0,-0.063 0.017,-0.122 0.05,-0.177c0.033,-0.054 0.078,-0.097 0.134,-0.13c0.056,-0.032 0.116,-0.048 0.181,-0.048c0.051,-0 0.1,0.01 0.146,0.03c0.046,0.021 0.086,0.049 0.12,0.085l-0.107,0.096c-0.02,-0.024 -0.044,-0.043 -0.072,-0.056c-0.027,-0.014 -0.056,-0.021 -0.087,-0.021c-0.037,0 -0.073,0.01 -0.106,0.031c-0.033,0.02 -0.059,0.047 -0.078,0.081c-0.019,0.034 -0.029,0.07 -0.029,0.109c0,0.039 0.01,0.076 0.029,0.11c0.019,0.034 0.045,0.061 0.078,0.082c0.033,0.02 0.069,0.03 0.106,0.03c0.031,0 0.06,-0.007 0.087,-0.02c0.028,-0.014 0.052,-0.033 0.073,-0.057l0.106,0.096c-0.034,0.036 -0.074,0.064 -0.121,0.085c-0.046,0.02 -0.094,0.03 -0.145,0.03Z" style="fill:#ededed;fill-rule:nonzero;"/></g><g transform="matrix(72,0,0,72,97.888,111.664)"><path d="M0.087,0.17c0.134,-0.112 0.209,-0.263 0.209,-0.435c0,-0.173 -0.075,-0.323 -0.209,-0.435l-0.04,0.042c0.109,0.112 0.169,0.229 0.169,0.393c0,0.163 -0.06,0.281 -0.169,0.392l0.04,0.043Z" style="fill:#ededed;fill-rule:nonzero;"/></g><g transform="matrix(72,0,0,72,142.672,111.664)"><path d="M0.311,0.013c-0.059,0 -0.112,-0.011 -0.159,-0.032c-0.047,-0.021 -0.086,-0.049 -0.117,-0.084l0.087,-0.098c0.025,0.026 0.053,0.046 0.084,0.06c0.031,0.014 0.064,0.021 0.099,0.021c0.037,0 0.066,-0.008 0.087,-0.024c0.022,-0.015 0.033,-0.035 0.033,-0.06c-0,-0.053 -0.045,-0.08 -0.134,-0.079l-0.079,0l-0,-0.126l0.079,0.001c0.038,-0 0.068,-0.007 0.088,-0.02c0.022,-0.013 0.032,-0.032 0.032,-0.057c0,-0.025 -0.011,-0.044 -0.033,-0.059c-0.021,-0.015 -0.049,-0.023 -0.083,-0.023c-0.031,0 -0.059,0.007 -0.085,0.021c-0.026,0.013 -0.051,0.033 -0.076,0.059l-0.085,-0.09c0.067,-0.081 0.154,-0.122 0.261,-0.122c0.051,-0 0.095,0.008 0.133,0.024c0.037,0.016 0.066,0.038 0.087,0.067c0.021,0.029 0.031,0.061 0.031,0.097c0,0.039 -0.012,0.072 -0.035,0.1c-0.023,0.027 -0.055,0.047 -0.094,0.058c0.041,0.009 0.075,0.028 0.103,0.056c0.027,0.027 0.041,0.062 0.041,0.105c0,0.039 -0.011,0.075 -0.033,0.106c-0.022,0.031 -0.053,0.055 -0.093,0.073c-0.04,0.017 -0.086,0.026 -0.139,0.026Z" style="fill:#ededed;fill-rule:nonzero;"/></g><g transform="matrix(72,0,0,72,187.672,111.664)"><path d="M0.358,0.012c-0.06,0 -0.113,-0.015 -0.16,-0.046c-0.047,-0.03 -0.083,-0.072 -0.109,-0.126c-0.027,-0.054 -0.04,-0.115 -0.04,-0.184c0,-0.069 0.013,-0.13 0.04,-0.184c0.026,-0.053 0.062,-0.095 0.109,-0.125c0.047,-0.031 0.1,-0.046 0.16,-0.046c0.059,-0 0.112,0.015 0.159,0.046c0.047,0.03 0.083,0.072 0.11,0.126c0.026,0.053 0.039,0.114 0.039,0.183c0,0.069 -0.013,0.13 -0.039,0.184c-0.027,0.054 -0.063,0.096 -0.11,0.127c-0.047,0.03 -0.1,0.045 -0.159,0.045Zm0,-0.134c0.03,0 0.057,-0.009 0.081,-0.028c0.023,-0.019 0.042,-0.046 0.055,-0.079c0.013,-0.034 0.02,-0.072 0.02,-0.115c0,-0.043 -0.007,-0.081 -0.02,-0.114c-0.013,-0.033 -0.032,-0.059 -0.055,-0.078c-0.024,-0.019 -0.051,-0.029 -0.081,-0.029c-0.031,0 -0.058,0.01 -0.082,0.029c-0.024,0.019 -0.043,0.045 -0.056,0.078c-0.013,0.033 -0.02,0.071 -0.02,0.114c0,0.043 0.007,0.081 0.02,0.115c0.013,0.033 0.032,0.06 0.056,0.079c0.024,0.019 0.051,0.028 0.082,0.028Z" style="fill:#ededed;fill-rule:nonzero;"/></g><g transform="matrix(72,0,0,72,239.152,111.664)"><path d="M0.222,-0.342c-0.033,0 -0.063,-0.008 -0.089,-0.023c-0.026,-0.015 -0.046,-0.036 -0.061,-0.063c-0.014,-0.027 -0.021,-0.056 -0.021,-0.089c0,-0.033 0.007,-0.063 0.021,-0.09c0.015,-0.027 0.035,-0.048 0.062,-0.064c0.026,-0.015 0.056,-0.023 0.089,-0.023c0.034,0 0.064,0.008 0.09,0.024c0.025,0.015 0.045,0.036 0.059,0.063c0.015,0.027 0.022,0.056 0.022,0.089c-0,0.033 -0.007,0.063 -0.022,0.09c-0.015,0.027 -0.035,0.048 -0.061,0.063c-0.026,0.015 -0.056,0.023 -0.089,0.023Zm0.397,-0.345l0.116,0l-0.478,0.687l-0.116,-0l0.478,-0.687Zm-0.396,0.259c0.021,0 0.039,-0.008 0.053,-0.024c0.013,-0.017 0.02,-0.039 0.02,-0.066c0,-0.027 -0.007,-0.048 -0.021,-0.065c-0.014,-0.016 -0.032,-0.024 -0.053,-0.024c-0.021,0 -0.039,0.008 -0.052,0.024c-0.013,0.017 -0.02,0.038 -0.02,0.065c0,0.027 0.007,0.048 0.021,0.065c0.014,0.017 0.031,0.025 0.052,0.025Zm0.429,0.439c-0.033,-0 -0.063,-0.008 -0.089,-0.024c-0.027,-0.015 -0.047,-0.036 -0.061,-0.063c-0.015,-0.027 -0.022,-0.056 -0.022,-0.089c0,-0.033 0.007,-0.062 0.022,-0.089c0.015,-0.027 0.035,-0.048 0.061,-0.064c0.026,-0.015 0.056,-0.023 0.089,-0.023c0.033,0 0.063,0.008 0.089,0.024c0.026,0.015 0.046,0.037 0.061,0.064c0.014,0.026 0.021,0.056 0.021,0.088c0,0.033 -0.007,0.063 -0.022,0.09c-0.015,0.027 -0.035,0.048 -0.061,0.063c-0.026,0.015 -0.055,0.023 -0.088,0.023Zm0,-0.087c0.021,0 0.039,-0.008 0.053,-0.024c0.013,-0.017 0.02,-0.038 0.02,-0.065c0,-0.027 -0.007,-0.048 -0.021,-0.065c-0.014,-0.017 -0.031,-0.025 -0.052,-0.025c-0.022,0 -0.04,0.008 -0.053,0.024c-0.014,0.017 -0.021,0.039 -0.021,0.066c0,0.027 0.007,0.048 0.021,0.065c0.014,0.016 0.032,0.024 0.053,0.024Z" style="fill:#ededed;fill-rule:nonzero;"/></g></g><g transform="matrix(4.16667,0,0,4.16667,1580.9,-95.8333)"><g transform="matrix(96,0,0,96,22.665,131.552)"><path d="M0.419,-0.687c0.041,0 0.077,0.007 0.108,0.022c0.032,0.015 0.057,0.035 0.075,0.062c0.017,0.026 0.026,0.055 0.026,0.088c0,0.034 -0.008,0.064 -0.025,0.09c-0.017,0.025 -0.041,0.046 -0.072,0.063c0.04,0.018 0.071,0.042 0.094,0.073c0.022,0.031 0.033,0.065 0.033,0.103c0,0.036 -0.01,0.068 -0.029,0.097c-0.019,0.028 -0.046,0.05 -0.08,0.066c-0.035,0.015 -0.074,0.023 -0.117,0.023l-0.361,0l0,-0.687l0.348,0Zm-0.036,0.277c0.027,0 0.049,-0.007 0.067,-0.021c0.017,-0.015 0.026,-0.033 0.026,-0.055c0,-0.021 -0.009,-0.039 -0.027,-0.053c-0.017,-0.015 -0.039,-0.022 -0.066,-0.022l-0.165,0l0,0.151l0.165,0Zm0.022,0.284c0.029,0 0.054,-0.008 0.073,-0.023c0.018,-0.016 0.028,-0.036 0.028,-0.061c0,-0.025 -0.01,-0.045 -0.028,-0.061c-0.019,-0.015 -0.044,-0.023 -0.073,-0.023l-0.187,0l0,0.168l0.187,0Z" style="fill:#61fbcf;fill-rule:nonzero;"/></g><g transform="matrix(96,0,0,96,89.193,131.552)"><path d="M0.095,0.17c0.136,-0.109 0.214,-0.261 0.214,-0.435c0,-0.175 -0.078,-0.326 -0.214,-0.435l-0.052,0.054c0.107,0.11 0.164,0.223 0.164,0.381c0,0.157 -0.057,0.271 -0.164,0.38l0.052,0.055Z" style="fill:#61fbcf;fill-rule:nonzero;"/></g><g transform="matrix(96,0,0,96,149.865,131.552)"><path d="M0.304,-0.316c0.04,-0.031 0.068,-0.059 0.084,-0.084c0.016,-0.025 0.024,-0.049 0.024,-0.074c0,-0.027 -0.01,-0.049 -0.03,-0.066c-0.02,-0.017 -0.045,-0.025 -0.074,-0.025c-0.032,0 -0.061,0.008 -0.088,0.023c-0.027,0.015 -0.053,0.038 -0.08,0.068l-0.094,-0.091c0.071,-0.089 0.159,-0.134 0.266,-0.134c0.048,-0 0.091,0.009 0.129,0.028c0.039,0.019 0.069,0.044 0.09,0.078c0.022,0.032 0.033,0.07 0.033,0.113c0,0.047 -0.012,0.09 -0.036,0.129c-0.024,0.038 -0.065,0.078 -0.124,0.121l-0.125,0.097l0.291,0l0,0.133l-0.519,0l-0,-0.12l0.253,-0.196Z" style="fill:#61fbcf;fill-rule:nonzero;"/></g><g transform="matrix(96,0,0,96,209.961,131.552)"><path d="M0.358,0.012c-0.06,0 -0.113,-0.015 -0.16,-0.046c-0.047,-0.03 -0.083,-0.072 -0.109,-0.126c-0.027,-0.054 -0.04,-0.115 -0.04,-0.184c0,-0.069 0.013,-0.13 0.04,-0.184c0.026,-0.053 0.062,-0.095 0.109,-0.125c0.047,-0.031 0.1,-0.046 0.16,-0.046c0.059,-0 0.112,0.015 0.159,0.046c0.047,0.03 0.083,0.072 0.11,0.126c0.026,0.053 0.039,0.114 0.039,0.183c0,0.069 -0.013,0.13 -0.039,0.184c-0.027,0.054 -0.063,0.096 -0.11,0.127c-0.047,0.03 -0.1,0.045 -0.159,0.045Zm0,-0.134c0.03,0 0.057,-0.009 0.081,-0.028c0.023,-0.019 0.042,-0.046 0.055,-0.079c0.013,-0.034 0.02,-0.072 0.02,-0.115c0,-0.043 -0.007,-0.081 -0.02,-0.114c-0.013,-0.033 -0.032,-0.059 -0.055,-0.078c-0.024,-0.019 -0.051,-0.029 -0.081,-0.029c-0.031,0 -0.058,0.01 -0.082,0.029c-0.024,0.019 -0.043,0.045 -0.056,0.078c-0.013,0.033 -0.02,0.071 -0.02,0.114c0,0.043 0.007,0.081 0.02,0.115c0.013,0.033 0.032,0.06 0.056,0.079c0.024,0.019 0.051,0.028 0.082,0.028Z" style="fill:#61fbcf;fill-rule:nonzero;"/></g><g transform="matrix(96,0,0,96,278.601,131.552)"><path d="M0.222,-0.342c-0.033,0 -0.063,-0.008 -0.089,-0.023c-0.026,-0.015 -0.046,-0.036 -0.061,-0.063c-0.014,-0.027 -0.021,-0.056 -0.021,-0.089c0,-0.033 0.007,-0.063 0.021,-0.09c0.015,-0.027 0.035,-0.048 0.062,-0.064c0.026,-0.015 0.056,-0.023 0.089,-0.023c0.034,0 0.064,0.008 0.09,0.024c0.025,0.015 0.045,0.036 0.059,0.063c0.015,0.027 0.022,0.056 0.022,0.089c-0,0.033 -0.007,0.063 -0.022,0.09c-0.015,0.027 -0.035,0.048 -0.061,0.063c-0.026,0.015 -0.056,0.023 -0.089,0.023Zm0.397,-0.345l0.116,0l-0.478,0.687l-0.116,-0l0.478,-0.687Zm-0.396,0.259c0.021,0 0.039,-0.008 0.053,-0.024c0.013,-0.017 0.02,-0.039 0.02,-0.066c0,-0.027 -0.007,-0.048 -0.021,-0.065c-0.014,-0.016 -0.032,-0.024 -0.053,-0.024c-0.021,0 -0.039,0.008 -0.052,0.024c-0.013,0.017 -0.02,0.038 -0.02,0.065c0,0.027 0.007,0.048 0.021,0.065c0.014,0.017 0.031,0.025 0.052,0.025Zm0.429,0.439c-0.033,-0 -0.063,-0.008 -0.089,-0.024c-0.027,-0.015 -0.047,-0.036 -0.061,-0.063c-0.015,-0.027 -0.022,-0.056 -0.022,-0.089c0,-0.033 0.007,-0.062 0.022,-0.089c0.015,-0.027 0.035,-0.048 0.061,-0.064c0.026,-0.015 0.056,-0.023 0.089,-0.023c0.033,0 0.063,0.008 0.089,0.024c0.026,0.015 0.046,0.037 0.061,0.064c0.014,0.026 0.021,0.056 0.021,0.088c0,0.033 -0.007,0.063 -0.022,0.09c-0.015,0.027 -0.035,0.048 -0.061,0.063c-0.026,0.015 -0.055,0.023 -0.088,0.023Zm0,-0.087c0.021,0 0.039,-0.008 0.053,-0.024c0.013,-0.017 0.02,-0.038 0.02,-0.065c0,-0.027 -0.007,-0.048 -0.021,-0.065c-0.014,-0.017 -0.031,-0.025 -0.052,-0.025c-0.022,0 -0.04,0.008 -0.053,0.024c-0.014,0.017 -0.021,0.039 -0.021,0.066c0,0.027 0.007,0.048 0.021,0.065c0.014,0.016 0.032,0.024 0.053,0.024Z" style="fill:#61fbcf;fill-rule:nonzero;"/></g></g><g transform="matrix(4.16667,0,0,4.16667,-41.6667,-47.9167)"><g transform="matrix(72,0,0,72,51.9193,111.664)"><path d="M0.584,-0l-0.048,-0.118l-0.298,0l-0.048,0.118l-0.165,-0l0.279,-0.687l0.166,0l0.279,0.687l-0.165,-0Zm-0.299,-0.233l0.204,0l-0.102,-0.25l-0.102,0.25Z" style="fill:#ededed;fill-rule:nonzero;"/></g><g transform="matrix(72,0,0,72,107.647,111.664)"><path d="M0.087,0.17c0.134,-0.112 0.209,-0.263 0.209,-0.435c0,-0.173 -0.075,-0.323 -0.209,-0.435l-0.04,0.042c0.109,0.112 0.169,0.229 0.169,0.393c0,0.163 -0.06,0.281 -0.169,0.392l0.04,0.043Z" style="fill:#ededed;fill-rule:nonzero;"/></g><g transform="matrix(72,0,0,72,152.431,111.664)"><path d="M0.209,-0.518l-0.117,0.073l-0.059,-0.104l0.206,-0.138l0.118,0l0,0.687l-0.148,-0l0,-0.518Z" style="fill:#ededed;fill-rule:nonzero;"/></g><g transform="matrix(72,0,0,72,183.967,111.664)"><path d="M0.358,0.012c-0.06,0 -0.113,-0.015 -0.16,-0.046c-0.047,-0.03 -0.083,-0.072 -0.109,-0.126c-0.027,-0.054 -0.04,-0.115 -0.04,-0.184c0,-0.069 0.013,-0.13 0.04,-0.184c0.026,-0.053 0.062,-0.095 0.109,-0.125c0.047,-0.031 0.1,-0.046 0.16,-0.046c0.059,-0 0.112,0.015 0.159,0.046c0.047,0.03 0.083,0.072 0.11,0.126c0.026,0.053 0.039,0.114 0.039,0.183c0,0.069 -0.013,0.13 -0.039,0.184c-0.027,0.054 -0.063,0.096 -0.11,0.127c-0.047,0.03 -0.1,0.045 -0.159,0.045Zm0,-0.134c0.03,0 0.057,-0.009 0.081,-0.028c0.023,-0.019 0.042,-0.046 0.055,-0.079c0.013,-0.034 0.02,-0.072 0.02,-0.115c0,-0.043 -0.007,-0.081 -0.02,-0.114c-0.013,-0.033 -0.032,-0.059 -0.055,-0.078c-0.024,-0.019 -0.051,-0.029 -0.081,-0.029c-0.031,0 -0.058,0.01 -0.082,0.029c-0.024,0.019 -0.043,0.045 -0.056,0.078c-0.013,0.033 -0.02,0.071 -0.02,0.114c0,0.043 0.007,0.081 0.02,0.115c0.013,0.033 0.032,0.06 0.056,0.079c0.024,0.019 0.051,0.028 0.082,0.028Z" style="fill:#ededed;fill-rule:nonzero;"/></g><g transform="matrix(72,0,0,72,235.447,111.664)"><path d="M0.222,-0.342c-0.033,0 -0.063,-0.008 -0.089,-0.023c-0.026,-0.015 -0.046,-0.036 -0.061,-0.063c-0.014,-0.027 -0.021,-0.056 -0.021,-0.089c0,-0.033 0.007,-0.063 0.021,-0.09c0.015,-0.027 0.035,-0.048 0.062,-0.064c0.026,-0.015 0.056,-0.023 0.089,-0.023c0.034,0 0.064,0.008 0.09,0.024c0.025,0.015 0.045,0.036 0.059,0.063c0.015,0.027 0.022,0.056 0.022,0.089c-0,0.033 -0.007,0.063 -0.022,0.09c-0.015,0.027 -0.035,0.048 -0.061,0.063c-0.026,0.015 -0.056,0.023 -0.089,0.023Zm0.397,-0.345l0.116,0l-0.478,0.687l-0.116,-0l0.478,-0.687Zm-0.396,0.259c0.021,0 0.039,-0.008 0.053,-0.024c0.013,-0.017 0.02,-0.039 0.02,-0.066c0,-0.027 -0.007,-0.048 -0.021,-0.065c-0.014,-0.016 -0.032,-0.024 -0.053,-0.024c-0.021,0 -0.039,0.008 -0.052,0.024c-0.013,0.017 -0.02,0.038 -0.02,0.065c0,0.027 0.007,0.048 0.021,0.065c0.014,0.017 0.031,0.025 0.052,0.025Zm0.429,0.439c-0.033,-0 -0.063,-0.008 -0.089,-0.024c-0.027,-0.015 -0.047,-0.036 -0.061,-0.063c-0.015,-0.027 -0.022,-0.056 -0.022,-0.089c0,-0.033 0.007,-0.062 0.022,-0.089c0.015,-0.027 0.035,-0.048 0.061,-0.064c0.026,-0.015 0.056,-0.023 0.089,-0.023c0.033,0 0.063,0.008 0.089,0.024c0.026,0.015 0.046,0.037 0.061,0.064c0.014,0.026 0.021,0.056 0.021,0.088c0,0.033 -0.007,0.063 -0.022,0.09c-0.015,0.027 -0.035,0.048 -0.061,0.063c-0.026,0.015 -0.055,0.023 -0.088,0.023Zm0,-0.087c0.021,0 0.039,-0.008 0.053,-0.024c0.013,-0.017 0.02,-0.038 0.02,-0.065c0,-0.027 -0.007,-0.048 -0.021,-0.065c-0.014,-0.017 -0.031,-0.025 -0.052,-0.025c-0.022,0 -0.04,0.008 -0.053,0.024c-0.014,0.017 -0.021,0.039 -0.021,0.066c0,0.027 0.007,0.048 0.021,0.065c0.014,0.016 0.032,0.024 0.053,0.024Z" style="fill:#ededed;fill-rule:nonzero;"/></g></g></g><g><ellipse cx="1511.49" cy="312.5" rx="46.413" ry="43.75" style="fill:#ededed;"/><ellipse cx="3255.17" cy="312.5" rx="46.413" ry="43.75" style="fill:#ededed;"/></g></g></g></svg>