<svg viewBox="0 0 1250 625" xmlns="http://www.w3.org/2000/svg" fill-rule="evenodd" clip-rule="evenodd" stroke-linecap="round" stroke-linejoin="round"><path fill="none" d="M0 0h1250v625H0z"/><path d="M108.184 358.22c11.5 0 19.916-7.167 20-16.75-.084-7.584-5.25-14.167-12.084-15.5v-.334c5.917-1.666 9.917-7.333 9.917-13.833 0-9.083-7.75-15.833-17.833-15.833-10.167 0-17.917 6.833-17.834 15.833-.083 6.5 3.917 12.167 9.917 13.833v.334c-7 1.416-12.167 7.916-12.083 15.5-.084 9.583 8.416 16.75 20 16.75zm0-5c-8.667 0-14.584-5-14.584-12.084 0-7.25 6.25-12.666 14.584-12.666 8.25 0 14.5 5.416 14.5 12.666 0 7.084-5.917 12.084-14.5 12.084zm0-29.5c-7.167 0-12.5-4.917-12.5-11.584 0-6.666 5.25-11.333 12.5-11.333 7.166 0 12.416 4.667 12.5 11.333-.084 6.667-5.417 11.584-12.5 11.584zM159.254 358.22c12.75 0 20.25-11.5 20.25-31.167 0-19.5-7.583-31.083-20.25-31.083-12.75 0-20.25 11.583-20.25 31.083 0 19.667 7.5 31.167 20.25 31.167zm0-5c-9.333 0-14.916-9.5-14.916-26.167 0-16.5 5.583-26.25 14.916-26.25 9.25 0 14.834 9.75 14.834 26.25 0 16.667-5.5 26.167-14.834 26.167zM191.059 328.886h25.25v5h-25.25zM247.567 295.97c-11.583-.084-19.167 9-19.167 19.75 0 11.416 8.334 19.75 18.5 19.75 6.5 0 12.25-3.5 15.084-8.834h.416c0 17-5.75 26.584-15.666 26.584-6.917 0-11.167-4.584-12.25-11.084h-5.417c1.083 9.5 7.833 16.084 17.667 16.084 13.916 0 20.833-14 20.833-33.75 0-21.25-10-28.417-20-28.5zm0 4.916c7.5 0 13.083 6.167 13.833 14.5.584 7.917-5.833 15.084-13.833 15.084-7.917 0-13.833-6.5-13.833-14.75 0-8.167 5.916-14.834 13.833-14.834zM298.963 358.22c12.75 0 20.25-11.5 20.25-31.167 0-19.5-7.583-31.083-20.25-31.083-12.75 0-20.25 11.583-20.25 31.083 0 19.667 7.5 31.167 20.25 31.167zm0-5c-9.333 0-14.917-9.5-14.917-26.167 0-16.5 5.584-26.25 14.917-26.25 9.25 0 14.833 9.75 14.833 26.25 0 16.667-5.5 26.167-14.833 26.167zM361.934 346.136c0 6.75 4.166 12.084 11.166 12.084s11.167-5.334 11.167-12.084v-2.75c0-6.75-4.167-12.083-11.167-12.083-6.916 0-11.166 5.333-11.166 12.083v2.75zm-30.584-35.333c0 6.75 4.25 12.083 11.25 12.083 6.917 0 11.084-5.333 11.084-12.083v-2.75c0-6.833-4.084-12.083-11.084-12.083-6.916 0-11.25 5.25-11.25 12.083v2.75zm2.75 46.583h5.25l41.667-60.583h-5.25L334.1 357.386zm32.5-14c0-4.5 2.25-8.083 6.5-8.083 4.417 0 6.5 3.583 6.5 8.083v2.75c0 4.5-2.166 8.084-6.5 8.084-4.333 0-6.5-3.584-6.5-8.084v-2.75zm-30.583-35.333c0-4.5 2.25-8.083 6.583-8.083 4.334 0 6.417 3.583 6.417 8.083v2.75c0 4.417-2.167 8-6.417 8-4.333 0-6.583-3.583-6.583-8v-2.75zM439.15 358.303c11.834 0 20.084-9.583 20.084-23.417 0-13.916-8.25-23.583-20.083-23.583-11.75 0-20 9.667-20 23.583 0 13.834 8.25 23.417 20 23.417zm0-4.833c-9.416 0-14.666-8.417-14.666-18.584 0-10.166 5.25-18.75 14.667-18.75 9.5 0 14.75 8.584 14.75 18.75 0 10.167-5.25 18.584-14.75 18.584zM489.476 311.97h-10.084v-5.584c0-4.75 2.584-7.416 7.167-7.416 1.75 0 2.833.333 3.583.583l1.584-4.583c-1.084-.417-2.834-1-5.667-1-6.167 0-11.917 4-11.917 11.333v6.667h-7v4.583h7v40.833h5.25v-40.833h10.084v-4.583zM523.317 374.47h5.334v-25.5h.5c1.75 4.166 5.666 9.333 13.916 9.333 11.167 0 18.75-9.417 18.75-23.5s-7.583-23.5-18.833-23.5c-8.333 0-12 5.25-13.833 9.333h-.667v-8.666h-5.167v62.5zm5.25-39.75c0-10.917 5-18.584 13.834-18.584 9.166 0 14.083 8.084 14.083 18.584 0 10.583-5 18.75-14.083 18.75-8.75 0-13.834-7.834-13.834-18.75zM591.742 358.303c9.084 0 15.25-4.917 17.334-10.583l-5-1.667c-1.75 4.083-5.917 7.417-12.334 7.417-9.333 0-15.166-6.75-15.416-17.25h33.833v-2.584c0-15.166-9.333-22.333-19.25-22.333-11.75 0-19.917 9.833-19.917 23.583 0 13.834 8 23.417 20.75 23.417zm-15.416-26.75c.583-8.417 6.333-15.417 14.583-15.417 8.167 0 13.917 6.667 13.917 15.417h-28.5zM639.376 358.303c11.833 0 20.083-9.583 20.083-23.417 0-13.916-8.25-23.583-20.083-23.583-11.75 0-20 9.667-20 23.583 0 13.834 8.25 23.417 20 23.417zm0-4.833c-9.417 0-14.667-8.417-14.667-18.584 0-10.166 5.25-18.75 14.667-18.75 9.5 0 14.75 8.584 14.75 18.75 0 10.167-5.25 18.584-14.75 18.584zM670.867 374.47h5.334v-25.5h.5c1.75 4.166 5.666 9.333 13.916 9.333 11.167 0 18.75-9.417 18.75-23.5s-7.583-23.5-18.833-23.5c-8.333 0-12 5.25-13.833 9.333h-.667v-8.666h-5.167v62.5zm5.25-39.75c0-10.917 5-18.584 13.834-18.584 9.166 0 14.083 8.084 14.083 18.584 0 10.583-5 18.75-14.083 18.75-8.75 0-13.834-7.834-13.834-18.75zM720.872 296.803h5.25v60.583h-5.25zM758.467 358.303c9.084 0 15.25-4.917 17.334-10.583l-5-1.667c-1.75 4.083-5.917 7.417-12.334 7.417-9.333 0-15.166-6.75-15.416-17.25h33.833v-2.584c0-15.166-9.333-22.333-19.25-22.333-11.75 0-19.917 9.833-19.917 23.583 0 13.834 8 23.417 20.75 23.417zm-15.416-26.75c.583-8.417 6.333-15.417 14.583-15.417 8.167 0 13.917 6.667 13.917 15.417h-28.5zM829.788 311.97h-9.583v-10.917h-5.333v10.917h-6.75v4.583h6.75v30.25c0 7.417 5.916 11.25 11.75 11.25 2.166 0 3.666-.417 4.666-.75l-1.166-4.833c-.75.25-1.667.416-3.084.416-3.583 0-6.833-1.666-6.833-7.333v-29h9.583v-4.583zM848.01 328.97c0-7.917 5.332-12.834 12.583-12.834 7 0 11.5 4.667 11.5 12.167v29.083h5.333V327.97c0-10.834-6.25-16.667-15.5-16.667-6.833 0-11.334 3.083-13.5 7.75h-.417v-22.25h-5.333v60.583h5.333V328.97zM904.047 358.386c7.583 0 12.166-4.166 14.083-8.166h.333v7.166h5.25v-30.833c0-12.25-9.166-15.25-16.166-15.25-6.917 0-14.084 2.75-17.167 10.167l5 1.833c1.667-3.917 5.75-7.25 12.333-7.25 6.917 0 10.75 3.75 10.75 10v1.083c0 3.417-4.25 3.5-11.916 4.417-10.25 1.25-17.5 4.167-17.5 13.167 0 8.75 6.75 13.666 15 13.666zm.666-4.75c-5.916 0-10.333-3.166-10.333-8.75 0-5.5 4.5-7.75 12.167-8.75 3.75-.416 10.333-1.25 11.916-2.75v6.584c0 7.416-5.333 13.666-13.75 13.666zM955.588 311.97h-9.583v-10.917h-5.333v10.917h-6.75v4.583h6.75v30.25c0 7.417 5.916 11.25 11.75 11.25 2.166 0 3.666-.417 4.666-.75l-1.166-4.833c-.75.25-1.667.416-3.084.416-3.583 0-6.833-1.666-6.833-7.333v-29h9.583v-4.583zM1021.551 321.886c-2.25-6.583-7.083-10.583-15.417-10.583-9.166 0-15.833 5.25-15.833 12.75 0 6.083 3.75 10.25 11.583 12.083l7.5 1.834c5 1.166 7.334 3.75 7.334 7.333 0 4.75-4.5 8.333-11.5 8.333-6.167 0-10.084-2.833-11.334-8.25l-5.083 1.25c1.583 7.584 7.583 11.667 16.5 11.667 10 0 16.917-5.5 16.917-13.167 0-6.083-3.834-10.166-11.417-12l-6.917-1.666c-5.666-1.417-8.25-3.75-8.25-7.667 0-4.583 4.417-7.833 10.5-7.833 6.167 0 9.167 3.25 10.584 7.333l4.833-1.417zM1052.118 358.303c9.083 0 15.25-4.917 17.333-10.583l-5-1.667c-1.75 4.083-5.917 7.417-12.333 7.417-9.334 0-15.167-6.75-15.417-17.25h33.833v-2.584c0-15.166-9.333-22.333-19.25-22.333-11.75 0-19.916 9.833-19.916 23.583 0 13.834 8 23.417 20.75 23.417zm-15.417-26.75c.583-8.417 6.333-15.417 14.583-15.417 8.167 0 13.917 6.667 13.917 15.417h-28.5zM1100.501 358.303c9.083 0 15.25-4.917 17.333-10.583l-5-1.667c-1.75 4.083-5.916 7.417-12.333 7.417-9.333 0-15.167-6.75-15.417-17.25h33.834v-2.584c0-15.166-9.334-22.333-19.25-22.333-11.75 0-19.917 9.833-19.917 23.583 0 13.834 8 23.417 20.75 23.417zm-15.417-26.75c.584-8.417 6.334-15.417 14.584-15.417 8.166 0 13.916 6.667 13.916 15.417h-28.5zM1130.468 357.386h5.333v-17.583l5.25-4.917 17.75 22.5h6.75l-20.583-26 19.416-19.416h-6.666l-21.334 21.333h-.583v-36.5h-5.333v60.583zM72.909 411.97h-9.584v-10.917h-5.333v10.917h-6.75v4.583h6.75v30.25c0 7.417 5.917 11.25 11.75 11.25 2.167 0 3.667-.417 4.667-.75l-1.167-4.833c-.75.25-1.667.416-3.083.416-3.584 0-6.834-1.666-6.834-7.333v-29h9.584v-4.583zM84.85 457.386h5.334v-29.333c0-6.75 5.166-11.667 12.25-11.667 1.416 0 2.666.25 3.166.334v-5.417c-.666 0-1.916-.083-2.75-.083-5.75 0-10.583 3.083-12.416 7.666h-.417v-6.916H84.85v45.416zM131.559 458.303c9.083 0 15.25-4.917 17.333-10.583l-5-1.667c-1.75 4.083-5.917 7.417-12.333 7.417-9.334 0-15.167-6.75-15.417-17.25h33.833v-2.584c0-15.166-9.333-22.333-19.25-22.333-11.75 0-19.916 9.833-19.916 23.583 0 13.834 8 23.417 20.75 23.417zm-15.417-26.75c.583-8.417 6.333-15.417 14.583-15.417 8.167 0 13.917 6.667 13.917 15.417h-28.5zM174.275 458.386c7.584 0 12.167-4.166 14.084-8.166h.333v7.166h5.25v-30.833c0-12.25-9.167-15.25-16.167-15.25-6.916 0-14.083 2.75-17.166 10.167l5 1.833c1.666-3.917 5.75-7.25 12.333-7.25 6.917 0 10.75 3.75 10.75 10v1.083c0 3.417-4.25 3.5-11.917 4.417-10.25 1.25-17.5 4.167-17.5 13.167 0 8.75 6.75 13.666 15 13.666zm.667-4.75c-5.917 0-10.333-3.166-10.333-8.75 0-5.5 4.5-7.75 12.166-8.75 3.75-.416 10.334-1.25 11.917-2.75v6.584c0 7.416-5.333 13.666-13.75 13.666zM225.813 411.97h-9.584v-10.917h-5.333v10.917h-6.75v4.583h6.75v30.25c0 7.417 5.917 11.25 11.75 11.25 2.167 0 3.667-.417 4.667-.75l-1.167-4.833c-.75.25-1.667.416-3.083.416-3.584 0-6.834-1.666-6.834-7.333v-29h9.584v-4.583zM237.755 457.386h5.333v-29.083c0-7.083 4.667-12.167 11-12.167 6.167 0 9.833 4.167 9.833 10.334v30.916h5.334V427.47c0-6.5 3.916-11.334 10.833-11.334 6 0 10 3.667 10 10.834v30.416h5.333V426.97c0-10.25-5.25-15.667-13.75-15.667-6.583 0-11.416 3.25-13.416 8.333h-.417c-2-5.166-6-8.333-12.25-8.333-6 0-10.417 2.917-12.167 7.583h-.5v-6.916h-5.166v45.416zM327.667 458.303c9.083 0 15.25-4.917 17.333-10.583l-5-1.667c-1.75 4.083-5.916 7.417-12.333 7.417-9.333 0-15.167-6.75-15.417-17.25h33.834v-2.584c0-15.166-9.334-22.333-19.25-22.333-11.75 0-19.917 9.833-19.917 23.583 0 13.834 8 23.417 20.75 23.417zm-15.417-26.75c.584-8.417 6.334-15.417 14.584-15.417 8.166 0 13.916 6.667 13.916 15.417h-28.5zM362.971 428.97c0-7.917 5.167-12.834 12.334-12.834 7 0 11.5 4.667 11.5 12.167v29.083h5.25V427.97c0-10.834-6.25-16.667-15.417-16.667-6.667 0-11.25 3.083-13.333 7.75h-.5v-7.083h-5.167v45.416h5.333V428.97zM423.846 411.97h-9.583v-10.917h-5.333v10.917h-6.75v4.583h6.75v30.25c0 7.417 5.916 11.25 11.75 11.25 2.166 0 3.666-.417 4.666-.75l-1.166-4.833c-.75.25-1.667.416-3.084.416-3.583 0-6.833-1.666-6.833-7.333v-29h9.583v-4.583zM471.98 458.386c7.583 0 12.166-4.166 14.083-8.166h.333v7.166h5.25v-30.833c0-12.25-9.166-15.25-16.166-15.25-6.917 0-14.084 2.75-17.167 10.167l5 1.833c1.667-3.917 5.75-7.25 12.333-7.25 6.917 0 10.75 3.75 10.75 10v1.083c0 3.417-4.25 3.5-11.916 4.417-10.25 1.25-17.5 4.167-17.5 13.167 0 8.75 6.75 13.666 15 13.666zm.666-4.75c-5.916 0-10.333-3.166-10.333-8.75 0-5.5 4.5-7.75 12.167-8.75 3.75-.416 10.333-1.25 11.916-2.75v6.584c0 7.416-5.333 13.666-13.75 13.666zM505.6 457.386h5.334v-29.333c0-6.75 5.167-11.667 12.25-11.667 1.417 0 2.667.25 3.167.334v-5.417c-.667 0-1.917-.083-2.75-.083-5.75 0-10.584 3.083-12.417 7.666h-.417v-6.916h-5.166v45.416zM552.309 458.303c9.083 0 15.25-4.917 17.333-10.583l-5-1.667c-1.75 4.083-5.916 7.417-12.333 7.417-9.333 0-15.167-6.75-15.417-17.25h33.834v-2.584c0-15.166-9.334-22.333-19.25-22.333-11.75 0-19.917 9.833-19.917 23.583 0 13.834 8 23.417 20.75 23.417zm-15.417-26.75c.584-8.417 6.334-15.417 14.584-15.417 8.166 0 13.916 6.667 13.916 15.417h-28.5zM636.296 421.886c-2.25-6.583-7.083-10.583-15.416-10.583-9.167 0-15.834 5.25-15.834 12.75 0 6.083 3.75 10.25 11.584 12.083l7.5 1.834c5 1.166 7.333 3.75 7.333 7.333 0 4.75-4.5 8.333-11.5 8.333-6.167 0-10.083-2.833-11.333-8.25l-5.084 1.25c1.584 7.584 7.584 11.667 16.5 11.667 10 0 16.917-5.5 16.917-13.167 0-6.083-3.833-10.166-11.417-12l-6.916-1.666c-5.667-1.417-8.25-3.75-8.25-7.667 0-4.583 4.416-7.833 10.5-7.833 6.166 0 9.166 3.25 10.583 7.333l4.833-1.417zM677.363 440.053c0 8.333-6.25 12.833-12.416 12.833-6.584 0-11.167-4.75-11.167-11.833V411.97h-5.333v29.416c0 10.75 6.25 16.584 15 16.584 6.666 0 11.416-3.417 13.5-8.167h.416v7.583h5.25V411.97h-5.25v28.083zM714.338 458.303c9.417 0 16.084-5.917 17.334-14.167h-5.334c-1.25 5.834-6 9.334-12 9.334-8.916 0-14.833-7.75-14.833-18.75s6.083-18.584 14.833-18.584c6.417 0 10.834 4.167 11.917 9.25h5.333c-1.25-8.416-8.25-14.083-17.416-14.083-11.834 0-20 9.917-20 23.583 0 13.5 7.916 23.417 20.166 23.417zM760.71 458.303c9.416 0 16.082-5.917 17.332-14.167h-5.333c-1.25 5.834-6 9.334-12 9.334-8.917 0-14.833-7.75-14.833-18.75s6.083-18.584 14.833-18.584c6.417 0 10.833 4.167 11.917 9.25h5.333c-1.25-8.416-8.25-14.083-17.417-14.083-11.833 0-20 9.917-20 23.583 0 13.5 7.917 23.417 20.167 23.417zM807.663 458.303c9.084 0 15.25-4.917 17.334-10.583l-5-1.667c-1.75 4.083-5.917 7.417-12.334 7.417-9.333 0-15.166-6.75-15.416-17.25h33.833v-2.584c0-15.166-9.333-22.333-19.25-22.333-11.75 0-19.917 9.833-19.917 23.583 0 13.834 8 23.417 20.75 23.417zm-15.416-26.75c.583-8.417 6.333-15.417 14.583-15.417 8.167 0 13.917 6.667 13.917 15.417h-28.5zM868.213 421.886c-2.25-6.583-7.083-10.583-15.416-10.583-9.167 0-15.834 5.25-15.834 12.75 0 6.083 3.75 10.25 11.584 12.083l7.5 1.834c5 1.166 7.333 3.75 7.333 7.333 0 4.75-4.5 8.333-11.5 8.333-6.167 0-10.083-2.833-11.333-8.25l-5.084 1.25c1.584 7.584 7.584 11.667 16.5 11.667 10 0 16.917-5.5 16.917-13.167 0-6.083-3.833-10.166-11.417-12l-6.916-1.666c-5.667-1.417-8.25-3.75-8.25-7.667 0-4.583 4.416-7.833 10.5-7.833 6.166 0 9.166 3.25 10.583 7.333l4.833-1.417zM910.947 421.886c-2.25-6.583-7.084-10.583-15.417-10.583-9.167 0-15.833 5.25-15.833 12.75 0 6.083 3.75 10.25 11.583 12.083l7.5 1.834c5 1.166 7.333 3.75 7.333 7.333 0 4.75-4.5 8.333-11.5 8.333-6.166 0-10.083-2.833-11.333-8.25l-5.083 1.25c1.583 7.584 7.583 11.667 16.5 11.667 10 0 16.916-5.5 16.916-13.167 0-6.083-3.833-10.166-11.416-12l-6.917-1.666c-5.667-1.417-8.25-3.75-8.25-7.667 0-4.583 4.417-7.833 10.5-7.833 6.167 0 9.167 3.25 10.583 7.333l4.834-1.417zM941.847 411.97h-10.084v-5.584c0-4.75 2.584-7.416 7.167-7.416 1.75 0 2.833.333 3.583.583l1.584-4.583c-1.084-.417-2.834-1-5.667-1-6.167 0-11.917 4-11.917 11.333v6.667h-7v4.583h7v40.833h5.25v-40.833h10.084v-4.583zM981.25 440.053c0 8.333-6.25 12.833-12.416 12.833-6.583 0-11.166-4.75-11.166-11.833V411.97h-5.334v29.416c0 10.75 6.25 16.584 15 16.584 6.667 0 11.417-3.417 13.5-8.167h.417v7.583h5.25V411.97h-5.25v28.083zM1000.393 396.803h5.25v60.583h-5.25zM1053.172 457.386h5.416l10.75-37.25h.584l10.75 37.25h5.417l13.75-45.416h-5.5l-10.834 37.333h-.416l-10.667-37.333h-5.583l-10.75 37.416h-.334l-10.75-37.416h-5.583l13.75 45.416zM1110.176 457.386h5.333V411.97h-5.333v45.416zm2.667-53.25c2.166 0 4-1.75 4-3.833s-1.834-3.75-4-3.75c-2.084 0-3.917 1.667-3.917 3.75s1.833 3.833 3.917 3.833zM1147.334 411.97h-9.583v-10.917h-5.333v10.917h-6.75v4.583h6.75v30.25c0 7.417 5.916 11.25 11.75 11.25 2.166 0 3.666-.417 4.666-.75l-1.166-4.833c-.75.25-1.667.416-3.084.416-3.583 0-6.833-1.666-6.833-7.333v-29h9.583v-4.583zM1165.555 428.97c0-7.917 5.334-12.834 12.584-12.834 7 0 11.5 4.667 11.5 12.167v29.083h5.333V427.97c0-10.834-6.25-16.667-15.5-16.667-6.833 0-11.333 3.083-13.5 7.75h-.417v-22.25h-5.333v60.583h5.333V428.97zM225.667 511.97h-9.583v-10.917h-5.334v10.917H204v4.583h6.75v30.25c0 7.417 5.917 11.25 11.75 11.25 2.167 0 3.667-.417 4.667-.75L226 552.47c-.75.25-1.666.416-3.083.416-3.583 0-6.833-1.666-6.833-7.333v-29h9.583v-4.583zM243.888 528.97c0-7.917 5.333-12.834 12.583-12.834 7 0 11.5 4.667 11.5 12.167v29.083h5.334V527.97c0-10.834-6.25-16.667-15.5-16.667-6.834 0-11.334 3.083-13.5 7.75h-.417v-22.25h-5.333v60.583h5.333V528.97zM305.592 558.303c9.083 0 15.25-4.917 17.333-10.583l-5-1.667c-1.75 4.083-5.916 7.417-12.333 7.417-9.333 0-15.167-6.75-15.417-17.25h33.834v-2.584c0-15.166-9.334-22.333-19.25-22.333-11.75 0-19.917 9.833-19.917 23.583 0 13.834 8 23.417 20.75 23.417zm-15.417-26.75c.584-8.417 6.334-15.417 14.584-15.417 8.166 0 13.916 6.667 13.916 15.417h-28.5zM335.559 557.386h5.333v-29.333c0-6.75 5.167-11.667 12.25-11.667 1.417 0 2.667.25 3.167.334v-5.417c-.667 0-1.917-.083-2.75-.083-5.75 0-10.584 3.083-12.417 7.666h-.417v-6.916h-5.166v45.416zM378.021 558.386c7.584 0 12.167-4.166 14.084-8.166h.333v7.166h5.25v-30.833c0-12.25-9.167-15.25-16.167-15.25-6.916 0-14.083 2.75-17.166 10.167l5 1.833c1.666-3.917 5.75-7.25 12.333-7.25 6.917 0 10.75 3.75 10.75 10v1.083c0 3.417-4.25 3.5-11.917 4.417-10.25 1.25-17.5 4.167-17.5 13.167 0 8.75 6.75 13.666 15 13.666zm.667-4.75c-5.917 0-10.333-3.166-10.333-8.75 0-5.5 4.5-7.75 12.166-8.75 3.75-.416 10.334-1.25 11.917-2.75v6.584c0 7.416-5.333 13.666-13.75 13.666zM411.559 574.47h5.333v-25.5h.5c1.75 4.166 5.667 9.333 13.917 9.333 11.167 0 18.75-9.417 18.75-23.5s-7.583-23.5-18.834-23.5c-8.333 0-12 5.25-13.833 9.333h-.667v-8.666h-5.166v62.5zm5.25-39.75c0-10.917 5-18.584 13.833-18.584 9.167 0 14.084 8.084 14.084 18.584 0 10.583-5 18.75-14.084 18.75-8.75 0-13.833-7.834-13.833-18.75zM463.576 574.47c5.75 0 9.916-3.334 12.333-9.917l19.25-52.583h-5.75l-13.5 38.5h-.417l-13.5-38.5h-5.666l16.666 45.833-1.583 4.667c-2.583 6.833-6.083 8.083-11.5 6.333l-1.417 4.667c1.084.5 3.084 1 5.084 1zM545.05 558.22c5.834 0 12.167-2.25 16.084-6.584l4.667 5.75h6.416l-7.916-9.75c2.25-2.916 4.75-7.666 5-15.166l-5.167-.084c-.25 4.25-1.333 8.084-3.083 11.25L546.3 525.47l4.5-3.334c5.333-4.083 8.25-8 8.25-13.5 0-6.833-5.417-12.5-13.834-12.5-8.25 0-14.083 5.667-14.083 13.417 0 5.333 3.167 9.333 7.833 15l-.5.417c-7.583 5.333-12 9.75-12 16.666 0 9.5 7.417 16.584 18.584 16.584zm12.917-10.5c-3.5 3.666-8.083 5.75-13.083 5.75-7.667 0-13-5.5-13-11.834 0-2.75 1.833-6.75 7.833-11.25l2.5-1.916 15.75 19.25zm-14.833-26.25c-3.833-4.667-6.583-8.167-6.583-11.917 0-4.417 3.833-8.75 8.833-8.75 4.917 0 8.25 3.75 8.25 7.833 0 4.25-2.25 6.75-6.417 9.75l-4.083 3.084zM603.967 557.386h5.334v-29.083c0-7.083 4.666-12.167 11-12.167 6.166 0 9.833 4.167 9.833 10.334v30.916h5.333V527.47c0-6.5 3.917-11.334 10.834-11.334 6 0 10 3.667 10 10.834v30.416h5.333V526.97c0-10.25-5.25-15.667-13.75-15.667-6.583 0-11.417 3.25-13.417 8.333h-.416c-2-5.166-6-8.333-12.25-8.333-6 0-10.417 2.917-12.167 7.583h-.5v-6.916h-5.167v45.416zM693.88 558.303c9.083 0 15.25-4.917 17.333-10.583l-5-1.667c-1.75 4.083-5.916 7.417-12.333 7.417-9.333 0-15.167-6.75-15.417-17.25h33.834v-2.584c0-15.166-9.334-22.333-19.25-22.333-11.75 0-19.917 9.833-19.917 23.583 0 13.834 8 23.417 20.75 23.417zm-15.417-26.75c.584-8.417 6.334-15.417 14.584-15.417 8.166 0 13.916 6.667 13.916 15.417h-28.5zM740.263 558.303c8.25 0 12.084-5.167 13.917-9.333h.667v8.416h5.166v-60.583h-5.333v23.833h-.5c-1.75-4.083-5.5-9.333-13.833-9.333-11.25 0-18.834 9.5-18.834 23.5 0 14.083 7.584 23.5 18.75 23.5zm.584-4.833c-9 0-14-8.167-14-18.75 0-10.5 4.916-18.584 14-18.584 8.916 0 13.916 7.667 13.916 18.584 0 10.916-5.083 18.75-13.916 18.75zM775.038 557.386h5.334V511.97h-5.334v45.416zm2.667-53.25c2.167 0 4-1.75 4-3.833s-1.833-3.75-4-3.75c-2.083 0-3.917 1.667-3.917 3.75s1.834 3.833 3.917 3.833zM812.113 558.303c9.417 0 16.084-5.917 17.334-14.167h-5.334c-1.25 5.834-6 9.334-12 9.334-8.916 0-14.833-7.75-14.833-18.75s6.083-18.584 14.833-18.584c6.417 0 10.834 4.167 11.917 9.25h5.333c-1.25-8.416-8.25-14.083-17.416-14.083-11.834 0-20 9.917-20 23.583 0 13.5 7.916 23.417 20.166 23.417zM853.4 558.386c7.584 0 12.168-4.166 14.084-8.166h.334v7.166h5.25v-30.833c0-12.25-9.167-15.25-16.167-15.25-6.917 0-14.084 2.75-17.167 10.167l5 1.833c1.667-3.917 5.75-7.25 12.334-7.25 6.916 0 10.75 3.75 10.75 10v1.083c0 3.417-4.25 3.5-11.917 4.417-10.25 1.25-17.5 4.167-17.5 13.167 0 8.75 6.75 13.666 15 13.666zm.667-4.75c-5.916 0-10.333-3.166-10.333-8.75 0-5.5 4.5-7.75 12.167-8.75 3.75-.416 10.333-1.25 11.917-2.75v6.584c0 7.416-5.334 13.666-13.75 13.666zM904.938 511.97h-9.583v-10.917h-5.333v10.917h-6.75v4.583h6.75v30.25c0 7.417 5.916 11.25 11.75 11.25 2.166 0 3.666-.417 4.666-.75l-1.166-4.833c-.75.25-1.667.416-3.084.416-3.583 0-6.833-1.666-6.833-7.333v-29h9.583v-4.583zM916.963 557.386h5.334V511.97h-5.334v45.416zm2.667-53.25c2.167 0 4-1.75 4-3.833s-1.833-3.75-4-3.75c-2.083 0-3.917 1.667-3.917 3.75s1.834 3.833 3.917 3.833zM953.872 558.303c11.833 0 20.083-9.583 20.083-23.417 0-13.916-8.25-23.583-20.083-23.583-11.75 0-20 9.667-20 23.583 0 13.834 8.25 23.417 20 23.417zm0-4.833c-9.417 0-14.667-8.417-14.667-18.584 0-10.166 5.25-18.75 14.667-18.75 9.5 0 14.75 8.584 14.75 18.75 0 10.167-5.25 18.584-14.75 18.584zM990.78 528.97c0-7.917 5.167-12.834 12.333-12.834 7 0 11.5 4.667 11.5 12.167v29.083h5.25V527.97c0-10.834-6.25-16.667-15.416-16.667-6.667 0-11.25 3.083-13.334 7.75h-.5v-7.083h-5.166v45.416h5.333V528.97zM1037.993 557.803c2.333 0 4.25-1.917 4.25-4.25s-1.917-4.25-4.25-4.25c-2.334 0-4.25 1.917-4.25 4.25s1.916 4.25 4.25 4.25z" fill="#fff" fill-rule="nonzero"/><g><path d="M928.777 92.018c-1.687-13.998-12.281-22.047-26.308-22.047-16.01 0-28.232 11.304-28.232 31.132 0 19.768 12.015 31.131 28.232 31.131 15.536 0 24.917-10.328 26.308-21.484l-12.962-.059c-1.213 6.48-6.303 10.209-13.139 10.209-9.204 0-15.448-6.836-15.448-19.797 0-12.607 6.156-19.798 15.537-19.798 7.013 0 12.073 4.054 13.05 10.713h12.962zM958.991 101.103c0-14.708-3.877-26.93-11.956-37.465h-12.044c6.185 7.813 10.89 23.438 10.89 37.465 0 13.997-4.705 29.622-10.89 37.434h12.044c8.079-10.535 11.956-22.727 11.956-37.434zM1013.65 132.234c13.672 0 23.496-7.309 23.526-17.134-.03-7.576-5.859-13.761-13.139-14.974v-.414c6.333-1.302 10.86-6.777 10.89-13.435-.03-9.381-9.026-16.306-21.277-16.306-12.281 0-21.277 6.925-21.248 16.306-.029 6.628 4.439 12.133 10.89 13.435v.414c-7.398 1.213-13.168 7.398-13.139 14.974-.029 9.825 9.825 17.134 23.497 17.134zm0-9.41c-6.096 0-10.18-3.611-10.18-8.73 0-5.238 4.291-9.026 10.18-9.026 5.859 0 10.18 3.788 10.18 9.026 0 5.149-4.114 8.73-10.18 8.73zm0-27.078c-5.12 0-8.76-3.344-8.76-8.138 0-4.735 3.581-7.99 8.76-7.99 5.149 0 8.759 3.285 8.759 7.99 0 4.794-3.669 8.138-8.759 8.138zM1069.88 132.737c15.24 0 24.444-11.6 24.473-31.575.03-19.827-9.292-31.191-24.473-31.191-15.211 0-24.444 11.334-24.473 31.191-.059 19.916 9.203 31.546 24.473 31.575zm0-10.624c-6.954 0-11.452-6.983-11.423-20.951.03-13.761 4.498-20.686 11.423-20.686 6.895 0 11.393 6.925 11.393 20.686.03 13.968-4.468 20.951-11.393 20.951zM1136.64 120.042c0 7.28 4.676 13.465 13.347 13.465 8.582 0 13.346-6.185 13.346-13.465v-3.196c0-7.339-4.646-13.465-13.346-13.465-8.552 0-13.347 6.185-13.347 13.465v3.196zm-31.102-34.683c0 7.28 4.676 13.406 13.317 13.406 8.612 0 13.376-6.067 13.376-13.406v-3.196c0-7.339-4.646-13.465-13.376-13.465-8.463 0-13.317 6.126-13.317 13.465v3.196zm3.936 46.047h7.724l41.667-60.606h-7.724l-41.667 60.606zm35.778-14.56c0-2.9 1.184-5.889 4.735-5.889 3.729 0 4.675 2.989 4.675 5.889v3.196c0 2.9-1.065 5.83-4.675 5.83s-4.735-3.019-4.735-5.83v-3.196zm-31.043-34.683c0-2.811 1.125-5.889 4.646-5.889 3.729 0 4.705 2.989 4.705 5.889v3.196c0 2.9-1.094 5.83-4.705 5.83-3.492 0-4.646-2.93-4.646-5.83v-3.196z" fill="#61dafb" fill-rule="nonzero"/><path d="M519.415 72.978c3.389 0 6.403.611 9.042 1.833 2.638 1.222 4.694 2.93 6.166 5.125 1.472 2.194 2.209 4.653 2.209 7.375 0 2.833-.695 5.319-2.084 7.458-1.389 2.139-3.389 3.903-6 5.292 3.334 1.5 5.931 3.528 7.792 6.083 1.861 2.556 2.792 5.417 2.792 8.584 0 3-.806 5.68-2.417 8.041-1.611 2.361-3.847 4.195-6.708 5.5-2.862 1.306-6.098 1.959-9.709 1.959h-30.083v-57.25h29zm-3 23.083c2.222 0 4.069-.597 5.542-1.792 1.472-1.194 2.208-2.708 2.208-4.541 0-1.778-.736-3.264-2.208-4.459-1.473-1.194-3.32-1.791-5.542-1.791h-13.75v12.583h13.75zm1.833 23.667c2.445 0 4.459-.653 6.042-1.959 1.583-1.305 2.375-2.986 2.375-5.041 0-2.056-.792-3.737-2.375-5.042-1.583-1.306-3.597-1.958-6.042-1.958h-15.583v14h15.583zM540.832 137.811c4.388-4.5 7.597-9.097 9.625-13.792 2.027-4.694 3.041-9.986 3.041-15.875 0-5.944-1.014-11.25-3.041-15.916-2.028-4.667-5.237-9.278-9.625-13.834l6.166-6.5c5.945 4.278 10.542 9.556 13.792 15.834 3.25 6.277 4.875 13.083 4.875 20.416 0 7.334-1.625 14.139-4.875 20.417-3.25 6.278-7.847 11.555-13.792 15.833l-6.166-6.583zM617.915 131.311c-8.833 0-16.195-2.945-22.083-8.833l7.166-8.667c2.222 2.111 4.625 3.764 7.209 4.958 2.583 1.195 5.208 1.792 7.875 1.792 3.111 0 5.611-.833 7.5-2.5 1.888-1.667 2.833-3.75 2.833-6.25s-.931-4.514-2.792-6.042c-1.861-1.528-4.347-2.291-7.458-2.291-4.167 0-7.889 1.25-11.167 3.75l-8.25-3.334.834-30.916h38v11.083h-26.584l-.416 12.667c3.333-2.334 7.083-3.5 11.25-3.5 3.444 0 6.597.722 9.458 2.166 2.861 1.445 5.153 3.528 6.875 6.25 1.722 2.722 2.583 5.972 2.583 9.75 0 4-.944 7.5-2.833 10.5-1.889 3-4.556 5.32-8 6.959-3.445 1.638-7.445 2.458-12 2.458zM674.665 131.228c-5 0-9.445-1.264-13.333-3.792-3.889-2.528-6.931-6.042-9.125-10.542-2.195-4.5-3.292-9.611-3.292-15.333 0-5.722 1.097-10.82 3.292-15.292 2.194-4.472 5.236-7.972 9.125-10.5 3.888-2.528 8.333-3.791 13.333-3.791 4.944 0 9.361 1.263 13.25 3.791 3.889 2.528 6.93 6.028 9.125 10.5 2.194 4.472 3.292 9.57 3.292 15.292 0 5.722-1.098 10.833-3.292 15.333-2.195 4.5-5.236 8.014-9.125 10.542-3.889 2.528-8.306 3.792-13.25 3.792zm0-11.167c2.5 0 4.736-.792 6.708-2.375 1.972-1.583 3.514-3.778 4.625-6.583 1.111-2.806 1.667-5.987 1.667-9.542 0-3.556-.556-6.722-1.667-9.5-1.111-2.778-2.653-4.958-4.625-6.542-1.972-1.583-4.208-2.375-6.708-2.375-2.556 0-4.833.792-6.833 2.375-2 1.584-3.556 3.764-4.667 6.542-1.111 2.778-1.667 5.944-1.667 9.5 0 3.555.556 6.736 1.667 9.542 1.111 2.805 2.667 5 4.667 6.583 2 1.583 4.277 2.375 6.833 2.375zM722.915 101.728c-2.778 0-5.25-.639-7.417-1.917a13.286 13.286 0 01-5.041-5.25c-1.195-2.222-1.792-4.695-1.792-7.417 0-2.722.597-5.208 1.792-7.458a13.401 13.401 0 015.083-5.333c2.194-1.306 4.68-1.959 7.458-1.959 2.834 0 5.32.653 7.459 1.959a13.678 13.678 0 015 5.291c1.194 2.222 1.791 4.695 1.791 7.417 0 2.722-.611 5.208-1.833 7.458s-2.917 4.014-5.083 5.292c-2.167 1.278-4.639 1.917-7.417 1.917zm33.083-28.75h9.667l-39.833 57.25h-9.667l39.833-57.25zm-33 21.583c1.778 0 3.236-.681 4.375-2.042 1.139-1.361 1.709-3.18 1.709-5.458 0-2.222-.584-4.014-1.75-5.375-1.167-1.361-2.639-2.042-4.417-2.042s-3.222.681-4.333 2.042c-1.112 1.361-1.667 3.153-1.667 5.375s.583 4.028 1.75 5.417c1.167 1.388 2.611 2.083 4.333 2.083zm35.75 36.583c-2.778 0-5.264-.653-7.458-1.958-2.195-1.306-3.889-3.07-5.083-5.292-1.195-2.222-1.792-4.694-1.792-7.416 0-2.723.611-5.195 1.833-7.417a13.886 13.886 0 015.084-5.292c2.166-1.305 4.638-1.958 7.416-1.958 2.778 0 5.25.653 7.417 1.958 2.167 1.306 3.847 3.084 5.042 5.334 1.194 2.25 1.791 4.708 1.791 7.375 0 2.722-.611 5.208-1.833 7.458s-2.917 4.014-5.083 5.292c-2.167 1.277-4.612 1.916-7.334 1.916zm0-7.25c1.778 0 3.236-.68 4.375-2.041 1.139-1.362 1.709-3.153 1.709-5.375 0-2.223-.584-4.028-1.75-5.417-1.167-1.389-2.612-2.083-4.334-2.083-1.833 0-3.319.68-4.458 2.041-1.139 1.361-1.708 3.181-1.708 5.459 0 2.222.583 4.013 1.75 5.375 1.166 1.361 2.638 2.041 4.416 2.041zM104.19 131.405l4.05-12.45h19.65l4.05 12.45h12.376L125.49 76.88h-14.85l-18.825 54.525h12.375zm6.976-21.45l6.675-20.625h.45l6.675 20.625h-13.8zM169.731 104.105c0-13.2-3.45-24.225-10.725-33.675h-10.875c5.625 7.05 9.825 21.075 9.825 33.675 0 12.6-4.2 26.7-9.825 33.75h10.875c7.275-9.525 10.725-20.475 10.725-33.75zM221.513 132.239c13.583 0 23.333-7.5 23.333-17.834 0-7.583-4.833-12.916-13.666-14.083v-.5c6.75-1.167 11.416-6 11.416-12.75 0-9.583-8.416-17.083-20.916-17.083-12.417 0-21.75 7.25-22 17.75h12.333c.167-4.667 4.333-7.584 9.583-7.584 5.167 0 8.667 3.084 8.667 7.667 0 4.75-4.083 8-9.917 8h-5.666v9.417h5.666c6.917 0 11.167 3.416 11.167 8.333 0 4.75-4.167 8.083-10 8.083-5.667 0-9.833-2.916-10.083-7.416h-12.917c.167 10.666 9.667 18 23 18zM277.8 132.739c15.25 0 24.417-11.584 24.5-31.584 0-19.833-9.333-31.166-24.5-31.166-15.166 0-24.417 11.333-24.5 31.166 0 19.917 9.25 31.584 24.5 31.584zm0-10.667c-6.916 0-11.416-6.917-11.416-20.917 0-13.75 4.5-20.666 11.416-20.666 6.917 0 11.417 6.916 11.417 20.666 0 14-4.5 20.917-11.417 20.917zM340.759 121.205c0 6.525 4.2 12.075 12 12.075 7.725 0 12-5.55 12-12.075v-2.925c0-6.6-4.125-12.075-12-12.075-7.65 0-12 5.55-12 12.075v2.925zM312.784 89.93c0 6.6 4.2 12.075 12 12.075 7.725 0 12-5.4 12-12.075v-2.85c0-6.6-4.2-12.075-12-12.075-7.65 0-12 5.475-12 12.075v2.85zm3.525 41.475h6.975l37.5-54.525h-6.975l-37.5 54.525zm32.175-13.125c0-2.625 1.125-5.25 4.275-5.25 3.375 0 4.2 2.625 4.2 5.25v2.925c0 2.55-.9 5.25-4.2 5.25-3.225 0-4.275-2.775-4.275-5.25v-2.925zm-27.9-31.2c0-2.55.975-5.325 4.2-5.325 3.3 0 4.2 2.7 4.2 5.325v2.85c0 2.625-.975 5.25-4.2 5.25-3.15 0-4.2-2.625-4.2-5.25v-2.85z" fill="#fff" fill-rule="nonzero"/><g fill="#fff"><ellipse cx="433.987" cy="102.746" rx="10.169" ry="12.287"/><ellipse cx="816.013" cy="102.746" rx="10.169" ry="12.287"/></g></g><path d="M866.384 132.423c79.113 35.5 130.589 16.627 160.983 10.197 42.421-8.942 151.203-16.438 159.583-7.268 7.673 8.409-83.718 3.71-110.984 31.106-17.518 17.579 46.155-17.446 52.609 8.542" fill="none" stroke="url(#_Linear1)" stroke-width="8.33"/><defs><linearGradient id="_Linear1" x1="0" y1="0" x2="1" y2="0" gradientUnits="userSpaceOnUse" gradientTransform="matrix(328.78 0 0 1519.61 862.943 164.495)"><stop offset="0" stop-color="#61dafb"/><stop offset=".5" stop-color="#DF4759"/><stop offset="1" stop-color="#fb8261"/></linearGradient></defs></svg>