<svg width="100%" height="100%" viewBox="0 0 4767 625" version="1.1" xmlns="http://www.w3.org/2000/svg" xmlns:xlink="http://www.w3.org/1999/xlink" xml:space="preserve" style="fill-rule:evenodd;clip-rule:evenodd;stroke-linejoin:round;stroke-miterlimit:2;"><rect id="Choices" x="0" y="0" width="4766.67" height="625" style="fill:none;"/><g><g><path d="M3712.02,439.025c-22.634,0 -43.75,-5.658 -63.35,-16.975c-19.6,-11.317 -35.234,-26.542 -46.9,-45.675c-11.667,-19.133 -17.5,-39.783 -17.5,-61.95c-0,-22.167 5.833,-42.758 17.5,-61.775c11.666,-19.017 27.3,-34.183 46.9,-45.5c19.6,-11.317 40.716,-16.975 63.35,-16.975c17.966,-0 35,3.558 51.1,10.675c16.1,7.117 30.1,16.975 42,29.575l-37.45,33.6c-7,-8.4 -15.342,-14.992 -25.025,-19.775c-9.684,-4.783 -19.892,-7.175 -30.625,-7.175c-13.067,0 -25.375,3.558 -36.925,10.675c-11.55,7.117 -20.709,16.625 -27.475,28.525c-6.767,11.9 -10.15,24.617 -10.15,38.15c-0,13.767 3.383,26.6 10.15,38.5c6.766,11.9 15.925,21.408 27.475,28.525c11.55,7.117 23.858,10.675 36.925,10.675c10.733,0 20.941,-2.392 30.625,-7.175c9.683,-4.783 18.141,-11.375 25.375,-19.775l37.1,33.6c-11.9,12.6 -25.959,22.458 -42.175,29.575c-16.217,7.117 -33.192,10.675 -50.925,10.675Z" style="fill:currentColor;fill-rule:nonzero;"/><path d="M3825.77,466.675c18.433,-18.9 31.908,-38.208 40.425,-57.925c8.516,-19.717 12.775,-41.942 12.775,-66.675c-0,-24.967 -4.259,-47.25 -12.775,-66.85c-8.517,-19.6 -21.992,-38.967 -40.425,-58.1l25.9,-27.3c24.966,17.967 44.275,40.133 57.925,66.5c13.65,26.367 20.475,54.95 20.475,85.75c-0,30.8 -6.825,59.383 -20.475,85.75c-13.65,26.367 -32.959,48.533 -57.925,66.5l-25.9,-27.65Z" style="fill:currentColor;fill-rule:nonzero;"/><path d="M4172.27,279.425c14.933,0 28.583,3.092 40.95,9.275c12.366,6.183 22.166,15.05 29.4,26.6c7.233,11.55 10.85,25.025 10.85,40.425c-0,16.1 -4.025,30.508 -12.075,43.225c-8.05,12.717 -19.075,22.575 -33.075,29.575c-14,7 -29.634,10.5 -46.9,10.5c-33.834,0 -59.325,-10.908 -76.475,-32.725c-17.15,-21.817 -25.725,-51.042 -25.725,-87.675c-0,-24.733 4.608,-46.842 13.825,-66.325c9.216,-19.483 22.166,-34.708 38.85,-45.675c16.683,-10.967 35.991,-16.45 57.925,-16.45c27.533,-0 52.033,8.633 73.5,25.9l-24.5,39.2c-7.7,-6.533 -15.4,-11.433 -23.1,-14.7c-7.7,-3.267 -16.334,-4.9 -25.9,-4.9c-15.4,-0 -28.117,5.95 -38.15,17.85c-10.034,11.9 -16.217,28.117 -18.55,48.65c7.233,-7.233 16.1,-12.833 26.6,-16.8c10.5,-3.967 21.35,-5.95 32.55,-5.95Zm-13.65,115.85c12.6,0 22.75,-3.675 30.45,-11.025c7.7,-7.35 11.55,-16.042 11.55,-26.075c-0,-11.2 -4.142,-20.125 -12.425,-26.775c-8.284,-6.65 -18.492,-9.975 -30.625,-9.975c-9.8,0 -18.492,2.45 -26.075,7.35c-7.584,4.9 -13.242,11.667 -16.975,20.3c2.333,15.167 7,26.658 14,34.475c7,7.817 17.033,11.725 30.1,11.725Z" style="fill:currentColor;fill-rule:nonzero;"/><path d="M4318.92,439.025c-9.1,0 -16.742,-3.15 -22.925,-9.45c-6.184,-6.3 -9.275,-14 -9.275,-23.1c-0,-8.4 3.15,-15.692 9.45,-21.875c6.3,-6.183 13.883,-9.275 22.75,-9.275c8.4,0 15.691,3.092 21.875,9.275c6.183,6.183 9.275,13.475 9.275,21.875c-0,8.867 -3.034,16.508 -9.1,22.925c-6.067,6.417 -13.417,9.625 -22.05,9.625Z" style="fill:currentColor;fill-rule:nonzero;"/><path d="M4476.77,439.375c-20.534,0 -39.084,-3.675 -55.65,-11.025c-16.567,-7.35 -30.217,-17.208 -40.95,-29.575l30.45,-34.3c8.633,9.1 18.433,16.1 29.4,21c10.966,4.9 22.516,7.35 34.65,7.35c12.833,0 23.041,-2.742 30.625,-8.225c7.583,-5.483 11.375,-12.542 11.375,-21.175c-0,-18.667 -15.634,-27.883 -46.9,-27.65l-27.65,0l-0,-44.1l27.65,0.35c13.3,-0 23.625,-2.333 30.975,-7c7.35,-4.667 11.025,-11.317 11.025,-19.95c-0,-8.633 -3.792,-15.575 -11.375,-20.825c-7.584,-5.25 -17.325,-7.875 -29.225,-7.875c-10.734,-0 -20.65,2.392 -29.75,7.175c-9.1,4.783 -17.967,11.725 -26.6,20.825l-29.75,-31.5c23.566,-28.467 54.016,-42.7 91.35,-42.7c17.733,-0 33.191,2.8 46.375,8.4c13.183,5.6 23.391,13.417 30.625,23.45c7.233,10.033 10.85,21.35 10.85,33.95c-0,13.533 -4.084,25.142 -12.25,34.825c-8.167,9.683 -19.134,16.508 -32.9,20.475c14.233,3.267 26.191,9.742 35.875,19.425c9.683,9.683 14.525,21.992 14.525,36.925c-0,13.767 -3.85,26.075 -11.55,36.925c-7.7,10.85 -18.55,19.367 -32.55,25.55c-14,6.183 -30.217,9.275 -48.65,9.275Z" style="fill:currentColor;fill-rule:nonzero;"/><path d="M2030.18,194.375c14.234,0 26.892,2.567 37.975,7.7c11.084,5.133 19.717,12.308 25.9,21.525c6.184,9.217 9.275,19.542 9.275,30.975c0,11.9 -2.916,22.342 -8.75,31.325c-5.833,8.983 -14.233,16.392 -25.2,22.225c14,6.3 24.909,14.817 32.725,25.55c7.817,10.733 11.725,22.75 11.725,36.05c0,12.6 -3.383,23.858 -10.15,33.775c-6.766,9.917 -16.158,17.617 -28.175,23.1c-12.016,5.483 -25.608,8.225 -40.775,8.225l-126.35,0l0,-240.45l121.8,0Zm-12.6,96.95c9.334,0 17.092,-2.508 23.275,-7.525c6.184,-5.017 9.275,-11.375 9.275,-19.075c0,-7.467 -3.091,-13.708 -9.275,-18.725c-6.183,-5.017 -13.941,-7.525 -23.275,-7.525l-57.75,-0l0,52.85l57.75,-0Zm7.7,99.4c10.267,-0 18.725,-2.742 25.375,-8.225c6.65,-5.483 9.975,-12.542 9.975,-21.175c0,-8.633 -3.325,-15.692 -9.975,-21.175c-6.65,-5.483 -15.108,-8.225 -25.375,-8.225l-65.45,0l0,58.8l65.45,-0Z" style="fill:currentColor;fill-rule:nonzero;"/><path d="M2120.13,466.675c18.434,-18.9 31.909,-38.208 40.425,-57.925c8.517,-19.717 12.775,-41.942 12.775,-66.675c0,-24.967 -4.258,-47.25 -12.775,-66.85c-8.516,-19.6 -21.991,-38.967 -40.425,-58.1l25.9,-27.3c24.967,17.967 44.275,40.133 57.925,66.5c13.65,26.367 20.475,54.95 20.475,85.75c0,30.8 -6.825,59.383 -20.475,85.75c-13.65,26.367 -32.958,48.533 -57.925,66.5l-25.9,-27.65Z" style="fill:currentColor;fill-rule:nonzero;"/><path d="M2443.88,439.375c-37.1,0 -68.016,-12.367 -92.75,-37.1l30.1,-36.4c9.334,8.867 19.425,15.808 30.275,20.825c10.85,5.017 21.875,7.525 33.075,7.525c13.067,0 23.567,-3.5 31.5,-10.5c7.934,-7 11.9,-15.75 11.9,-26.25c0,-10.5 -3.908,-18.958 -11.725,-25.375c-7.816,-6.417 -18.258,-9.625 -31.325,-9.625c-17.5,0 -33.133,5.25 -46.9,15.75l-34.65,-14l3.5,-129.85l159.6,0l0,46.55l-111.65,0l-1.75,53.2c14,-9.8 29.75,-14.7 47.25,-14.7c14.467,0 27.709,3.033 39.725,9.1c12.017,6.067 21.642,14.817 28.875,26.25c7.234,11.433 10.85,25.083 10.85,40.95c0,16.8 -3.966,31.5 -11.9,44.1c-7.933,12.6 -19.133,22.342 -33.6,29.225c-14.466,6.883 -31.266,10.325 -50.4,10.325Z" style="fill:currentColor;fill-rule:nonzero;"/><path d="M2606.63,439.025c-9.1,0 -16.741,-3.15 -22.925,-9.45c-6.183,-6.3 -9.275,-14 -9.275,-23.1c0,-8.4 3.15,-15.692 9.45,-21.875c6.3,-6.183 13.884,-9.275 22.75,-9.275c8.4,0 15.692,3.092 21.875,9.275c6.184,6.183 9.275,13.475 9.275,21.875c0,8.867 -3.033,16.508 -9.1,22.925c-6.066,6.417 -13.416,9.625 -22.05,9.625Z" style="fill:currentColor;fill-rule:nonzero;"/><path d="M2786.18,279.425c14.934,0 28.584,3.092 40.95,9.275c12.367,6.183 22.167,15.05 29.4,26.6c7.234,11.55 10.85,25.025 10.85,40.425c0,16.1 -4.025,30.508 -12.075,43.225c-8.05,12.717 -19.075,22.575 -33.075,29.575c-14,7 -29.633,10.5 -46.9,10.5c-33.833,0 -59.325,-10.908 -76.475,-32.725c-17.15,-21.817 -25.725,-51.042 -25.725,-87.675c0,-24.733 4.609,-46.842 13.825,-66.325c9.217,-19.483 22.167,-34.708 38.85,-45.675c16.684,-10.967 35.992,-16.45 57.925,-16.45c27.534,-0 52.034,8.633 73.5,25.9l-24.5,39.2c-7.7,-6.533 -15.4,-11.433 -23.1,-14.7c-7.7,-3.267 -16.333,-4.9 -25.9,-4.9c-15.4,-0 -28.116,5.95 -38.15,17.85c-10.033,11.9 -16.216,28.117 -18.55,48.65c7.234,-7.233 16.1,-12.833 26.6,-16.8c10.5,-3.967 21.35,-5.95 32.55,-5.95Zm-13.65,115.85c12.6,0 22.75,-3.675 30.45,-11.025c7.7,-7.35 11.55,-16.042 11.55,-26.075c0,-11.2 -4.141,-20.125 -12.425,-26.775c-8.283,-6.65 -18.491,-9.975 -30.625,-9.975c-9.8,0 -18.491,2.45 -26.075,7.35c-7.583,4.9 -13.241,11.667 -16.975,20.3c2.334,15.167 7,26.658 14,34.475c7,7.817 17.034,11.725 30.1,11.725Z" style="fill:currentColor;fill-rule:nonzero;"/><path d="M382.739,434.825l-16.8,-41.3l-104.3,0l-16.8,41.3l-57.75,0l97.65,-240.45l58.1,0l97.65,240.45l-57.75,0Zm-104.65,-81.55l71.4,0l-35.7,-87.5l-35.7,87.5Z" style="fill:currentColor;fill-rule:nonzero;"/><path d="M443.639,466.675c18.433,-18.9 31.908,-38.208 40.425,-57.925c8.516,-19.717 12.775,-41.942 12.775,-66.675c-0,-24.967 -4.259,-47.25 -12.775,-66.85c-8.517,-19.6 -21.992,-38.967 -40.425,-58.1l25.9,-27.3c24.966,17.967 44.275,40.133 57.925,66.5c13.65,26.367 20.475,54.95 20.475,85.75c-0,30.8 -6.825,59.383 -20.475,85.75c-13.65,26.367 -32.959,48.533 -57.925,66.5l-25.9,-27.65Z" style="fill:currentColor;fill-rule:nonzero;"/><path d="M768.439,439.375c-20.534,0 -39.084,-3.675 -55.65,-11.025c-16.567,-7.35 -30.217,-17.208 -40.95,-29.575l30.45,-34.3c8.633,9.1 18.433,16.1 29.4,21c10.966,4.9 22.516,7.35 34.65,7.35c12.833,0 23.041,-2.742 30.625,-8.225c7.583,-5.483 11.375,-12.542 11.375,-21.175c-0,-18.667 -15.634,-27.883 -46.9,-27.65l-27.65,0l-0,-44.1l27.65,0.35c13.3,-0 23.625,-2.333 30.975,-7c7.35,-4.667 11.025,-11.317 11.025,-19.95c-0,-8.633 -3.792,-15.575 -11.375,-20.825c-7.584,-5.25 -17.325,-7.875 -29.225,-7.875c-10.734,-0 -20.65,2.392 -29.75,7.175c-9.1,4.783 -17.967,11.725 -26.6,20.825l-29.75,-31.5c23.566,-28.467 54.016,-42.7 91.35,-42.7c17.733,-0 33.191,2.8 46.375,8.4c13.183,5.6 23.391,13.417 30.625,23.45c7.233,10.033 10.85,21.35 10.85,33.95c-0,13.533 -4.084,25.142 -12.25,34.825c-8.167,9.683 -19.134,16.508 -32.9,20.475c14.233,3.267 26.191,9.742 35.875,19.425c9.683,9.683 14.525,21.992 14.525,36.925c-0,13.767 -3.85,26.075 -11.55,36.925c-7.7,10.85 -18.55,19.367 -32.55,25.55c-14,6.183 -30.217,9.275 -48.65,9.275Z" style="fill:currentColor;fill-rule:nonzero;"/><path d="M928.039,439.025c-9.1,0 -16.742,-3.15 -22.925,-9.45c-6.184,-6.3 -9.275,-14 -9.275,-23.1c-0,-8.4 3.15,-15.692 9.45,-21.875c6.3,-6.183 13.883,-9.275 22.75,-9.275c8.4,0 15.691,3.092 21.875,9.275c6.183,6.183 9.275,13.475 9.275,21.875c-0,8.867 -3.034,16.508 -9.1,22.925c-6.067,6.417 -13.417,9.625 -22.05,9.625Z" style="fill:currentColor;fill-rule:nonzero;"/><path d="M1084.84,439.375c-37.1,0 -68.017,-12.367 -92.75,-37.1l30.1,-36.4c9.333,8.867 19.425,15.808 30.275,20.825c10.85,5.017 21.875,7.525 33.075,7.525c13.066,0 23.566,-3.5 31.5,-10.5c7.933,-7 11.9,-15.75 11.9,-26.25c-0,-10.5 -3.909,-18.958 -11.725,-25.375c-7.817,-6.417 -18.259,-9.625 -31.325,-9.625c-17.5,0 -33.134,5.25 -46.9,15.75l-34.65,-14l3.5,-129.85l159.6,0l-0,46.55l-111.65,0l-1.75,53.2c14,-9.8 29.75,-14.7 47.25,-14.7c14.466,0 27.708,3.033 39.725,9.1c12.016,6.067 21.641,14.817 28.875,26.25c7.233,11.433 10.85,25.083 10.85,40.95c-0,16.8 -3.967,31.5 -11.9,44.1c-7.934,12.6 -19.134,22.342 -33.6,29.225c-14.467,6.883 -31.267,10.325 -50.4,10.325Z" style="fill:currentColor;fill-rule:nonzero;"/></g><g><ellipse cx="1533.25" cy="312.5" rx="45.255" ry="43.75" style="fill:currentColor;"/><ellipse cx="3233.42" cy="312.5" rx="45.255" ry="43.75" style="fill:currentColor;"/></g></g><g transform="matrix(4.16667,0,0,4.16667,-229.167,-1145.83)"><g transform="matrix(18.0611,0,0,18.0611,88.9325,415.388)"><path d="M0.071,-0.687l0.147,0l0.332,0.444l0,-0.444l0.147,0l0,0.687l-0.147,-0l-0.332,-0.444l-0,0.444l-0.147,-0l-0,-0.687Z" style="fill:#fefffe;fill-rule:nonzero;"/></g><g transform="matrix(24,0,0,24,102.803,415.388)"><path d="M0.539,-0.517l0,0.517l-0.145,-0l0,-0.064c-0.016,0.023 -0.038,0.042 -0.065,0.056c-0.027,0.013 -0.058,0.02 -0.091,0.02c-0.037,0 -0.071,-0.009 -0.1,-0.026c-0.029,-0.016 -0.051,-0.04 -0.068,-0.071c-0.016,-0.03 -0.024,-0.064 -0.024,-0.103l-0,-0.329l0.141,0l-0,0.298c-0,0.032 0.009,0.058 0.027,0.078c0.018,0.02 0.042,0.03 0.071,0.03c0.031,0 0.056,-0.01 0.077,-0.029c0.021,-0.019 0.032,-0.043 0.032,-0.071l0,-0.306l0.145,0Z" style="fill:#fefffe;fill-rule:nonzero;"/></g><g transform="matrix(24,0,0,24,117.083,415.388)"><path d="M0.674,-0.529c0.036,0 0.069,0.008 0.097,0.025c0.029,0.017 0.052,0.041 0.069,0.072c0.017,0.031 0.025,0.065 0.025,0.103l-0,0.328l-0.14,-0l-0,-0.303c-0,-0.03 -0.009,-0.055 -0.026,-0.074c-0.016,-0.019 -0.038,-0.028 -0.065,-0.028c-0.029,0 -0.053,0.009 -0.072,0.026c-0.019,0.018 -0.028,0.041 -0.028,0.068l0,0.311l-0.141,-0l0,-0.303c0,-0.03 -0.009,-0.055 -0.026,-0.074c-0.016,-0.019 -0.038,-0.028 -0.065,-0.028c-0.029,0 -0.053,0.009 -0.072,0.026c-0.019,0.018 -0.028,0.041 -0.028,0.068l0,0.311l-0.146,-0l0,-0.516l0.146,-0l0,0.068c0.013,-0.025 0.031,-0.044 0.056,-0.059c0.025,-0.014 0.053,-0.021 0.085,-0.021c0.034,-0 0.065,0.008 0.093,0.023c0.029,0.016 0.051,0.038 0.068,0.066c0.015,-0.028 0.038,-0.05 0.068,-0.066c0.03,-0.015 0.064,-0.023 0.102,-0.023Z" style="fill:#fefffe;fill-rule:nonzero;"/></g><g transform="matrix(24,0,0,24,138.971,415.388)"><path d="M0.382,-0.529c0.045,0 0.086,0.012 0.122,0.035c0.036,0.022 0.064,0.054 0.085,0.095c0.02,0.042 0.03,0.088 0.03,0.14c0,0.052 -0.01,0.099 -0.03,0.14c-0.021,0.041 -0.049,0.073 -0.085,0.097c-0.036,0.022 -0.077,0.034 -0.122,0.034c-0.035,-0 -0.068,-0.008 -0.098,-0.023c-0.03,-0.015 -0.055,-0.035 -0.076,-0.062l0,0.073l-0.146,-0l-0,-0.699l0.146,0l0,0.255c0.021,-0.027 0.046,-0.047 0.076,-0.063c0.03,-0.014 0.063,-0.022 0.098,-0.022Zm-0.042,0.418c0.04,0 0.073,-0.014 0.098,-0.041c0.026,-0.028 0.039,-0.064 0.039,-0.107c0,-0.043 -0.013,-0.078 -0.039,-0.105c-0.025,-0.028 -0.058,-0.042 -0.098,-0.042c-0.039,0 -0.07,0.014 -0.095,0.041c-0.025,0.027 -0.037,0.063 -0.037,0.106c-0,0.043 0.012,0.079 0.037,0.107c0.025,0.027 0.056,0.041 0.095,0.041Z" style="fill:#fefffe;fill-rule:nonzero;"/></g><g transform="matrix(24,0,0,24,154.523,415.388)"><path d="M0.298,-0.101c0.023,-0 0.047,-0.005 0.072,-0.014c0.025,-0.009 0.045,-0.022 0.062,-0.037l0.082,0.084c-0.023,0.024 -0.054,0.043 -0.094,0.058c-0.039,0.015 -0.078,0.022 -0.117,0.022c-0.051,-0 -0.097,-0.012 -0.14,-0.035c-0.042,-0.023 -0.075,-0.056 -0.1,-0.097c-0.025,-0.041 -0.037,-0.088 -0.037,-0.14c-0,-0.051 0.012,-0.097 0.035,-0.138c0.024,-0.041 0.056,-0.073 0.097,-0.096c0.041,-0.023 0.087,-0.035 0.137,-0.035c0.053,0 0.1,0.012 0.139,0.037c0.039,0.025 0.069,0.06 0.09,0.107c0.021,0.047 0.031,0.102 0.031,0.165l-0.39,0c0.007,0.036 0.022,0.065 0.045,0.087c0.024,0.021 0.053,0.032 0.088,0.032Zm-0.002,-0.315c-0.032,-0 -0.06,0.01 -0.083,0.03c-0.023,0.019 -0.039,0.046 -0.047,0.079l0.249,0c-0.006,-0.033 -0.019,-0.06 -0.04,-0.08c-0.021,-0.019 -0.047,-0.029 -0.079,-0.029Z" style="fill:#fefffe;fill-rule:nonzero;"/></g><g transform="matrix(24,0,0,24,168.347,415.388)"><path d="M0.202,-0.42c0.017,-0.034 0.042,-0.061 0.073,-0.08c0.031,-0.019 0.065,-0.029 0.104,-0.029l0,0.123c-0.054,0 -0.097,0.014 -0.129,0.043c-0.032,0.029 -0.048,0.067 -0.048,0.116l0,0.247l-0.146,0l-0,-0.517l0.146,0l0,0.097Z" style="fill:#fefffe;fill-rule:nonzero;"/></g><g transform="matrix(24,0,0,24,177.443,415.388)"><path d="M0.254,0.012c-0.041,0 -0.083,-0.007 -0.124,-0.021c-0.041,-0.013 -0.078,-0.032 -0.109,-0.057l0.059,-0.092c0.027,0.019 0.057,0.035 0.089,0.046c0.031,0.011 0.061,0.017 0.088,0.017c0.024,-0 0.042,-0.004 0.055,-0.012c0.014,-0.009 0.02,-0.021 0.02,-0.036c0,-0.015 -0.008,-0.027 -0.025,-0.036c-0.016,-0.009 -0.04,-0.017 -0.073,-0.025c-0.042,-0.01 -0.076,-0.021 -0.102,-0.032c-0.027,-0.011 -0.048,-0.027 -0.063,-0.047c-0.016,-0.02 -0.024,-0.046 -0.024,-0.078c0,-0.033 0.008,-0.062 0.025,-0.087c0.017,-0.025 0.04,-0.045 0.071,-0.059c0.031,-0.015 0.066,-0.022 0.106,-0.022c0.036,0 0.072,0.006 0.106,0.017c0.036,0.011 0.068,0.027 0.098,0.047l-0.054,0.094c-0.025,-0.016 -0.05,-0.029 -0.076,-0.038c-0.027,-0.01 -0.051,-0.015 -0.074,-0.015c-0.02,0 -0.036,0.005 -0.049,0.014c-0.013,0.009 -0.02,0.02 -0.02,0.034c0,0.013 0.007,0.022 0.02,0.029c0.013,0.007 0.039,0.015 0.078,0.026c0.039,0.01 0.071,0.021 0.097,0.032c0.026,0.011 0.048,0.027 0.066,0.049c0.017,0.021 0.026,0.05 0.026,0.085c0,0.051 -0.019,0.091 -0.057,0.122c-0.039,0.03 -0.09,0.045 -0.154,0.045Z" style="fill:#fefffe;fill-rule:nonzero;"/></g><g transform="matrix(24,0,0,24,195.755,415.388)"><path d="M0.056,-0.517l0.146,0l0,0.517l-0.146,-0l0,-0.517Zm0.074,-0.071c-0.023,0 -0.042,-0.008 -0.057,-0.023c-0.015,-0.016 -0.023,-0.035 -0.023,-0.057c0,-0.021 0.008,-0.039 0.023,-0.054c0.016,-0.016 0.035,-0.024 0.057,-0.024c0.021,0 0.04,0.008 0.055,0.024c0.016,0.015 0.024,0.033 0.024,0.054c0,0.022 -0.008,0.041 -0.023,0.057c-0.016,0.015 -0.035,0.023 -0.056,0.023Z" style="fill:#fefffe;fill-rule:nonzero;"/></g><g transform="matrix(24,0,0,24,201.971,415.388)"><path d="M0.358,-0.529c0.037,0 0.07,0.008 0.099,0.025c0.029,0.017 0.051,0.041 0.068,0.072c0.016,0.03 0.024,0.064 0.024,0.103l0,0.329l-0.14,-0l0,-0.298c0,-0.032 -0.009,-0.058 -0.027,-0.078c-0.018,-0.02 -0.042,-0.03 -0.071,-0.03c-0.031,-0 -0.056,0.01 -0.077,0.029c-0.021,0.019 -0.032,0.043 -0.032,0.071l0,0.306l-0.146,-0l0,-0.517l0.146,-0l0,0.064c0.016,-0.023 0.038,-0.042 0.065,-0.056c0.027,-0.013 0.058,-0.02 0.091,-0.02Z" style="fill:#fefffe;fill-rule:nonzero;"/></g><g transform="matrix(24,0,0,24,222.803,415.388)"><path d="M0.369,-0.033c-0.015,0.013 -0.034,0.024 -0.055,0.033c-0.021,0.008 -0.042,0.012 -0.063,0.012c-0.046,0 -0.084,-0.015 -0.112,-0.044c-0.03,-0.029 -0.044,-0.067 -0.044,-0.114l-0,-0.253l-0.071,0l-0,-0.118l0.071,0l-0,-0.142l0.141,0l-0,0.142l0.112,0l0,0.118l-0.112,0l-0,0.23c-0,0.017 0.005,0.031 0.014,0.042c0.009,0.01 0.021,0.016 0.035,0.016c0.01,0 0.019,-0.002 0.028,-0.005c0.009,-0.002 0.016,-0.007 0.021,-0.012l0.035,0.095Z" style="fill:#fefffe;fill-rule:nonzero;"/></g><g transform="matrix(24,0,0,24,232.283,415.388)"><path d="M0.363,-0.529c0.037,0 0.071,0.008 0.1,0.025c0.029,0.017 0.051,0.041 0.068,0.072c0.016,0.03 0.024,0.064 0.024,0.103l0,0.329l-0.14,-0l0,-0.298c0,-0.032 -0.009,-0.058 -0.027,-0.078c-0.019,-0.02 -0.043,-0.03 -0.072,-0.03c-0.031,-0 -0.056,0.01 -0.077,0.029c-0.021,0.019 -0.031,0.043 -0.031,0.071l0,0.306l-0.146,-0l0,-0.699l0.146,-0l0,0.245c0.016,-0.023 0.038,-0.042 0.065,-0.055c0.027,-0.013 0.057,-0.02 0.09,-0.02Z" style="fill:#fefffe;fill-rule:nonzero;"/></g><g transform="matrix(24,0,0,24,246.707,415.388)"><path d="M0.298,-0.101c0.023,-0 0.047,-0.005 0.072,-0.014c0.025,-0.009 0.045,-0.022 0.062,-0.037l0.082,0.084c-0.023,0.024 -0.054,0.043 -0.094,0.058c-0.039,0.015 -0.078,0.022 -0.117,0.022c-0.051,-0 -0.097,-0.012 -0.14,-0.035c-0.042,-0.023 -0.075,-0.056 -0.1,-0.097c-0.025,-0.041 -0.037,-0.088 -0.037,-0.14c-0,-0.051 0.012,-0.097 0.035,-0.138c0.024,-0.041 0.056,-0.073 0.097,-0.096c0.041,-0.023 0.087,-0.035 0.137,-0.035c0.053,0 0.1,0.012 0.139,0.037c0.039,0.025 0.069,0.06 0.09,0.107c0.021,0.047 0.031,0.102 0.031,0.165l-0.39,0c0.007,0.036 0.022,0.065 0.045,0.087c0.024,0.021 0.053,0.032 0.088,0.032Zm-0.002,-0.315c-0.032,-0 -0.06,0.01 -0.083,0.03c-0.023,0.019 -0.039,0.046 -0.047,0.079l0.249,0c-0.006,-0.033 -0.019,-0.06 -0.04,-0.08c-0.021,-0.019 -0.047,-0.029 -0.079,-0.029Z" style="fill:#fefffe;fill-rule:nonzero;"/></g><g transform="matrix(24,0,0,24,267.059,415.388)"><path d="M0.674,-0.529c0.036,0 0.069,0.008 0.097,0.025c0.029,0.017 0.052,0.041 0.069,0.072c0.017,0.031 0.025,0.065 0.025,0.103l-0,0.328l-0.14,-0l-0,-0.303c-0,-0.03 -0.009,-0.055 -0.026,-0.074c-0.016,-0.019 -0.038,-0.028 -0.065,-0.028c-0.029,0 -0.053,0.009 -0.072,0.026c-0.019,0.018 -0.028,0.041 -0.028,0.068l0,0.311l-0.141,-0l0,-0.303c0,-0.03 -0.009,-0.055 -0.026,-0.074c-0.016,-0.019 -0.038,-0.028 -0.065,-0.028c-0.029,0 -0.053,0.009 -0.072,0.026c-0.019,0.018 -0.028,0.041 -0.028,0.068l0,0.311l-0.146,-0l0,-0.516l0.146,-0l0,0.068c0.013,-0.025 0.031,-0.044 0.056,-0.059c0.025,-0.014 0.053,-0.021 0.085,-0.021c0.034,-0 0.065,0.008 0.093,0.023c0.029,0.016 0.051,0.038 0.068,0.066c0.015,-0.028 0.038,-0.05 0.068,-0.066c0.03,-0.015 0.064,-0.023 0.102,-0.023Z" style="fill:#fefffe;fill-rule:nonzero;"/></g><g transform="matrix(24,0,0,24,288.947,415.388)"><path d="M0.056,-0.517l0.146,0l0,0.517l-0.146,-0l0,-0.517Zm0.074,-0.071c-0.023,0 -0.042,-0.008 -0.057,-0.023c-0.015,-0.016 -0.023,-0.035 -0.023,-0.057c0,-0.021 0.008,-0.039 0.023,-0.054c0.016,-0.016 0.035,-0.024 0.057,-0.024c0.021,0 0.04,0.008 0.055,0.024c0.016,0.015 0.024,0.033 0.024,0.054c0,0.022 -0.008,0.041 -0.023,0.057c-0.016,0.015 -0.035,0.023 -0.056,0.023Z" style="fill:#fefffe;fill-rule:nonzero;"/></g><g transform="matrix(24,0,0,24,295.163,415.388)"><rect x="0.062" y="-0.699" width="0.146" height="0.699" style="fill:#fefffe;fill-rule:nonzero;"/></g><g transform="matrix(24,0,0,24,301.643,415.388)"><rect x="0.062" y="-0.699" width="0.146" height="0.699" style="fill:#fefffe;fill-rule:nonzero;"/></g><g transform="matrix(24,0,0,24,308.123,415.388)"><path d="M0.056,-0.517l0.146,0l0,0.517l-0.146,-0l0,-0.517Zm0.074,-0.071c-0.023,0 -0.042,-0.008 -0.057,-0.023c-0.015,-0.016 -0.023,-0.035 -0.023,-0.057c0,-0.021 0.008,-0.039 0.023,-0.054c0.016,-0.016 0.035,-0.024 0.057,-0.024c0.021,0 0.04,0.008 0.055,0.024c0.016,0.015 0.024,0.033 0.024,0.054c0,0.022 -0.008,0.041 -0.023,0.057c-0.016,0.015 -0.035,0.023 -0.056,0.023Z" style="fill:#fefffe;fill-rule:nonzero;"/></g><g transform="matrix(24,0,0,24,314.339,415.388)"><path d="M0.307,0.012c-0.051,0 -0.098,-0.012 -0.141,-0.037c-0.043,-0.024 -0.078,-0.057 -0.103,-0.099c-0.025,-0.041 -0.038,-0.086 -0.038,-0.135c0,-0.049 0.013,-0.094 0.038,-0.135c0.025,-0.041 0.06,-0.074 0.103,-0.098c0.043,-0.025 0.09,-0.037 0.141,-0.037c0.051,0 0.098,0.012 0.141,0.037c0.043,0.024 0.078,0.057 0.103,0.098c0.025,0.041 0.038,0.086 0.038,0.135c-0,0.049 -0.013,0.094 -0.038,0.136c-0.025,0.041 -0.06,0.074 -0.103,0.099c-0.043,0.024 -0.09,0.036 -0.141,0.036Zm-0,-0.123c0.025,-0 0.049,-0.007 0.071,-0.02c0.022,-0.013 0.039,-0.031 0.052,-0.054c0.013,-0.023 0.019,-0.047 0.019,-0.074c-0,-0.027 -0.006,-0.051 -0.019,-0.074c-0.013,-0.022 -0.03,-0.04 -0.052,-0.053c-0.022,-0.013 -0.046,-0.02 -0.071,-0.02c-0.025,0 -0.049,0.007 -0.071,0.02c-0.022,0.013 -0.039,0.031 -0.052,0.053c-0.013,0.023 -0.019,0.047 -0.019,0.074c-0,0.027 0.006,0.051 0.019,0.074c0.013,0.023 0.03,0.041 0.052,0.054c0.022,0.013 0.046,0.02 0.071,0.02Z" style="fill:#fefffe;fill-rule:nonzero;"/></g><g transform="matrix(24,0,0,24,329.075,415.388)"><path d="M0.358,-0.529c0.037,0 0.07,0.008 0.099,0.025c0.029,0.017 0.051,0.041 0.068,0.072c0.016,0.03 0.024,0.064 0.024,0.103l0,0.329l-0.14,-0l0,-0.298c0,-0.032 -0.009,-0.058 -0.027,-0.078c-0.018,-0.02 -0.042,-0.03 -0.071,-0.03c-0.031,-0 -0.056,0.01 -0.077,0.029c-0.021,0.019 -0.032,0.043 -0.032,0.071l0,0.306l-0.146,-0l0,-0.517l0.146,-0l0,0.064c0.016,-0.023 0.038,-0.042 0.065,-0.056c0.027,-0.013 0.058,-0.02 0.091,-0.02Z" style="fill:#fefffe;fill-rule:nonzero;"/></g><g transform="matrix(24,0,0,24,343.283,415.388)"><path d="M0.254,0.012c-0.041,0 -0.083,-0.007 -0.124,-0.021c-0.041,-0.013 -0.078,-0.032 -0.109,-0.057l0.059,-0.092c0.027,0.019 0.057,0.035 0.089,0.046c0.031,0.011 0.061,0.017 0.088,0.017c0.024,-0 0.042,-0.004 0.055,-0.012c0.014,-0.009 0.02,-0.021 0.02,-0.036c0,-0.015 -0.008,-0.027 -0.025,-0.036c-0.016,-0.009 -0.04,-0.017 -0.073,-0.025c-0.042,-0.01 -0.076,-0.021 -0.102,-0.032c-0.027,-0.011 -0.048,-0.027 -0.063,-0.047c-0.016,-0.02 -0.024,-0.046 -0.024,-0.078c0,-0.033 0.008,-0.062 0.025,-0.087c0.017,-0.025 0.04,-0.045 0.071,-0.059c0.031,-0.015 0.066,-0.022 0.106,-0.022c0.036,0 0.072,0.006 0.106,0.017c0.036,0.011 0.068,0.027 0.098,0.047l-0.054,0.094c-0.025,-0.016 -0.05,-0.029 -0.076,-0.038c-0.027,-0.01 -0.051,-0.015 -0.074,-0.015c-0.02,0 -0.036,0.005 -0.049,0.014c-0.013,0.009 -0.02,0.02 -0.02,0.034c0,0.013 0.007,0.022 0.02,0.029c0.013,0.007 0.039,0.015 0.078,0.026c0.039,0.01 0.071,0.021 0.097,0.032c0.026,0.011 0.048,0.027 0.066,0.049c0.017,0.021 0.026,0.05 0.026,0.085c0,0.051 -0.019,0.091 -0.057,0.122c-0.039,0.03 -0.09,0.045 -0.154,0.045Z" style="fill:currentColor;fill-rule:nonzero;"/></g></g></svg>