<svg width="100%" height="100%" viewBox="0 0 4767 625" version="1.1" xmlns="http://www.w3.org/2000/svg" xmlns:xlink="http://www.w3.org/1999/xlink" xml:space="preserve" style="fill-rule:evenodd;clip-rule:evenodd;stroke-linejoin:round;stroke-miterlimit:2;"><rect id="Choices" x="0" y="0" width="4766.67" height="625" style="fill:none;"/><g><g><path d="M3593.02,439.025c-22.634,0 -43.75,-5.658 -63.35,-16.975c-19.6,-11.317 -35.234,-26.542 -46.9,-45.675c-11.667,-19.133 -17.5,-39.783 -17.5,-61.95c-0,-22.167 5.833,-42.758 17.5,-61.775c11.666,-19.017 27.3,-34.183 46.9,-45.5c19.6,-11.317 40.716,-16.975 63.35,-16.975c17.966,-0 35,3.558 51.1,10.675c16.1,7.117 30.1,16.975 42,29.575l-37.45,33.6c-7,-8.4 -15.342,-14.992 -25.025,-19.775c-9.684,-4.783 -19.892,-7.175 -30.625,-7.175c-13.067,0 -25.375,3.558 -36.925,10.675c-11.55,7.117 -20.709,16.625 -27.475,28.525c-6.767,11.9 -10.15,24.617 -10.15,38.15c-0,13.767 3.383,26.6 10.15,38.5c6.766,11.9 15.925,21.408 27.475,28.525c11.55,7.117 23.858,10.675 36.925,10.675c10.733,0 20.941,-2.392 30.625,-7.175c9.683,-4.783 18.141,-11.375 25.375,-19.775l37.1,33.6c-11.9,12.6 -25.959,22.458 -42.175,29.575c-16.217,7.117 -33.192,10.675 -50.925,10.675Z" style="fill:currentColor;fill-rule:nonzero;"/><path d="M3706.77,466.675c18.433,-18.9 31.908,-38.208 40.425,-57.925c8.516,-19.717 12.775,-41.942 12.775,-66.675c-0,-24.967 -4.259,-47.25 -12.775,-66.85c-8.517,-19.6 -21.992,-38.967 -40.425,-58.1l25.9,-27.3c24.966,17.967 44.275,40.133 57.925,66.5c13.65,26.367 20.475,54.95 20.475,85.75c-0,30.8 -6.825,59.383 -20.475,85.75c-13.65,26.367 -32.959,48.533 -57.925,66.5l-25.9,-27.65Z" style="fill:currentColor;fill-rule:nonzero;"/><path d="M4036.12,439.025c-17.967,0 -34.3,-2.742 -49,-8.225c-14.7,-5.483 -26.309,-13.417 -34.825,-23.8c-8.517,-10.383 -12.775,-22.575 -12.775,-36.575c-0,-13.767 4.258,-25.842 12.775,-36.225c8.516,-10.383 20.008,-18.258 34.475,-23.625c-12.6,-5.367 -22.575,-12.6 -29.925,-21.7c-7.35,-9.1 -11.025,-20.183 -11.025,-33.25c-0,-13.533 4.141,-25.258 12.425,-35.175c8.283,-9.917 19.308,-17.442 33.075,-22.575c13.766,-5.133 28.7,-7.7 44.8,-7.7c16.1,-0 31.091,2.625 44.975,7.875c13.883,5.25 24.908,12.833 33.075,22.75c8.166,9.917 12.25,21.525 12.25,34.825c-0,24.733 -13.65,43.05 -40.95,54.95c14.7,5.833 26.25,13.883 34.65,24.15c8.4,10.267 12.6,22.167 12.6,35.7c-0,14.233 -4.317,26.483 -12.95,36.75c-8.634,10.267 -20.3,18.142 -35,23.625c-14.7,5.483 -30.917,8.225 -48.65,8.225Zm-0,-146.3c10.266,-0.7 19.366,-3.85 27.3,-9.45c7.933,-5.6 11.9,-12.6 11.9,-21c-0,-8.167 -3.675,-14.992 -11.025,-20.475c-7.35,-5.483 -16.742,-8.225 -28.175,-8.225c-11.434,0 -20.825,2.742 -28.175,8.225c-7.35,5.483 -11.025,12.308 -11.025,20.475c-0,8.633 3.908,15.692 11.725,21.175c7.816,5.483 16.975,8.575 27.475,9.275Zm-0,102.9c12.833,0 23.45,-2.858 31.85,-8.575c8.4,-5.717 12.6,-13.125 12.6,-22.225c-0,-8.867 -4.609,-16.217 -13.825,-22.05c-9.217,-5.833 -19.425,-8.983 -30.625,-9.45c-11.2,0.467 -21.409,3.617 -30.625,9.45c-9.217,5.833 -13.825,13.183 -13.825,22.05c-0,9.1 4.141,16.508 12.425,22.225c8.283,5.717 18.958,8.575 32.025,8.575Z" style="fill:currentColor;fill-rule:nonzero;"/><path d="M4274.82,439.025c-21,0 -39.667,-5.308 -56,-15.925c-16.334,-10.617 -29.109,-25.375 -38.325,-44.275c-9.217,-18.9 -13.825,-40.367 -13.825,-64.4c-0,-24.033 4.608,-45.442 13.825,-64.225c9.216,-18.783 21.991,-33.483 38.325,-44.1c16.333,-10.617 35,-15.925 56,-15.925c20.766,-0 39.316,5.308 55.65,15.925c16.333,10.617 29.108,25.317 38.325,44.1c9.216,18.783 13.825,40.192 13.825,64.225c-0,24.033 -4.609,45.5 -13.825,64.4c-9.217,18.9 -21.992,33.658 -38.325,44.275c-16.334,10.617 -34.884,15.925 -55.65,15.925Zm-0,-46.9c10.5,0 19.891,-3.325 28.175,-9.975c8.283,-6.65 14.758,-15.867 19.425,-27.65c4.666,-11.783 7,-25.142 7,-40.075c-0,-14.933 -2.334,-28.233 -7,-39.9c-4.667,-11.667 -11.142,-20.825 -19.425,-27.475c-8.284,-6.65 -17.675,-9.975 -28.175,-9.975c-10.734,-0 -20.3,3.325 -28.7,9.975c-8.4,6.65 -14.934,15.808 -19.6,27.475c-4.667,11.667 -7,24.967 -7,39.9c-0,14.933 2.333,28.292 7,40.075c4.666,11.783 11.2,21 19.6,27.65c8.4,6.65 17.966,9.975 28.7,9.975Z" style="fill:currentColor;fill-rule:nonzero;"/><path d="M4477.47,315.125c-11.667,0 -22.05,-2.683 -31.15,-8.05c-9.1,-5.367 -16.159,-12.717 -21.175,-22.05c-5.017,-9.333 -7.525,-19.717 -7.525,-31.15c-0,-11.433 2.508,-21.875 7.525,-31.325c5.016,-9.45 12.133,-16.917 21.35,-22.4c9.216,-5.483 19.658,-8.225 31.325,-8.225c11.9,0 22.341,2.742 31.325,8.225c8.983,5.483 15.983,12.892 21,22.225c5.016,9.333 7.525,19.717 7.525,31.15c-0,11.433 -2.567,21.875 -7.7,31.325c-5.134,9.45 -12.25,16.858 -21.35,22.225c-9.1,5.367 -19.484,8.05 -31.15,8.05Zm138.95,-120.75l40.6,0l-167.3,240.45l-40.6,0l167.3,-240.45Zm-138.6,90.65c7.466,0 13.591,-2.858 18.375,-8.575c4.783,-5.717 7.175,-13.358 7.175,-22.925c-0,-9.333 -2.45,-16.858 -7.35,-22.575c-4.9,-5.717 -11.084,-8.575 -18.55,-8.575c-7.467,0 -13.534,2.858 -18.2,8.575c-4.667,5.717 -7,13.242 -7,22.575c-0,9.333 2.45,16.917 7.35,22.75c4.9,5.833 10.966,8.75 18.2,8.75Zm150.15,153.65c-11.667,0 -22.109,-2.742 -31.325,-8.225c-9.217,-5.483 -16.334,-12.892 -21.35,-22.225c-5.017,-9.333 -7.525,-19.717 -7.525,-31.15c-0,-11.433 2.566,-21.817 7.7,-31.15c5.133,-9.333 12.25,-16.742 21.35,-22.225c9.1,-5.483 19.483,-8.225 31.15,-8.225c11.666,0 22.05,2.742 31.15,8.225c9.1,5.483 16.158,12.95 21.175,22.4c5.016,9.45 7.525,19.775 7.525,30.975c-0,11.433 -2.567,21.875 -7.7,31.325c-5.134,9.45 -12.25,16.858 -21.35,22.225c-9.1,5.367 -19.367,8.05 -30.8,8.05Zm-0,-30.45c7.466,-0 13.591,-2.858 18.375,-8.575c4.783,-5.717 7.175,-13.242 7.175,-22.575c-0,-9.333 -2.45,-16.917 -7.35,-22.75c-4.9,-5.833 -10.967,-8.75 -18.2,-8.75c-7.7,-0 -13.942,2.858 -18.725,8.575c-4.784,5.717 -7.175,13.358 -7.175,22.925c-0,9.333 2.45,16.858 7.35,22.575c4.9,5.717 11.083,8.575 18.55,8.575Z" style="fill:currentColor;fill-rule:nonzero;"/><path d="M1915.21,194.375c14.234,0 26.892,2.567 37.975,7.7c11.084,5.133 19.717,12.308 25.9,21.525c6.184,9.217 9.275,19.542 9.275,30.975c0,11.9 -2.916,22.342 -8.75,31.325c-5.833,8.983 -14.233,16.392 -25.2,22.225c14,6.3 24.909,14.817 32.725,25.55c7.817,10.733 11.725,22.75 11.725,36.05c0,12.6 -3.383,23.858 -10.15,33.775c-6.766,9.917 -16.158,17.617 -28.175,23.1c-12.016,5.483 -25.608,8.225 -40.775,8.225l-126.35,0l0,-240.45l121.8,0Zm-12.6,96.95c9.334,0 17.092,-2.508 23.275,-7.525c6.184,-5.017 9.275,-11.375 9.275,-19.075c0,-7.467 -3.091,-13.708 -9.275,-18.725c-6.183,-5.017 -13.941,-7.525 -23.275,-7.525l-57.75,-0l0,52.85l57.75,-0Zm7.7,99.4c10.267,-0 18.725,-2.742 25.375,-8.225c6.65,-5.483 9.975,-12.542 9.975,-21.175c0,-8.633 -3.325,-15.692 -9.975,-21.175c-6.65,-5.483 -15.108,-8.225 -25.375,-8.225l-65.45,0l0,58.8l65.45,-0Z" style="fill:currentColor;fill-rule:nonzero;"/><path d="M2005.16,466.675c18.434,-18.9 31.909,-38.208 40.425,-57.925c8.517,-19.717 12.775,-41.942 12.775,-66.675c0,-24.967 -4.258,-47.25 -12.775,-66.85c-8.516,-19.6 -21.991,-38.967 -40.425,-58.1l25.9,-27.3c24.967,17.967 44.275,40.133 57.925,66.5c13.65,26.367 20.475,54.95 20.475,85.75c0,30.8 -6.825,59.383 -20.475,85.75c-13.65,26.367 -32.958,48.533 -57.925,66.5l-25.9,-27.65Z" style="fill:currentColor;fill-rule:nonzero;"/><path d="M2328.91,439.375c-37.1,0 -68.016,-12.367 -92.75,-37.1l30.1,-36.4c9.334,8.867 19.425,15.808 30.275,20.825c10.85,5.017 21.875,7.525 33.075,7.525c13.067,0 23.567,-3.5 31.5,-10.5c7.934,-7 11.9,-15.75 11.9,-26.25c0,-10.5 -3.908,-18.958 -11.725,-25.375c-7.816,-6.417 -18.258,-9.625 -31.325,-9.625c-17.5,0 -33.133,5.25 -46.9,15.75l-34.65,-14l3.5,-129.85l159.6,0l0,46.55l-111.65,0l-1.75,53.2c14,-9.8 29.75,-14.7 47.25,-14.7c14.467,0 27.709,3.033 39.725,9.1c12.017,6.067 21.642,14.817 28.875,26.25c7.234,11.433 10.85,25.083 10.85,40.95c0,16.8 -3.966,31.5 -11.9,44.1c-7.933,12.6 -19.133,22.342 -33.6,29.225c-14.466,6.883 -31.266,10.325 -50.4,10.325Z" style="fill:currentColor;fill-rule:nonzero;"/><path d="M2567.26,439.025c-21,0 -39.666,-5.308 -56,-15.925c-16.333,-10.617 -29.108,-25.375 -38.325,-44.275c-9.216,-18.9 -13.825,-40.367 -13.825,-64.4c0,-24.033 4.609,-45.442 13.825,-64.225c9.217,-18.783 21.992,-33.483 38.325,-44.1c16.334,-10.617 35,-15.925 56,-15.925c20.767,-0 39.317,5.308 55.65,15.925c16.334,10.617 29.109,25.317 38.325,44.1c9.217,18.783 13.825,40.192 13.825,64.225c0,24.033 -4.608,45.5 -13.825,64.4c-9.216,18.9 -21.991,33.658 -38.325,44.275c-16.333,10.617 -34.883,15.925 -55.65,15.925Zm0,-46.9c10.5,0 19.892,-3.325 28.175,-9.975c8.284,-6.65 14.759,-15.867 19.425,-27.65c4.667,-11.783 7,-25.142 7,-40.075c0,-14.933 -2.333,-28.233 -7,-39.9c-4.666,-11.667 -11.141,-20.825 -19.425,-27.475c-8.283,-6.65 -17.675,-9.975 -28.175,-9.975c-10.733,-0 -20.3,3.325 -28.7,9.975c-8.4,6.65 -14.933,15.808 -19.6,27.475c-4.666,11.667 -7,24.967 -7,39.9c0,14.933 2.334,28.292 7,40.075c4.667,11.783 11.2,21 19.6,27.65c8.4,6.65 17.967,9.975 28.7,9.975Z" style="fill:currentColor;fill-rule:nonzero;"/><path d="M2769.91,315.125c-11.666,0 -22.05,-2.683 -31.15,-8.05c-9.1,-5.367 -16.158,-12.717 -21.175,-22.05c-5.016,-9.333 -7.525,-19.717 -7.525,-31.15c0,-11.433 2.509,-21.875 7.525,-31.325c5.017,-9.45 12.134,-16.917 21.35,-22.4c9.217,-5.483 19.659,-8.225 31.325,-8.225c11.9,0 22.342,2.742 31.325,8.225c8.984,5.483 15.984,12.892 21,22.225c5.017,9.333 7.525,19.717 7.525,31.15c0,11.433 -2.566,21.875 -7.7,31.325c-5.133,9.45 -12.25,16.858 -21.35,22.225c-9.1,5.367 -19.483,8.05 -31.15,8.05Zm138.95,-120.75l40.6,0l-167.3,240.45l-40.6,0l167.3,-240.45Zm-138.6,90.65c7.467,0 13.592,-2.858 18.375,-8.575c4.784,-5.717 7.175,-13.358 7.175,-22.925c0,-9.333 -2.45,-16.858 -7.35,-22.575c-4.9,-5.717 -11.083,-8.575 -18.55,-8.575c-7.466,0 -13.533,2.858 -18.2,8.575c-4.666,5.717 -7,13.242 -7,22.575c0,9.333 2.45,16.917 7.35,22.75c4.9,5.833 10.967,8.75 18.2,8.75Zm150.15,153.65c-11.666,0 -22.108,-2.742 -31.325,-8.225c-9.216,-5.483 -16.333,-12.892 -21.35,-22.225c-5.016,-9.333 -7.525,-19.717 -7.525,-31.15c0,-11.433 2.567,-21.817 7.7,-31.15c5.134,-9.333 12.25,-16.742 21.35,-22.225c9.1,-5.483 19.484,-8.225 31.15,-8.225c11.667,0 22.05,2.742 31.15,8.225c9.1,5.483 16.159,12.95 21.175,22.4c5.017,9.45 7.525,19.775 7.525,30.975c0,11.433 -2.566,21.875 -7.7,31.325c-5.133,9.45 -12.25,16.858 -21.35,22.225c-9.1,5.367 -19.366,8.05 -30.8,8.05Zm0,-30.45c7.467,-0 13.592,-2.858 18.375,-8.575c4.784,-5.717 7.175,-13.242 7.175,-22.575c0,-9.333 -2.45,-16.917 -7.35,-22.75c-4.9,-5.833 -10.966,-8.75 -18.2,-8.75c-7.7,-0 -13.941,2.858 -18.725,8.575c-4.783,5.717 -7.175,13.358 -7.175,22.925c0,9.333 2.45,16.858 7.35,22.575c4.9,5.717 11.084,8.575 18.55,8.575Z" style="fill:currentColor;fill-rule:nonzero;"/><path d="M264.439,434.825l-16.8,-41.3l-104.3,0l-16.8,41.3l-57.75,0l97.65,-240.45l58.1,0l97.65,240.45l-57.75,0Zm-104.65,-81.55l71.4,0l-35.7,-87.5l-35.7,87.5Z" style="fill:currentColor;fill-rule:nonzero;"/><path d="M325.339,466.675c18.433,-18.9 31.908,-38.208 40.425,-57.925c8.516,-19.717 12.775,-41.942 12.775,-66.675c-0,-24.967 -4.259,-47.25 -12.775,-66.85c-8.517,-19.6 -21.992,-38.967 -40.425,-58.1l25.9,-27.3c24.966,17.967 44.275,40.133 57.925,66.5c13.65,26.367 20.475,54.95 20.475,85.75c-0,30.8 -6.825,59.383 -20.475,85.75c-13.65,26.367 -32.959,48.533 -57.925,66.5l-25.9,-27.65Z" style="fill:currentColor;fill-rule:nonzero;"/><path d="M650.139,439.375c-20.534,0 -39.084,-3.675 -55.65,-11.025c-16.567,-7.35 -30.217,-17.208 -40.95,-29.575l30.45,-34.3c8.633,9.1 18.433,16.1 29.4,21c10.966,4.9 22.516,7.35 34.65,7.35c12.833,0 23.041,-2.742 30.625,-8.225c7.583,-5.483 11.375,-12.542 11.375,-21.175c-0,-18.667 -15.634,-27.883 -46.9,-27.65l-27.65,0l-0,-44.1l27.65,0.35c13.3,-0 23.625,-2.333 30.975,-7c7.35,-4.667 11.025,-11.317 11.025,-19.95c-0,-8.633 -3.792,-15.575 -11.375,-20.825c-7.584,-5.25 -17.325,-7.875 -29.225,-7.875c-10.734,-0 -20.65,2.392 -29.75,7.175c-9.1,4.783 -17.967,11.725 -26.6,20.825l-29.75,-31.5c23.566,-28.467 54.016,-42.7 91.35,-42.7c17.733,-0 33.191,2.8 46.375,8.4c13.183,5.6 23.391,13.417 30.625,23.45c7.233,10.033 10.85,21.35 10.85,33.95c-0,13.533 -4.084,25.142 -12.25,34.825c-8.167,9.683 -19.134,16.508 -32.9,20.475c14.233,3.267 26.191,9.742 35.875,19.425c9.683,9.683 14.525,21.992 14.525,36.925c-0,13.767 -3.85,26.075 -11.55,36.925c-7.7,10.85 -18.55,19.367 -32.55,25.55c-14,6.183 -30.217,9.275 -48.65,9.275Z" style="fill:currentColor;fill-rule:nonzero;"/><path d="M885.339,439.025c-21,0 -39.667,-5.308 -56,-15.925c-16.334,-10.617 -29.109,-25.375 -38.325,-44.275c-9.217,-18.9 -13.825,-40.367 -13.825,-64.4c-0,-24.033 4.608,-45.442 13.825,-64.225c9.216,-18.783 21.991,-33.483 38.325,-44.1c16.333,-10.617 35,-15.925 56,-15.925c20.766,-0 39.316,5.308 55.65,15.925c16.333,10.617 29.108,25.317 38.325,44.1c9.216,18.783 13.825,40.192 13.825,64.225c-0,24.033 -4.609,45.5 -13.825,64.4c-9.217,18.9 -21.992,33.658 -38.325,44.275c-16.334,10.617 -34.884,15.925 -55.65,15.925Zm-0,-46.9c10.5,0 19.891,-3.325 28.175,-9.975c8.283,-6.65 14.758,-15.867 19.425,-27.65c4.666,-11.783 7,-25.142 7,-40.075c-0,-14.933 -2.334,-28.233 -7,-39.9c-4.667,-11.667 -11.142,-20.825 -19.425,-27.475c-8.284,-6.65 -17.675,-9.975 -28.175,-9.975c-10.734,-0 -20.3,3.325 -28.7,9.975c-8.4,6.65 -14.934,15.808 -19.6,27.475c-4.667,11.667 -7,24.967 -7,39.9c-0,14.933 2.333,28.292 7,40.075c4.666,11.783 11.2,21 19.6,27.65c8.4,6.65 17.966,9.975 28.7,9.975Z" style="fill:currentColor;fill-rule:nonzero;"/><path d="M1087.99,315.125c-11.667,0 -22.05,-2.683 -31.15,-8.05c-9.1,-5.367 -16.159,-12.717 -21.175,-22.05c-5.017,-9.333 -7.525,-19.717 -7.525,-31.15c-0,-11.433 2.508,-21.875 7.525,-31.325c5.016,-9.45 12.133,-16.917 21.35,-22.4c9.216,-5.483 19.658,-8.225 31.325,-8.225c11.9,0 22.341,2.742 31.325,8.225c8.983,5.483 15.983,12.892 21,22.225c5.016,9.333 7.525,19.717 7.525,31.15c-0,11.433 -2.567,21.875 -7.7,31.325c-5.134,9.45 -12.25,16.858 -21.35,22.225c-9.1,5.367 -19.484,8.05 -31.15,8.05Zm138.95,-120.75l40.6,0l-167.3,240.45l-40.6,0l167.3,-240.45Zm-138.6,90.65c7.466,0 13.591,-2.858 18.375,-8.575c4.783,-5.717 7.175,-13.358 7.175,-22.925c-0,-9.333 -2.45,-16.858 -7.35,-22.575c-4.9,-5.717 -11.084,-8.575 -18.55,-8.575c-7.467,0 -13.534,2.858 -18.2,8.575c-4.667,5.717 -7,13.242 -7,22.575c-0,9.333 2.45,16.917 7.35,22.75c4.9,5.833 10.966,8.75 18.2,8.75Zm150.15,153.65c-11.667,0 -22.109,-2.742 -31.325,-8.225c-9.217,-5.483 -16.334,-12.892 -21.35,-22.225c-5.017,-9.333 -7.525,-19.717 -7.525,-31.15c-0,-11.433 2.566,-21.817 7.7,-31.15c5.133,-9.333 12.25,-16.742 21.35,-22.225c9.1,-5.483 19.483,-8.225 31.15,-8.225c11.666,0 22.05,2.742 31.15,8.225c9.1,5.483 16.158,12.95 21.175,22.4c5.016,9.45 7.525,19.775 7.525,30.975c-0,11.433 -2.567,21.875 -7.7,31.325c-5.134,9.45 -12.25,16.858 -21.35,22.225c-9.1,5.367 -19.367,8.05 -30.8,8.05Zm-0,-30.45c7.466,-0 13.591,-2.858 18.375,-8.575c4.783,-5.717 7.175,-13.242 7.175,-22.575c-0,-9.333 -2.45,-16.917 -7.35,-22.75c-4.9,-5.833 -10.967,-8.75 -18.2,-8.75c-7.7,-0 -13.942,2.858 -18.725,8.575c-4.784,5.717 -7.175,13.358 -7.175,22.925c-0,9.333 2.45,16.858 7.35,22.575c4.9,5.717 11.083,8.575 18.55,8.575Z" style="fill:currentColor;fill-rule:nonzero;"/></g><g><ellipse cx="1533.25" cy="312.5" rx="45.255" ry="43.75" style="fill:currentColor;"/><ellipse cx="3233.42" cy="312.5" rx="45.255" ry="43.75" style="fill:currentColor;"/></g></g></svg>