<svg width="100%" height="100%" viewBox="0 0 4767 625" version="1.1" xmlns="http://www.w3.org/2000/svg" xmlns:xlink="http://www.w3.org/1999/xlink" xml:space="preserve" xmlns:serif="http://www.serif.com/" style="fill-rule:evenodd;clip-rule:evenodd;stroke-linejoin:round;stroke-miterlimit:2;"><rect id="Choices" x="0" y="0" width="4766.67" height="625" style="fill:none;"/><g><g><path d="M3696.79,439.025c-22.634,0 -43.75,-5.658 -63.35,-16.975c-19.6,-11.317 -35.234,-26.542 -46.9,-45.675c-11.667,-19.133 -17.5,-39.783 -17.5,-61.95c-0,-22.167 5.833,-42.758 17.5,-61.775c11.666,-19.017 27.3,-34.183 46.9,-45.5c19.6,-11.317 40.716,-16.975 63.35,-16.975c17.966,-0 35,3.558 51.1,10.675c16.1,7.117 30.1,16.975 42,29.575l-37.45,33.6c-7,-8.4 -15.342,-14.992 -25.025,-19.775c-9.684,-4.783 -19.892,-7.175 -30.625,-7.175c-13.067,0 -25.375,3.558 -36.925,10.675c-11.55,7.117 -20.709,16.625 -27.475,28.525c-6.767,11.9 -10.15,24.617 -10.15,38.15c-0,13.767 3.383,26.6 10.15,38.5c6.766,11.9 15.925,21.408 27.475,28.525c11.55,7.117 23.858,10.675 36.925,10.675c10.733,0 20.941,-2.392 30.625,-7.175c9.683,-4.783 18.141,-11.375 25.375,-19.775l37.1,33.6c-11.9,12.6 -25.959,22.458 -42.175,29.575c-16.217,7.117 -33.192,10.675 -50.925,10.675Z" style="fill:currentColor;fill-rule:nonzero;"/><path d="M3810.54,466.675c18.433,-18.9 31.908,-38.208 40.425,-57.925c8.516,-19.717 12.775,-41.942 12.775,-66.675c-0,-24.967 -4.259,-47.25 -12.775,-66.85c-8.517,-19.6 -21.992,-38.967 -40.425,-58.1l25.9,-27.3c24.966,17.967 44.275,40.133 57.925,66.5c13.65,26.367 20.475,54.95 20.475,85.75c-0,30.8 -6.825,59.383 -20.475,85.75c-13.65,26.367 -32.959,48.533 -57.925,66.5l-25.9,-27.65Z" style="fill:currentColor;fill-rule:nonzero;"/><path d="M4139.89,439.025c-17.967,0 -34.3,-2.742 -49,-8.225c-14.7,-5.483 -26.309,-13.417 -34.825,-23.8c-8.517,-10.383 -12.775,-22.575 -12.775,-36.575c-0,-13.767 4.258,-25.842 12.775,-36.225c8.516,-10.383 20.008,-18.258 34.475,-23.625c-12.6,-5.367 -22.575,-12.6 -29.925,-21.7c-7.35,-9.1 -11.025,-20.183 -11.025,-33.25c-0,-13.533 4.141,-25.258 12.425,-35.175c8.283,-9.917 19.308,-17.442 33.075,-22.575c13.766,-5.133 28.7,-7.7 44.8,-7.7c16.1,-0 31.091,2.625 44.975,7.875c13.883,5.25 24.908,12.833 33.075,22.75c8.166,9.917 12.25,21.525 12.25,34.825c-0,24.733 -13.65,43.05 -40.95,54.95c14.7,5.833 26.25,13.883 34.65,24.15c8.4,10.267 12.6,22.167 12.6,35.7c-0,14.233 -4.317,26.483 -12.95,36.75c-8.634,10.267 -20.3,18.142 -35,23.625c-14.7,5.483 -30.917,8.225 -48.65,8.225Zm-0,-146.3c10.266,-0.7 19.366,-3.85 27.3,-9.45c7.933,-5.6 11.9,-12.6 11.9,-21c-0,-8.167 -3.675,-14.992 -11.025,-20.475c-7.35,-5.483 -16.742,-8.225 -28.175,-8.225c-11.434,0 -20.825,2.742 -28.175,8.225c-7.35,5.483 -11.025,12.308 -11.025,20.475c-0,8.633 3.908,15.692 11.725,21.175c7.816,5.483 16.975,8.575 27.475,9.275Zm-0,102.9c12.833,0 23.45,-2.858 31.85,-8.575c8.4,-5.717 12.6,-13.125 12.6,-22.225c-0,-8.867 -4.609,-16.217 -13.825,-22.05c-9.217,-5.833 -19.425,-8.983 -30.625,-9.45c-11.2,0.467 -21.409,3.617 -30.625,9.45c-9.217,5.833 -13.825,13.183 -13.825,22.05c-0,9.1 4.141,16.508 12.425,22.225c8.283,5.717 18.958,8.575 32.025,8.575Z" style="fill:currentColor;fill-rule:nonzero;"/><path d="M4382.44,423.275c-5.367,4.667 -11.784,8.458 -19.25,11.375c-7.467,2.917 -14.817,4.375 -22.05,4.375c-16.1,0 -29.225,-5.133 -39.375,-15.4c-10.15,-10.267 -15.225,-23.567 -15.225,-39.9l-0,-88.55l-24.85,0l-0,-41.3l24.85,-0l-0,-49.7l49.35,-0l-0,49.7l39.2,-0l-0,41.3l-39.2,0l-0,80.5c-0,5.833 1.633,10.675 4.9,14.525c3.266,3.85 7.35,5.775 12.25,5.775c3.5,0 6.766,-0.525 9.8,-1.575c3.033,-1.05 5.483,-2.508 7.35,-4.375l12.25,33.25Z" style="fill:currentColor;fill-rule:nonzero;"/><path d="M4518.59,249.675c13.066,0 24.675,2.975 34.825,8.925c10.15,5.95 18.083,14.233 23.8,24.85c5.716,10.617 8.575,22.692 8.575,36.225l-0,115.15l-49,0l-0,-104.3c-0,-11.2 -3.209,-20.3 -9.625,-27.3c-6.417,-7 -14.759,-10.5 -25.025,-10.5c-10.734,0 -19.717,3.383 -26.95,10.15c-7.234,6.767 -10.85,15.05 -10.85,24.85l-0,107.1l-51.1,0l-0,-244.65l51.1,-0l-0,85.75c5.6,-8.167 13.183,-14.583 22.75,-19.25c9.566,-4.667 20.066,-7 31.5,-7Z" style="fill:currentColor;fill-rule:nonzero;"/><path d="M2012.51,194.375c14.234,0 26.892,2.567 37.975,7.7c11.084,5.133 19.717,12.308 25.9,21.525c6.184,9.217 9.275,19.542 9.275,30.975c0,11.9 -2.916,22.342 -8.75,31.325c-5.833,8.983 -14.233,16.392 -25.2,22.225c14,6.3 24.909,14.817 32.725,25.55c7.817,10.733 11.725,22.75 11.725,36.05c0,12.6 -3.383,23.858 -10.15,33.775c-6.766,9.917 -16.158,17.617 -28.175,23.1c-12.016,5.483 -25.608,8.225 -40.775,8.225l-126.35,0l0,-240.45l121.8,0Zm-12.6,96.95c9.334,0 17.092,-2.508 23.275,-7.525c6.184,-5.017 9.275,-11.375 9.275,-19.075c0,-7.467 -3.091,-13.708 -9.275,-18.725c-6.183,-5.017 -13.941,-7.525 -23.275,-7.525l-57.75,-0l0,52.85l57.75,-0Zm7.7,99.4c10.267,-0 18.725,-2.742 25.375,-8.225c6.65,-5.483 9.975,-12.542 9.975,-21.175c0,-8.633 -3.325,-15.692 -9.975,-21.175c-6.65,-5.483 -15.108,-8.225 -25.375,-8.225l-65.45,0l0,58.8l65.45,-0Z" style="fill:currentColor;fill-rule:nonzero;"/><path d="M2102.46,466.675c18.434,-18.9 31.909,-38.208 40.425,-57.925c8.517,-19.717 12.775,-41.942 12.775,-66.675c0,-24.967 -4.258,-47.25 -12.775,-66.85c-8.516,-19.6 -21.991,-38.967 -40.425,-58.1l25.9,-27.3c24.967,17.967 44.275,40.133 57.925,66.5c13.65,26.367 20.475,54.95 20.475,85.75c0,30.8 -6.825,59.383 -20.475,85.75c-13.65,26.367 -32.958,48.533 -57.925,66.5l-25.9,-27.65Z" style="fill:currentColor;fill-rule:nonzero;"/><path d="M2454.21,385.825l-117.25,0l-4.9,-39.9l111.3,-151.55l62.65,0l0,148.05l31.85,0l0,43.4l-31.85,0l0,49l-51.8,0l0,-49Zm0,-43.4l0,-93.1l-67.9,93.1l67.9,0Z" style="fill:currentColor;fill-rule:nonzero;"/><path d="M2681.36,423.275c-5.366,4.667 -11.783,8.458 -19.25,11.375c-7.466,2.917 -14.816,4.375 -22.05,4.375c-16.1,0 -29.225,-5.133 -39.375,-15.4c-10.15,-10.267 -15.225,-23.567 -15.225,-39.9l0,-88.55l-24.85,0l0,-41.3l24.85,-0l0,-49.7l49.35,-0l0,49.7l39.2,-0l0,41.3l-39.2,0l0,80.5c0,5.833 1.634,10.675 4.9,14.525c3.267,3.85 7.35,5.775 12.25,5.775c3.5,0 6.767,-0.525 9.8,-1.575c3.034,-1.05 5.484,-2.508 7.35,-4.375l12.25,33.25Z" style="fill:currentColor;fill-rule:nonzero;"/><path d="M2817.51,249.675c13.067,0 24.675,2.975 34.825,8.925c10.15,5.95 18.084,14.233 23.8,24.85c5.717,10.617 8.575,22.692 8.575,36.225l0,115.15l-49,0l0,-104.3c0,-11.2 -3.208,-20.3 -9.625,-27.3c-6.416,-7 -14.758,-10.5 -25.025,-10.5c-10.733,0 -19.716,3.383 -26.95,10.15c-7.233,6.767 -10.85,15.05 -10.85,24.85l0,107.1l-51.1,0l0,-244.65l51.1,-0l0,85.75c5.6,-8.167 13.184,-14.583 22.75,-19.25c9.567,-4.667 20.067,-7 31.5,-7Z" style="fill:currentColor;fill-rule:nonzero;"/><path d="M324.639,434.825l-16.8,-41.3l-104.3,0l-16.8,41.3l-57.75,0l97.65,-240.45l58.1,0l97.65,240.45l-57.75,0Zm-104.65,-81.55l71.4,0l-35.7,-87.5l-35.7,87.5Z" style="fill:currentColor;fill-rule:nonzero;"/><path d="M385.539,466.675c18.433,-18.9 31.908,-38.208 40.425,-57.925c8.516,-19.717 12.775,-41.942 12.775,-66.675c-0,-24.967 -4.259,-47.25 -12.775,-66.85c-8.517,-19.6 -21.992,-38.967 -40.425,-58.1l25.9,-27.3c24.966,17.967 44.275,40.133 57.925,66.5c13.65,26.367 20.475,54.95 20.475,85.75c-0,30.8 -6.825,59.383 -20.475,85.75c-13.65,26.367 -32.959,48.533 -57.925,66.5l-25.9,-27.65Z" style="fill:currentColor;fill-rule:nonzero;"/><path d="M707.889,324.225c14,-10.967 23.8,-20.767 29.4,-29.4c5.6,-8.633 8.4,-17.267 8.4,-25.9c-0,-9.567 -3.5,-17.267 -10.5,-23.1c-7,-5.833 -15.634,-8.75 -25.9,-8.75c-11.2,-0 -21.467,2.683 -30.8,8.05c-9.334,5.367 -18.667,13.3 -28,23.8l-32.9,-31.85c24.733,-31.267 55.766,-46.9 93.1,-46.9c16.8,-0 31.908,3.267 45.325,9.8c13.416,6.533 23.916,15.575 31.5,27.125c7.583,11.55 11.375,24.792 11.375,39.725c-0,16.567 -4.2,31.558 -12.6,44.975c-8.4,13.417 -22.867,27.592 -43.4,42.525l-43.75,33.95l101.85,-0l-0,46.55l-181.65,-0l-0,-42l88.55,-68.6Z" style="fill:currentColor;fill-rule:nonzero;"/><path d="M945.889,249.675c12.833,0 24.325,2.975 34.475,8.925c10.15,5.95 18.083,14.233 23.8,24.85c5.716,10.617 8.575,22.692 8.575,36.225l-0,115.15l-49,0l-0,-104.3c-0,-11.2 -3.15,-20.3 -9.45,-27.3c-6.3,-7 -14.584,-10.5 -24.85,-10.5c-10.734,0 -19.775,3.383 -27.125,10.15c-7.35,6.767 -11.025,15.05 -11.025,24.85l-0,107.1l-51.1,0l-0,-180.95l51.1,0l-0,22.4c5.6,-8.167 13.183,-14.642 22.75,-19.425c9.566,-4.783 20.183,-7.175 31.85,-7.175Z" style="fill:currentColor;fill-rule:nonzero;"/><path d="M1234.29,190.175l-0,244.65l-51.1,0l-0,-25.55c-7.234,9.333 -16.1,16.625 -26.6,21.875c-10.5,5.25 -21.934,7.875 -34.3,7.875c-15.867,0 -30.1,-4.025 -42.7,-12.075c-12.6,-8.05 -22.459,-19.308 -29.575,-33.775c-7.117,-14.467 -10.675,-30.8 -10.675,-49c-0,-18.2 3.558,-34.475 10.675,-48.825c7.116,-14.35 16.975,-25.55 29.575,-33.6c12.6,-8.05 26.833,-12.075 42.7,-12.075c12.366,-0 23.8,2.625 34.3,7.875c10.5,5.25 19.366,12.542 26.6,21.875l-0,-89.25l51.1,-0Zm-97.3,205.8c13.533,-0 24.616,-4.842 33.25,-14.525c8.633,-9.683 12.95,-22.108 12.95,-37.275c-0,-15.167 -4.317,-27.533 -12.95,-37.1c-8.634,-9.567 -19.717,-14.35 -33.25,-14.35c-14,-0 -25.492,4.842 -34.475,14.525c-8.984,9.683 -13.475,21.992 -13.475,36.925c-0,15.167 4.491,27.592 13.475,37.275c8.983,9.683 20.475,14.525 34.475,14.525Z" style="fill:currentColor;fill-rule:nonzero;"/></g><g><ellipse cx="1533.25" cy="312.5" rx="45.255" ry="43.75" style="fill:currentColor;"/><ellipse cx="3233.42" cy="312.5" rx="45.255" ry="43.75" style="fill:currentColor;"/></g></g></svg>