<svg width="100%" height="100%" viewBox="0 0 4767 625" version="1.1" xmlns="http://www.w3.org/2000/svg" xmlns:xlink="http://www.w3.org/1999/xlink" xml:space="preserve" xmlns:serif="http://www.serif.com/" style="fill-rule:evenodd;clip-rule:evenodd;stroke-linejoin:round;stroke-miterlimit:2;"><rect id="Choices" x="0" y="0" width="4766.67" height="625" style="fill:none;"/><g><g><path d="M3803.72,439.025c-22.634,0 -43.75,-5.658 -63.35,-16.975c-19.6,-11.317 -35.234,-26.542 -46.9,-45.675c-11.667,-19.133 -17.5,-39.783 -17.5,-61.95c-0,-22.167 5.833,-42.758 17.5,-61.775c11.666,-19.017 27.3,-34.183 46.9,-45.5c19.6,-11.317 40.716,-16.975 63.35,-16.975c17.966,-0 35,3.558 51.1,10.675c16.1,7.117 30.1,16.975 42,29.575l-37.45,33.6c-7,-8.4 -15.342,-14.992 -25.025,-19.775c-9.684,-4.783 -19.892,-7.175 -30.625,-7.175c-13.067,0 -25.375,3.558 -36.925,10.675c-11.55,7.117 -20.709,16.625 -27.475,28.525c-6.767,11.9 -10.15,24.617 -10.15,38.15c-0,13.767 3.383,26.6 10.15,38.5c6.766,11.9 15.925,21.408 27.475,28.525c11.55,7.117 23.858,10.675 36.925,10.675c10.733,0 20.941,-2.392 30.625,-7.175c9.683,-4.783 18.141,-11.375 25.375,-19.775l37.1,33.6c-11.9,12.6 -25.959,22.458 -42.175,29.575c-16.217,7.117 -33.192,10.675 -50.925,10.675Z" style="fill:#fff;fill-rule:nonzero;"/><path d="M3917.47,466.675c18.433,-18.9 31.908,-38.208 40.425,-57.925c8.516,-19.717 12.775,-41.942 12.775,-66.675c-0,-24.967 -4.259,-47.25 -12.775,-66.85c-8.517,-19.6 -21.992,-38.967 -40.425,-58.1l25.9,-27.3c24.966,17.967 44.275,40.133 57.925,66.5c13.65,26.367 20.475,54.95 20.475,85.75c-0,30.8 -6.825,59.383 -20.475,85.75c-13.65,26.367 -32.959,48.533 -57.925,66.5l-25.9,-27.65Z" style="fill:#fff;fill-rule:nonzero;"/><path d="M4206.57,253.525l-40.95,25.55l-20.65,-36.4l72.1,-48.3l41.3,0l-0,240.45l-51.8,0l-0,-181.3Z" style="fill:#fff;fill-rule:nonzero;"/><path d="M4420.42,240.925l-119,0l-0,-46.55l178.85,0l-0,38.85l-96.95,201.6l-58.45,0l95.55,-193.9Z" style="fill:#fff;fill-rule:nonzero;"/><path d="M2116.63,194.375c14.234,0 26.892,2.567 37.975,7.7c11.084,5.133 19.717,12.308 25.9,21.525c6.184,9.217 9.275,19.542 9.275,30.975c0,11.9 -2.916,22.342 -8.75,31.325c-5.833,8.983 -14.233,16.392 -25.2,22.225c14,6.3 24.909,14.817 32.725,25.55c7.817,10.733 11.725,22.75 11.725,36.05c0,12.6 -3.383,23.858 -10.15,33.775c-6.766,9.917 -16.158,17.617 -28.175,23.1c-12.016,5.483 -25.608,8.225 -40.775,8.225l-126.35,0l0,-240.45l121.8,0Zm-12.6,96.95c9.334,0 17.092,-2.508 23.275,-7.525c6.184,-5.017 9.275,-11.375 9.275,-19.075c0,-7.467 -3.091,-13.708 -9.275,-18.725c-6.183,-5.017 -13.941,-7.525 -23.275,-7.525l-57.75,-0l0,52.85l57.75,-0Zm7.7,99.4c10.267,-0 18.725,-2.742 25.375,-8.225c6.65,-5.483 9.975,-12.542 9.975,-21.175c0,-8.633 -3.325,-15.692 -9.975,-21.175c-6.65,-5.483 -15.108,-8.225 -25.375,-8.225l-65.45,0l0,58.8l65.45,-0Z" style="fill:#fff;fill-rule:nonzero;"/><path d="M2206.58,466.675c18.434,-18.9 31.909,-38.208 40.425,-57.925c8.517,-19.717 12.775,-41.942 12.775,-66.675c0,-24.967 -4.258,-47.25 -12.775,-66.85c-8.516,-19.6 -21.991,-38.967 -40.425,-58.1l25.9,-27.3c24.967,17.967 44.275,40.133 57.925,66.5c13.65,26.367 20.475,54.95 20.475,85.75c0,30.8 -6.825,59.383 -20.475,85.75c-13.65,26.367 -32.958,48.533 -57.925,66.5l-25.9,-27.65Z" style="fill:#fff;fill-rule:nonzero;"/><path d="M2495.68,253.525l-40.95,25.55l-20.65,-36.4l72.1,-48.3l41.3,0l0,240.45l-51.8,0l0,-181.3Z" style="fill:#fff;fill-rule:nonzero;"/><path d="M2683.63,439.375c-37.1,0 -68.016,-12.367 -92.75,-37.1l30.1,-36.4c9.334,8.867 19.425,15.808 30.275,20.825c10.85,5.017 21.875,7.525 33.075,7.525c13.067,0 23.567,-3.5 31.5,-10.5c7.934,-7 11.9,-15.75 11.9,-26.25c0,-10.5 -3.908,-18.958 -11.725,-25.375c-7.816,-6.417 -18.258,-9.625 -31.325,-9.625c-17.5,0 -33.133,5.25 -46.9,15.75l-34.65,-14l3.5,-129.85l159.6,0l0,46.55l-111.65,0l-1.75,53.2c14,-9.8 29.75,-14.7 47.25,-14.7c14.467,0 27.709,3.033 39.725,9.1c12.017,6.067 21.642,14.817 28.875,26.25c7.234,11.433 10.85,25.083 10.85,40.95c0,16.8 -3.966,31.5 -11.9,44.1c-7.933,12.6 -19.133,22.342 -33.6,29.225c-14.466,6.883 -31.266,10.325 -50.4,10.325Z" style="fill:#fff;fill-rule:nonzero;"/><path d="M465.864,434.825l-16.8,-41.3l-104.3,0l-16.8,41.3l-57.75,0l97.65,-240.45l58.1,0l97.65,240.45l-57.75,0Zm-104.65,-81.55l71.4,0l-35.7,-87.5l-35.7,87.5Z" style="fill:#fff;fill-rule:nonzero;"/><path d="M526.764,466.675c18.433,-18.9 31.908,-38.208 40.425,-57.925c8.516,-19.717 12.775,-41.942 12.775,-66.675c-0,-24.967 -4.259,-47.25 -12.775,-66.85c-8.517,-19.6 -21.992,-38.967 -40.425,-58.1l25.9,-27.3c24.966,17.967 44.275,40.133 57.925,66.5c13.65,26.367 20.475,54.95 20.475,85.75c-0,30.8 -6.825,59.383 -20.475,85.75c-13.65,26.367 -32.959,48.533 -57.925,66.5l-25.9,-27.65Z" style="fill:#fff;fill-rule:nonzero;"/><path d="M815.864,253.525l-40.95,25.55l-20.65,-36.4l72.1,-48.3l41.3,0l-0,240.45l-51.8,0l-0,-181.3Z" style="fill:#fff;fill-rule:nonzero;"/><path d="M1004.86,439.375c-20.534,0 -39.084,-3.675 -55.65,-11.025c-16.567,-7.35 -30.217,-17.208 -40.95,-29.575l30.45,-34.3c8.633,9.1 18.433,16.1 29.4,21c10.966,4.9 22.516,7.35 34.65,7.35c12.833,0 23.041,-2.742 30.625,-8.225c7.583,-5.483 11.375,-12.542 11.375,-21.175c-0,-18.667 -15.634,-27.883 -46.9,-27.65l-27.65,0l-0,-44.1l27.65,0.35c13.3,-0 23.625,-2.333 30.975,-7c7.35,-4.667 11.025,-11.317 11.025,-19.95c-0,-8.633 -3.792,-15.575 -11.375,-20.825c-7.584,-5.25 -17.325,-7.875 -29.225,-7.875c-10.734,-0 -20.65,2.392 -29.75,7.175c-9.1,4.783 -17.967,11.725 -26.6,20.825l-29.75,-31.5c23.566,-28.467 54.016,-42.7 91.35,-42.7c17.733,-0 33.191,2.8 46.375,8.4c13.183,5.6 23.391,13.417 30.625,23.45c7.233,10.033 10.85,21.35 10.85,33.95c-0,13.533 -4.084,25.142 -12.25,34.825c-8.167,9.683 -19.134,16.508 -32.9,20.475c14.233,3.267 26.191,9.742 35.875,19.425c9.683,9.683 14.525,21.992 14.525,36.925c-0,13.767 -3.85,26.075 -11.55,36.925c-7.7,10.85 -18.55,19.367 -32.55,25.55c-14,6.183 -30.217,9.275 -48.65,9.275Z" style="fill:#fff;fill-rule:nonzero;"/></g><g><ellipse cx="1533.25" cy="312.5" rx="45.255" ry="43.75" style="fill:#fff;"/><ellipse cx="3233.42" cy="312.5" rx="45.255" ry="43.75" style="fill:#fff;"/></g></g></svg>