<svg viewBox="0 0 1280 157" height="157" width="1280" xmlns="http://www.w3.org/2000/svg" fill="#fff" fill-rule="evenodd" clip-rule="evenodd" stroke-linejoin="round" stroke-miterlimit="2"><path d="M24.784 127.202l8.1-24.9h39.3l8.1 24.9h24.75l-37.65-109.05h-29.7L.034 127.202h24.75zm13.95-42.9l13.35-41.25h.9l13.35 41.25h-27.6zM156.146 127.202h77.7v-18.9h-45.75v-.75l15.9-15.6c22.5-20.4 28.5-30.6 28.5-43.05 0-18.9-15.45-32.25-38.85-32.25-22.95 0-38.7 13.65-38.55 35.1h21.9c-.15-10.5 6.45-16.8 16.5-16.8 9.6 0 16.65 5.85 16.65 15.45 0 8.7-5.25 14.7-15.15 24.3l-38.85 35.85v16.65zM267.417 38.402c0-7.05 4.2-10.95 9.9-10.95 5.55 0 9 3.75 9 10.2v34.95h16.2v-37.8c0-13.05-7.65-20.7-18.75-20.7-8.25 0-13.95 3.9-16.5 10.2h-.6v-9.6h-15.3v57.9h16.05v-34.2zM365.996 72.602V.002h-16.05v26.55h-.6c-1.8-3.45-5.55-9.15-15-9.15-12.15 0-22.5 9.3-22.5 28.05 0 18.45 10.05 28.2 22.5 28.2 9.45 0 13.2-5.85 15-8.85h.9v7.8h15.75zm-15.75-27.15c0 9.15-3.9 15.15-10.95 15.15-7.05 0-10.95-6.15-10.95-15.15 0-8.85 3.6-15.15 10.95-15.15 7.05 0 10.95 5.85 10.95 15.15zM422.696 6.952h8.875v149.5h-8.875zM491.767 127.202h46.65c24.45 0 37.5-12.75 37.5-30.15 0-16.2-11.55-25.95-24-26.4v-1.2c11.4-2.55 19.8-10.5 19.8-23.4 0-16.35-12.15-27.9-36.3-27.9h-43.65v109.05zm23.1-18.9v-28.95h19.35c11.1 0 18 6.45 18 15.45 0 8.1-5.7 13.5-18.6 13.5h-18.75zm0-44.55v-27h17.55c10.2 0 16.05 5.25 16.05 13.2 0 8.55-7.05 13.8-16.5 13.8h-17.1zM623.43 108.002h52.35v19.2h21.75v-19.2h13.8v-18.45h-13.8v-30.6h-21.15v30.6h-29.85v-.9l39.9-70.5h-22.2l-40.8 71.7v18.15zM753.767 18.152h-10.35V5.102h-16.2v13.05h-7.5v12.15h7.5v27.3c0 11.25 7.65 15.9 18.6 15.6 4.05-.15 6.6-.75 8.55-1.35l-2.7-12.15c-.6 0-2.1.45-3.6.45-3 0-4.65-1.05-4.65-4.95v-24.9h10.35v-12.15zM780.15 41.852c0-7.05 4.35-10.95 10.05-10.95 5.85 0 9.15 3.6 9.15 10.2v31.5h16.2v-34.35c0-13.2-7.5-20.85-18.9-20.85-8.85 0-13.8 4.35-16.2 10.35h-.75V.002h-15.6v72.6h16.05v-30.75zM871.93 6.952h8.875v149.5h-8.875zM1037.305 56.252c-3-25.2-22.05-39.6-47.4-39.6-28.8 0-50.85 20.25-50.85 55.95s21.75 56.1 50.85 56.1c28.05 0 44.85-18.6 47.4-38.7l-23.4-.15c-2.1 11.7-11.25 18.45-23.55 18.45-16.65 0-27.9-12.3-27.9-35.7 0-22.65 11.1-35.55 28.05-35.55 12.6 0 21.75 7.2 23.4 19.2h23.4zM1130.305 128.702c24.6 0 42.3-13.2 42.3-30.9 0-13.65-10.5-24.75-23.55-26.85v-.75c11.4-2.4 19.5-12.3 19.5-24.3 0-16.8-16.2-29.25-38.25-29.25s-38.25 12.45-38.25 29.25c0 12 7.95 21.9 19.65 24.3v.75c-13.35 2.1-23.7 13.2-23.7 26.85 0 17.7 17.7 30.9 42.3 30.9zm0-16.95c-10.95 0-18.3-6.45-18.3-15.75 0-9.45 7.65-16.2 18.3-16.2 10.5 0 18.3 6.75 18.3 16.2 0 9.3-7.35 15.75-18.3 15.75zm0-48.75c-9.3 0-15.75-6-15.75-14.7 0-8.4 6.45-14.25 15.75-14.25s15.75 5.85 15.75 14.25c0 8.7-6.6 14.7-15.75 14.7zM1217.28 18.152h-10.35V5.102h-16.2v13.05h-7.5v12.15h7.5v27.3c0 11.25 7.65 15.9 18.6 15.6 4.05-.15 6.6-.75 8.55-1.35l-2.7-12.15c-.6 0-2.1.45-3.6.45-3 0-4.65-1.05-4.65-4.95v-24.9h10.35v-12.15zM1243.664 41.852c0-7.05 4.35-10.95 10.05-10.95 5.85 0 9.15 3.6 9.15 10.2v31.5h16.2v-34.35c0-13.2-7.5-20.85-18.9-20.85-8.85 0-13.8 4.35-16.2 10.35h-.75V.002h-15.6v72.6h16.05v-30.75z" fill-rule="nonzero"/></svg>