<svg viewBox="0 0 1351 197" height="197" width="1351" xmlns="http://www.w3.org/2000/svg" fill-rule="evenodd" clip-rule="evenodd" stroke-linejoin="round" stroke-miterlimit="2"><path d="M24.78 120.206l8.1-24.9h39.3l8.1 24.9h24.75L67.38 11.156h-29.7L.03 120.206h24.75zm13.95-42.9l13.35-41.25h.9l13.35 41.25h-27.6zM192.597 121.706c24.45 0 42-13.5 42-32.1 0-13.65-8.7-23.25-24.6-25.35v-.9c12.15-2.1 20.55-10.8 20.55-22.95 0-17.25-15.15-30.75-37.65-30.75-22.35 0-39.15 13.05-39.6 31.95h22.2c.3-8.4 7.8-13.65 17.25-13.65 9.3 0 15.6 5.55 15.6 13.8 0 8.55-7.35 14.4-17.85 14.4h-10.2v16.95h10.2c12.45 0 20.1 6.15 20.1 15 0 8.55-7.5 14.55-18 14.55-10.2 0-17.7-5.25-18.15-13.35h-23.25c.3 19.2 17.4 32.4 41.4 32.4zM261.522 121.556c6.75 0 12.75-5.7 12.75-12.75s-6-12.75-12.75-12.75c-7.05 0-12.9 5.7-12.75 12.75-.15 7.05 5.7 12.75 12.75 12.75zM331.705 121.706c24.3 0 40.8-15.9 40.65-37.95.15-20.85-14.55-35.85-34.2-35.85-9.6 0-17.85 4.05-21.6 9.45h-.75l2.85-27.45h47.7v-18.75h-66.6l-5.25 57.45 20.55 3.75c3.3-4.5 9.75-7.35 16.2-7.35 11.1 0 18.9 7.95 18.9 19.35 0 11.4-7.65 19.2-18.45 19.2-9.3 0-16.65-5.7-17.1-14.25h-22.5c.45 18.9 16.95 32.4 39.6 32.4zM430.418-.044h8.875v149.5h-8.875zM499.489 120.206h46.65c24.45 0 37.5-12.75 37.5-30.15 0-16.2-11.55-25.95-24-26.4v-1.2c11.4-2.55 19.8-10.5 19.8-23.4 0-16.35-12.15-27.9-36.3-27.9h-43.65v109.05zm23.1-18.9v-28.95h19.35c11.1 0 18 6.45 18 15.45 0 8.1-5.7 13.5-18.6 13.5h-18.75zm0-44.55v-27h17.55c10.2 0 16.05 5.25 16.05 13.2 0 8.55-7.05 13.8-16.5 13.8h-17.1zM675.106 121.706c24.15 0 40.8-15.9 40.65-37.95.15-20.85-14.55-35.85-34.2-35.85-9.6 0-17.85 4.05-21.6 9.45h-.75l2.85-27.45h47.7v-18.75h-66.75l-5.1 57.45 20.55 3.75c3.3-4.5 9.75-7.35 16.2-7.35 11.1 0 18.9 7.95 18.9 19.35 0 11.4-7.65 19.2-18.45 19.2-9.3 0-16.65-5.7-17.1-14.25h-22.5c.45 18.9 16.95 32.4 39.6 32.4zM749.026 121.556c6.9 0 12.75-5.7 12.9-12.75-.15-7.05-6-12.75-12.9-12.75-7.05 0-12.75 5.7-12.75 12.75s5.7 12.75 12.75 12.75zM779.564 84.806c-.15 23.25 18 36.9 39.9 36.9 22.5 0 39.15-15 39.15-37.35 0-21-14.55-35.55-34.65-35.55-2.85 0-5.85.45-8.55 1.05l26.55-38.7h-23.25l-25.2 37.35c-9.6 13.95-13.95 24.75-13.95 36.3zm22.5.15c0-10.8 7.05-18.45 17.25-18.45 9.9 0 17.1 7.65 17.1 18.6 0 10.8-7.05 18.6-17.1 18.6-10.2 0-17.25-7.8-17.25-18.75zM916.41-.044h8.875v149.5h-8.875zM1081.78 49.256c-3-25.2-22.05-39.6-47.4-39.6-28.8 0-50.85 20.25-50.85 55.95s21.75 56.1 50.85 56.1c28.05 0 44.85-18.6 47.4-38.7l-23.4-.15c-2.1 11.7-11.25 18.45-23.55 18.45-16.65 0-27.9-12.3-27.9-35.7 0-22.65 11.1-35.55 28.05-35.55 12.6 0 21.75 7.2 23.4 19.2h23.4zM1174.335 121.706c24.3.15 40.8-15.9 40.8-38.1 0-20.4-14.25-35.1-33.6-35.1-12 0-22.5 5.7-27.45 15.3h-.75c.15-21.15 7.65-34.35 21.75-34.35 8.4 0 14.4 4.5 16.2 12.15h22.8c-2.25-18-17.1-31.95-39-31.95-26.85 0-44.25 21.75-44.25 58.5-.15 39.9 21.15 53.4 43.5 53.55zm-.15-18.15c-10.65 0-18.45-8.55-18.45-19.2 0-10.65 8.1-19.2 18.6-19.2 10.65 0 18.45 8.4 18.45 19.2 0 10.8-7.95 19.2-18.6 19.2zM1240.535 121.556c6.75 0 12.75-5.7 12.75-12.75s-6-12.75-12.75-12.75c-7.05 0-12.9 5.7-12.75 12.75-.15 7.05 5.7 12.75 12.75 12.75zM1308.614 121.706c24.45 0 42-13.5 42-32.1 0-13.65-8.7-23.25-24.6-25.35v-.9c12.15-2.1 20.55-10.8 20.55-22.95 0-17.25-15.15-30.75-37.65-30.75-22.35 0-39.15 13.05-39.6 31.95h22.2c.3-8.4 7.8-13.65 17.25-13.65 9.3 0 15.6 5.55 15.6 13.8 0 8.55-7.35 14.4-17.85 14.4h-10.2v16.95h10.2c12.45 0 20.1 6.15 20.1 15 0 8.55-7.5 14.55-18 14.55-10.2 0-17.7-5.25-18.15-13.35h-23.25c.3 19.2 17.4 32.4 41.4 32.4z" fill="#fff" fill-rule="nonzero"/><g><path d="M31.409 169.082H28.97v22.837h-.225l-16.162-22.837h-2.4v27.262h2.475v-22.837h.225l16.087 22.837h2.438v-27.262zM56.817 169.082v17.887c0 4.313-3.075 7.5-7.837 7.5-4.763 0-7.838-3.187-7.838-7.5v-17.887h-2.475v18.037c-.037 5.588 4.163 9.675 10.313 9.675s10.35-4.087 10.35-9.675v-18.037h-2.513zM66.58 169.082v27.262h2.325v-22.012h.225l9.187 22.012h2.288l9.187-22.012h.225v22.012h2.325v-27.262h-2.887l-9.863 23.737h-.262l-9.9-23.737h-2.85zM99.605 196.344h9.675c5.887 0 8.587-3.037 8.587-7.162s-2.737-6.638-5.4-6.825v-.188c2.438-.675 4.313-2.55 4.313-5.962 0-4.088-2.663-7.125-7.988-7.125h-9.187v27.262zm2.475-2.25v-10.5h7.312c3.675 0 6.075 2.475 6.075 5.588 0 2.85-1.95 4.912-6.187 4.912h-7.2zm0-12.712v-10.088h6.712c3.713 0 5.625 2.025 5.625 4.913 0 3-2.175 5.175-5.4 5.175h-6.937zM123.884 196.344h16.087v-2.25H126.36V183.82h12.487v-2.25H126.36v-10.275h13.312v-2.212h-15.787v27.262zM146.134 196.344h2.475V185.32h6.337c.375 0 .713 0 1.05-.037l6 11.062h2.85l-6.3-11.55c3.413-1.125 5.175-3.9 5.175-7.575 0-4.762-3-8.137-8.812-8.137h-8.775v27.262zm2.475-13.312v-11.738h6.262c4.313 0 6.375 2.363 6.375 5.925 0 3.6-2.062 5.813-6.337 5.813h-6.3zM184.576 175.907h2.437c-.187-4.163-3.787-7.238-8.85-7.238-5.025 0-8.925 3.038-8.925 7.425 0 3.525 2.475 5.7 6.75 6.975l3.263.975c3.412.975 5.7 2.25 5.7 5.025 0 3.263-2.963 5.475-7.013 5.475-3.675 0-6.562-1.8-6.825-5.025h-2.55c.263 4.313 3.788 7.275 9.375 7.275 5.888 0 9.45-3.337 9.45-7.687 0-4.538-3.937-6.338-7.425-7.313l-2.85-.825c-2.662-.75-5.437-2.1-5.437-4.987 0-2.925 2.625-5.063 6.412-5.063 3.6 0 6.188 1.95 6.488 4.988zM200.838 171.294h4.5v22.8h-4.5v2.25h11.475v-2.25h-4.5v-22.8h4.5v-2.212h-11.475v2.212zM239.159 169.082h-2.437v22.837h-.225l-16.163-22.837h-2.4v27.262h2.475v-22.837h.225l16.088 22.837h2.437v-27.262zM253.86 171.294h8.624v25.05h2.475v-25.05h8.663v-2.212h-19.763v2.212zM279.226 196.344h2.475V183.82h15.487v12.525h2.475v-27.262h-2.475v12.487h-15.487v-12.487h-2.475v27.262zM306.926 196.344h16.087v-2.25h-13.612V183.82h12.487v-2.25h-12.487v-10.275h13.312v-2.212h-15.787v27.262zM338.267 169.082v27.262h2.325v-22.012h.225l9.188 22.012h2.287l9.188-22.012h.225v22.012h2.325v-27.262h-2.888l-9.862 23.737h-.263l-9.9-23.737h-2.85zM371.297 169.082h2.475v27.262h-2.475zM381.03 196.344h15.488v-2.25h-13.013v-25.012h-2.475v27.262zM402.122 196.344h15.487v-2.25h-13.012v-25.012h-2.475v27.262zM423.218 169.082h2.475v27.262h-2.475zM455.3 182.694c0-8.512-4.912-13.987-11.812-13.987-6.862 0-11.775 5.475-11.775 13.987 0 8.55 4.875 14.025 11.775 14.025s11.813-5.475 11.813-14.025zm-2.437 0c.038 7.35-3.975 11.663-9.375 11.663s-9.375-4.35-9.375-11.663c0-7.35 4.013-11.662 9.375-11.662 5.4 0 9.375 4.35 9.375 11.662zM482.555 169.082h-2.437v22.837h-.225l-16.163-22.837h-2.4v27.262h2.475v-22.837h.225l16.088 22.837h2.437v-27.262zM504.588 175.907h2.438c-.188-4.163-3.788-7.238-8.85-7.238-5.025 0-8.925 3.038-8.925 7.425 0 3.525 2.475 5.7 6.75 6.975l3.262.975c3.413.975 5.7 2.25 5.7 5.025 0 3.263-2.962 5.475-7.012 5.475-3.675 0-6.563-1.8-6.825-5.025h-2.55c.262 4.313 3.787 7.275 9.375 7.275 5.887 0 9.45-3.337 9.45-7.687 0-4.538-3.938-6.338-7.425-7.313l-2.85-.825c-2.663-.75-5.438-2.1-5.438-4.987 0-2.925 2.625-5.063 6.413-5.063 3.6 0 6.187 1.95 6.487 4.988z" fill="#fff" fill-rule="nonzero"/></g></svg>