<svg viewBox="0 0 1457 150" width="1457" height="150" fill="#fff" xmlns="http://www.w3.org/2000/svg" fill-rule="evenodd" clip-rule="evenodd" stroke-linejoin="round" stroke-miterlimit="2"><path d="M24.781 120.206l8.1-24.9h39.3l8.1 24.9h24.75l-37.65-109.05h-29.7L.031 120.206h24.75zm13.95-42.9l13.35-41.25h.9l13.35 41.25h-27.6zM156.594 120.206h23.7l45.3-90v-19.05h-76.5v18.75h52.65v.75l-45.15 89.55zM301.169 99.806c0 13.05 8.4 24.15 24 24.15 15.45 0 24-11.1 24-24.15v-5.85c0-13.2-8.25-24.15-24-24.15-15.3 0-24 11.1-24 24.15v5.85zm-55.95-62.55c0 13.2 8.4 24.15 24 24.15 15.45 0 24-10.8 24-24.15v-5.7c0-13.2-8.4-24.15-24-24.15-15.3 0-24 10.95-24 24.15v5.7zm7.05 82.95h13.95l75-109.05h-13.95l-75 109.05zm64.35-26.25c0-5.25 2.25-10.5 8.55-10.5 6.75 0 8.4 5.25 8.4 10.5v5.85c0 5.1-1.8 10.5-8.4 10.5-6.45 0-8.55-5.55-8.55-10.5v-5.85zm-55.8-62.4c0-5.1 1.95-10.65 8.4-10.65 6.6 0 8.4 5.4 8.4 10.65v5.7c0 5.25-1.95 10.5-8.4 10.5-6.3 0-8.4-5.25-8.4-10.5v-5.7zM412.306-.044h8.875v149.5h-8.875zM481.377 120.206h46.65c24.45 0 37.5-12.75 37.5-30.15 0-16.2-11.55-25.95-24-26.4v-1.2c11.4-2.55 19.8-10.5 19.8-23.4 0-16.35-12.15-27.9-36.3-27.9h-43.65v109.05zm23.1-18.9v-28.95h19.35c11.1 0 18 6.45 18 15.45 0 8.1-5.7 13.5-18.6 13.5h-18.75zm0-44.55v-27h17.55c10.2 0 16.05 5.25 16.05 13.2 0 8.55-7.05 13.8-16.5 13.8h-17.1zM659.844 11.156h-22.5c-.3 6.6-9.75 18-23.7 18v18.3c12 0 19.8-4.5 22.2-8.1h1.05v80.85h22.95V11.156zM689.702 120.206h77.7v-18.9h-45.75v-.75l15.9-15.6c22.5-20.4 28.5-30.6 28.5-43.05 0-18.9-15.45-32.25-38.85-32.25-22.95 0-38.7 13.65-38.55 35.1h21.9c-.15-10.5 6.45-16.8 16.5-16.8 9.6 0 16.65 5.85 16.65 15.45 0 8.7-5.25 14.7-15.15 24.3l-38.85 35.85v16.65zM847.777 99.806c0 13.05 8.4 24.15 24 24.15 15.45 0 24-11.1 24-24.15v-5.85c0-13.2-8.25-24.15-24-24.15-15.3 0-24 11.1-24 24.15v5.85zm-55.95-62.55c0 13.2 8.4 24.15 24 24.15 15.45 0 24-10.8 24-24.15v-5.7c0-13.2-8.4-24.15-24-24.15-15.3 0-24 10.95-24 24.15v5.7zm7.05 82.95h13.95l75-109.05h-13.95l-75 109.05zm64.35-26.25c0-5.25 2.25-10.5 8.55-10.5 6.75 0 8.4 5.25 8.4 10.5v5.85c0 5.1-1.8 10.5-8.4 10.5-6.45 0-8.55-5.55-8.55-10.5v-5.85zm-55.8-62.4c0-5.1 1.95-10.65 8.4-10.65 6.6 0 8.4 5.4 8.4 10.65v5.7c0 5.25-1.95 10.5-8.4 10.5-6.3 0-8.4-5.25-8.4-10.5v-5.7zM958.915-.044h8.875v149.5h-8.875zM1124.286 49.256c-3-25.2-22.05-39.6-47.4-39.6-28.8 0-50.85 20.25-50.85 55.95s21.75 56.1 50.85 56.1c28.05 0 44.85-18.6 47.4-38.7l-23.4-.15c-2.1 11.7-11.25 18.45-23.55 18.45-16.65 0-27.9-12.3-27.9-35.7 0-22.65 11.1-35.55 28.05-35.55 12.6 0 21.75 7.2 23.4 19.2h23.4zM1220.14 11.156h-22.5c-.3 6.6-9.75 18-23.7 18v18.3c12 0 19.8-4.5 22.2-8.1h1.05v80.85h22.95V11.156zM1257.053 120.206h23.85l45.3-90v-19.05h-76.65v18.75h52.8v.75l-45.3 89.55zM1408.074 99.806c0 13.05 8.4 24.15 24 24.15 15.45 0 24-11.1 24-24.15v-5.85c0-13.2-8.25-24.15-24-24.15-15.3 0-24 11.1-24 24.15v5.85zm-55.95-62.55c0 13.2 8.4 24.15 24 24.15 15.45 0 24-10.8 24-24.15v-5.7c0-13.2-8.4-24.15-24-24.15-15.3 0-24 10.95-24 24.15v5.7zm7.05 82.95h13.95l75-109.05h-13.95l-75 109.05zm64.35-26.25c0-5.25 2.25-10.5 8.55-10.5 6.75 0 8.4 5.25 8.4 10.5v5.85c0 5.1-1.8 10.5-8.4 10.5-6.45 0-8.55-5.55-8.55-10.5v-5.85zm-55.8-62.4c0-5.1 1.95-10.65 8.4-10.65 6.6 0 8.4 5.4 8.4 10.65v5.7c0 5.25-1.95 10.5-8.4 10.5-6.3 0-8.4-5.25-8.4-10.5v-5.7z" fill-rule="nonzero"/></svg>