<svg width="100%" height="100%" viewBox="0 0 4767 625" version="1.1" xmlns="http://www.w3.org/2000/svg" xmlns:xlink="http://www.w3.org/1999/xlink" xml:space="preserve" xmlns:serif="http://www.serif.com/" style="fill-rule:evenodd;clip-rule:evenodd;stroke-linejoin:round;stroke-miterlimit:2;"><rect id="Choices" x="0" y="0" width="4766.67" height="625" style="fill:none;"/><g><g><path d="M3650.77,439.025c-22.634,0 -43.75,-5.658 -63.35,-16.975c-19.6,-11.317 -35.234,-26.542 -46.9,-45.675c-11.667,-19.133 -17.5,-39.783 -17.5,-61.95c-0,-22.167 5.833,-42.758 17.5,-61.775c11.666,-19.017 27.3,-34.183 46.9,-45.5c19.6,-11.317 40.716,-16.975 63.35,-16.975c17.966,-0 35,3.558 51.1,10.675c16.1,7.117 30.1,16.975 42,29.575l-37.45,33.6c-7,-8.4 -15.342,-14.992 -25.025,-19.775c-9.684,-4.783 -19.892,-7.175 -30.625,-7.175c-13.067,0 -25.375,3.558 -36.925,10.675c-11.55,7.117 -20.709,16.625 -27.475,28.525c-6.767,11.9 -10.15,24.617 -10.15,38.15c-0,13.767 3.383,26.6 10.15,38.5c6.766,11.9 15.925,21.408 27.475,28.525c11.55,7.117 23.858,10.675 36.925,10.675c10.733,0 20.941,-2.392 30.625,-7.175c9.683,-4.783 18.141,-11.375 25.375,-19.775l37.1,33.6c-11.9,12.6 -25.959,22.458 -42.175,29.575c-16.217,7.117 -33.192,10.675 -50.925,10.675Z" style="fill:currentColor;fill-rule:nonzero;"/><path d="M3764.52,466.675c18.433,-18.9 31.908,-38.208 40.425,-57.925c8.516,-19.717 12.775,-41.942 12.775,-66.675c-0,-24.967 -4.259,-47.25 -12.775,-66.85c-8.517,-19.6 -21.992,-38.967 -40.425,-58.1l25.9,-27.3c24.966,17.967 44.275,40.133 57.925,66.5c13.65,26.367 20.475,54.95 20.475,85.75c-0,30.8 -6.825,59.383 -20.475,85.75c-13.65,26.367 -32.959,48.533 -57.925,66.5l-25.9,-27.65Z" style="fill:currentColor;fill-rule:nonzero;"/><path d="M4053.62,253.525l-40.95,25.55l-20.65,-36.4l72.1,-48.3l41.3,0l-0,240.45l-51.8,0l-0,-181.3Z" style="fill:currentColor;fill-rule:nonzero;"/><path d="M4267.47,240.925l-119,0l-0,-46.55l178.85,0l-0,38.85l-96.95,201.6l-58.45,0l95.55,-193.9Z" style="fill:currentColor;fill-rule:nonzero;"/><path d="M4419.72,315.125c-11.667,0 -22.05,-2.683 -31.15,-8.05c-9.1,-5.367 -16.159,-12.717 -21.175,-22.05c-5.017,-9.333 -7.525,-19.717 -7.525,-31.15c-0,-11.433 2.508,-21.875 7.525,-31.325c5.016,-9.45 12.133,-16.917 21.35,-22.4c9.216,-5.483 19.658,-8.225 31.325,-8.225c11.9,0 22.341,2.742 31.325,8.225c8.983,5.483 15.983,12.892 21,22.225c5.016,9.333 7.525,19.717 7.525,31.15c-0,11.433 -2.567,21.875 -7.7,31.325c-5.134,9.45 -12.25,16.858 -21.35,22.225c-9.1,5.367 -19.484,8.05 -31.15,8.05Zm138.95,-120.75l40.6,0l-167.3,240.45l-40.6,0l167.3,-240.45Zm-138.6,90.65c7.466,0 13.591,-2.858 18.375,-8.575c4.783,-5.717 7.175,-13.358 7.175,-22.925c-0,-9.333 -2.45,-16.858 -7.35,-22.575c-4.9,-5.717 -11.084,-8.575 -18.55,-8.575c-7.467,0 -13.534,2.858 -18.2,8.575c-4.667,5.717 -7,13.242 -7,22.575c-0,9.333 2.45,16.917 7.35,22.75c4.9,5.833 10.966,8.75 18.2,8.75Zm150.15,153.65c-11.667,0 -22.109,-2.742 -31.325,-8.225c-9.217,-5.483 -16.334,-12.892 -21.35,-22.225c-5.017,-9.333 -7.525,-19.717 -7.525,-31.15c-0,-11.433 2.566,-21.817 7.7,-31.15c5.133,-9.333 12.25,-16.742 21.35,-22.225c9.1,-5.483 19.483,-8.225 31.15,-8.225c11.666,0 22.05,2.742 31.15,8.225c9.1,5.483 16.158,12.95 21.175,22.4c5.016,9.45 7.525,19.775 7.525,30.975c-0,11.433 -2.567,21.875 -7.7,31.325c-5.134,9.45 -12.25,16.858 -21.35,22.225c-9.1,5.367 -19.367,8.05 -30.8,8.05Zm-0,-30.45c7.466,-0 13.591,-2.858 18.375,-8.575c4.783,-5.717 7.175,-13.242 7.175,-22.575c-0,-9.333 -2.45,-16.917 -7.35,-22.75c-4.9,-5.833 -10.967,-8.75 -18.2,-8.75c-7.7,-0 -13.942,2.858 -18.725,8.575c-4.784,5.717 -7.175,13.358 -7.175,22.925c-0,9.333 2.45,16.858 7.35,22.575c4.9,5.717 11.083,8.575 18.55,8.575Z" style="fill:currentColor;fill-rule:nonzero;"/><path d="M1964.56,194.375c14.234,0 26.892,2.567 37.975,7.7c11.084,5.133 19.717,12.308 25.9,21.525c6.184,9.217 9.275,19.542 9.275,30.975c0,11.9 -2.916,22.342 -8.75,31.325c-5.833,8.983 -14.233,16.392 -25.2,22.225c14,6.3 24.909,14.817 32.725,25.55c7.817,10.733 11.725,22.75 11.725,36.05c0,12.6 -3.383,23.858 -10.15,33.775c-6.766,9.917 -16.158,17.617 -28.175,23.1c-12.016,5.483 -25.608,8.225 -40.775,8.225l-126.35,0l0,-240.45l121.8,0Zm-12.6,96.95c9.334,0 17.092,-2.508 23.275,-7.525c6.184,-5.017 9.275,-11.375 9.275,-19.075c0,-7.467 -3.091,-13.708 -9.275,-18.725c-6.183,-5.017 -13.941,-7.525 -23.275,-7.525l-57.75,-0l0,52.85l57.75,-0Zm7.7,99.4c10.267,-0 18.725,-2.742 25.375,-8.225c6.65,-5.483 9.975,-12.542 9.975,-21.175c0,-8.633 -3.325,-15.692 -9.975,-21.175c-6.65,-5.483 -15.108,-8.225 -25.375,-8.225l-65.45,0l0,58.8l65.45,-0Z" style="fill:currentColor;fill-rule:nonzero;"/><path d="M2054.51,466.675c18.434,-18.9 31.909,-38.208 40.425,-57.925c8.517,-19.717 12.775,-41.942 12.775,-66.675c0,-24.967 -4.258,-47.25 -12.775,-66.85c-8.516,-19.6 -21.991,-38.967 -40.425,-58.1l25.9,-27.3c24.967,17.967 44.275,40.133 57.925,66.5c13.65,26.367 20.475,54.95 20.475,85.75c0,30.8 -6.825,59.383 -20.475,85.75c-13.65,26.367 -32.958,48.533 -57.925,66.5l-25.9,-27.65Z" style="fill:currentColor;fill-rule:nonzero;"/><path d="M2343.61,253.525l-40.95,25.55l-20.65,-36.4l72.1,-48.3l41.3,0l0,240.45l-51.8,0l0,-181.3Z" style="fill:currentColor;fill-rule:nonzero;"/><path d="M2530.16,324.225c14,-10.967 23.8,-20.767 29.4,-29.4c5.6,-8.633 8.4,-17.267 8.4,-25.9c0,-9.567 -3.5,-17.267 -10.5,-23.1c-7,-5.833 -15.633,-8.75 -25.9,-8.75c-11.2,-0 -21.466,2.683 -30.8,8.05c-9.333,5.367 -18.666,13.3 -28,23.8l-32.9,-31.85c24.734,-31.267 55.767,-46.9 93.1,-46.9c16.8,-0 31.909,3.267 45.325,9.8c13.417,6.533 23.917,15.575 31.5,27.125c7.584,11.55 11.375,24.792 11.375,39.725c0,16.567 -4.2,31.558 -12.6,44.975c-8.4,13.417 -22.866,27.592 -43.4,42.525l-43.75,33.95l101.85,-0l0,46.55l-181.65,-0l0,-42l88.55,-68.6Z" style="fill:currentColor;fill-rule:nonzero;"/><path d="M2720.56,315.125c-11.666,0 -22.05,-2.683 -31.15,-8.05c-9.1,-5.367 -16.158,-12.717 -21.175,-22.05c-5.016,-9.333 -7.525,-19.717 -7.525,-31.15c0,-11.433 2.509,-21.875 7.525,-31.325c5.017,-9.45 12.134,-16.917 21.35,-22.4c9.217,-5.483 19.659,-8.225 31.325,-8.225c11.9,0 22.342,2.742 31.325,8.225c8.984,5.483 15.984,12.892 21,22.225c5.017,9.333 7.525,19.717 7.525,31.15c0,11.433 -2.566,21.875 -7.7,31.325c-5.133,9.45 -12.25,16.858 -21.35,22.225c-9.1,5.367 -19.483,8.05 -31.15,8.05Zm138.95,-120.75l40.6,0l-167.3,240.45l-40.6,0l167.3,-240.45Zm-138.6,90.65c7.467,0 13.592,-2.858 18.375,-8.575c4.784,-5.717 7.175,-13.358 7.175,-22.925c0,-9.333 -2.45,-16.858 -7.35,-22.575c-4.9,-5.717 -11.083,-8.575 -18.55,-8.575c-7.466,0 -13.533,2.858 -18.2,8.575c-4.666,5.717 -7,13.242 -7,22.575c0,9.333 2.45,16.917 7.35,22.75c4.9,5.833 10.967,8.75 18.2,8.75Zm150.15,153.65c-11.666,0 -22.108,-2.742 -31.325,-8.225c-9.216,-5.483 -16.333,-12.892 -21.35,-22.225c-5.016,-9.333 -7.525,-19.717 -7.525,-31.15c0,-11.433 2.567,-21.817 7.7,-31.15c5.134,-9.333 12.25,-16.742 21.35,-22.225c9.1,-5.483 19.484,-8.225 31.15,-8.225c11.667,0 22.05,2.742 31.15,8.225c9.1,5.483 16.159,12.95 21.175,22.4c5.017,9.45 7.525,19.775 7.525,30.975c0,11.433 -2.566,21.875 -7.7,31.325c-5.133,9.45 -12.25,16.858 -21.35,22.225c-9.1,5.367 -19.366,8.05 -30.8,8.05Zm0,-30.45c7.467,-0 13.592,-2.858 18.375,-8.575c4.784,-5.717 7.175,-13.242 7.175,-22.575c0,-9.333 -2.45,-16.917 -7.35,-22.75c-4.9,-5.833 -10.966,-8.75 -18.2,-8.75c-7.7,-0 -13.941,2.858 -18.725,8.575c-4.783,5.717 -7.175,13.358 -7.175,22.925c0,9.333 2.45,16.858 7.35,22.575c4.9,5.717 11.084,8.575 18.55,8.575Z" style="fill:currentColor;fill-rule:nonzero;"/><path d="M394.814,434.825l-16.8,-41.3l-104.3,0l-16.8,41.3l-57.75,0l97.65,-240.45l58.1,0l97.65,240.45l-57.75,0Zm-104.65,-81.55l71.4,0l-35.7,-87.5l-35.7,87.5Z" style="fill:currentColor;fill-rule:nonzero;"/><path d="M455.714,466.675c18.433,-18.9 31.908,-38.208 40.425,-57.925c8.516,-19.717 12.775,-41.942 12.775,-66.675c-0,-24.967 -4.259,-47.25 -12.775,-66.85c-8.517,-19.6 -21.992,-38.967 -40.425,-58.1l25.9,-27.3c24.966,17.967 44.275,40.133 57.925,66.5c13.65,26.367 20.475,54.95 20.475,85.75c-0,30.8 -6.825,59.383 -20.475,85.75c-13.65,26.367 -32.959,48.533 -57.925,66.5l-25.9,-27.65Z" style="fill:currentColor;fill-rule:nonzero;"/><path d="M805.364,240.925l-119,0l-0,-46.55l178.85,0l-0,38.85l-96.95,201.6l-58.45,0l95.55,-193.9Z" style="fill:currentColor;fill-rule:nonzero;"/><path d="M957.614,315.125c-11.667,0 -22.05,-2.683 -31.15,-8.05c-9.1,-5.367 -16.159,-12.717 -21.175,-22.05c-5.017,-9.333 -7.525,-19.717 -7.525,-31.15c-0,-11.433 2.508,-21.875 7.525,-31.325c5.016,-9.45 12.133,-16.917 21.35,-22.4c9.216,-5.483 19.658,-8.225 31.325,-8.225c11.9,0 22.341,2.742 31.325,8.225c8.983,5.483 15.983,12.892 21,22.225c5.016,9.333 7.525,19.717 7.525,31.15c-0,11.433 -2.567,21.875 -7.7,31.325c-5.134,9.45 -12.25,16.858 -21.35,22.225c-9.1,5.367 -19.484,8.05 -31.15,8.05Zm138.95,-120.75l40.6,0l-167.3,240.45l-40.6,0l167.3,-240.45Zm-138.6,90.65c7.466,0 13.591,-2.858 18.375,-8.575c4.783,-5.717 7.175,-13.358 7.175,-22.925c-0,-9.333 -2.45,-16.858 -7.35,-22.575c-4.9,-5.717 -11.084,-8.575 -18.55,-8.575c-7.467,0 -13.534,2.858 -18.2,8.575c-4.667,5.717 -7,13.242 -7,22.575c-0,9.333 2.45,16.917 7.35,22.75c4.9,5.833 10.966,8.75 18.2,8.75Zm150.15,153.65c-11.667,0 -22.109,-2.742 -31.325,-8.225c-9.217,-5.483 -16.334,-12.892 -21.35,-22.225c-5.017,-9.333 -7.525,-19.717 -7.525,-31.15c-0,-11.433 2.566,-21.817 7.7,-31.15c5.133,-9.333 12.25,-16.742 21.35,-22.225c9.1,-5.483 19.483,-8.225 31.15,-8.225c11.666,0 22.05,2.742 31.15,8.225c9.1,5.483 16.158,12.95 21.175,22.4c5.016,9.45 7.525,19.775 7.525,30.975c-0,11.433 -2.567,21.875 -7.7,31.325c-5.134,9.45 -12.25,16.858 -21.35,22.225c-9.1,5.367 -19.367,8.05 -30.8,8.05Zm-0,-30.45c7.466,-0 13.591,-2.858 18.375,-8.575c4.783,-5.717 7.175,-13.242 7.175,-22.575c-0,-9.333 -2.45,-16.917 -7.35,-22.75c-4.9,-5.833 -10.967,-8.75 -18.2,-8.75c-7.7,-0 -13.942,2.858 -18.725,8.575c-4.784,5.717 -7.175,13.358 -7.175,22.925c-0,9.333 2.45,16.858 7.35,22.575c4.9,5.717 11.083,8.575 18.55,8.575Z" style="fill:currentColor;fill-rule:nonzero;"/></g><g><ellipse cx="1533.25" cy="312.5" rx="45.255" ry="43.75" style="fill:currentColor;"/><ellipse cx="3233.42" cy="312.5" rx="45.255" ry="43.75" style="fill:currentColor;"/></g></g></svg>