<svg viewBox="0 0 134 134" xmlns="http://www.w3.org/2000/svg" fill-rule="evenodd" clip-rule="evenodd" stroke-linejoin="round" stroke-miterlimit="2"><path d="M20.833 25c-2.285 0-4.166 1.881-4.166 4.167v37.5H25v-37.5C25 26.881 23.119 25 20.833 25z" fill="#fff" fill-rule="nonzero"/><g fill-rule="nonzero"><path d="M108.333 125H100v-12.5c-.013-11.424-9.41-20.82-20.833-20.833h-25c-11.424.013-20.82 9.409-20.834 20.833V125H25v-12.5c.019-15.993 13.173-29.148 29.167-29.167h25c15.993.019 29.148 13.174 29.166 29.167V125z" fill="url(#_Linear1)"/><path d="M16.667 8.333v8.334H37.5v29.166C37.5 61.834 50.666 75 66.667 75c16 0 29.166-13.166 29.166-29.167V16.667h20.834V8.333h-100zm29.166 8.334H87.5v12.5H45.833v-12.5zm20.834 50c-11.429 0-20.834-9.405-20.834-20.834V37.5H87.5v8.333c0 11.429-9.405 20.834-20.833 20.834z" fill="url(#_Linear2)"/></g><path fill="none" d="M0 0h133.333v133.333H0z"/><defs><linearGradient id="_Linear1" x1="0" y1="0" x2="1" y2="0" gradientUnits="userSpaceOnUse" gradientTransform="translate(416.667 321.179) scale(121.528)"><stop offset="0" stop-color="#08bdba"/><stop offset="1" stop-color="#0f62fe"/></linearGradient><linearGradient id="_Linear2" x1="0" y1="0" x2="1" y2="0" gradientUnits="userSpaceOnUse" gradientTransform="translate(17.363 321.179) scale(121.528)"><stop offset="0" stop-color="#08bdba"/><stop offset="1" stop-color="#0f62fe"/></linearGradient></defs></svg>