<svg width="100%" height="100%" fill="currentColor" viewBox="0 0 134 134" xmlns="http://www.w3.org/2000/svg" fill-rule="evenodd" clip-rule="evenodd" stroke-linejoin="round" stroke-miterlimit="2"><path fill="none" d="M0 0h133.333v133.333H0z"/><path d="M70.959 38.534c2.913 0 5.505.611 7.776 1.833s4.036 2.931 5.295 5.125c1.259 2.195 1.888 4.653 1.888 7.375 0 5.556-2.369 9.778-7.109 12.667 2.962 1.611 5.246 3.68 6.85 6.208 1.605 2.528 2.407 5.347 2.407 8.459 0 3-.691 5.68-2.074 8.041-1.382 2.361-3.295 4.209-5.739 5.542-2.444 1.333-5.221 2-8.331 2h-25.92v-57.25h24.957zm-2.296 23.417c2.271 0 4.147-.667 5.629-2 1.481-1.334 2.221-3.056 2.221-5.167 0-2.111-.728-3.847-2.184-5.208-1.457-1.362-3.345-2.042-5.666-2.042H55.185v14.417h13.478zm1.407 24.833c2.518 0 4.58-.764 6.184-2.292 1.605-1.528 2.407-3.486 2.407-5.875s-.802-4.347-2.407-5.875c-1.604-1.528-3.666-2.291-6.184-2.291H55.185v16.333H70.07z" fill-rule="nonzero"/></svg>