<svg width="100%" height="100%" fill="currentColor" viewBox="0 0 134 134" xmlns="http://www.w3.org/2000/svg" fill-rule="evenodd" clip-rule="evenodd" stroke-linejoin="round" stroke-miterlimit="2"><path fill="none" d="M0 0h133.333v133.333H0z"/><path d="M70.441 96.784c-4.74 0-9.159-1.347-13.256-4.042-4.098-2.694-7.369-6.319-9.813-10.875-2.443-4.555-3.665-9.472-3.665-14.75 0-5.278 1.222-10.18 3.665-14.708 2.444-4.528 5.715-8.139 9.813-10.833 4.097-2.695 8.516-4.042 13.256-4.042 3.653 0 7.146.819 10.479 2.458 3.332 1.639 6.257 3.903 8.775 6.792l-6.591 6.917c-1.629-2.056-3.542-3.681-5.739-4.875-2.197-1.195-4.505-1.792-6.924-1.792-3.061 0-5.925.917-8.591 2.75-2.666 1.833-4.789 4.292-6.369 7.375-1.579 3.083-2.369 6.403-2.369 9.958 0 3.611.79 6.959 2.369 10.042 1.58 3.083 3.703 5.542 6.369 7.375 2.666 1.833 5.53 2.75 8.591 2.75 2.419 0 4.727-.583 6.924-1.75s4.11-2.806 5.739-4.917l6.591 6.834c-2.468 2.944-5.369 5.236-8.701 6.875a23.624 23.624 0 01-10.553 2.458z" fill-rule="nonzero"/></svg>