<svg viewBox="0 0 24 24" xmlns="http://www.w3.org/2000/svg" fill-rule="evenodd" clip-rule="evenodd" stroke-linejoin="round" stroke-miterlimit="2"><path d="M11.867 23.237C5.631 23.237.5 18.105.5 11.868.499 5.632 5.63.5 11.867.5c6.236 0 11.369 5.132 11.369 11.368 0 6.237-5.133 11.369-11.369 11.369z" fill="#32363e" stroke="#61dafb" stroke-width=".9978964000000001"/><path d="M11.748 18.504c2.484 0 4.32-1.836 4.32-4.356 0-2.538-1.764-4.392-4.176-4.392-.882 0-1.746.324-2.268.738h-.09l.468-3.852h5.472V5.238H8.67l-.792 6.444 1.476.18c.558-.396 1.476-.684 2.286-.666 1.674 0 2.88 1.278 2.88 2.988 0 1.674-1.17 2.916-2.772 2.916-1.35 0-2.412-.864-2.538-2.052H7.68c.09 1.998 1.818 3.456 4.068 3.456z" fill="#df4759" fill-rule="nonzero"/></svg>