<?xml version="1.0" encoding="UTF-8" standalone="no"?><!DOCTYPE svg PUBLIC "-//W3C//DTD SVG 1.1//EN" "http://www.w3.org/Graphics/SVG/1.1/DTD/svg11.dtd"><svg width="100%" height="100%" viewBox="0 0 97 97" version="1.1" xmlns="http://www.w3.org/2000/svg" xmlns:xlink="http://www.w3.org/1999/xlink" xml:space="preserve" xmlns:serif="http://www.serif.com/" style="fill-rule:evenodd;clip-rule:evenodd;stroke-linejoin:round;stroke-miterlimit:2;"><g><g id="icon-6"></g><g id="icon-5"></g><g id="icon-4"><path d="M48.41,95.779c-25.984,-0 -47.368,-21.385 -47.368,-47.369c-0,-25.984 21.384,-47.368 47.368,-47.368c25.984,-0 47.369,21.384 47.369,47.368c-0,25.984 -21.385,47.369 -47.369,47.369Z" style="fill:#2e2e2e;stroke:#61dafb;stroke-width:2.08px;"/><path id="_4" serif:id="4" d="M27.942,65.029l25.861,0l0,10.654l7.857,-0l0,-10.654l7.218,0l-0,-6.978l-7.218,0l0,-36.914l-10.147,0l-23.571,37.234l0,6.658Zm25.915,-6.978l-17.286,0l0,-0.426l16.86,-26.686l0.426,-0l-0,27.112Z" style="fill:#e01a4f;fill-rule:nonzero;"/></g><g id="icon-2"></g><g id="icon-3"></g><g id="icon-1"></g></g><g><g id="icon-61" serif:id="icon-6"></g><g id="icon-51" serif:id="icon-5"></g><g id="icon-41" serif:id="icon-4"></g><g id="icon-21" serif:id="icon-2"></g><g id="icon-31" serif:id="icon-3"></g><g id="icon-11" serif:id="icon-1"></g></g></svg>