<svg viewBox="0 0 24 24" xmlns="http://www.w3.org/2000/svg" fill-rule="evenodd" clip-rule="evenodd" stroke-linejoin="round" stroke-miterlimit="2"><path d="M11.868 23.237C5.632 23.237.5 18.105.5 11.868.5 5.632 5.632.5 11.868.5c6.237 0 11.369 5.132 11.369 11.368 0 6.237-5.132 11.369-11.369 11.369z" fill="#32363e" stroke="#61dafb" stroke-width=".9978964000000001"/><path d="M11.88 18.594c2.539 0 4.429-1.584 4.429-3.726 0-1.674-.99-2.88-2.646-3.15v-.108c1.332-.396 2.16-1.494 2.16-2.97 0-1.854-1.476-3.492-3.888-3.492-2.268 0-4.14 1.386-4.23 3.456h1.548c.054-1.314 1.296-2.088 2.646-2.088 1.458 0 2.394.882 2.394 2.214 0 1.368-1.08 2.268-2.646 2.268h-1.044v1.404h1.044c1.998 0 3.096 1.008 3.096 2.466 0 1.386-1.206 2.322-2.88 2.322-1.53 0-2.718-.792-2.826-2.052H7.435c.09 2.07 1.908 3.456 4.446 3.456z" fill="#df4759" fill-rule="nonzero"/></svg>