<?xml version="1.0" encoding="UTF-8" standalone="no"?>
<!DOCTYPE svg PUBLIC "-//W3C//DTD SVG 1.1//EN" "http://www.w3.org/Graphics/SVG/1.1/DTD/svg11.dtd">
<svg width="100%" height="100%" viewBox="0 0 24 24" version="1.1" xmlns="http://www.w3.org/2000/svg" xmlns:xlink="http://www.w3.org/1999/xlink" xml:space="preserve" xmlns:serif="http://www.serif.com/" style="fill-rule:evenodd;clip-rule:evenodd;stroke-linejoin:round;stroke-miterlimit:2;">
    <g transform="matrix(1,0,0,1,-11.3816,-39.3816)">
        <g transform="matrix(1,0,0,1,-1,83)">
            <g id="icon-6">
            </g>
            <g id="icon-5">
            </g>
            <g id="icon-4">
            </g>
            <g id="icon-2">
            </g>
            <g id="icon-3">
            </g>
            <g id="icon-1">
            </g>
        </g>
        <g>
            <g id="icon-61" serif:id="icon-6">
            </g>
            <g id="icon-51" serif:id="icon-5">
            </g>
            <g id="icon-41" serif:id="icon-4" transform="matrix(1.26316,0,0,1.26316,11.5684,39.5684)">
                <path d="M9.05,18.05C4.113,18.05 0.05,13.987 0.05,9.05C0.05,4.113 4.113,0.05 9.05,0.05C13.987,0.05 18.05,4.113 18.05,9.05C18.05,13.987 13.987,18.05 9.05,18.05Z" style="fill:rgb(50,54,62);stroke:rgb(223,71,89);stroke-width:0.4px;"/>
                <g id="_4" serif:id="4" transform="matrix(1,0,0,1,4.38181,14.2318)">
                    <g transform="matrix(14.25,0,0,14.25,0,0)">
                        <path d="M0.055,-0.142L0.4,-0.142L0.4,-0L0.504,-0L0.504,-0.142L0.6,-0.142L0.6,-0.235L0.504,-0.235L0.504,-0.727L0.369,-0.727L0.055,-0.231L0.055,-0.142ZM0.4,-0.235L0.17,-0.235L0.17,-0.241L0.395,-0.597L0.4,-0.597L0.4,-0.235Z" style="fill:rgb(223,71,89);fill-rule:nonzero;"/>
                    </g>
                </g>
            </g>
            <g id="icon-31" serif:id="icon-3">
            </g>
            <g id="icon-21" serif:id="icon-2">
            </g>
            <g id="icon-11" serif:id="icon-1">
            </g>
        </g>
    </g>
</svg>
