<?xml version="1.0" encoding="UTF-8" standalone="no"?><!DOCTYPE svg PUBLIC "-//W3C//DTD SVG 1.1//EN" "http://www.w3.org/Graphics/SVG/1.1/DTD/svg11.dtd"><svg width="100%" height="100%" viewBox="0 0 97 97" version="1.1" xmlns="http://www.w3.org/2000/svg" xmlns:xlink="http://www.w3.org/1999/xlink" xml:space="preserve" xmlns:serif="http://www.serif.com/" style="fill-rule:evenodd;clip-rule:evenodd;stroke-linejoin:round;stroke-miterlimit:2;"><g><g id="icon-6"><path d="M48.41,95.779c-25.984,-0 -47.368,-21.385 -47.368,-47.369c-0,-25.984 21.384,-47.368 47.368,-47.368c25.984,-0 47.369,21.384 47.369,47.368c-0,25.984 -21.385,47.369 -47.369,47.369Z" style="fill:#2e2e2e;stroke:#61dafb;stroke-width:2.08px;"/><path id="_6" serif:id="6" d="M48.889,76.428c11.4,0.107 18.964,-8.097 18.937,-18.564c0.027,-10.44 -7.564,-17.924 -17.019,-17.924c-5.753,0 -10.733,2.77 -13.53,7.378l-0.399,-0c0.026,-12.385 4.714,-19.736 12.704,-19.736c5.247,0 8.549,3.196 9.668,7.724l8.123,-0c-1.252,-8.629 -8.043,-14.915 -17.791,-14.915c-12.678,0 -20.588,10.893 -20.588,29.856c-0.026,20.082 10.201,26.101 19.895,26.181Zm-0.026,-6.925c-6.339,0 -10.973,-5.326 -10.973,-11.452c0.026,-6.099 4.874,-11.426 11.159,-11.426c6.233,0 10.813,5.034 10.787,11.346c0.026,6.445 -4.741,11.532 -10.973,11.532Z" style="fill:#e01a4f;fill-rule:nonzero;"/></g><g id="icon-5"></g><g id="icon-4"></g><g id="icon-2"></g><g id="icon-3"></g><g id="icon-1"></g></g><g><g id="icon-61" serif:id="icon-6"></g><g id="icon-51" serif:id="icon-5"></g><g id="icon-41" serif:id="icon-4"></g><g id="icon-21" serif:id="icon-2"></g><g id="icon-31" serif:id="icon-3"></g><g id="icon-11" serif:id="icon-1"></g></g></svg>