<svg viewBox="0 0 24 24" xmlns="http://www.w3.org/2000/svg" fill-rule="evenodd" clip-rule="evenodd" stroke-linejoin="round" stroke-miterlimit="2"><path d="M11.868 23.237C5.632 23.237.5 18.105.5 11.868.5 5.632 5.632.5 11.868.5c6.237 0 11.369 5.132 11.369 11.368 0 6.237-5.132 11.369-11.369 11.369z" fill="#32363e" stroke="#61dafb" stroke-width=".9978964000000001"/><path d="M7.734 18.503h8.262V17.1H9.912v-.108l2.934-3.15c2.25-2.394 2.916-3.528 2.916-4.986 0-2.016-1.638-3.618-3.924-3.618-2.304 0-4.05 1.548-4.05 3.852H9.3c0-1.476.972-2.484 2.484-2.484 1.422 0 2.502.882 2.502 2.25 0 1.224-.702 2.106-2.232 3.762l-4.32 4.734v1.152z" fill="#df4759" fill-rule="nonzero"/></svg>