<?xml version="1.0" encoding="UTF-8" standalone="no"?>
<!DOCTYPE svg PUBLIC "-//W3C//DTD SVG 1.1//EN" "http://www.w3.org/Graphics/SVG/1.1/DTD/svg11.dtd">
<svg width="100%" height="100%" viewBox="0 0 24 24" version="1.1" xmlns="http://www.w3.org/2000/svg" xmlns:xlink="http://www.w3.org/1999/xlink" xml:space="preserve" xmlns:serif="http://www.serif.com/" style="fill-rule:evenodd;clip-rule:evenodd;stroke-linejoin:round;stroke-miterlimit:2;">
    <g transform="matrix(1,0,0,1,-72.3816,-8.38158)">
        <g transform="matrix(1,0,0,1,-1,83)">
            <g id="icon-6">
            </g>
            <g id="icon-5">
            </g>
            <g id="icon-4">
            </g>
            <g id="icon-2">
            </g>
            <g id="icon-3">
            </g>
            <g id="icon-1">
            </g>
        </g>
        <g>
            <g id="icon-61" serif:id="icon-6">
            </g>
            <g id="icon-51" serif:id="icon-5">
            </g>
            <g id="icon-41" serif:id="icon-4">
            </g>
            <g id="icon-31" serif:id="icon-3" transform="matrix(1.26316,0,0,1.26316,72.5684,8.56842)">
                <path d="M9.05,18.05C4.113,18.05 0.05,13.987 0.05,9.05C0.05,4.113 4.113,0.05 9.05,0.05C13.987,0.05 18.05,4.113 18.05,9.05C18.05,13.987 13.987,18.05 9.05,18.05Z" style="fill:rgb(50,54,62);stroke:rgb(223,71,89);stroke-width:0.4px;"/>
                <g id="_3" serif:id="3" transform="matrix(1,0,0,1,4.44253,14.2318)">
                    <g transform="matrix(14.25,0,0,14.25,0,0)">
                        <path d="M0.323,0.01C0.472,0.01 0.581,-0.079 0.58,-0.2C0.581,-0.292 0.525,-0.358 0.428,-0.373L0.428,-0.378C0.504,-0.398 0.554,-0.457 0.553,-0.539C0.554,-0.646 0.466,-0.737 0.326,-0.737C0.192,-0.737 0.085,-0.657 0.082,-0.538L0.188,-0.538C0.19,-0.605 0.253,-0.646 0.325,-0.646C0.399,-0.646 0.447,-0.6 0.447,-0.533C0.447,-0.463 0.391,-0.417 0.31,-0.417L0.249,-0.417L0.249,-0.327L0.31,-0.327C0.411,-0.327 0.469,-0.276 0.469,-0.203C0.469,-0.132 0.408,-0.085 0.322,-0.085C0.244,-0.085 0.182,-0.125 0.178,-0.19L0.066,-0.19C0.071,-0.071 0.176,0.01 0.323,0.01Z" style="fill:rgb(223,71,89);fill-rule:nonzero;"/>
                    </g>
                </g>
            </g>
            <g id="icon-21" serif:id="icon-2">
            </g>
            <g id="icon-11" serif:id="icon-1">
            </g>
        </g>
    </g>
</svg>
