<?xml version="1.0" encoding="UTF-8" standalone="no"?><!DOCTYPE svg PUBLIC "-//W3C//DTD SVG 1.1//EN" "http://www.w3.org/Graphics/SVG/1.1/DTD/svg11.dtd"><svg width="100%" height="100%" viewBox="0 0 97 97" version="1.1" xmlns="http://www.w3.org/2000/svg" xmlns:xlink="http://www.w3.org/1999/xlink" xml:space="preserve" xmlns:serif="http://www.serif.com/" style="fill-rule:evenodd;clip-rule:evenodd;stroke-linejoin:round;stroke-miterlimit:2;"><g><g id="icon-6"></g><g id="icon-5"><path d="M48.41,95.779c-25.984,-0 -47.368,-21.385 -47.368,-47.369c-0,-25.984 21.384,-47.368 47.368,-47.368c25.984,-0 47.369,21.384 47.369,47.368c-0,25.984 -21.385,47.369 -47.369,47.369Z" style="fill:#2e2e2e;stroke:#61dafb;stroke-width:2.08px;"/><path id="_5" serif:id="5" d="M47.957,76.056c10.973,-0 18.804,-7.751 18.777,-18.377c0.027,-10.547 -7.324,-18.218 -17.259,-18.218c-4.048,0 -7.803,1.545 -9.934,3.622l-0.32,0l1.732,-15.261l23.144,0l0,-7.057l-29.989,-0l-3.063,27.485l7.537,1.119c2.051,-1.838 5.726,-3.09 9.029,-3.09c6.472,0.054 11.159,4.901 11.159,11.559c0,6.552 -4.554,11.293 -10.813,11.293c-5.273,-0 -9.455,-3.356 -9.881,-8.043l-7.99,-0c0.32,8.682 7.857,14.968 17.871,14.968Z" style="fill:#e01a4f;fill-rule:nonzero;"/></g><g id="icon-4"></g><g id="icon-2"></g><g id="icon-3"></g><g id="icon-1"></g></g><g><g id="icon-61" serif:id="icon-6"></g><g id="icon-51" serif:id="icon-5"></g><g id="icon-41" serif:id="icon-4"></g><g id="icon-21" serif:id="icon-2"></g><g id="icon-31" serif:id="icon-3"></g><g id="icon-11" serif:id="icon-1"></g></g></svg>