<?xml version="1.0" encoding="UTF-8" standalone="no"?><!DOCTYPE svg PUBLIC "-//W3C//DTD SVG 1.1//EN" "http://www.w3.org/Graphics/SVG/1.1/DTD/svg11.dtd"><svg width="100%" height="100%" viewBox="0 0 97 97" version="1.1" xmlns="http://www.w3.org/2000/svg" xmlns:xlink="http://www.w3.org/1999/xlink" xml:space="preserve" xmlns:serif="http://www.serif.com/" style="fill-rule:evenodd;clip-rule:evenodd;stroke-linejoin:round;stroke-miterlimit:2;"><g><g id="icon-6"></g><g id="icon-5"></g><g id="icon-4"></g><g id="icon-2"></g><g id="icon-3"><path d="M48.41,95.779c-25.984,-0 -47.368,-21.385 -47.368,-47.369c-0,-25.984 21.384,-47.368 47.368,-47.368c25.984,-0 47.369,21.384 47.369,47.368c-0,25.984 -21.385,47.369 -47.369,47.369Z" style="fill:#2e2e2e;stroke:#e01a4f;stroke-width:0.79px;"/><path d="M48.41,95.779c-25.984,-0 -47.368,-21.385 -47.368,-47.369c-0,-25.984 21.384,-47.368 47.368,-47.368c25.984,-0 47.369,21.384 47.369,47.368c-0,25.984 -21.385,47.369 -47.369,47.369Z" style="fill:#2e2e2e;stroke:#61dafb;stroke-width:2.08px;"/><path id="_3" serif:id="3" d="M48.397,76.429c11.133,-0 19.309,-6.659 19.282,-15.714c0.027,-6.898 -4.154,-11.852 -11.399,-12.971l0,-0.426c5.7,-1.465 9.402,-5.939 9.375,-12.065c0.027,-8.017 -6.552,-14.861 -17.045,-14.861c-10.014,-0 -18.058,6.045 -18.324,14.914l7.963,0c0.187,-5.007 4.901,-8.043 10.254,-8.043c5.567,0 9.215,3.383 9.189,8.416c0.026,5.274 -4.208,8.736 -10.254,8.736l-4.608,0l0,6.712l4.608,-0c7.564,-0 11.932,3.835 11.932,9.321c-0,5.3 -4.608,8.896 -11.027,8.896c-5.912,0 -10.52,-3.036 -10.839,-7.883l-8.363,-0c0.346,8.895 8.229,14.968 19.256,14.968Z" style="fill:#e01a4f;fill-rule:nonzero;"/></g><g id="icon-1"></g></g><g><g id="icon-61" serif:id="icon-6"></g><g id="icon-51" serif:id="icon-5"></g><g id="icon-41" serif:id="icon-4"></g><g id="icon-21" serif:id="icon-2"></g><g id="icon-31" serif:id="icon-3"></g><g id="icon-11" serif:id="icon-1"></g></g></svg>