<?xml version="1.0" encoding="UTF-8" standalone="no"?><!DOCTYPE svg PUBLIC "-//W3C//DTD SVG 1.1//EN" "http://www.w3.org/Graphics/SVG/1.1/DTD/svg11.dtd"><svg width="100%" height="100%" viewBox="0 0 97 97" version="1.1" xmlns="http://www.w3.org/2000/svg" xmlns:xlink="http://www.w3.org/1999/xlink" xml:space="preserve" xmlns:serif="http://www.serif.com/" style="fill-rule:evenodd;clip-rule:evenodd;stroke-linejoin:round;stroke-miterlimit:2;"><g><g id="icon-6"></g><g id="icon-5"></g><g id="icon-4"></g><g id="icon-2"><path d="M48.41,95.779c-25.984,-0 -47.368,-21.385 -47.368,-47.369c-0,-25.984 21.384,-47.368 47.368,-47.368c25.984,-0 47.369,21.384 47.369,47.368c-0,25.984 -21.385,47.369 -47.369,47.369Z" style="fill:#2e2e2e;stroke:#61dafb;stroke-width:2.08px;"/><path id="_2" serif:id="2" d="M30.486,76.056l35.902,-0l-0,-7.058l-24.556,-0l-0,-0.4l10.839,-11.346c9.988,-10.094 12.838,-14.914 12.838,-21.013c-0,-8.763 -7.138,-15.474 -17.419,-15.474c-10.2,-0 -17.658,6.605 -17.658,16.566l7.857,-0c-0.026,-5.86 3.756,-9.695 9.642,-9.695c5.539,-0 9.748,3.409 9.748,8.842c-0,4.821 -2.877,8.283 -8.736,14.489l-18.457,19.123l-0,5.966Z" style="fill:#e01a4f;fill-rule:nonzero;"/></g><g id="icon-3"></g><g id="icon-1"></g></g><g><g id="icon-61" serif:id="icon-6"></g><g id="icon-51" serif:id="icon-5"></g><g id="icon-41" serif:id="icon-4"></g><g id="icon-21" serif:id="icon-2"></g><g id="icon-31" serif:id="icon-3"></g><g id="icon-11" serif:id="icon-1"></g></g></svg>