<svg viewBox="0 0 24 24" xmlns="http://www.w3.org/2000/svg" fill-rule="evenodd" clip-rule="evenodd" stroke-linejoin="round" stroke-miterlimit="2"><path d="M11.868 23.237C5.632 23.237.5 18.105.5 11.868.5 5.632 5.632.5 11.868.5c6.237 0 11.369 5.132 11.369 11.368 0 6.237-5.132 11.369-11.369 11.369z" fill="#32363e" stroke="#61dafb" stroke-width=".9978964000000001"/><path d="M11.962 18.594c2.646.036 4.374-1.962 4.374-4.392 0-2.538-1.872-4.356-4.122-4.356-1.35 0-2.502.666-3.222 1.746h-.108c.018-3.186 1.26-5.04 3.276-5.04 1.386 0 2.214.864 2.502 2.052h1.566c-.324-2.034-1.872-3.456-4.068-3.456-2.952 0-4.752 2.61-4.752 7.236 0 4.842 2.394 6.192 4.554 6.21zm0-1.404c-1.656 0-2.844-1.404-2.844-2.97 0-1.566 1.26-2.97 2.898-2.97 1.602 0 2.772 1.314 2.772 2.952 0 1.656-1.224 2.988-2.826 2.988z" fill="#df4759" fill-rule="nonzero"/></svg>