<svg xmlns="http://www.w3.org/2000/svg" width="24" height="24" viewBox="0 0 80 80" fill-rule="evenodd" stroke-linejoin="round" stroke-miterlimit="2" fill="#174291"><path d="M39.583 77.083c-20.57 0-37.5-16.929-37.5-37.5s16.93-37.5 37.5-37.5 37.5 16.93 37.5 37.5-16.929 37.5-37.5 37.5z" fill-opacity=".3" stroke="#174291" stroke-width=".42"/><path d="M25.613 61.13h27.982v-5.501H34.456v-.311l8.449-8.843c7.784-7.867 10.005-11.624 10.005-16.378 0-6.829-5.563-12.06-13.576-12.06-7.95 0-13.762 5.148-13.762 12.911h6.123c-.02-4.567 2.927-7.556 7.515-7.556 4.317 0 7.597 2.657 7.597 6.892 0 3.757-2.242 6.456-6.809 11.292L25.613 56.48v4.65z" fill-rule="nonzero"/></svg>