<svg xmlns="http://www.w3.org/2000/svg" width="24" height="24" viewBox="0 0 80 80"  fill-rule="evenodd" stroke-linejoin="round" stroke-miterlimit="2" fill="#08355c"><path d="M39.583 77.083c-20.57 0-37.5-16.929-37.5-37.5s16.93-37.5 37.5-37.5 37.5 16.93 37.5 37.5-16.929 37.5-37.5 37.5z" fill-opacity=".3" stroke="#08355c" stroke-width=".42"/><path d="M39.957 61.42c8.884.083 14.78-6.31 14.759-14.468.021-8.137-5.895-13.97-13.264-13.97-4.484 0-8.366 2.159-10.545 5.75h-.312c.021-9.653 3.674-15.382 9.902-15.382 4.089 0 6.663 2.491 7.535 6.02h6.331c-.976-6.725-6.269-11.624-13.866-11.624-9.881 0-16.046 8.49-16.046 23.269-.021 15.652 7.95 20.343 15.506 20.405zm-.021-5.397c-4.94 0-8.552-4.151-8.552-8.926.021-4.753 3.799-8.905 8.698-8.905 4.857 0 8.427 3.923 8.406 8.843.021 5.023-3.694 8.988-8.552 8.988z" fill-rule="nonzero"/></svg>