<svg xmlns="http://www.w3.org/2000/svg" width="24" height="24" viewBox="0 0 80 80"  fill-rule="evenodd" stroke-linejoin="round" stroke-miterlimit="2" fill="#08355c"><path d="M39.583 77.083c-20.57 0-37.5-16.929-37.5-37.5s16.93-37.5 37.5-37.5 37.5 16.93 37.5 37.5-16.929 37.5-37.5 37.5z" fill-opacity=".31" stroke="#08355c" stroke-width=".42"/><path d="M39.231 61.095c8.538 0 14.631-6.031 14.61-14.3.021-8.206-5.699-14.175-13.429-14.175-3.15 0-6.072 1.202-7.73 2.819h-.248l1.347-11.875H51.79v-5.492H28.455l-2.384 21.387 5.865.87c1.596-1.43 4.456-2.404 7.026-2.404 5.035.042 8.683 3.814 8.683 8.995 0 5.098-3.544 8.786-8.414 8.786-4.103 0-7.357-2.611-7.689-6.258h-6.217c.249 6.756 6.114 11.647 13.906 11.647z" fill-rule="nonzero"/></svg>