<svg xmlns="http://www.w3.org/2000/svg" width="24" height="24" viewBox="0 0 80 80"  fill-rule="evenodd" stroke-linejoin="round" stroke-miterlimit="2" fill="#08355c"><path d="M39.583 77.083c-20.57 0-37.5-16.929-37.5-37.5s16.93-37.5 37.5-37.5 37.5 16.93 37.5 37.5-16.929 37.5-37.5 37.5z" fill-opacity=".3" stroke="#08355c" stroke-width=".42"/><path d="M39.573 61.385c8.662 0 15.025-5.181 15.004-12.227.021-5.368-3.233-9.222-8.87-10.093v-.331c4.435-1.14 7.316-4.622 7.295-9.388.021-6.238-5.098-11.564-13.263-11.564-7.792 0-14.051 4.704-14.258 11.605h6.196c.145-3.896 3.813-6.258 7.979-6.258 4.331 0 7.17 2.632 7.15 6.548.02 4.104-3.275 6.798-7.979 6.798h-3.585v5.222h3.585c5.885 0 9.284 2.984 9.284 7.254 0 4.124-3.585 6.921-8.58 6.921-4.6 0-8.185-2.362-8.434-6.134H24.59c.269 6.922 6.403 11.647 14.983 11.647z" fill-rule="nonzero"/></svg>