<svg xmlns="http://www.w3.org/2000/svg" viewBox="0 0 4528 606" height="606" width="4528"><g><path d="M1346.2 404.223c.461 6.813-.231 12.436-2.091 16.885a33.53 33.53 0 0 1-7.663 11.39c-3.244 3.144-6.965 5.631-11.139 7.462a385.48 385.48 0 0 1-12.191 5.104 88.6 88.6 0 0 1-5.392-4.123c-1.812-1.478-3.879-2.609-6.1-3.338a256.66 256.66 0 0 0-8.701-16.69c-2.783-4.845-4.066-10.403-3.829-16.69 0-.259.174-1.701.52-4.318l2.79-17.469.519-4.52c-5.712.614-11.325 1.934-16.712 3.929-5.803 2.098-11.434 4.578-16.891 7.462a299.77 299.77 0 0 0-15.32 8.637c-4.758 2.876-8.652 5.364-11.665 7.462 0 .785-.469 2.681-1.399 5.695-.922 3.006-2.083 6.15-3.482 9.423-1.28 3.054-2.791 6.007-4.52 8.831-1.629 2.617-3.252 3.929-4.881 3.929.238.786.584 1.572 1.046 2.358.468.786.468 1.831 0 3.136-3.077.967-6.005 2.355-8.702 4.124a48.3 48.3 0 0 1-8.01 4.318c-2.867 1.196-5.948 1.797-9.055 1.766-3.251 0-7.079-1.305-11.492-3.922a5.68 5.68 0 0 0-1.737-4.123c-1.128-1.151-2.354-2.203-3.662-3.144l-3.302-2.357c-.93-.649-1.399-1.24-1.399-1.766-1.161.266-1.622-.649-1.391-2.747.23-2.091 1.16-2.617 2.79-1.572-2.56-3.662-4.124-6.87-4.701-9.617-.584-2.747-1.918-6.222-4.008-10.403.468-.527.872-1.442 1.218-2.754.346-1.305.642-2.488.872-3.533.145-.861.505-1.672 1.046-2.357.461-.519 1.045-.39 1.737.396-.461-2.357-.461-4.318 0-5.89.469-1.572.93-3.013 1.399-4.318.461-1.312.807-2.617 1.038-3.929.238-1.305-.115-2.747-1.038-4.319 3.673-5.658 6.16-12.003 7.31-18.651 1.161-6.675 1.853-12.76 2.091-18.261 1.622-1.831 3.071-4.448 4.347-7.851a66.14 66.14 0 0 0 2.963-10.403c.7-3.533.988-6.936.873-10.209s-.527-5.955-1.219-8.053c.231-1.304 1.507-1.701 3.828-1.175 1.392-8.636 2.379-18.391 2.963-29.255a355.82 355.82 0 0 1 2.956-31.022c1.392-9.812 3.713-18.449 6.965-25.911s8.471-12.371 15.673-14.729c1.391 5.501 3.186 10.346 5.392 14.534 2.18 4.145 4.624 8.145 7.318 11.975l8.002 11.579c2.675 3.929 5.169 8.377 7.491 13.351-.231 4.975-.699 10.735-1.391 17.281-.72 6.693-1.592 13.368-2.618 20.021l-3.128 19.638a412.52 412.52 0 0 1-2.963 16.099c.23 1.305.872 2.09 1.917 2.35 1.046.267 1.219 1.442.519 3.54 5.759-1.618 11.565-3.061 17.411-4.326 6.066-1.312 12.104-2.752 18.11-4.318a238.26 238.26 0 0 0 17.584-5.299c5.512-1.881 10.821-4.314 15.846-7.26a461.67 461.67 0 0 1 4.527-30.633c1.853-10.208 2.084-20.676.693-31.411 1.195-1.097 2.146-2.433 2.79-3.922a5.47 5.47 0 0 1 3.482-3.143 58.11 58.11 0 0 1-1.399-15.71c.206-5.323 1.085-10.599 2.617-15.702 1.507-4.974 3.713-9.228 6.611-12.76a19.72 19.72 0 0 1 10.627-6.878c2.552 4.189 4.758 8.709 6.611 13.546l5.746 14.535a178.58 178.58 0 0 0 6.272 13.741c2.206 4.318 5.046 8.045 8.529 11.189.699 7.591 1.218 15.442 1.564 23.56l.872 24.735c-1.795 9.668-3.826 19.291-6.092 28.86-2.278 9.755-3.849 19.663-4.7 29.645-1.65 2.135-2.943 4.523-3.828 7.072l-2.79 8.046c-.93 2.754-1.976 5.371-3.136 7.858a26.9 26.9 0 0 1-4.175 6.474c.93 3.143 1.103 6.085.519 8.839-.576 2.746.058 6.084 1.918 10.006zm230.023-182.974c.231 1.831.288 3.208.173 4.124l-.353 2.552c-.12.845-.178 1.698-.173 2.552 0 .916.237 2.293.699 4.124-4.874 8.896-10.504 14.988-16.892 18.261-6.38 3.266-13.287 5.623-20.719 7.065l-22.804 4.513c-7.779 1.572-15.5 4.975-23.156 10.209-3.021-1.305-5.746-1.305-8.183 0-2.437 1.312-5.977 1.701-10.619 1.182a11.42 11.42 0 0 1-5.227 3.338c-2.091.649-4.182 1.37-6.265 2.156.923 2.357 1.334 4.78 1.218 7.267s.173 4.513.865 6.085c8.132.785 17.123.656 26.992-.39a368.87 368.87 0 0 1 29.076-1.968c.23 1.312.115 2.163-.346 2.552-.469.397-.584 1.118-.354 2.163 1.63 1.305 3.252 2.941 4.874 4.91 1.629 1.961 3.251 3.857 4.881 5.688 1.622 1.831 3.309 3.338 5.046 4.52 1.745 1.175 3.771 1.637 6.092 1.37.93 2.098 1.572 4.383 1.918 6.87s.058 5.04-.872 7.657l-11.139 8.839c-3.72 3.006-7.606 5.695-11.672 8.045-4.074 2.363-8.394 4.272-12.883 5.696-4.528 1.442-9.574 2.033-15.147 1.766h-2.61c-.577 0-1.334-.389-2.264-1.175-1.852 1.305-4.469 1.701-7.836 1.175-3.367-.519-5.977-.13-7.83 1.182-2.559-1.312-5.63-1.903-9.228-1.766-3.597.13-6.791-.332-9.581-1.377a138.14 138.14 0 0 0-10.093 17.67 164.81 164.81 0 0 0-8.01 20.021c7.895 1.312 14.448 1.838 19.675 1.571 5.219-.259 10.151-.721 14.793-1.369l14.282-1.969c4.874-.648 11.023-.85 18.456-.584 4.643-2.883 10.151-4.779 16.539-5.695a78.67 78.67 0 0 0 17.583-4.513c1.86.786 3.482 2.156 4.874 4.116l4.008 5.501c1.276 1.702 2.61 3.208 4.001 4.513 1.392 1.312 3.137 1.832 5.227 1.572.93 1.045 1.565 2.293 1.911 3.734a63.66 63.66 0 0 1 .872 4.117c.231 1.312.642 2.422 1.219 3.338.583.916 1.571 1.247 2.963.988-3.483 8.636-7.491 15.247-12.018 19.825a45.74 45.74 0 0 1-15.493 10.404c-5.804 2.357-12.249 4.188-19.329 5.5-7.079 1.305-14.909 2.877-23.502 4.708-2.091.526-3.829.462-5.22-.195a11.37 11.37 0 0 0-4.881-.98c-5.335 1.312-11.722 2.487-19.148 3.533-7.433 1.045-14.974 1.441-22.637 1.182a92.6 92.6 0 0 1-21.939-3.338c-6.964-1.968-12.645-5.436-17.057-10.41a13.06 13.06 0 0 1-3.655-6.474c-.584-2.488-2.149-4.391-4.701-5.696a120.79 120.79 0 0 0-1.398-11.391l-2.084-13.15a184.95 184.95 0 0 1-1.571-13.546c-.365-4.064-.188-8.159.526-12.177.646-3.811 2.131-7.431 4.347-10.598a12.91 12.91 0 0 0 2.264-10.208 2.55 2.55 0 0 0 2.091-2.163c.23-1.175 1.16-1.636 2.79-1.37 1.322-4.51 2.83-8.965 4.52-13.351 1.629-4.189 3.309-8.248 5.054-12.17l5.219-11.982c1.745-4.052 3.425-8.572 5.054-13.546a32.66 32.66 0 0 1-7.144-11.189 67.46 67.46 0 0 1-3.302-12.17 202.81 202.81 0 0 1-1.745-12.566c-.485-4.44-1.3-8.838-2.437-13.157 2.165-3.748 5.066-7.02 8.529-9.617a48.61 48.61 0 0 1 10.973-6.085c3.943-1.572 8.24-2.884 12.883-3.929s9.516-2.228 14.628-3.533c8.155-3.048 16.465-5.669 24.894-7.851a272.81 272.81 0 0 1 21.592-4.52l22.111-3.338c8.76-1.244 17.47-2.814 26.112-4.708 2.091 2.358 4.066 3.533 5.919 3.533.93-2.357 2.033-3.078 3.309-2.163 1.276.923 1.803.202 1.572-2.155a36.22 36.22 0 0 0 8.875 11.189 55.92 55.92 0 0 0 12.018 7.656zM1727 414.439a257.2 257.2 0 0 0-3.482-8.248c-1.161-2.617-2.322-4.974-3.482-7.072l-7.318-16.884c-2.314-5.636-4.291-11.404-5.919-17.274l3.655-22.378c4.057-24.17 8.586-48.259 13.583-72.253 2.667-12.825 5.4-23.819 8.183-32.982l8.536-25.911a207.88 207.88 0 0 1 10.446-25.327c3.828-7.728 7.945-14.332 12.357-19.833 4.412-5.493 9.17-8.766 14.282-9.812 1.391 2.091 2.898 3.728 4.52 4.903 1.629 1.182 3.136 2.033 4.527 2.552 3.951 6.286 7.779 11.585 11.492 15.904 4.034 4.629 8.463 8.898 13.237 12.76a279 279 0 0 1-6.1 26.113l-8.355 28.859-8.529 28.073a445.24 445.24 0 0 0-6.618 23.366c-1.564 5.979-2.956 12.001-4.174 18.06a488.71 488.71 0 0 0-3.663 20.813c-1.276 8.118-2.494 17.014-3.655 26.704 3.252-1.053 6.907-3.144 10.973-6.287 3.955-3.051 7.732-6.327 11.311-9.812 4.253-4.001 8.321-8.194 12.191-12.566a257.62 257.62 0 0 0 13.583-16.495c3.713-4.974 7.137-10.144 10.273-15.507 3.129-5.364 6.381-11.254 9.747-17.671l12.011-22.969 13.064-24.346c8.337-15.951 17.459-31.479 27.33-46.529 4.413-6.676 8.471-11.845 12.191-15.508 2.553 2.877 5.508 5.89 8.875 9.027 3.367 3.143 7.022 5.371 10.973 6.675 1.622 2.884 3.186 5.436 4.7 7.657l4.355 6.481 5.046 7.851c1.507 2.358 2.841 4.975 4.002 7.858-.231 2.091-.635 4.838-1.219 8.241l-1.91 11.196-2.264 12.364-2.264 12.177-5.226 26.696a281.63 281.63 0 0 0-2.437 14.138c-.462 3.402-.757 6.279-.873 8.636s-.173 5.631-.173 9.82c0 3.136.231 6.279.7 9.422.461 2.877.987 5.825 1.564 8.832.584 3.013 1.687 5.825 3.309 8.442l16.712-14.527c4.642-3.929 9.112-9.488 13.409-16.69 4.691-7.975 8.878-16.237 12.537-24.735a512.54 512.54 0 0 0 12.011-30.236l11.838-33.567 8.536-24.937c2.777-7.921 5.736-15.776 8.875-23.561 3.02-7.461 5.983-14.267 8.882-20.417 2.905-6.149 5.745-11.319 8.528-15.507 6.272 4.448 11.672 8.896 16.193 13.352 4.51 4.427 8.486 9.368 11.845 14.721 3.366 5.364 6.034 11.521 8.009 18.456 1.968 6.936 3.417 15.118 4.347 24.541-5.144 11.089-9.905 22.352-14.274 33.769l-30.467 80.298a425.2 425.2 0 0 1-19.674 42.997 249.22 249.22 0 0 1-24.202 37.496c-8.706 11.167-19.106 20.905-30.821 28.859-2.73-.714-5.534-1.109-8.355-1.175-2.552 0-4.701.389-6.438 1.175-1.733.779-3.324 1.841-4.708 3.143-9.516-4.974-17.173-12.371-22.976-22.19-6.233-10.635-11.928-21.576-17.065-32.781-.682-1.799-1.437-3.569-2.264-5.306l-2.609-5.299-5.919-12.17-3.482-7.462-4.881 5.105-7.311 7.461-4.181 4.708a741.38 741.38 0 0 1-21.931 22.191 214.91 214.91 0 0 1-23.337 19.631c-8.021 5.831-16.734 10.645-25.939 14.332-9.17 3.662-18.975 5.623-29.422 5.89l-9.401-5.104c-5.342-2.884-9.754-5.631-13.236-8.248s-7.541-6.675-12.184-12.169zm508.046-5.104a66.56 66.56 0 0 1-6.092 13.546 57.62 57.62 0 0 1-9.409 12.17c-3.557 3.506-7.603 6.481-12.01 8.831-4.295 2.326-9.052 3.668-13.929 3.929-3.013-.786-5.046-1.636-6.092-2.552a33.59 33.59 0 0 0-3.309-2.552l-3.482-2.358-4.182-1.96 1.399-5.105c.461-2.098.346-3.734-.353-4.909-.692-1.175-2.091-2.812-4.174-4.91l-2.091-2.357a15.12 15.12 0 0 1-1.745-2.351l-5.919-7.461 9.401-2.747c5.804-1.839 9.697-4.189 11.665-7.073 1.976-2.876 2.732-7.721 2.264-14.526-4.643-1.046-8.529-1.176-11.665-.39-3.22.812-6.413 1.728-9.574 2.747-4.181 1.305-8.413 2.422-12.71 3.338a67.8 67.8 0 0 1-14.102 1.37c-1.86 0-3.597-.065-5.227-.195-1.745-.143-3.486-.34-5.219-.591l-3.482-.779c-.462-2.883-.93-4.52-1.392-4.909a13.2 13.2 0 0 1-1.391-1.377 32.31 32.31 0 0 1-3.662-5.299c-1.276-2.228-1.565-5.04-.866-8.442-1.118-2.21-1.826-4.604-2.09-7.066a47.89 47.89 0 0 0-3.136 9.812l-1.392 3.93-3.482.785c-.461.26-.815.851-1.045 1.767a9.42 9.42 0 0 0-.346 2.155l-1.745 6.676-2.783 2.747a78.89 78.89 0 0 1-1.744 7.072 212.93 212.93 0 0 1-2.084 6.676c-1.161 3.403-2.148 6.741-2.963 10.014-.802 3.139-1.096 6.386-.872 9.617l-1.392 4.319c-1.161 1.571-2.437 2.811-3.828 3.727-1.361.903-2.756 1.754-4.181 2.552a5.9 5.9 0 0 1-1.918 1.377c-.808.397-1.449.721-1.911.981l-1.045 4.318-4.181.786-5.393 1.182c-1.201.277-2.43.408-3.662.39l-3.483-.39c-2.022-1.847-3.995-3.746-5.918-5.695-1.392-1.442-3.014-2.812-4.874-4.124-2.091-3.143-3.251-5.493-3.482-7.065l-.692-4.319c-.405-1.281-.696-2.596-.873-3.929a4.21 4.21 0 0 0-.872-2.357l-4.527-4.708 3.828-3.54.353-6.668a615.77 615.77 0 0 1 14.801-38.484l26.985-62.823c-.245-.894-.362-1.819-.346-2.746 0-1.053.23-2.228.692-3.54 2.552-4.448 4.643-8.442 6.272-11.975l4.873-10.8a309.2 309.2 0 0 1 5.746-12.955c1.968-4.189 4.47-8.507 7.484-12.955l5.572-2.747a68.58 68.58 0 0 0 2.437-.988c.93-.389 1.976-.584 3.136-.584l5.22.786c6.503-3.403 12.191-8.183 17.065-14.332 4.873-6.157 9.862-13.547 14.973-22.191l3.483-5.493 4.527 3.143c1.161.786 2.783 1.5 4.874 2.156l6.618 2.162c4.174 1.046 8.125 2.221 11.838 3.533 3.713 1.305 6.733 3.273 9.055 5.89 1.391 4.189 2.206 7.332 2.436 9.423.231 2.098.577 4.188 1.046 6.279l1.91 13.352c.584 4.455.988 9.423 1.219 14.923a196.83 196.83 0 0 1 2.963 13.15l2.263 13.158 3.483 18.261c1.16 5.89 2.667 11.448 4.527 16.682 1.853 0 3.014.13 3.482.397 1.161-.526 2.379-.916 3.655-1.182 1.276-.26 2.726-.519 4.355-.786l3.828-.39 1.391 3.93c.231 1.304 1.392 2.617 3.483 3.921 3.02.267 5.226.981 6.618 2.163a37.57 37.57 0 0 1 3.828 3.728c.93 1.045 1.86 1.831 2.79 2.357l5.22 2.358-2.783 5.89c-2.322 4.707-5.631 9.228-9.927 13.546a61.47 61.47 0 0 1-14.448 10.8 67.89 67.89 0 0 1 .519 4.513c.115 1.442.411 2.941.872 4.513.7 4.455 1.276 9.033 1.738 13.741.468 4.715.468 9.56 0 14.534l-.692 1.572zm-100.636-67.934a474.71 474.71 0 0 0 18.975-1.767c6.382-.775 12.718-1.889 18.982-3.338l-5.227-24.54a862.89 862.89 0 0 0-5.918-25.327l-2.091 3.929c-4.888 5.836-9.366 12.003-13.402 18.456-3.969 6.229-7.631 12.649-10.973 19.235l-4.174 7.072c-1.392 2.358-2.675 4.708-3.836 7.065a22.02 22.02 0 0 1 4.009-.389c1.276 0 2.494-.13 3.655-.396zm215.546 96.591a458.19 458.19 0 0 1-21.239 7.072c-7.663 2.358-15.327 3.533-22.983 3.533-11.607 0-20.778-3.273-27.511-9.819-1.161-2.877-2.206-4.838-3.136-5.89-.71-1.07-1.348-2.185-1.911-3.338-.584-1.175-.988-2.812-1.218-4.903a43.98 43.98 0 0 1-6.618-12.76 72.97 72.97 0 0 1-3.31-14.924c-.577-5.148-.693-10.338-.346-15.507.346-5.241 1.103-10.216 2.264-14.923.462-1.046.75-2.098.872-3.144a56.55 56.55 0 0 1 .52-3.532c.93-4.189 1.917-8.248 2.963-12.17a35.43 35.43 0 0 1 4.347-10.208c-.93-2.358-.93-4.975 0-7.859.93-2.876 1.975-5.493 3.136-7.851l8.183-25.326 6.791-20.612 11.146-34.951c3.675-12.291 6.812-24.736 9.401-37.301 1.852-1.305 3.244-2.221 4.174-2.747 1.391-.526 2.552-.916 3.482-1.175 4.181 2.35 9.055 4.643 14.628 6.87 5.573 2.221 10.216 3.338 13.928 3.338 1.853 1.305 3.014 2.286 3.482 2.942.462.656.93 1.247 1.392 1.766 2.552 3.403 4.758 6.871 6.618 10.41 1.853 3.533 2.437 8.176 1.738 13.936-1.392 2.358-2.437 3.533-3.129 3.533-1.161 5.234-2.379 9.689-3.663 13.352l-4.001 10.994a246.27 246.27 0 0 0-4.527 11.78c-1.392 3.929-2.552 8.767-3.483 14.527-.804 1.08-1.45 2.27-1.917 3.533-.852 2.578-1.78 5.132-2.783 7.656-.572 1.429-1.465 2.706-2.61 3.734-.699 6.806-1.802 12.3-3.309 16.488l-4.7 12.566c-2.76 7.503-5.258 15.099-7.491 22.775-2.206 7.591-3.54 16.228-4.001 25.917 1.16-.526 2.264-.785 3.309-.785h2.956c2.09 0 4.527.389 7.317 1.175a53.53 53.53 0 0 1 22.804-7.462c8.164-.779 16.351-1.303 24.548-1.572h9.754c3.251 0 6.265-.259 9.055-.778 2.091 1.305 3.424 2.026 4.001 2.155.584.13 1.449.195 2.61.195 1.629 0 3.021.13 4.181.397 2.783 2.876 5.458 4.974 8.01 6.279 2.552 1.312 5.22 2.487 8.01 3.533a140.61 140.61 0 0 1 7.483 3.337c2.437 1.183 4.816 2.819 7.137 4.91l2.444 16.884c1.622 2.358 2.322 3.93 2.084 4.715 0 2.091-.462 3.663-1.392 4.708l.7 4.319c-3.483.785-5.862 1.701-7.138 2.754-1.315 1.075-2.54 2.257-3.662 3.532a32.94 32.94 0 0 1-4.001.389h-2.264c-3.251 0-7.195.656-11.838 1.969a54.95 54.95 0 0 0-19.501-3.54c-2.675.008-5.348.14-8.01.396l-8.356.786c-2.79.519-5.63.916-8.528 1.175-2.906.26-5.869.397-8.882.397l-8.01 2.35zm308.173-9.812c-11.146.519-20.951.26-29.429-.786a79.18 79.18 0 0 1-24.894-7.461c-.461-.26-.93-.916-1.391-1.961-.349-.849-.818-1.643-1.392-2.358-1.551-.816-3.31-1.157-5.054-.98a12.04 12.04 0 0 1-5.046-.592c-1.86-1.045-4.758-3.078-8.709-6.084l-10.793-8.442c-4.053-3.548-8.001-7.214-11.837-10.995-3.646-3.582-6.915-7.53-9.755-11.78a3.73 3.73 0 0 0-2.783-1.766c-1.1-.113-2.167-.447-3.136-.981a64.49 64.49 0 0 0-17.057 17.67c-4.637 7.058-9.051 14.259-13.237 21.593-4.062 7.152-8.477 14.099-13.229 20.813-4.516 6.438-10.641 11.582-17.764 14.916-2.083 0-3.943-.389-5.565-1.175-1.628-.785-3.149-1.773-4.528-2.941-1.361-1.153-2.756-2.266-4.181-3.338-1.364-1.039-2.895-1.836-4.528-2.358.036-2.952-.495-5.884-1.564-8.636-.999-2.507-2.045-4.995-3.136-7.462-.993-2.205-1.752-4.508-2.264-6.871-.461-2.227 0-4.39 1.391-6.481-1.391-1.572-3.482-3.273-6.265-5.104 1.392-1.572 2.033-3.014 1.918-4.319-.125-1.341-.418-2.661-.872-3.929a35.13 35.13 0 0 1-1.219-4.318 6.32 6.32 0 0 1 .873-4.708c1.16 0 2.552-.267 4.174-.786-1.391-2.098-2.033-3.338-1.911-3.734.116-.39-.18-.981-.872-1.767-.468-1.571-.231-2.552.692-2.941.93-.396 1.86-.851 2.79-1.377.93-12.825 2.898-24.735 5.919-35.73a407.49 407.49 0 0 1 10.101-31.808l10.965-31.022c3.597-10.468 6.561-21.721 8.882-33.761 2.552-2.884 4.585-6.287 6.092-10.216 1.526-3.964 3.151-7.89 4.873-11.773a119.43 119.43 0 0 1 5.919-11.585 25.67 25.67 0 0 1 9.228-9.228c3.252.259 6.157 1.24 8.709 2.941s5.689 2.423 9.401 2.163c.692 1.312 1.334 2.617 1.911 3.929.584 1.305 1.341 2.617 2.264 3.922l5.226-1.175c2.553 2.357 4.816 5.299 6.792 8.831a35.34 35.34 0 0 1 4.001 11.197c.706 3.709.588 7.53-.346 11.189-.93 3.532-3.136 6.344-6.618 8.442.23 1.305.295 2.285.173 2.941a7.67 7.67 0 0 1-.519 1.767 3.89 3.89 0 0 0-.347 1.571c0 .526.347 1.312 1.046 2.358-4.643 3.929-8.125 9.422-10.447 16.487-2.321 7.073-3.604 13.352-3.835 18.853 2.79-3.143 5.861-6.222 9.228-9.228a252.69 252.69 0 0 1 10.446-8.839l10.447-8.24c3.367-2.617 6.445-5.241 9.228-7.858 7.663-7.851 15.031-14.196 22.111-19.04 7.626-5.239 15.117-10.672 22.465-16.293 1.852-.527 3.301-.592 4.347-.202 1.045.396 2.148.85 3.309 1.377 0-1.572-.404-2.488-1.218-2.747-.815-.267-1.103-1.312-.873-3.143a44.77 44.77 0 0 0 9.055-3.728c2.552-1.442 5.342-2.819 8.356-4.123 2.091 2.357 4.066 4.772 5.926 7.259 1.853 2.488 4.405 3.994 7.656 4.521 1.161 2.876 2.552 5.039 4.182 6.474 1.622 1.442 3.251 2.819 4.873 4.124a22.75 22.75 0 0 1 4.355 4.714c1.276 1.832 2.026 4.708 2.264 8.637l-2.963 5.89c-1.046 2.091-2.034 4.578-2.956 7.462a139.11 139.11 0 0 1-14.109 12.566 385.78 385.78 0 0 1-14.448 10.598l-14.974 10.208a146.88 146.88 0 0 0-15.666 12.177 20.75 20.75 0 0 1-4.354 4.902 221.94 221.94 0 0 1-5.4 4.326 62.58 62.58 0 0 0-5.22 4.513 17.37 17.37 0 0 0-3.835 5.494c-.666.26-1.375.394-2.091.396a5.91 5.91 0 0 0-2.083.389c-.699 1.832-1.803 3.274-3.309 4.319-1.488 1.023-2.544 2.562-2.963 4.318 3.482 8.378 8.009 14.794 13.582 19.242 5.554 4.443 11.95 7.717 18.802 9.625a88.54 88.54 0 0 0 22.638 3.136l25.42.202c.923-.267 1.334-.851 1.218-1.774-.115-.915.404-1.24 1.565-.98 5.573 2.098 9.87 5.039 12.883 8.838 3.021 3.793 6.618 7.527 10.793 11.189-.462 9.949-3.129 18.197-8.003 24.736-4.881 6.546-11.376 11.78-19.501 15.709zm177.243-180.227c-.469-3.403-1.046-5.501-1.745-6.287a90.93 90.93 0 0 0 3.655-13.936c.815-4.585 1.456-8.968 1.918-13.157.461-3.662.987-7.065 1.564-10.208.584-3.144 1.334-6.15 2.264-9.027 3.951-1.052 6.906-2.948 8.882-5.695s3.54-5.169 4.7-7.267c4.182-.26 6.907.396 8.183 1.968 1.276 1.565 2.725 4.182 4.355 7.851 1.16 2.877 2.782 5.955 4.873 9.228s5.22 5.825 9.401 7.656c.699 2.877 1.507 5.624 2.437 8.248.93 2.617 1.975 5.364 3.136 8.24 2.091 5.501 4.059 11.189 5.919 17.079s2.898 11.456 3.136 16.69c-2.79 6.02-4.938 12.963-6.445 20.814-1.507 7.839-2.437 15.779-2.783 23.755a166.15 166.15 0 0 0 .519 22.969c.699 7.332 1.86 13.481 3.482 18.456l2.091 6.279 7.663-.786c7.729-2.13 15.292-4.819 22.631-8.045 6.62-2.948 12.92-6.567 18.802-10.8a135.73 135.73 0 0 0 16.718-14.332c5.921-6.031 11.5-12.387 16.712-19.04a140.95 140.95 0 0 0 14.974-24.938c4.419-9.312 8.088-18.963 10.972-28.859 2.899-9.949 5.162-19.898 6.784-29.839 1.63-9.949 2.675-19.242 3.136-27.879 4.413-2.358 6.849-6.157 7.311-11.391l-1.038-5.104a6.51 6.51 0 0 1-.873-3.727 10.61 10.61 0 0 1 .873-3.338c1.852-6.02 5.803-10.468 11.837-13.352 4.137 3.108 8.036 6.52 11.665 10.208 3.465 3.52 6.774 7.188 9.92 10.995.469 7.072 1.399 13.157 2.79 18.261s2.899 10.014 4.528 14.722c1.622 4.448 3.071 8.773 4.347 12.962 1.283 4.181 2.149 9.286 2.617 15.313-2.191 7.27-3.879 14.682-5.054 22.183l-2.955 21.794-.7 4.318-12.364 24.931c-3.52 7.297-6.828 14.694-9.92 22.183-1.455 1.665-2.684 3.515-3.655 5.501-1.046 2.09-2.033 4.188-2.963 6.279a42.12 42.12 0 0 0-1.911 3.929c-.814 1.831-1.571 3.143-2.263 3.929l-8.363-3.54-2.084 12.177-5.573 1.572-4.181 5.493c-5.335 10.476-10.966 19.242-16.885 26.307a119.45 119.45 0 0 1-19.847 18.853c-7.822 5.811-16.09 10.997-24.728 15.507a688.78 688.78 0 0 1-31.512 15.508 95.39 95.39 0 0 0-12.011-1.37c-3.313-.133-6.623-.33-9.928-.591-3.251 0-6.38-.13-9.401-.397-3.02-.259-6.503-.649-10.446-1.175-.93-2.357-2.206-4.059-3.828-5.104-1.63-1.046-3.136-1.572-4.528-1.572a25.09 25.09 0 0 1-10.446-10.994c-2.322-4.708-4.758-9.949-7.318-15.702a315.24 315.24 0 0 0-3.655-9.43 54.24 54.24 0 0 0-4.7-9.026l6.964-2.358-9.055-11.78c-.722-.816-1.478-1.602-2.264-2.357-.848-.833-1.605-1.753-2.256-2.747v-7.462a1205.19 1205.19 0 0 1-1.226-59.484c.123-18.197 2.264-34.231 6.445-48.102l.7-1.96zm354.132-49.082c9.747 1.305 18.456 3.533 26.12 6.676 7.656 3.136 14.159 7.325 19.494 12.559 3.89 6.89 7.437 13.968 10.626 21.21 3.377 7.628 5.943 15.59 7.657 23.755 1.744 8.24 2.552 16.682 2.437 25.326-.116 8.637-1.796 17.404-5.047 26.307-6.54 9.242-14.893 17.057-24.548 22.969-9.801 5.964-20.259 10.774-31.166 14.333a352.51 352.51 0 0 1-34.649 9.422l-34.994 7.851c.231 6.02.288 12.372.173 19.048a145.32 145.32 0 0 1-1.745 20.02c-1.021 6.599-2.593 13.1-4.7 19.437a71.83 71.83 0 0 1-8.356 17.28c-4.123.023-8.223.618-12.184 1.767-4.181 1.175-7.894 2.155-11.145 2.941a105.71 105.71 0 0 1-4.355-2.941c-1.276-.916-3.071-1.507-5.392-1.767.461-2.617-.116-5.298-1.745-8.052l-4.874-8.443a30.42 30.42 0 0 1-3.309-8.24c-.577-2.624.527-5.111 3.309-7.462-1.622-1.831-2.436-4.188-2.436-7.072 1.622-3.136 3.078-7.455 4.354-12.955 1.276-5.494 2.321-10.93 3.129-16.294.797-4.867.974-9.816.526-14.728-.468-4.449-2.79-7.722-6.964-9.812.231-.527.692-.786 1.391-.786.716-.002 1.425-.137 2.091-.397-1.86-1.571-2.963-3.792-3.309-6.676a16.89 16.89 0 0 0-2.61-7.454c.462-1.312.808-2.487 1.046-3.54.23-1.045 1.038-1.435 2.436-1.175a39.36 39.36 0 0 1 .173-13.352c.792-4.11 2.017-8.124 3.655-11.975 1.67-3.882 3.65-7.624 5.919-11.189a277.4 277.4 0 0 0 6.619-10.994c1.622-.259 2.609 0 2.955.786.354.786 1.103.656 2.264-.397 3.021-2.617 5.112-5.363 6.272-8.24 1.161-2.884 1.738-6.157 1.738-9.819 1.629-5.494 3.597-11.059 5.919-16.69 2.321-5.623 4.88-10.792 7.663-15.507s5.862-8.904 9.228-12.566 6.907-6.417 10.62-8.248c3.145-2.872 6.658-5.313 10.446-7.26 4.293-2.269 8.857-3.985 13.583-5.104 4.85-1.176 9.811-1.835 14.801-1.968 4.648-.173 9.294.424 13.748 1.766 1.161.527 1.802.267 1.918-.778.115-1.053.519-1.572 1.218-1.572zm-14.275 93.845c5.804-2.884 12.011-5.17 18.629-6.871s12.127-4.91 16.539-9.624c-2.783-2.877-6.849-5.429-12.184-7.657-5.553-2.275-11.428-3.667-17.411-4.124-6.382-.511-12.804.087-18.982 1.767a35.74 35.74 0 0 0-16.538 9.624 316.71 316.71 0 0 1-3.483 11.189c-.93 2.747-2.206 6.085-3.828 10.014.392 1.213 1.192 2.253 2.264 2.941 1.07.695 1.869 1.736 2.264 2.949 5.335-3.143 10.734-4.909 16.192-5.306 5.45-.389 10.965-2.026 16.538-4.902zm221.466 136.25a18.79 18.79 0 0 1-4.009-7.462c-.807-2.876-2.725-5.234-5.746-7.065a348.73 348.73 0 0 0-1.91-13.546l-2.437-15.71a187.76 187.76 0 0 1-1.745-16.098 67.2 67.2 0 0 1 .527-14.722 26.06 26.06 0 0 1 2.263-6.676l3.129-6.092a29.5 29.5 0 0 0 2.437-6.084c.584-2.091.642-4.189.173-6.28 1.399-.259 2.264-1.11 2.617-2.552.346-1.442 1.449-1.896 3.309-1.377 1.622-5.76 3.36-11.124 5.22-16.099s3.828-9.811 5.919-14.526l6.445-14.333c2.206-4.844 4.232-10.273 6.092-16.293-3.944-4.189-6.791-8.709-8.529-13.546-1.73-4.794-3.07-9.72-4.008-14.729-.932-5.004-1.63-10.049-2.091-15.118-.487-5.239-1.418-10.427-2.783-15.508 2.583-4.48 6.014-8.415 10.1-11.585 4.009-3.044 8.398-5.55 13.057-7.455 5.008-2.044 10.195-3.622 15.493-4.715 5.946-1.263 11.869-2.638 17.764-4.123 9.836-3.524 19.827-6.603 29.94-9.228a344.24 344.24 0 0 1 25.774-5.494c8.355-1.442 17.057-2.754 26.112-3.929 10.502-1.418 20.955-3.185 31.339-5.299.231.786.642 1.175 1.219 1.175h2.264c.699 1.831 1.975 2.747 3.835 2.747 0-.779-.058-1.5-.18-2.156a10.25 10.25 0 0 1-.173-1.766c.468 0 1.103.13 1.917.389.815.267 1.507.527 2.091.786.509.271 1.137.193 1.565-.194.461-.39.583-1.24.346-2.553 2.79 5.494 6.387 10.014 10.799 13.547 4.405 3.532 9.286 6.611 14.621 9.228.231 2.357.295 4.059.173 5.104-.115 1.046-.288 2.026-.519 2.942-.243 1.029-.359 2.085-.346 3.143 0 1.182.23 2.812.692 4.909-3.713 7.066-7.952 12.566-12.71 16.488-4.758 3.929-9.805 6.943-15.147 9.034-5.335 2.098-10.966 3.662-16.885 4.715l-18.11 3.338c-6.311 1.218-12.535 2.856-18.629 4.902-6.265 2.098-12.421 5.241-18.456 9.43-1.86-.786-3.54-1.118-5.046-.988a21.51 21.51 0 0 0-4.701.988 108.94 108.94 0 0 1-5.4 1.564c-1.975.527-4.354.527-7.137 0-1.806 1.803-4.015 3.15-6.445 3.929l-7.483 2.358c1.16 2.876 1.679 5.76 1.564 8.637s.173 5.364.872 7.461c9.747 1.046 20.547.981 32.385-.194a646.45 646.45 0 0 1 34.821-2.552c.231 1.305.116 2.22-.346 2.746-.468.527-.699 1.442-.699 2.747 2.091 1.572 4.066 3.533 5.919 5.89 1.86 2.358 3.77 4.65 5.746 6.871 1.975 2.228 4.008 4.059 6.092 5.501 2.09 1.434 4.527 2.025 7.317 1.766 1.161 2.617 1.968 5.364 2.437 8.247.461 2.877.115 5.891-1.045 9.027a390.45 390.45 0 0 0-13.583 10.41 127.59 127.59 0 0 1-13.755 9.617 75.18 75.18 0 0 1-15.493 7.065c-5.846 1.868-11.981 2.667-18.11 2.358h-2.956c-.815 0-1.803-.526-2.963-1.572-2.322 1.312-5.393 1.767-9.228 1.377-3.829-.396-7.022.065-9.574 1.37-3.252-1.305-7.022-1.961-11.319-1.961-4.29 0-8.067-.656-11.319-1.961-4.26 6.955-8.209 14.094-11.838 21.398a182.07 182.07 0 0 0-9.747 23.755c9.517 1.571 17.411 2.227 23.676 1.968 6.272-.267 12.191-.786 17.764-1.572l17.23-2.357c5.926-.786 13.179-1.046 21.765-.786 5.804-3.143 12.48-5.299 20.021-6.481a112.57 112.57 0 0 0 21.073-5.299c2.321.785 4.289 2.292 5.919 4.513 1.622 2.227 3.194 4.455 4.7 6.676 1.507 2.227 3.071 4.123 4.701 5.695 1.622 1.572 3.713 2.091 6.265 1.572 1.16 1.305 1.917 2.876 2.264 4.707l1.045 5.105c.346 1.571.872 2.819 1.564 3.734.7.916 1.976 1.24 3.836.981-4.412 10.208-9.344 18.059-14.801 23.56-5.292 5.38-11.554 9.71-18.456 12.761-6.849 3.013-14.505 5.234-22.984 6.675l-28.376 5.299c-2.552.527-4.7.462-6.445-.194a15.17 15.17 0 0 0-5.393-.981c-6.503 1.305-14.224 2.617-23.156 3.922-8.94 1.312-17.937 1.838-26.992 1.572-8.832-.229-17.603-1.547-26.113-3.922-8.355-2.358-15.32-6.546-20.892-12.566zm252.805 0c-1.391 8.896-5.342 15.053-11.838 18.456-3.021.259-5.284.13-6.791-.397a43.48 43.48 0 0 1-4.701-1.961 20.1 20.1 0 0 0-5.572-1.968l-3.829-3.136a29.19 29.19 0 0 0-1.744-3.929 35.85 35.85 0 0 0-2.437-3.929c-2.136-3.105-4.001-6.387-5.573-9.812-1.391-7.592-1.622-13.943-.692-19.047a162.81 162.81 0 0 1 3.482-15.118l2.783-9.812c-6.034-3.663-10.562-8.904-13.583-15.71-3.013-6.805-4.758-13.351-5.219-19.631.692-4.974 1.968-8.968 3.828-11.975 1.86-3.013 4.008-5.435 6.445-7.267a32.43 32.43 0 0 1 7.657-4.318c2.577-1.012 5.191-1.928 7.836-2.747l4.528 1.961c2.09 2.358 4.181 4.189 6.265 5.501a6.21 6.21 0 0 0 3.309-3.735c.584-1.701 1.103-3.597 1.571-5.688.693-2.357 1.45-4.715 2.257-7.072a61.89 61.89 0 0 1 2.963-7.065c-.262-3.206.214-6.43 1.391-9.423-1.489-1.251-3.296-2.067-5.219-2.357-.469 0-1.629-.26-3.482-.786-2.79-2.358-4.701-4.384-5.746-6.085l-2.963-4.91c-1.392-3.402-3.129-6.149-5.22-8.247l-3.482-2.747 1.737-3.929a2.81 2.81 0 0 0 .7-1.961c0-.786-.469-1.961-1.392-3.533-.468-2.876-.468-4.844 0-5.89l.692-3.929c1.861-2.876 2.791-4.448 2.791-4.708l3.128-3.532a172.44 172.44 0 0 0 13.756-4.52l13.755-5.299 13.41-4.91c4.516-1.7 9.103-3.205 13.748-4.513 1.63-1.312 3.367-2.163 5.227-2.552 1.86-.397 3.597-.721 5.22-.981 1.398-.266 2.674-.461 3.835-.591s1.968-.591 2.437-1.377l9.747-3.532c5.803-1.832 13.467-3.857 22.983-6.085s20.201-3.994 32.039-5.299l5.919-.397c1.161.267 2.321.332 3.482.195a31.26 31.26 0 0 1 3.482-.195c10.447 0 17.065 3.533 19.848 10.605 2.09 1.305 3.943 2.747 5.572 4.319 1.623 1.572 3.129 3.143 4.528 4.708a16.07 16.07 0 0 0 4.174 4.325c3.951 6.806 5.227 12.826 3.836 18.06-2.091 3.403-4.766 5.364-8.01 5.89l-3.835 2.357a60.33 60.33 0 0 0-5.746-.396h-4.002c-5.803 0-12.537.396-20.193 1.182-7.664.786-15.5 1.896-23.51 3.338-7.801 1.387-15.529 3.156-23.156 5.299-7.426 2.091-13.929 4.318-19.502 6.676l-6.265 3.533c-1.622 2.876-2.552 5.169-2.783 6.87l-.699 4.91-1.045 6.676c-3.944 5.493-5.919 12.039-5.919 19.631-1.622 3.143-2.668 5.428-3.136 6.87-.462 1.442-.462 3.208 0 5.299 4.412 2.098 8.593 2.884 12.537 2.358a187.19 187.19 0 0 0 11.838-1.961 293.74 293.74 0 0 1 16.545-2.747c5.827-.797 11.702-1.192 17.584-1.182h11.138l-2.782 3.143 1.744 5.493c1.392.786 2.379 1.313 2.956 1.572.584.26 1.218.656 1.918 1.182l1.737 3.533c.93.519 1.803 1.435 2.61 2.747.815 1.312 1.341 3.273 1.572 5.89l-14.275 22.774-4.881 1.572c-3.943-.267-7.425.259-10.446 1.572-1.622.519-3.244.98-4.874 1.369a21.94 21.94 0 0 1-5.219.592c-4.643 1.045-8.536 1.831-11.665 2.357l-9.581 1.572a118.65 118.65 0 0 0-12.184 2.155c-3.951.916-7.664 2.163-11.146 3.735h-4.873c-1.86 0-3.771.324-5.746.98l-5.4 1.767c-1.06.908-1.895 2.051-2.437 3.337a116.98 116.98 0 0 0-1.391 3.728c-.93 3.662-2.206 6.676-3.828 9.033v5.89c-1.861 2.617-2.964 4.643-3.31 6.085s-.757 2.812-1.218 4.124a12.42 12.42 0 0 0-1.045 2.155c-.238.696-.355 1.428-.346 2.163 1.852 3.929 2.321 8.377 1.391 13.352z"/><path d="M3811.77 428.966c-1.391 8.896-5.342 15.053-11.838 18.456-3.021.259-5.284.13-6.791-.397a43.48 43.48 0 0 1-4.701-1.961 20.1 20.1 0 0 0-5.572-1.968l-3.829-3.136a29.19 29.19 0 0 0-1.744-3.929c-.73-1.359-1.544-2.671-2.437-3.929-2.136-3.105-4.001-6.387-5.573-9.812-1.391-7.592-1.622-13.943-.692-19.047a162.81 162.81 0 0 1 3.482-15.118l2.783-9.812c-6.034-3.663-10.562-8.904-13.583-15.71-3.013-6.805-4.758-13.351-5.219-19.631.692-4.974 1.968-8.968 3.828-11.975 1.86-3.013 4.001-5.435 6.445-7.267a32.41 32.41 0 0 1 7.657-4.318c2.577-1.012 5.191-1.928 7.836-2.747l4.528 1.961c2.09 2.358 4.174 4.189 6.265 5.501a6.21 6.21 0 0 0 3.309-3.735c.628-1.865 1.15-3.764 1.564-5.688.699-2.357 1.456-4.715 2.264-7.072a61.89 61.89 0 0 1 2.963-7.065c-.262-3.206.214-6.43 1.391-9.423-1.489-1.251-3.296-2.067-5.219-2.357-.469 0-1.63-.26-3.482-.786-2.79-2.358-4.701-4.384-5.746-6.085l-2.963-4.91c-1.392-3.402-3.136-6.149-5.22-8.247l-3.482-2.747 1.737-3.929a2.81 2.81 0 0 0 .7-1.961c0-.786-.469-1.961-1.392-3.533-.468-2.876-.468-4.844 0-5.89l.692-3.929c1.86-2.876 2.79-4.448 2.79-4.708l3.129-3.532a172.44 172.44 0 0 0 13.756-4.52l13.755-5.299 13.41-4.91a168.42 168.42 0 0 1 13.748-4.513c1.629-1.312 3.367-2.163 5.227-2.552 1.86-.397 3.597-.721 5.22-.981 1.398-.266 2.674-.461 3.835-.591s1.968-.591 2.437-1.377l9.747-3.532c5.803-1.832 13.467-3.857 22.983-6.085s20.194-3.994 32.039-5.299l5.919-.397c1.16.267 2.321.332 3.482.195a31.26 31.26 0 0 1 3.482-.195c10.446 0 17.065 3.533 19.847 10.605 2.091 1.305 3.944 2.747 5.573 4.319 1.622 1.572 3.129 3.143 4.528 4.708a16.07 16.07 0 0 0 4.174 4.325c3.951 6.806 5.227 12.826 3.835 18.06-2.09 3.403-4.765 5.364-8.009 5.89l-3.836 2.357c-1.907-.223-3.825-.356-5.745-.396h-4.002c-5.803 0-12.537.396-20.193 1.182-7.664.786-15.5 1.896-23.51 3.338-7.801 1.387-15.529 3.156-23.157 5.299-7.425 2.091-13.928 4.318-19.501 6.676l-6.265 3.533c-1.622 2.876-2.552 5.169-2.783 6.87l-.699 4.91-1.045 6.676c-3.944 5.493-5.919 12.039-5.919 19.631-1.622 3.143-2.668 5.428-3.136 6.87-.462 1.442-.462 3.208 0 5.299 4.412 2.098 8.593 2.884 12.537 2.358a187.19 187.19 0 0 0 11.838-1.961 293.59 293.59 0 0 1 16.545-2.747c5.827-.797 11.702-1.192 17.584-1.182h11.138l-2.782 3.143 1.737 5.493c1.399.786 2.386 1.313 2.963 1.572.584.26 1.218.656 1.918 1.182l1.737 3.533c.93.519 1.803 1.435 2.61 2.747.815 1.312 1.341 3.273 1.572 5.89l-14.282 22.774-4.874 1.572c-3.943-.267-7.425.259-10.446 1.572a68.52 68.52 0 0 1-4.874 1.369 21.94 21.94 0 0 1-5.219.592c-4.643 1.045-8.536 1.831-11.665 2.357l-9.581 1.572a118.65 118.65 0 0 0-12.184 2.155c-3.951.916-7.664 2.163-11.146 3.735h-4.873c-1.86 0-3.771.324-5.746.98l-5.4 1.767c-1.06.908-1.895 2.051-2.437 3.337a116.98 116.98 0 0 0-1.391 3.728c-.93 3.662-2.206 6.676-3.829 9.033v5.89c-1.86 2.617-2.963 4.643-3.309 6.085s-.757 2.812-1.218 4.124a12.35 12.35 0 0 0-1.045 2.155c-.238.696-.355 1.428-.346 2.163 1.852 3.929 2.321 8.377 1.391 13.352z"/><path d="M4119.59 221.249c.231 1.831.296 3.208.173 4.124l-.346 2.552c-.119.845-.177 1.698-.173 2.552 0 .916.231 2.293.7 4.124-4.881 8.896-10.505 14.988-16.892 18.261-6.38 3.266-13.287 5.623-20.72 7.065l-22.81 4.513c-7.772 1.572-15.493 4.975-23.15 10.209-3.02-1.305-5.746-1.305-8.19 0-2.436 1.312-5.976 1.701-10.619 1.182-1.397 1.575-3.204 2.731-5.22 3.338-2.09.649-4.181 1.37-6.272 2.156.93 2.357 1.341 4.78 1.219 7.267-.116 2.487.18 4.513.872 6.085 8.125.785 17.122.656 26.985-.39 9.664-1.039 19.366-1.695 29.082-1.968.231 1.312.116 2.163-.353 2.552-.461.397-.577 1.118-.346 2.163 1.622 1.305 3.251 2.941 4.874 4.91a235.91 235.91 0 0 0 4.873 5.688c1.629 1.831 3.309 3.338 5.054 4.52 1.737 1.175 3.77 1.637 6.092 1.37.93 2.098 1.564 4.383 1.918 6.87.346 2.488.057 5.04-.873 7.657l-11.146 8.839c-3.712 3.006-7.598 5.695-11.664 8.045-4.074 2.363-8.394 4.272-12.883 5.696-4.528 1.442-9.575 2.033-15.147 1.766h-2.61c-.584 0-1.334-.389-2.264-1.175-1.86 1.305-4.47 1.701-7.837 1.175-3.366-.519-5.976-.13-7.836 1.182-2.552-1.312-5.631-1.903-9.228-1.766-3.598.13-6.791-.332-9.574-1.377a139.05 139.05 0 0 0-10.101 17.67 165.98 165.98 0 0 0-8.009 20.021c7.894 1.312 14.455 1.838 19.674 1.571 5.227-.259 10.158-.721 14.801-1.369l14.282-1.969c4.873-.648 11.023-.85 18.449-.584 4.643-2.883 10.158-4.779 16.545-5.695 6.016-.823 11.916-2.337 17.584-4.513 1.853.786 3.482 2.156 4.873 4.116l4.009 5.501c1.276 1.702 2.61 3.208 4.001 4.513 1.392 1.312 3.136 1.832 5.22 1.572.93 1.045 1.571 2.293 1.917 3.734.346 1.435.642 2.812.873 4.117.23 1.312.634 2.422 1.218 3.338.577.916 1.565 1.247 2.956.988-3.482 8.636-7.483 15.247-12.011 19.825a45.82 45.82 0 0 1-15.493 10.404c-5.803 2.357-12.249 4.188-19.328 5.5-7.08 1.305-14.916 2.877-23.503 4.708-2.091.526-3.828.462-5.227-.195-1.531-.684-3.196-1.019-4.873-.98-6.321 1.494-12.711 2.672-19.148 3.533-7.433 1.045-14.974 1.441-22.638 1.182a92.53 92.53 0 0 1-21.938-3.338c-6.964-1.968-12.652-5.436-17.065-10.41a13.18 13.18 0 0 1-3.655-6.474c-.577-2.488-2.148-4.391-4.7-5.696-.28-3.817-.744-7.618-1.392-11.391l-2.09-13.15a188.91 188.91 0 0 1-1.565-13.546c-.363-4.064-.189-8.158.519-12.177a26.22 26.22 0 0 1 4.355-10.598c2.16-2.929 2.983-6.64 2.263-10.208a2.55 2.55 0 0 0 2.091-2.163c.231-1.175 1.161-1.636 2.783-1.37 1.391-4.715 2.905-9.163 4.527-13.351a287.69 287.69 0 0 1 5.047-12.17l5.227-11.982c1.737-4.052 3.424-8.572 5.046-13.546a32.65 32.65 0 0 1-7.137-11.189c-1.476-3.946-2.584-8.02-3.309-12.17-.71-4.169-1.289-8.36-1.737-12.566-.489-4.439-1.304-8.837-2.437-13.157 2.165-3.748 5.066-7.02 8.529-9.617a48.6 48.6 0 0 1 10.972-6.085c3.944-1.572 8.241-2.884 12.883-3.929s9.517-2.228 14.621-3.533a249.9 249.9 0 0 1 24.901-7.851c7.131-1.797 14.332-3.305 21.585-4.52l22.111-3.338a354.5 354.5 0 0 0 26.12-4.708c2.091 2.358 4.059 3.533 5.919 3.533.93-2.357 2.033-3.078 3.309-2.163 1.276.923 1.795.202 1.564-2.155a36.25 36.25 0 0 0 8.882 11.189 55.87 55.87 0 0 0 12.011 7.656zm-3154.137-.389c-.199-1.937-.608-3.847-1.219-5.696l-1.918-5.695c-1.224-3.346-2.27-6.753-3.136-10.209-.922-3.662-1.391-7.98-1.391-12.955.469-2.617 1.045-4.52 1.745-5.695.692-1.176 1.391-2.156 2.083-2.942l1.399-7.072h5.219c1.86.267 3.771.396 5.746.396h5.746c8.824 0 17.879-.396 27.165-1.182l28.549-2.747c11.439-1.649 22.94-2.827 34.476-3.532l2.263-5.501 1.219-2.747 3.828-2.357c5.342-.26 9.055.461 11.146 2.162s3.713 3.338 4.873 4.91a319.39 319.39 0 0 0 18.456-2.163l19.502-2.941 28.203-3.929c9.23-1.286 18.537-1.942 27.857-1.961 3.951 0 7.663.129 11.146.389 3.482.267 6.848.656 10.093 1.182l4.181 3.533a24.23 24.23 0 0 0 3.482 5.104c1.392 1.572 3.021 3.143 4.874 4.708 3.482 3.143 6.906 7.072 10.273 11.78 3.367 4.715 4.585 11.65 3.655 20.814l-1.737 3.929c-.93 1.045-2.091 2.09-3.482 3.136l-3.482 5.104h-3.836c-2.321 0-4.059.202-5.219.591l-7.311 3.143c-1.16.39-2.436.851-3.835 1.37-1.966-.223-3.941-.353-5.919-.389h-4.874c-6.964 0-14.505.519-22.63 1.572-7.918 1.012-15.814 2.19-23.683 3.532l-16.019 2.156-13.928 1.773-6.265 18.06c-1.872 5.271-3.846 10.506-5.919 15.702-2.091 5.241-4.066 10.54-5.919 15.904a209.62 209.62 0 0 0-5.227 17.865c-2.783 4.715-5.104 9.228-6.964 13.546-1.853 4.326-3.367 9.228-4.528 14.729-3.411 4.312-5.953 9.246-7.483 14.527l-4.009 13.352-1.391 5.89c-1.622 1.831-2.61 3.273-2.956 4.318-.467 1.263-1.113 2.453-1.918 3.533a66.55 66.55 0 0 1-2.79 9.819l-1.391 4.124c-.461 1.434-.577 2.552-.346 3.33-.461 2.884-1.161 5.105-2.091 6.676a32.37 32.37 0 0 1-.346 4.715l-.699 4.708c-.414 1.622-.763 3.26-1.045 4.91-.231 1.441-.116 2.818.353 4.123l2.083 3.144c.7 1.045 1.284 2.357 1.745 3.929a4.33 4.33 0 0 0 1.737 1.175c.67.241 1.27.645 1.745 1.175 1.86 1.831 3.598 2.884 5.227 3.143l3.482 4.715c1.391 9.423.115 16.748-3.835 21.989-4.175 6.02-11.139 9.026-20.893 9.026l-4.874-.389c-1.622-1.831-2.552-3.014-2.782-3.533l-5.227-2.552c-1.392-.656-2.668-1.903-3.828-3.735a3.04 3.04 0 0 0-1.745-.98 2.98 2.98 0 0 1-1.738-.98c-1.989-.619-3.87-1.546-5.572-2.747l-3.829-2.358c.231-2.617.346-4.448.346-5.5-1.88-2.925-3.346-6.096-4.354-9.423-1.063-3.482-1.934-7.02-2.61-10.598l-1.918-7.858a20.99 20.99 0 0 0-2.609-6.28c-.462-18.326 1.045-33.703 4.527-46.14 3.418-12.233 7.251-24.347 11.492-36.321a455.75 455.75 0 0 0 6.618-19.234c2.084-6.546 3.944-13.222 5.566-20.028l3.835-4.318c1.622-1.572 2.668-2.488 3.129-2.747 0-3.403.584-6.741 1.745-10.014s2.436-6.611 3.828-10.014c.93-2.09 1.802-4.188 2.61-6.279.814-2.098 1.341-3.929 1.571-5.501-1.629 0-3.078.065-4.354.195a49.07 49.07 0 0 0-4.001.591 34.62 34.62 0 0 1-8.709 1.175c-2.091 0-3.598-.13-4.528-.389a12.84 12.84 0 0 1-5.219 1.766c-1.624.13-3.252.195-4.881.195h-8.356c-2.783 0-4.989.396-6.611 1.182h-17.764c-1.853 0-3.943-.202-6.265-.591-2.321-.397-4.758-1.377-7.31-2.949l-2.444-3.136c-1.391-2.884-2.668-4.455-3.828-4.715l-3.828-1.175v-4.318zM4252.61 443.096c-3.713.267-8.298.137-13.756-.389-5.208-.572-10.471.383-15.147 2.747-12.662-.568-25.248-2.276-37.604-5.105-11.976-2.637-23.735-6.18-35.175-10.597-2.321-2.884-4.642-5.566-6.964-8.053s-5.45-4.254-9.401-5.299c-5.687-5.132-10.304-11.338-13.582-18.261a123.02 123.02 0 0 1-8.356-22.97 147.67 147.67 0 0 1-4.174-24.93c-.7-8.507-.93-16.689-.7-24.54 3.483-11.781 8.414-21.924 14.801-30.431 6.381-8.507 12.941-16.95 19.675-25.327 3.013-1.571 5.277-3.208 6.791-4.909 1.5-1.696 3.129-3.273 4.874-4.715l5.219-4.319c1.745-1.434 3.309-3.208 4.701-5.299 4.532-1.154 8.832-3.081 12.71-5.695a206.66 206.66 0 0 0 10.626-7.851 129.7 129.7 0 0 1 10.793-7.657c3.991-2.475 8.335-4.33 12.883-5.5 1.86-2.351 4.059-4.254 6.618-5.688l7.83-4.319a113.99 113.99 0 0 0 7.663-4.52c2.437-1.572 4.355-3.663 5.746-6.28 1.161 2.091 2.783 2.812 4.874 2.156 2.09-.649 4.066-1.37 5.919-2.156a3.04 3.04 0 0 1 2.963.786c.814.786 1.564 1.572 2.263 2.358.693.778 1.334 1.24 1.911 1.37.584.129 1.103-.455 1.572-1.767 1.16 0 1.506.656 1.045 1.961-.321.928-.669 1.847-1.045 2.754 1.693-.311 3.438.198 4.7 1.37 1.276 1.182 3.309 1.896 6.092 2.163.93 1.305 1.161 2.292.699 2.941-.468.656-.699 1.766-.699 3.338 6.964 2.358 11.376 6.085 13.236 11.189 1.853 5.104 1.969 10.41.346 15.904-1.629 5.501-4.527 10.605-8.708 15.313-4.175 4.715-8.702 7.858-13.576 9.43a356.7 356.7 0 0 0-31.519 11.189c-9.863 4.058-17.93 10.013-24.195 17.864a56.32 56.32 0 0 0-14.801 7.26c-4.297 3.014-8.355 6.417-12.191 10.216-3.785 3.748-7.387 7.677-10.792 11.773-3.41 4.107-6.952 8.103-10.62 11.982.231 3.662-.288 6.474-1.571 8.442-1.276 1.961-2.495 3.987-3.656 6.085.469 3.922 1.277 7.397 2.437 10.403 1.161 3.014 2.444 5.955 3.836 8.839 15.32 5.234 31.627 8.507 48.923 9.812 17.295 1.312 34.648 2.098 52.059 2.357 1.622 2.617 3.539 5.04 5.745 7.267a66.54 66.54 0 0 1 6.092 7.065c1.86 2.488 3.367 5.234 4.528 8.248 1.161 3.006 1.391 6.741.699 11.189a81.75 81.75 0 0 1-10.799 10.8l-11.838 10.006zm236.439-189.65c-5.804 0-12.069.461-18.802 1.377l-19.848 2.942c-4.643.785-9.112 1.441-13.409 1.968-4.297.519-8.183.915-11.665 1.175a215.41 215.41 0 0 1-4.874 15.313c-1.596 4.375-3.339 8.696-5.226 12.955-1.854 4.45-3.537 8.968-5.047 13.546-1.592 4.867-3.045 9.779-4.354 14.729a127.42 127.42 0 0 0-5.746 11.586 63.63 63.63 0 0 0-3.655 11.974c-2.71 3.776-4.823 7.946-6.265 12.364-1.218 3.682-2.265 7.418-3.136 11.197l-1.392 4.707c-1.391 1.572-2.206 2.819-2.437 3.735-.3 1.012-.91 1.905-1.744 2.552-.269 3.005-1.095 5.934-2.437 8.637-.438 1.215-.788 2.461-1.045 3.727-.188.839-.303 1.693-.347 2.552 0 2.617-.583 4.319-1.744 5.104.238 1.313.238 2.682 0 4.124l-.692 4.124c-.7 3.143-.93 5.63-.7 7.462.7 1.045 1.334 1.961 1.918 2.746.577.786.988 1.832 1.218 3.144 1.392 1.045 2.437 1.701 3.137 1.961.922.786 2.321 1.701 4.174 2.746l3.136 3.93c1.161 7.591.115 13.611-3.136 18.059-3.482 4.975-9.401 7.462-17.757 7.462h-4.181c-1.161-1.305-1.853-2.358-2.091-3.143l-4.52-1.961c-1.161-.52-2.206-1.572-3.136-3.144a237.42 237.42 0 0 1-7.311-3.922l-3.136-1.968v-4.708a26.1 26.1 0 0 1-3.655-7.851c-.815-2.883-1.456-5.76-1.918-8.644-.437-2.241-.959-4.466-1.564-6.668a22.72 22.72 0 0 0-2.264-5.501c-.469-15.183.808-28.009 3.828-38.477 2.916-10.145 6.05-20.226 9.401-30.236l5.573-15.904c1.86-5.363 3.482-10.929 4.874-16.689l3.136-3.922 4.001-10.411 3.309-8.442a164.75 164.75 0 0 0 1.918-5.299l1.564-4.513c-1.391 0-2.667.065-3.828.195l-7.31 1.175c-1.156.132-2.319.199-3.482.202-1.63 0-2.79-.137-3.482-.397-2.59 1.317-5.459 1.99-8.363 1.961h-3.483a8.79 8.79 0 0 1-1.91-.194c-.515-.122-1.042-.188-1.572-.195-2.321 0-4.174.389-5.565 1.175h-11.492l-3.482.397c-1.758-.014-3.51-.212-5.227-.592a18.36 18.36 0 0 1-5.919-2.552c-2.783-4.188-4.643-6.409-5.573-6.676l-3.136-4.707a28.34 28.34 0 0 0-1.038-4.521c-.519-1.618-.985-3.253-1.399-4.902-.973-2.781-1.843-5.597-2.609-8.442-.815-3.014-1.219-6.611-1.219-10.8.231-2.098.699-3.669 1.392-4.715.699-1.045 1.276-1.961 1.744-2.747l1.046-5.89 4.527.39h9.747c7.426 0 14.974-.325 22.638-.981l23.675-2.155 28.903-3.144c.93-2.357 1.853-4.578 2.783-6.676l3.482-1.961c4.181-.266 7.137.325 8.882 1.767 1.737 1.442 3.193 2.811 4.354 4.123l15.493-1.766a234.82 234.82 0 0 0 15.846-2.552c7.929-1.315 15.88-2.495 23.849-3.54 7.677-1.022 15.412-1.544 23.157-1.564a109.89 109.89 0 0 1 9.401.389c3.02.26 5.803.656 8.363 1.175l3.482 2.754c.692 1.572 1.679 3.007 2.956 4.319 1.276 1.305 2.609 2.617 4.008 3.922 2.783 2.883 5.566 6.286 8.356 10.215 2.782 3.922 3.828 9.682 3.128 17.274-1.852 3.143-3.244 4.974-4.174 5.494l-3.136 4.714-3.482-.389c-1.391 0-2.667.195-3.828.584a38.86 38.86 0 0 0-3.482 1.377c-.904.511-1.835.971-2.79 1.377-1.013.416-2.06.744-3.129.981l-9.055-.397z"/></g><g stroke="#000" stroke-width="14.42"><path d="M841.271 11.03l-.671 555.304" fill="none"/><g fill-rule="nonzero"><path d="M329.902 302.794L155.269 596.685s0-.267-147.757-245.97l29.256 48.656c158.873-108.342 191.561 3.1 163.444 5.58-32.558-39.248-84.436 57.928 40.87 47.323l159.486-268.399" fill="#375ca5"/><path d="M400.568 183.875l50.934 47.979 54.042-53.256 50.574 50.877 50.797-46.573 47.171 78.849L503.691 10.324l-173.789 292.47" fill="#e8e8e8"/></g></g><path d="M405.557 369.798c-.418-2.609-.937-4.224-1.557-4.823 1.449-3.619 2.537-7.187 3.266-10.706s1.297-6.885 1.708-10.107c.418-2.812.88-5.429 1.399-7.837.519-2.415 1.189-4.729 2.018-6.942 3.526-.801 6.165-2.257 7.931-4.369 1.759-2.113 3.158-3.973 4.196-5.58 3.727-.202 6.164.302 7.303 1.506s2.437 3.216 3.886 6.035c1.038 2.213 2.487 4.57 4.354 7.086 1.86 2.509 4.657 4.47 8.392 5.883.62 2.206 1.348 4.319 2.177 6.33a145.24 145.24 0 0 0 2.797 6.337 221.97 221.97 0 0 1 5.285 13.114c1.658 4.528 2.588 8.803 2.797 12.818-2.487 4.629-4.405 9.957-5.753 15.991a108.53 108.53 0 0 0-2.487 18.24 110.31 110.31 0 0 0 .468 17.648c.62 5.631 1.658 10.353 3.108 14.174l1.867 4.823 6.834-.598a164.16 164.16 0 0 0 20.208-6.186c5.842-2.232 11.461-5.008 16.784-8.291a119.09 119.09 0 0 0 14.923-11.009 184.01 184.01 0 0 0 14.916-14.628 106.4 106.4 0 0 0 13.367-19.155c3.936-7.137 7.202-14.527 9.79-22.169 2.595-7.634 4.614-15.276 6.063-22.918s2.386-14.78 2.797-21.412c3.937-1.81 6.114-4.722 6.532-8.745l-.937-3.922a4.51 4.51 0 0 1-.779-2.869 7.53 7.53 0 0 1 .779-2.56c1.658-4.628 5.183-8.046 10.569-10.252 3.734 2.408 7.202 5.025 10.417 7.837 3.208 2.819 6.164 5.631 8.853 8.449.419 5.429 1.248 10.101 2.488 14.023a164.62 164.62 0 0 0 4.044 11.311 176.62 176.62 0 0 1 3.886 9.949c1.139 3.216 1.918 7.137 2.329 11.766a112.12 112.12 0 0 0-4.506 17.036 536.8 536.8 0 0 0-2.646 16.74l-.62 3.316c-3.78 6.325-7.457 12.711-11.03 19.156a299.4 299.4 0 0 0-8.861 17.035 19.39 19.39 0 0 0-3.266 4.225c-.93 1.608-1.809 3.215-2.638 4.823a29.98 29.98 0 0 0-1.716 3.021c-.721 1.406-1.399 2.408-2.019 3.013l-7.461-2.718-1.861 9.351-4.974 1.211-3.734 4.218c-4.766 8.045-9.791 14.779-15.075 20.208a101.92 101.92 0 0 1-17.714 14.476c-7.055 4.51-14.434 8.493-22.075 11.917-9.286 4.182-18.665 8.153-28.131 11.91-3.551-.55-7.13-.902-10.72-1.052a247.31 247.31 0 0 1-8.861-.455 112.4 112.4 0 0 1-8.391-.302c-2.697-.202-5.804-.505-9.329-.909a8.13 8.13 0 0 0-3.418-3.915 8.4 8.4 0 0 0-4.037-1.211c-4.145-2.011-7.252-4.823-9.329-8.442-2.261-3.973-4.436-7.994-6.524-12.061-1.038-2.415-2.127-4.831-3.266-7.238-1.16-2.451-2.566-4.777-4.196-6.943l6.214-1.81-8.081-9.047a36.81 36.81 0 0 0-2.019-1.81c-.749-.624-1.426-1.33-2.018-2.105v-5.732c-.83-16.487-1.19-31.721-1.089-45.693s2.019-26.292 5.753-36.948l.62-1.507zm-357.91-168.05a202.18 202.18 0 0 0-2.927-6.366c-.897-1.863-1.879-3.684-2.942-5.458l-6.156-13.034a108.66 108.66 0 0 1-4.953-13.323l3.323-17.152A1351.14 1351.14 0 0 1 46.248 91.04c2.401-9.826 4.838-18.247 7.303-25.254L61.1 45.953c2.768-7.008 5.825-13.46 9.184-19.358 3.353-5.897 6.95-10.936 10.793-15.118 3.835-4.181 7.952-6.654 12.357-7.411 1.182 1.622 2.465 2.891 3.849 3.814 1.392.915 2.682 1.586 3.879 1.997 2.935 4.346 6.196 8.462 9.754 12.314 3.158 3.352 6.921 6.661 11.283 9.92-1.261 6.019-3.078 12.688-5.45 20.006l-7.419 22.089-7.562 21.484a315.38 315.38 0 0 0-5.876 17.887 227.86 227.86 0 0 0-3.742 13.835c-1.228 5.291-2.331 10.611-3.309 15.954a507.55 507.55 0 0 0-3.359 20.475c2.804-.779 5.969-2.358 9.487-4.73 3.518-2.379 6.792-4.859 9.812-7.44 3.627-2.977 7.152-6.157 10.584-9.538 4.11-4.014 8.05-8.199 11.809-12.544 3.215-3.763 6.207-7.711 8.961-11.824 2.739-4.095 5.58-8.586 8.529-13.481l10.511-17.541 11.427-18.578a408.96 408.96 0 0 1 23.884-35.492c3.85-5.09 7.383-9.026 10.605-11.802 2.178 2.228 4.694 4.571 7.57 7.015 2.87 2.437 5.991 4.181 9.38 5.22 1.37 2.227 2.703 4.203 3.979 5.926l3.692 5.017 4.282 6.071c1.276 1.824 2.408 3.849 3.381 6.07-.216 1.608-.584 3.713-1.11 6.323l-1.738 8.579-2.047 9.48-2.048 9.329-4.7 20.46c-.841 3.59-1.579 7.204-2.213 10.836a69.9 69.9 0 0 0-.815 6.625c-.123 1.81-.195 4.319-.231 7.534a44.62 44.62 0 0 0 .527 7.246 194.64 194.64 0 0 0 1.276 6.798c.476 2.322 1.398 4.492 2.775 6.517l14.498-11.008c4.023-2.978 7.909-7.21 11.665-12.696 4.074-6.047 7.742-12.357 10.98-18.889 3.562-7.101 7.087-14.808 10.569-23.113l10.454-25.68 7.533-19.076c2.567-6.308 5.17-12.313 7.83-18.016 2.442-5.278 5.043-10.481 7.8-15.601 2.545-4.701 5.033-8.644 7.462-11.838 4.867 3.106 9.487 6.581 13.821 10.396 3.857 3.46 7.209 7.267 10.064 11.42s5.097 8.896 6.741 14.245c1.643 5.343 2.826 11.636 3.547 18.889a382.36 382.36 0 0 0-12.545 25.802l-11.664 26.726-15.183 34.677c-5.097 11.282-10.863 22.251-17.267 32.846a190.34 190.34 0 0 1-21.116 28.585c-7.735 8.629-16.754 16.014-26.74 21.895a34.71 34.71 0 0 0-7.173-.981c-1.887-.071-3.771.215-5.551.844a14.97 14.97 0 0 0-4.074 2.372 47.27 47.27 0 0 1-19.588-17.245c-5.25-8.183-10.06-16.64-14.411-25.334-.573-1.392-1.21-2.756-1.911-4.088a161.11 161.11 0 0 0-2.199-4.095l-4.996-9.401-2.934-5.767-4.232 3.879-6.351 5.666-3.634 3.583a596.03 596.03 0 0 1-19.047 16.841 180.69 180.69 0 0 1-20.222 14.873 107.41 107.41 0 0 1-22.429 10.771c-7.916 2.732-16.365 4.153-25.355 4.261l-8.046-4.001c-3.917-1.884-7.697-4.04-11.311-6.453-2.978-2.04-6.438-5.19-10.389-9.458z"/></svg>