<svg viewBox="0 0 449 449" xmlns="http://www.w3.org/2000/svg" fill-rule="evenodd" clip-rule="evenodd" stroke-linejoin="round" stroke-miterlimit="2"><path fill="none" d="M0 0h449v449H0z"/><g fill-rule="nonzero"><path d="M382.666 244.308c43.577-48.3 43.546-126.511-.098-174.765-41.982-46.418-109.033-48.218-152.961-5.403-2.925 2.851-7.288 2.851-10.214 0-43.928-42.815-110.977-41.015-152.962 5.403-43.643 48.254-43.674 126.465-.097 174.765l152.736 168.88c3 3.316 7.862 3.316 10.861 0l152.735-168.88z" fill="#df4759" stroke="#61dafb" stroke-width="7.48"/><path d="M240.881 299.118l-62.244 69.78-65.131-78.246 59.248-66.787c13.686-15.115 35.873-15.115 49.557 0l18.57 20.512c13.684 15.113 13.684 39.626 0 54.741zm142.885-58.966L224.5 416.576l-21.315-25.131 152.542-162.421c43.836-46.859 43.806-122.739-.099-169.546-7.311-7.792-7.277-11.698-15.851-16.895 19.778 4.899 30.443 12.974 45.863 29.413 35.846 50.045 37.075 118.531-1.874 168.156z" fill="#2d3242" fill-opacity=".17"/></g><path d="M142.648 271.089c-11.477 3.118-44.278 45.588-44.278 45.588l26.082 28.376s39.748-34.758 42.781-47.085c2.919-11.869-13.108-29.997-24.585-26.879z" fill="#bca784" stroke="#61dafb" stroke-width="5.99"/><path d="M219.832 286.956l-67.853 75.011c-3.171 3.507-8.308 3.507-11.479 0l-15.558-17.201 42.403-46.884-25.187-27.849-42.404 46.885-6.634-7.337c-8.1-8.956-8.1-23.466 0-32.425l58.922-65.147c13.621-15.061 35.7-15.061 49.314 0l18.476 20.42c13.615 15.061 13.615 39.473 0 54.527z" fill="#e0c59d" fill-rule="nonzero" stroke="#61dafb" stroke-width="7.48"/></svg>