<svg xmlns="http://www.w3.org/2000/svg" viewBox="0 0 300 300" fill-rule="evenodd" stroke-linejoin="round" stroke-miterlimit="2"><g fill-rule="nonzero"><path d="M255.679 163.235c29.116-32.272 29.095-84.529-.066-116.77-28.05-31.014-72.85-32.217-102.201-3.61-1.954 1.905-4.869 1.905-6.824 0-29.351-28.607-74.15-27.404-102.202 3.61-29.16 32.241-29.181 84.498-.065 116.77l102.051 112.837c2.004 2.216 5.253 2.216 7.257 0l102.05-112.837z" fill="#ea4672" stroke="#282c34" stroke-width="3.13"/><path d="M160.522 200.156l-38.394 42.45-45.289-50.075 38.393-42.45c9.098-10.058 23.848-10.058 32.945 0l12.345 13.649c9.097 10.057 9.097 26.368 0 36.426zm94.989-39.237L149.985 273.336l-12.533-13.735 99.419-106.087c29.142-31.181 29.122-81.673-.066-112.82-4.86-5.185-10.37-7.784-16.07-11.242 13.148 3.26 25.771 8.633 36.022 19.572 23.83 33.301 24.647 78.873-1.246 111.895z" fill="#e01a4f"/></g><path d="M94.622 179.085l-30.831 29.414 20.05 21.092 30.831-29.414-20.05-21.092z" fill="#bca784"/><path d="M146.881 191.73l-45.336 50.119c-2.119 2.343-5.551 2.343-7.67 0L83.48 230.356l28.332-31.326-16.829-18.607-28.332 31.326-4.433-4.902c-5.412-5.984-5.412-15.679 0-21.665l39.369-43.528c9.101-10.063 23.853-10.063 32.949 0l12.345 13.644c9.097 10.063 9.097 26.374 0 36.432z" fill="#e0c59d" fill-rule="nonzero"/></svg>