<svg viewBox="0 0 5334 4267" xmlns="http://www.w3.org/2000/svg" fill-rule="evenodd" clip-rule="evenodd" stroke-linejoin="round" stroke-miterlimit="2"><path d="M3568.55 1590.01l-1859.51-1176-282.968 478.078c99.217 66.615 159.245 180.906 159.245 303.199 0 198.337-157.889 361.543-349.764 361.543-61.213 0-121.366-16.611-174.424-48.165l-91.825 155.141h783.819v981.089l1909.72 1207.75 399.694-675.29h-493.982v-1587.35z" fill="#f2f8fa" fill-rule="nonzero"/><ellipse cx="1249.61" cy="1204.48" rx="227.909" ry="235.584" fill="#9cc0ff" stroke="#282c34" stroke-width="8.33"/><ellipse cx="2653.18" cy="3594.6" rx="189.91" ry="29.356" fill="#174291"/><ellipse cx="2691.16" cy="3565.47" rx="189.91" ry="29.356" fill="none" stroke="#282c34" stroke-width="11.24" stroke-linejoin="miter" stroke-miterlimit="10"/><ellipse cx="2653.18" cy="3263.84" rx="281.066" ry="43.447" fill="#174291"/><ellipse cx="2691.16" cy="3225.13" rx="281.066" ry="43.447" fill="none" stroke="#282c34" stroke-width="11.24" stroke-linejoin="miter" stroke-miterlimit="10"/><g><ellipse cx="2645.58" cy="2921.46" rx="357.03" ry="55.19" fill="#174291"/><ellipse cx="2691.16" cy="2875.6" rx="357.03" ry="55.19" fill="none" stroke="#282c34" stroke-width="11.24" stroke-linejoin="miter" stroke-miterlimit="10"/></g><g><path d="M2618.09 2365.09l505.856-578.683c73.637-75.277 114.912-176.498 114.912-281.802 0-221.075-181.917-402.992-402.992-402.992-108.376 0-212.296 43.718-288.081 121.19-75.277-73.636-176.497-114.911-281.801-114.911-221.075 0-402.992 181.917-402.992 402.992 0 108.375 43.717 212.296 121.19 288.08l562.792 566.126" fill="#174291" fill-rule="nonzero"/><path d="M4084.62 2574.02s-13.145-167.876-71.953-225.597c-403.041-395.594-1141.73 182.604-1331.37-86.057l505.856-578.684c73.636-75.277 114.911-176.497 114.911-281.801 0-221.075-181.917-402.992-402.992-402.992-108.375 0-212.296 43.717-288.08 121.19-75.277-73.637-176.498-114.912-281.802-114.912-221.075 0-402.992 181.918-402.992 402.992 0 108.376 43.718 212.297 121.191 288.081l562.791 566.126" fill="none" stroke="#282c34" stroke-width="15.8" stroke-linejoin="miter" stroke-miterlimit="10"/><path d="M1774.11 2409.16s211.507 136.542 319.446-19.936c155.749-225.789 516.623-126.86 516.623-126.86" fill="none" stroke="#282c34" stroke-width="15.8" stroke-linejoin="miter" stroke-miterlimit="10"/></g><g><path fill="none" stroke="#282c34" stroke-width="10.01" stroke-linejoin="miter" stroke-miterlimit="10" d="M3576.7 1603.51h1729.94v1568.6H3576.7z"/><path d="M4519.52 2215.74l-79.27 3.074 3.952 101.919 79.27-3.074-3.952-101.919z" fill="#08355c"/><path d="M4161.93 2572.68s-109.776-52.45-108.02-7.153c1.757 45.297 110.655 75.098 110.655 75.098l-2.635-67.945z" fill="#ffb9b9" fill-rule="nonzero"/><path d="M4672.41 3172.12h-520.715c10.866-50.975 31.546-112.465 47.72-156.78 12.819-35.051 22.733-59.387 22.733-59.387 59.137-66.698 144.963-68.401 225.481-51.926a538.045 538.045 0 0128.592 6.609c1.102.251 2.204.551 3.305.852 18.828 4.857 37.105 10.465 54.38 16.073 29.794 9.714 56.683 19.529 78.415 26.189a193.262 193.262 0 0033.55 7.861c2.494.266 5.003.366 7.511.301 8.612-.351 14.571 8.913 18.427 25.086 8.712 36.504 6.71 108.41.601 185.122z" fill="#20232a" fill-rule="nonzero"/><path d="M4569.69 2120.23s60.354 94.061 83.881 115.832c23.527 21.77-42.663 69.702-42.663 69.702l-118.466 15.935s1.491-107.8-4.61-118.905c-6.102-11.105 81.858-82.564 81.858-82.564z" fill="#ffb9b9" fill-rule="nonzero"/><path d="M4466.72 2243.3s24.405 44.419 47.054 43.541c22.648-.878 139.797-50.786 144.8-67.992 5.004-17.206 38.804 123.249 38.804 123.249l-286.654 504.464-69.922-48.324 33.88-296.189 27.825-159.857 64.213-98.892z" fill="#174291" fill-rule="nonzero"/><path d="M4669.15 2694.78a158.645 158.645 0 00-17.586 74.401c.044 1.132.088 2.265.188 3.395 2.713 52.405 22.018 113.013 28.945 157.089 5.025 31.618 3.595 54.696-14.908 60.12-44.858 13.081 6.541 22.429-167.01 80.195-173.551 57.766-203.837 7.905-204.277-3.42-.439-11.324 24.579-97.354 18.697-102.797-5.882-5.442-82.298 71.24-105.385 60.793-23.088-10.446-2.635-67.945-2.635-67.945s52.01-121.101 50.913-149.412c-1.098-28.311 78.784-161.834 78.784-161.834l54.333-353.687s20.892-46.176 48.983-52.936a69.612 69.612 0 0151.398 9.348l-47.007 103.895-49.595 183.384 8.297 67.727s57.673-121.321 95.551-168.155c37.879-46.834 118.639-157.708 118.639-157.708s18.855-63.619 4.622-82.631c-14.236-19.069 59.372-21.923 90.756 56.249 16.635 41.431 43.641 103.215 60.559 160.74 15.075 50.962 22.196 98.603 7.261 125.834-22.828 41.601-80.249 96.281-109.523 157.355z" fill="#282c34" fill-rule="nonzero"/><path d="M4778.67 2537.42c-22.827 41.601-80.248 96.281-109.523 157.356-7.646-27.547-16.973-56.049-16.973-56.049s-35.776-191.415 70.048-240.884a70.843 70.843 0 0149.187 13.744c15.076 50.961 22.197 98.602 7.261 125.833z" fill-opacity=".1" fill-rule="nonzero"/><path d="M4358.57 2525.36l-89.717 26.161-124.567 4.831-12.814 108.239 204.715 14.745s51.133-143.75 22.383-153.976z" fill="#282c34" fill-rule="nonzero"/><path d="M4504.87 2889.3s-120.022 19.913-92.628 56.031c27.394 36.118 133.719-1.854 133.719-1.854l-41.091-54.177z" fill="#ffb9b9" fill-rule="nonzero"/><path d="M4651.75 2772.57c2.713 52.405 22.018 113.013 28.944 157.089-38.234 36.187-74.593 68.105-88.295 68.637-28.311 1.097-73.828-2.808-90.595 3.513-16.767 6.321-26.601-101.041-26.601-101.041s10.007-34.412 54.646-53.155c30.13-12.68 87.884-47.072 121.901-75.043z" fill-opacity=".1" fill-rule="nonzero"/><path d="M4720.9 2363.87s95.817-15.057 90.641 143.922c-5.177 158.98 10.1 260.459-28.438 290.307-38.537 29.848-163.716 165.127-192.027 166.225-28.311 1.098-73.827-2.808-90.594 3.513-16.767 6.321-26.601-101.04-26.601-101.04s10.007-34.413 54.645-53.156c44.639-18.743 149.804-85.198 148.926-107.847-.878-22.648-26.601-101.04-26.601-101.04s-35.776-191.415 70.049-240.884z" fill="#282c34" fill-rule="nonzero"/><circle cx="4485.19" cy="2134.85" r="124.661" fill="#ffb9b9"/><path d="M4401.26 1956.17a24.068 24.068 0 01-10.481 5.26c-4.022.717-7.926-1.987-8.668-6.004a31.09 31.09 0 01-11.893 15.254c-5.824 3.035-14.828.49-15.667-6.023a27.486 27.486 0 01-6.326 13.353c-3.544 3.749-9.533 3.949-13.319.445 2.55 13.937.976 28.269 1.777 42.414.801 14.145 4.573 29.141 15.259 38.442 15.586 13.565 39.023 10.217 59.525 7.647 3.1-.65 6.317-.474 9.328.511 7.676 3.27 7.328 13.956 7.431 22.299 1.288 30.104 24.356 55.121 54.256 58.841a31.076 31.076 0 0023.085-5.634c5.821-4.934 8.794-12.976 15.464-16.682 10.85-6.029 24.009 2.763 31.942 12.31 7.932 9.547 15.751 21.29 28.039 23.038 16.253 2.311 28.632-14.252 34.705-29.503a172.054 172.054 0 00-3.418-133.64c-33.936-73.976-149.862-85.676-211.039-42.328z" fill="#282c34" fill-rule="nonzero"/></g><g><path fill="none" stroke="#282c34" stroke-width="10.01" stroke-linejoin="miter" stroke-miterlimit="10" d="M26.696 1674.35h1729.94v1568.6H26.696z"/><circle cx="1045.28" cy="2316.57" r="166.506" fill="#282c34"/><path d="M965.795 2400.68s-54.234 120.09-69.73 123.963c-15.495 3.874 127.837 73.603 127.837 73.603s27.117-147.206 38.739-154.953c11.621-7.748-96.846-42.613-96.846-42.613z" fill="#9f616a" fill-rule="nonzero"/><circle cx="1047.14" cy="2377.44" r="112.341" fill="#9f616a"/><path d="M1141.23 3232.39H663.528c15.974-58.035 33.049-115.569 42.663-147.516 4.857-16.024 7.812-25.638 7.812-25.638s360.279 77.464 367.99 81.369a91.329 91.329 0 0111.467 15.123c11.266 16.524 29.243 44.916 47.77 76.662z" fill="#20232a" fill-rule="nonzero"/><path d="M547.419 2137.26l-116.215-178.197s28.739-186.93-9.999-152.066c-38.739 34.865-50.998 175.659-50.998 175.659l134.6 204.964 42.612-50.36zM1601.11 2462.67l104.594-7.748s123.963-131.711 131.711-89.098c7.747 42.612-100.72 135.584-100.72 135.584l-143.333 15.496 7.748-54.234z" fill="#9f616a" fill-rule="nonzero"/><path d="M837.958 2501.41v-38.738s-100.72-65.856-96.846-77.477c3.874-11.622-7.748-19.369-7.748-19.369s-11.622-15.496-11.622-19.37c0-3.873-15.495-7.747-15.495-7.747l-96.846-112.342s-54.234-108.467-65.855-104.594c-11.622 3.874-73.604 27.117-65.856 42.613 7.748 15.496 224.683 348.646 224.683 348.646s11.622 73.603 30.991 73.603 104.594-85.225 104.594-85.225zM1097.51 2547.89s85.225-3.873 89.099 0c3.874 3.874 58.107 0 58.107 0s147.207-34.864 158.828-46.486c11.622-11.621 205.314-61.981 213.062-38.738 7.747 23.243 27.117 69.729 7.747 77.477-19.369 7.747-542.338 139.458-542.338 139.458l15.495-131.711z" fill="#174291" fill-rule="nonzero"/><circle cx="987.032" cy="2141.32" r="68.899" fill="#282c34"/><path d="M895.167 2104c.002-35.096 26.817-64.867 61.722-68.526a69.666 69.666 0 00-7.177-.373c-37.797 0-68.899 31.102-68.899 68.899s31.102 68.899 68.899 68.899a69.947 69.947 0 007.177-.372c-34.905-3.66-61.72-33.431-61.722-68.527z" fill="#20232a" fill-rule="nonzero"/><ellipse cx="1064.65" cy="2281.26" rx="114.831" ry="68.899" fill="#282c34"/><path d="M932.867 2460.73s-34.865 27.117-42.612 30.99c-7.748 3.874-54.234-34.864-61.982-34.864-7.748 0-108.468 116.215-108.468 116.215s18.718 21.56 0 131.711c-7.019 41.31-20.946 217.923-20.946 241.166 0 23.243-75.9 80.363-6.17 130.723 69.729 50.36 402.879 104.594 406.753 73.603 3.874-30.99-38.738-112.341-19.369-151.08 19.369-38.738 19.369-182.071 19.369-182.071l23.243-151.079 19.37-120.09s-91.036-25.18-98.783-25.18c-7.748 0-42.613 54.234-110.405-60.044z" fill="#174291" fill-rule="nonzero"/></g></svg>