<svg viewBox="0 0 1250 1250" xmlns="http://www.w3.org/2000/svg" fill-rule="evenodd" clip-rule="evenodd" stroke-linejoin="round" stroke-miterlimit="2"><path d="M520.312 1167.97c-.022 1.556.116 3.058.525 4.262 1.081 3.19 3.444 6.499 6.976 9.502 4.431 3.767 11.372 7.343 15.894 10.979 9.8 7.881 27.703 12.738 45.177 15.096 14.474 1.954 28.504 2.415 36.123 2.409 20.145-.014 65.659 2.395 101.28-40.357 3.68-4.417 3.082-10.991-1.335-14.671-4.417-3.68-10.991-3.082-14.671 1.335-29.863 35.841-68.4 32.848-85.288 32.86-7.029.005-19.971-.42-33.323-2.222-13.392-1.808-27.397-4.645-34.907-10.685-3.39-2.726-8.061-5.442-12.161-8.193-1.067-.716-2.426-1.821-3.341-2.593.456-1.856 1.092-4.704 1.056-6.01-.102-3.666-1.462-6.706-4.313-9.146-1.842-1.578-5.085-3.471-11.219-3.435-167.826.992-360.502.988-438.71-3.336-8.084-.447-17.657-6.17-23.52-13.321-2.961-3.612-5.24-7.576-4.375-11.573 18.258-84.265 76.175-390.577 91.714-471.064.205-1.062 1.51-1.158 2.67-1.626 3.859-1.559 8.914-2.155 14.293-2.373 18.948-.77 41.55 3.895 41.55 3.895 5.632 1.155 11.142-2.479 12.297-8.111 1.155-5.632-2.479-11.142-8.111-12.297 0 0-34.952-7.011-57.477-3.233-14.142 2.372-23.679 9.446-25.677 19.796-15.524 80.408-73.38 386.419-91.619 470.602-2.131 9.833 1.338 20.306 8.624 29.192 9.499 11.587 25.383 20.19 38.481 20.914 77.415 4.281 266.665 4.361 433.387 3.404z" fill="#61dafb"/><path d="M709.961 1165.69c-.915.772-2.275 1.877-3.342 2.593-4.099 2.751-8.77 5.467-12.16 8.193-5.536 4.452-14.916 7.041-24.858 8.963-16.977 3.283-35.72 3.95-44.594 3.944-3.879-.003-7.122.274-10.1.403-2.642.115-4.956.184-7.643-1.004-6.475-2.861-14.17-10.505-28.824-28.092-3.68-4.417-10.254-5.015-14.67-1.335-4.417 3.68-5.016 10.254-1.335 14.67 18.09 21.712 28.414 30.28 36.408 33.812 8.634 3.816 15.098 2.371 26.15 2.379 9.663.007 30.074-.748 48.563-4.322 13.705-2.65 26.327-7.046 33.958-13.183 4.522-3.636 11.464-7.212 15.895-10.979 3.532-3.003 5.895-6.312 6.976-9.502.408-1.204.546-2.706.524-4.262 166.723.957 355.972.877 433.388-3.404 13.098-.724 28.982-9.327 38.481-20.914 7.285-8.886 10.754-19.359 8.624-29.192-18.24-84.183-76.095-390.194-91.619-470.602-1.998-10.35-11.535-17.424-25.677-19.796-22.525-3.778-57.477 3.233-57.477 3.233-5.632 1.155-9.267 6.665-8.112 12.297 1.155 5.632 6.665 9.266 12.297 8.111 0 0 22.602-4.665 41.551-3.895 5.378.218 10.434.814 14.292 2.373 1.16.468 2.465.564 2.67 1.626 15.539 80.487 73.456 386.799 91.714 471.064.866 3.997-1.413 7.961-4.375 11.573-5.862 7.151-15.436 12.874-23.52 13.321-78.208 4.324-270.883 4.328-438.71 3.336-6.133-.036-9.376 1.857-11.219 3.435-2.85 2.44-4.211 5.48-4.313 9.146-.036 1.306.6 4.154 1.057 6.01z" fill="#df4759"/><path d="M1089.72 634.846H160.27c-9.592.012-17.825 6.925-19.646 16.483l-87.816 457.45c-2.275 11.954.833 24.313 8.483 33.688 7.65 9.375 19.025 14.783 31.012 14.745l432.45.001c0 22.383 44.909 40.704 100.246 40.704 55.338 0 100.242-18.321 100.242-40.704h432.446c11.987.037 23.371-5.367 31.012-14.746 7.642-9.379 10.759-21.734 8.484-33.688l-87.817-457.45c-1.821-9.558-10.054-16.471-19.646-16.483z" fill="#32363e" fill-rule="nonzero"/><path d="M625.004 694.058v381.759a459.663 459.663 0 00-91.225-29.309 676.228 676.228 0 00-358.662 18.525 20.03 20.03 0 01-19.154-4.133 20.685 20.685 0 01-6.709-18.658l72.371-441.792c1.438-8.725 8.225-15.538 16.842-16.887l41.696-5.696c24.504 48.333 73.554 78.725 127.112 78.75 3.608 0 7.017-.204 10.421-.409a147.618 147.618 0 0039.1-8.545c.04.431.175.848.396 1.22 15.004 42.65 54.833 71.088 99.441 71.025a102.748 102.748 0 0068.371-25.85z" fill="#ecf4fb" fill-rule="nonzero"/><path d="M625 691.667S612.556 658.676 479.167 650c-57.946-3.769-106.835 351.856-29.167 383.333 27.381 11.097 69.35 13.593 96.801 24.377 40.157 15.776 78.199 21.457 78.199 21.457v-387.5z" fill="url(#_Linear1)"/><path d="M1074.89 1065.03a676.26 676.26 0 00-358.671-18.525 459.44 459.44 0 00-91.217 29.309V694.055a90.165 90.165 0 0011.625-11.6 167.602 167.602 0 0062.954 12.209h1.2a71.094 71.094 0 0015.642 39.687 150.333 150.333 0 0070.371 39.884 109.579 109.579 0 0149.716 33.37c11.788 14.825 31.755 20.034 49.121 12.825 15.284-6.704 25.209-21.966 25.259-38.866a42.107 42.107 0 00-2-13.025c-2.009-6.309-4.217-12.617-6.821-18.725a159.434 159.434 0 00-19.646-35.409c39.758-21.825 67.683-60.712 75.983-105.812.596-.821 1.4-1.629 2.004-2.45a107.497 107.497 0 0016.642-27.263l34.479 4.68c8.617 1.35 15.404 8.162 16.842 16.887l5.617 34.396 66.762 407.396a20.713 20.713 0 01-6.716 18.658 20.021 20.021 0 01-19.146 4.133z" fill="#ecf4fb" fill-rule="nonzero"/><g fill-rule="nonzero"><path d="M987.908 538.588a107.456 107.456 0 01-8.82 42.529 107.704 107.704 0 01-16.642 27.27c-.596.809-1.4 1.63-2.004 2.438-8.3 45.104-36.225 83.992-75.984 105.817a159.633 159.633 0 0119.646 35.408c2.604 6.108 4.813 12.417 6.821 18.725a42.112 42.112 0 012 13.025c-.05 16.896-9.971 32.162-25.258 38.867-17.367 7.208-37.334 1.996-49.121-12.817a109.492 109.492 0 00-49.717-33.379 150.296 150.296 0 01-70.371-39.888 71.06 71.06 0 01-15.641-39.675h-1.2a167.601 167.601 0 01-62.954-12.216 89.816 89.816 0 01-11.625 11.604 102.706 102.706 0 01-68.371 25.842c-44.609.07-84.438-28.371-99.438-71.017a2.915 2.915 0 01-.4-1.225 146.998 146.998 0 01-39.1 8.546c-3.467.244-6.941.38-10.416.408-54.192-.037-103.717-31.104-127.98-80.279-24.262-49.175-19.12-108.042 13.3-152.113a60.214 60.214 0 01-3.612-20.754c-.117-30.075 20.692-56.05 49.721-62.067a.705.705 0 01.4-.204 89.604 89.604 0 01-.4-7.525 81.243 81.243 0 016.816-32.766c12.792-30.029 41.946-49.467 74.18-49.446a78.132 78.132 0 0135.083 8.137c21.346-36.475 60.054-58.825 101.846-58.812 28.679-.104 56.383 10.546 77.787 29.912 12.296-20.116 34.646-31.558 57.892-29.633 23.246 1.925 43.475 16.912 52.383 38.792 5.723-.65 11.478-.988 17.238-1.013 77.679.129 142.325 60.613 148.762 139.184h.6c16.517 0 32.359 6.679 44.017 18.554 11.658 11.875 18.187 27.971 18.129 44.737a66.026 66.026 0 01-8.021 31.338 108.94 108.94 0 0120.454 63.696z" fill="#df4759"/><path d="M962.446 608.388c-.596.808-1.4 1.629-2.004 2.437a150.473 150.473 0 01-21.654 54.942 114.514 114.514 0 01-32.275 4.479 124.916 124.916 0 01-57.138-14.038 131.16 131.16 0 01-23.454-16.283 70.64 70.64 0 01-25.063 4.888c-26.483.137-50.741-15.017-62.554-39.076a20.688 20.688 0 011.158-20.35c3.942-6.087 10.78-9.579 17.942-9.158 7.163.421 13.563 4.688 16.792 11.196a30.137 30.137 0 0019.279 15.483 29.711 29.711 0 0024.221-4.287 30.018 30.018 0 0012.829-24.625 31.294 31.294 0 00-3.008-13.633c-4.034-9.838.096-21.175 9.462-25.988 9.367-4.812 20.817-1.467 26.229 7.671a72.592 72.592 0 017.417 31.95 71.098 71.098 0 01-12.633 39.679c3.208 2.238 6.416 4.479 9.625 6.308a83.93 83.93 0 0038.895 9.567 83.494 83.494 0 0055.934-21.162zm-245.192-79.896c25.971-18.159 43.834-45.996 49.704-77.45a20.545 20.545 0 00-6.425-19.5 19.855 19.855 0 00-19.896-3.871 20.313 20.313 0 00-13.062 15.721c-3.925 20.987-15.858 39.554-33.196 51.662-33.358 22.808-78.087 17.633-105.537-12.204a19.884 19.884 0 00-14.833-6.646c-5.016 0-9.85 1.899-13.526 5.313-8.191 7.579-8.783 20.47-1.312 28.783a120.524 120.524 0 0064.254 37.608c-11.229 16.025-29.425 25.517-48.792 25.471-11.075 0-20.05 9.113-20.05 20.354 0 11.242 8.975 20.35 20.05 20.35 41.496.171 78.734-25.854 93.4-65.258a119.812 119.812 0 0049.221-20.333zm186.85 223.558a155.072 155.072 0 01-46.912 15.467 17.68 17.68 0 01-3.209.208c-10.554.096-19.383-8.133-20.179-18.821-.796-10.687 6.717-20.171 17.171-21.679a114.701 114.701 0 0033.483-10.583 159.633 159.633 0 0119.646 35.408zM457.425 610.017a104.98 104.98 0 00-1.604 17.291 83.198 83.198 0 003.008 22.588 146.998 146.998 0 01-39.1 8.546 127.769 127.769 0 01-4.004-30.521c-35.317-3.909-62.088-34.15-62.15-70.209-.071-11.329 8.879-20.595 20.046-20.754a19.766 19.766 0 0114.137 5.855 20.34 20.34 0 015.909 14.291v.608c.304 16.084 12.846 29.167 28.675 29.913a122.327 122.327 0 0111.425-26.25 19.799 19.799 0 0112.296-9.333 19.547 19.547 0 0115.17 2.412c9.43 5.921 12.455 18.4 6.817 28.092a85.845 85.845 0 00-10.625 27.471zM755.55 729.058a166.423 166.423 0 01-37.092 7.525 71.06 71.06 0 01-15.641-39.675 53.115 53.115 0 005.821-.208 150.394 150.394 0 0035.079-6.508c6.916-2.409 14.571-.809 19.987 4.183 5.417 4.992 7.717 12.571 6.017 19.787-1.7 7.217-7.125 12.921-14.171 14.896zM551.179 378.475c0-11.242-8.975-20.354-20.042-20.354-50.912.058-92.17 41.937-92.224 93.608 0 11.242 8.979 20.354 20.045 20.354 11.067 0 20.05-9.112 20.05-20.354 0-14.029 5.492-27.483 15.271-37.408s23.034-15.496 36.858-15.496c11.067 0 20.042-9.113 20.042-20.35zM321.258 480.246a19.651 19.651 0 01-10.329-2.934 83.512 83.512 0 01-35.346-44.337 83.47 83.47 0 01-4.587-27.413c0-46.116 36.762-83.545 82.196-83.679 26.033-.1 50.541 12.446 65.941 33.759 4.275 5.841 5.154 13.55 2.304 20.22-2.85 6.671-8.983 11.309-16.1 12.138a19.94 19.94 0 01-18.404-8.079 41.412 41.412 0 00-33.658-17.259c-18.979.113-35.571 13.013-40.608 31.588-5.038 18.575 2.708 38.271 18.954 48.225 7.725 4.717 11.4 14.083 8.983 22.896-2.416 8.812-10.337 14.908-19.346 14.896v-.021zm430.217-193.563c-11.075 0-20.05-9.112-20.05-20.354 0-23.642-18.875-42.804-42.171-42.804s-42.175 19.162-42.175 42.804c0 11.242-8.975 20.354-20.042 20.354-11.066 0-20.05-9.112-20.05-20.354 0-46.117 36.834-83.504 82.267-83.504 45.433 0 82.271 37.387 82.271 83.504a20.506 20.506 0 01-5.871 14.388 19.906 19.906 0 01-14.179 5.966zm188.058 234.625c-9.308-.091-17.329-6.675-19.37-15.896-2.042-9.22 2.454-18.65 10.825-22.766a43.028 43.028 0 0018.991-17.825c10.196-17.646 6.646-40.146-8.462-53.679-14.971-13.474-37.68-14.245-53.529-1.817-8.859 6.742-21.421 4.921-28.071-4.067-6.65-8.987-4.85-21.75 4.012-28.491 14.029-10.78 31.121-16.667 48.717-16.771 38.733-.267 72.421 26.883 80.954 65.237 8.533 38.354-10.4 77.55-45.487 94.204a19.526 19.526 0 01-8.58 1.871z" fill="#e01a4f"/></g><g fill="#32363e" fill-rule="nonzero" stroke="#61dafb"><path d="M619.679 113.133c-11.075 0-20.05-9.112-20.05-20.345V72.433c0-11.237 8.975-20.35 20.05-20.35 11.075 0 20.05 9.113 20.05 20.35v20.355c0 11.233-8.979 20.345-20.05 20.345zM942.8 253.2a20.087 20.087 0 01-18.517-12.562 20.616 20.616 0 014.342-22.175l20.05-20.346a19.864 19.864 0 0119.492-5.554 20.232 20.232 0 0114.321 14.537 20.564 20.564 0 01-5.467 19.783l-20.05 20.355A19.898 19.898 0 01942.8 253.2zm-646.242 0a19.885 19.885 0 01-14.175-5.962l-20.05-20.355a20.571 20.571 0 01-5.466-19.783 20.228 20.228 0 0114.316-14.537 19.864 19.864 0 0119.496 5.554l20.05 20.346a20.617 20.617 0 014.346 22.175 20.093 20.093 0 01-18.517 12.562z" stroke-width="4.17"/><path d="M450.888 167.567a20.09 20.09 0 01-18.526-12.554L409.35 98.6a20.605 20.605 0 012.354-20.458c4.375-5.884 11.55-8.904 18.746-7.892 7.196 1.013 13.287 5.896 15.925 12.763l23.042 56.408a20.68 20.68 0 01.012 15.596c-2.033 4.996-5.942 8.958-10.862 11.025a20.096 20.096 0 01-7.679 1.525zm337.574 0a20.096 20.096 0 01-7.674-1.542 20.227 20.227 0 01-10.855-11.021 20.67 20.67 0 01.009-15.583l23.037-56.409c2.638-6.866 8.734-11.75 15.925-12.762 7.192-1.013 14.371 2.008 18.746 7.892a20.603 20.603 0 012.358 20.458l-23.016 56.412a20.088 20.088 0 01-18.53 12.555zm238.701 242.304c-9.584.025-17.855-6.834-19.721-16.379-1.867-9.546 3.175-19.096 12.041-22.792l55.575-23.367a19.82 19.82 0 0119.875 2.663c5.675 4.425 8.605 11.596 7.671 18.8-.933 7.204-5.591 13.362-12.204 16.146l-55.558 23.358a19.776 19.776 0 01-7.679 1.571zm-814.971 0a19.805 19.805 0 01-7.679-1.571l-55.555-23.358a20.344 20.344 0 01-12.212-16.146 20.52 20.52 0 017.675-18.8 19.844 19.844 0 0119.875-2.663l55.575 23.367c8.871 3.696 13.916 13.25 12.046 22.792-1.871 9.541-10.138 16.404-19.725 16.379z" stroke-width="6.25"/></g><defs><linearGradient id="_Linear1" x1="0" y1="0" x2="1" y2="0" gradientUnits="userSpaceOnUse" gradientTransform="matrix(196.435 0 0 429.172 428.565 864.581)"><stop offset="0" stop-color="#8d8d8d" stop-opacity=".08"/><stop offset=".46" stop-color="#656565" stop-opacity=".11"/><stop offset="1" stop-opacity=".16"/></linearGradient></defs></svg>