<svg xmlns="http://www.w3.org/2000/svg" viewBox="0 0 300 300" stroke-linejoin="round" stroke-miterlimit="2"><path d="M261.534 152.363H38.466c-2.302.003-4.278 1.662-4.715 3.956L12.675 266.107c-.546 2.869.2 5.835 2.036 8.085s4.566 3.548 7.443 3.539h103.788c0 5.372 10.778 9.769 24.059 9.769s24.058-4.397 24.058-9.769h103.787c2.877.009 5.609-1.288 7.443-3.539s2.582-5.216 2.036-8.085l-21.076-109.788c-.437-2.294-2.413-3.953-4.715-3.956z" fill="#32363e"/><path d="M150.001 166.574v91.622a110.316 110.316 0 00-21.894-7.034 162.279 162.279 0 00-86.079 4.446 4.803 4.803 0 01-4.597-.992 4.96 4.96 0 01-1.61-4.478l17.369-106.03c.345-2.094 1.974-3.729 4.042-4.053l10.007-1.367c5.881 11.6 17.653 18.894 30.507 18.9.866 0 1.684-.049 2.501-.098a35.426 35.426 0 009.384-2.051.703.703 0 00.095.293c3.601 10.236 13.16 17.061 23.866 17.046a24.654 24.654 0 0016.409-6.204z" fill="#eaecea"/><path d="M257.974 255.608a162.287 162.287 0 00-86.081-4.446 110.256 110.256 0 00-21.892 7.034v-91.622a21.647 21.647 0 002.79-2.784 40.223 40.223 0 0015.109 2.93h.288a17.06 17.06 0 003.754 9.525 36.075 36.075 0 0016.889 9.572 26.297 26.297 0 0111.932 8.009c2.829 3.558 7.621 4.808 11.789 3.078 3.668-1.609 6.05-5.272 6.062-9.328a10.097 10.097 0 00-.48-3.126c-.482-1.514-1.012-3.028-1.637-4.494a38.252 38.252 0 00-4.715-8.498c9.542-5.238 16.244-14.571 18.236-25.395.143-.197.336-.391.481-.588a25.8 25.8 0 003.994-6.543l8.275 1.123c2.068.324 3.697 1.959 4.042 4.053l1.348 8.255 16.023 97.775a4.967 4.967 0 01-1.612 4.478 4.8 4.8 0 01-4.595.992z" fill="#e6e8e6"/><path d="M237.098 129.261a25.79 25.79 0 01-2.117 10.207 25.846 25.846 0 01-3.994 6.545c-.143.194-.336.391-.481.585-1.992 10.825-8.694 20.158-18.236 25.396a38.32 38.32 0 014.715 8.498c.625 1.466 1.155 2.98 1.637 4.494a10.1 10.1 0 01.48 3.126c-.012 4.055-2.393 7.719-6.062 9.328-4.168 1.73-8.96.479-11.789-3.076a26.277 26.277 0 00-11.932-8.011 36.069 36.069 0 01-16.889-9.573 17.053 17.053 0 01-3.754-9.522h-.288a40.225 40.225 0 01-15.109-2.932 21.53 21.53 0 01-2.79 2.785 24.642 24.642 0 01-16.409 6.202c-10.706.017-20.265-6.809-23.865-17.044a.7.7 0 01-.096-.294 35.27 35.27 0 01-9.384 2.051 40.25 40.25 0 01-2.5.098c-13.006-.009-24.892-7.465-30.715-19.267s-4.589-25.93 3.192-36.507a14.45 14.45 0 01-.867-4.981c-.028-7.218 4.966-13.452 11.933-14.896a.168.168 0 01.096-.049 21.577 21.577 0 01-.096-1.806 19.5 19.5 0 011.636-7.864c3.07-7.207 10.067-11.872 17.803-11.867a18.75 18.75 0 018.42 1.953c5.123-8.754 14.413-14.118 24.443-14.115 6.883-.025 13.532 2.531 18.669 7.179 2.951-4.828 8.315-7.574 13.894-7.112s10.434 4.059 12.572 9.31a38.11 38.11 0 014.137-.243c18.643.031 34.158 14.547 35.703 33.404h.144c3.964 0 7.766 1.603 10.564 4.453s4.365 6.713 4.351 10.737a15.846 15.846 0 01-1.925 7.521 26.143 26.143 0 014.909 15.287z" fill="#ea4672"/><path d="M230.987 146.013c-.143.194-.336.391-.481.585a36.108 36.108 0 01-5.197 13.186 27.476 27.476 0 01-7.746 1.075 29.98 29.98 0 01-13.713-3.369 31.48 31.48 0 01-5.629-3.908 16.95 16.95 0 01-6.015 1.173c-6.356.033-12.178-3.604-15.013-9.378a4.96 4.96 0 01.278-4.884c.946-1.461 2.587-2.299 4.306-2.198s3.255 1.125 4.03 2.687a7.23 7.23 0 004.627 3.716 7.127 7.127 0 005.813-1.029 7.199 7.199 0 003.079-5.91 7.51 7.51 0 00-.722-3.272c-.968-2.361.023-5.082 2.271-6.237s4.996-.352 6.295 1.841a17.423 17.423 0 011.78 7.668 17.06 17.06 0 01-3.032 9.523c.77.537 1.54 1.075 2.31 1.514a20.145 20.145 0 009.335 2.296 20.032 20.032 0 0013.424-5.079zm-58.846-19.175c6.233-4.358 10.52-11.039 11.929-18.588a4.926 4.926 0 00-1.542-4.68 4.76 4.76 0 00-4.775-.929 4.87 4.87 0 00-3.135 3.773c-.942 5.037-3.806 9.493-7.967 12.399-8.006 5.474-18.741 4.232-25.329-2.929a4.77 4.77 0 00-6.806-.32c-1.966 1.819-2.108 4.913-.315 6.908a28.923 28.923 0 0015.421 9.026c-2.695 3.846-7.062 6.124-11.71 6.113-2.658 0-4.812 2.187-4.812 4.885s2.154 4.884 4.812 4.884c9.959.041 18.896-6.205 22.416-15.662a28.75 28.75 0 0011.813-4.88zm44.844 53.654a37.217 37.217 0 01-11.259 3.712c-.254.04-.513.057-.77.05-2.533.023-4.652-1.952-4.843-4.517s1.612-4.841 4.121-5.203a27.53 27.53 0 008.036-2.54 38.32 38.32 0 014.715 8.498zm-107.203-34.088a25.2 25.2 0 00-.385 4.15 19.963 19.963 0 00.722 5.421 35.27 35.27 0 01-9.384 2.051 30.66 30.66 0 01-.961-7.325c-8.476-.938-14.901-8.196-14.916-16.85-.017-2.719 2.131-4.943 4.811-4.981a4.743 4.743 0 013.393 1.405 4.88 4.88 0 011.418 3.43v.146c.073 3.86 3.083 7 6.882 7.179a29.37 29.37 0 012.742-6.3 4.75 4.75 0 012.951-2.24 4.69 4.69 0 013.641.579c2.263 1.421 2.989 4.416 1.636 6.742a20.605 20.605 0 00-2.55 6.593zm71.55 28.57a39.947 39.947 0 01-8.902 1.806 17.053 17.053 0 01-3.754-9.522 12.79 12.79 0 001.397-.05 36.086 36.086 0 008.419-1.562c1.66-.578 3.497-.194 4.797 1.004s1.852 3.017 1.444 4.749-1.71 3.101-3.401 3.575zm-49.049-84.14c0-2.698-2.154-4.885-4.81-4.885-12.219.014-22.121 10.065-22.134 22.466 0 2.698 2.155 4.885 4.811 4.885s4.812-2.187 4.812-4.885c0-3.367 1.318-6.596 3.665-8.978s5.528-3.719 8.846-3.719c2.656 0 4.81-2.187 4.81-4.884zm-55.181 24.425a4.717 4.717 0 01-2.479-.704 20.038 20.038 0 01-8.483-10.641 20.03 20.03 0 01-1.101-6.579c0-11.068 8.823-20.051 19.727-20.083 6.248-.024 12.13 2.987 15.826 8.102 1.026 1.402 1.237 3.252.553 4.853s-2.156 2.714-3.864 2.913a4.78 4.78 0 01-4.417-1.939 9.932 9.932 0 00-8.078-4.142c-4.555.027-8.537 3.123-9.746 7.581s.65 9.185 4.549 11.574c1.854 1.132 2.736 3.38 2.156 5.495s-2.481 3.578-4.643 3.575v-.005zm103.252-46.455c-2.658 0-4.812-2.187-4.812-4.885 0-5.674-4.53-10.273-10.121-10.273s-10.122 4.599-10.122 10.273c0 2.698-2.154 4.885-4.81 4.885s-4.812-2.187-4.812-4.885c0-11.068 8.84-20.041 19.744-20.041s19.745 8.973 19.745 20.041a4.92 4.92 0 01-1.409 3.453 4.776 4.776 0 01-3.403 1.432zm45.134 56.31c-2.234-.022-4.159-1.602-4.649-3.815s.589-4.476 2.598-5.464a10.326 10.326 0 004.558-4.278c2.447-4.235 1.595-9.635-2.031-12.883a9.99 9.99 0 00-12.847-.436c-2.126 1.618-5.141 1.181-6.737-.976s-1.164-5.22.963-6.838c3.367-2.587 7.469-4 11.692-4.025 9.296-.064 17.381 6.452 19.429 15.657s-2.496 18.612-10.917 22.609a4.69 4.69 0 01-2.059.449z" fill="#e01a4f"/><path d="M148.723 27.152c-2.658 0-4.812-2.187-4.812-4.883v-4.885c0-2.697 2.154-4.884 4.812-4.884s4.812 2.187 4.812 4.884v4.885c0 2.696-2.155 4.883-4.812 4.883zm77.549 33.616a4.812 4.812 0 01-4.444-3.015 4.94 4.94 0 011.042-5.322l4.812-4.883a4.762 4.762 0 014.678-1.333 4.85 4.85 0 013.437 3.489 4.93 4.93 0 01-1.312 4.748l-4.812 4.885a4.773 4.773 0 01-3.401 1.431zm-155.098 0a4.77 4.77 0 01-3.402-1.431l-4.812-4.885a4.932 4.932 0 01-1.312-4.748 4.85 4.85 0 013.436-3.489 4.762 4.762 0 014.679 1.333l4.812 4.883a4.94 4.94 0 011.043 5.322 4.814 4.814 0 01-4.444 3.015z" fill="#20232a"/><path d="M108.213 40.216a4.813 4.813 0 01-4.446-3.013l-5.523-13.539a4.94 4.94 0 01.565-4.91c1.05-1.412 2.772-2.137 4.499-1.894s3.189 1.415 3.822 3.063l5.53 13.538c.489 1.198.491 2.544.003 3.743s-1.426 2.15-2.607 2.646a4.816 4.816 0 01-1.843.366zm81.018 0a4.82 4.82 0 01-1.842-.37 4.852 4.852 0 01-2.605-2.645 4.96 4.96 0 01.002-3.74l5.529-13.538c.633-1.648 2.096-2.82 3.822-3.063s3.449.482 4.499 1.894a4.94 4.94 0 01.566 4.91l-5.524 13.539a4.812 4.812 0 01-4.447 3.013zm57.288 58.153c-2.3.006-4.285-1.64-4.733-3.931s.762-4.583 2.89-5.47l13.338-5.608c1.589-.666 3.408-.423 4.77.639s2.065 2.783 1.841 4.512-1.342 3.207-2.929 3.875l-13.334 5.606a4.746 4.746 0 01-1.843.377zm-195.593 0a4.75 4.75 0 01-1.843-.377L35.75 92.386a4.877 4.877 0 01-2.931-3.875 4.92 4.92 0 011.842-4.512 4.757 4.757 0 014.77-.639l13.338 5.608c2.129.887 3.34 3.18 2.891 5.47s-2.433 3.937-4.734 3.931z" fill="#32363e"/></svg>