<svg viewBox="0 0 5334 4267" xmlns="http://www.w3.org/2000/svg" fill-rule="evenodd" clip-rule="evenodd" stroke-linejoin="round" stroke-miterlimit="2"><path d="M5325.63 4070.03H7.71c-4.228 0-7.707-3.479-7.707-7.707s3.479-7.707 7.707-7.707h5317.92c4.228 0 7.707 3.479 7.707 7.707s-3.479 7.707-7.707 7.707z" fill="#20232a" fill-rule="nonzero"/><path d="M4799.26 2725.89H1670.17c-27.482 0-50.097 22.614-50.097 50.097 0 27.482 22.615 50.096 50.097 50.096h88.632v1198.46c0 27.482 22.614 50.097 50.096 50.097 27.482 0 50.096-22.615 50.096-50.097l.762-1198.46h2742.98v1198.46c0 27.482 22.614 50.097 50.097 50.097 27.482 0 50.096-22.615 50.096-50.097v-1172.04l14.575-26.415h81.764c27.482 0 50.096-22.615 50.096-50.097 0-27.482-22.614-50.096-50.096-50.096z" fill="#9aabbb" fill-rule="nonzero"/><path d="M3404.96 2752.11h-947.837c-26.838-.031-50.309-15.647-61.772-38.211a68.475 68.475 0 01-7.452-31.013v-521.843c.043-37.959 31.265-69.181 69.224-69.224h947.837c37.959.043 69.181 31.265 69.224 69.224v521.843c-.043 37.959-31.265 69.181-69.224 69.224z" fill="#f2f8fa" fill-rule="nonzero"/><path d="M3404.96 2145.09h-947.827c-8.744.019-15.934 7.209-15.952 15.954v521.85c.018 8.744 7.208 15.935 15.952 15.953h947.827c8.744-.018 15.934-7.209 15.952-15.953v-521.85c-.018-8.745-7.208-15.935-15.952-15.954z" fill="#20232a" fill-rule="nonzero"/><path d="M2770.47 2136.12c-174.948 40.187-279.646 157.998-331.575 334.118l1.292-331.404 330.283-2.714z" fill="#f2f8fa" fill-opacity=".45"/><path d="M3484.84 2688.21h-101.174c0-5.843-4.807-10.65-10.65-10.65h-31.949c-5.843 0-10.65 4.807-10.65 10.65h-31.95c0-5.843-4.807-10.65-10.65-10.65h-31.949c-5.842 0-10.65 4.807-10.65 10.65h-31.949c-.001-5.843-4.808-10.65-10.65-10.65h-31.95c-5.842 0-10.65 4.807-10.65 10.65h-31.949c0-5.843-4.808-10.65-10.65-10.65h-31.949c-5.843 0-10.65 4.807-10.65 10.65h-31.95c0-5.843-4.807-10.65-10.65-10.65h-31.949c-5.843 0-10.65 4.807-10.65 10.65h-31.95c0-5.843-4.807-10.65-10.65-10.65h-31.949c-5.843 0-10.65 4.807-10.65 10.65h-31.95c0-5.843-4.807-10.65-10.65-10.65h-31.949c-5.842 0-10.65 4.807-10.65 10.65h-31.95c0-5.843-4.807-10.65-10.649-10.65h-31.95c-5.842 0-10.65 4.807-10.65 10.65h-31.949c0-5.843-4.808-10.65-10.65-10.65h-31.95c-5.842 0-10.65 4.807-10.65 10.65h-31.949c0-5.843-4.808-10.65-10.65-10.65h-31.95c-5.842 0-10.649 4.807-10.649 10.65h-31.95c0-5.843-4.807-10.65-10.65-10.65h-31.949c-5.843 0-10.65 4.807-10.65 10.65h-101.174c-17.508.027-31.9 14.441-31.9 31.949 0 17.508 14.392 31.923 31.9 31.95h1107.59c17.527 0 31.949-14.423 31.949-31.95s-14.422-31.949-31.949-31.949z" fill="#f2f8fa" fill-rule="nonzero"/><g fill-rule="nonzero"><path d="M2212.55 2502.67v212.144h-531.501c-1.229.043-2.46.065-3.691.065-58.224 0-106.136-47.912-106.136-106.137 0-58.224 47.912-106.136 106.136-106.136 1.231 0 2.462.021 3.691.064h531.501z" fill="#f2f8fa"/><path d="M2225.61 2713.18c-.002 4.476-3.684 8.158-8.16 8.16h-545.863c-61.323 0-111.784-50.461-111.784-111.784 0-61.323 50.461-111.784 111.784-111.784h545.863c4.477 0 8.16 3.684 8.16 8.16s-3.683 8.159-8.16 8.159h-545.863c-52.338.047-95.379 43.127-95.379 95.465s43.041 95.418 95.379 95.465h545.863c4.476.002 8.158 3.684 8.16 8.159z" fill="#174291"/><path d="M2212.55 2551.62h-571.169a1.639 1.639 0 01-1.631-1.632 1.64 1.64 0 011.631-1.632l.012.001h571.157c.891.006 1.621.74 1.621 1.631a1.64 1.64 0 01-1.621 1.632zM2212.55 2590.79h-571.169a1.64 1.64 0 01-1.631-1.632c0-.896.736-1.632 1.631-1.632h571.169a1.64 1.64 0 011.621 1.632 1.64 1.64 0 01-1.621 1.632zM2212.55 2629.95h-571.169a1.64 1.64 0 01-1.631-1.632 1.64 1.64 0 011.631-1.632h571.169a1.64 1.64 0 011.621 1.632 1.64 1.64 0 01-1.621 1.632zM2212.55 2669.12h-571.169a1.638 1.638 0 01-1.631-1.631c0-.896.736-1.632 1.631-1.632h571.169a1.64 1.64 0 011.621 1.632c0 .891-.73 1.625-1.621 1.631z" fill="#9aabbb"/></g><g fill-rule="nonzero"><path d="M2112.36 2279.16v212.145h-531.501c-1.23.042-2.461.064-3.691.064-58.225 0-106.137-47.912-106.137-106.136 0-58.225 47.912-106.137 106.137-106.137 1.23 0 2.461.022 3.691.064h531.501z" fill="#f2f8fa"/><path d="M2125.42 2489.67c-.002 4.475-3.684 8.157-8.159 8.159h-545.864c-61.323 0-111.784-50.461-111.784-111.784 0-61.322 50.461-111.783 111.784-111.783h545.864c4.476 0 8.159 3.683 8.159 8.159 0 4.476-3.683 8.16-8.159 8.16h-545.864c-52.338.047-95.379 43.126-95.379 95.464 0 52.339 43.041 95.418 95.379 95.465h545.864c4.475.002 8.157 3.684 8.159 8.16z" fill="#282c34"/><path d="M2112.36 2328.12h-571.169a1.64 1.64 0 01-1.632-1.632 1.64 1.64 0 011.632-1.632h571.169c.891.006 1.62.741 1.62 1.632a1.64 1.64 0 01-1.62 1.632zM2112.36 2367.28h-571.169a1.64 1.64 0 01-1.632-1.632 1.64 1.64 0 011.632-1.632h571.169c.891.006 1.62.741 1.62 1.632 0 .891-.729 1.626-1.62 1.632zM2112.36 2406.45h-571.169a1.64 1.64 0 01-1.632-1.632 1.64 1.64 0 011.632-1.632h571.169c.891.006 1.62.741 1.62 1.632 0 .891-.729 1.626-1.62 1.632zM2112.36 2445.61h-571.169a1.64 1.64 0 01-1.632-1.632 1.64 1.64 0 011.632-1.632h571.169c.891.006 1.62.741 1.62 1.632 0 .891-.729 1.626-1.62 1.632z" fill="#9aabbb"/></g><path d="M2730.66 3468.87v-184.971c0-16.912-13.917-30.829-30.828-30.829h-701.349c-16.912 0-30.828 13.917-30.829 30.829v184.971h763.006z" fill="#9aabbb" fill-rule="nonzero"/><path fill="#9aabbb" d="M1967.65 3538.23h763.006v238.921H1967.65z"/><path d="M1967.65 3846.52v184.971c.001 16.912 13.917 30.828 30.829 30.829h701.349c16.911-.001 30.828-13.917 30.828-30.829V3846.52H1967.65z" fill="#9aabbb" fill-rule="nonzero"/><circle cx="2345.3" cy="3368.68" r="23.121" fill="#fff"/><circle cx="2345.3" cy="3676.96" r="23.121" fill="#fff"/><circle cx="2346.54" cy="3978.72" r="23.121" fill="#fff"/><g fill-rule="nonzero"><path d="M2644.16 3042.17v212.144h-531.501c-1.23.043-2.461.065-3.691.065-58.225 0-106.137-47.912-106.137-106.137 0-58.224 47.912-106.136 106.137-106.136 1.23 0 2.461.021 3.691.064h531.501z" fill="#f2f8fa"/><path d="M2657.21 3252.68c-.002 4.475-3.684 8.157-8.159 8.159h-545.957c-61.323 0-111.784-50.461-111.784-111.784 0-61.323 50.461-111.784 111.784-111.784l.093.001h545.864c4.476 0 8.159 3.683 8.159 8.159 0 4.476-3.683 8.159-8.159 8.159h-545.864c-52.338.047-95.379 43.127-95.379 95.465s43.041 95.418 95.379 95.465h545.864c4.475.002 8.157 3.684 8.159 8.16z" fill="#282c34"/><path d="M2644.16 3091.12h-571.169a1.639 1.639 0 01-1.632-1.632c0-.895.736-1.631 1.632-1.631h571.169c.891.006 1.62.74 1.62 1.631s-.729 1.626-1.62 1.632zM2644.16 3130.29h-571.169a1.64 1.64 0 01-1.632-1.632 1.64 1.64 0 011.632-1.632h571.169c.891.006 1.62.741 1.62 1.632 0 .891-.729 1.626-1.62 1.632zM2644.16 3169.45h-571.169a1.64 1.64 0 01-1.632-1.632 1.64 1.64 0 011.632-1.632h571.169c.891.006 1.62.741 1.62 1.632 0 .891-.729 1.626-1.62 1.632zM2644.16 3208.62h-571.158l-.011.001a1.64 1.64 0 01-1.632-1.632c0-.896.736-1.632 1.632-1.632h571.169c.891.006 1.62.741 1.62 1.632 0 .891-.729 1.625-1.62 1.631z" fill="#9aabbb"/></g><g fill-rule="nonzero"><path d="M1927.63 1574.19V221.59c.036-31.787 26.181-57.932 57.968-57.969h1069.2c31.787.037 57.933 26.182 57.969 57.969v1352.6c-.036 31.787-26.182 57.933-57.969 57.969h-1069.2c-31.787-.036-57.932-26.182-57.968-57.969zm57.968-1397.69c-24.723.028-45.059 20.364-45.086 45.087v1352.6c.027 24.724 20.363 45.059 45.086 45.087h1069.2c24.724-.028 45.059-20.363 45.087-45.087v-1352.6c-.028-24.723-20.363-45.059-45.087-45.087h-1069.2z" fill="#f2f8fa"/><path d="M2580.16 784.801V507.07c.018-15.894 13.091-28.967 28.984-28.985h235.353c15.894.018 28.967 13.091 28.984 28.985v277.731c-.017 15.894-13.09 28.967-28.984 28.985h-235.353c-15.893-.018-28.966-13.091-28.984-28.985z" fill="#174291"/><path d="M2122.85 913.62V635.889c.018-15.893 13.091-28.966 28.984-28.984h235.353c15.893.018 28.966 13.091 28.984 28.984v277.732c-.018 15.894-13.091 28.967-28.984 28.984h-235.353c-15.894-.017-28.967-13.091-28.984-28.985z" fill="#9aabbb"/><path d="M2489.99 1306.52v-277.732c.017-15.893 13.09-28.966 28.984-28.984h235.352c15.894.018 28.967 13.091 28.985 28.984v277.732c-.018 15.894-13.091 28.967-28.985 28.984h-235.352c-15.894-.017-28.967-13.09-28.984-28.984z" fill="#9cc0ff"/></g><g fill-rule="nonzero"><path d="M3896.44 2659.62h-242.158a14.963 14.963 0 00-6.627 1.542l-61.119 30.597a11.157 11.157 0 00-6.781 10.25c0 4.459 2.678 8.507 6.781 10.251l61.119 30.597a14.963 14.963 0 006.627 1.542h242.158c6.899.399 12.924-4.899 13.412-11.792v-61.194c-.487-6.894-6.513-12.192-13.412-11.793z" fill="#282c34"/><path d="M3909.85 2671.41v61.194c-.488 6.894-6.513 12.192-13.412 11.792h-48.245v-84.778h48.245c6.899-.399 12.925 4.898 13.412 11.792z" fill="#174291"/></g><path d="M3894.62 2201.82a84.807 84.807 0 0133.599-6.94c37.266 0 70.367 24.564 81.164 60.232a81.666 81.666 0 012.467 11.06l338.636 167.924 78.368-51.935 97.509 112.257-119.66 97.185c-29.465 23.745-71.308 25.358-102.514 3.954l-343.578-237.597a80.767 80.767 0 01-7.822 2.853 84.83 84.83 0 01-24.55 3.631c-40.81 0-76.119-29.46-83.43-69.61a82.56 82.56 0 01-1.253-10.324c-1.948-35.449 18.496-68.555 51.064-82.69z" fill="#ffb8b8" fill-rule="nonzero"/><g fill="#282c34"><path d="M4599.93 3235.72h-370.017c0 10.636-381.349 19.268-381.349 19.268a99.094 99.094 0 00-16.261 15.414 95.672 95.672 0 00-22.354 61.657v15.414c.02 52.843 43.497 96.32 96.339 96.34h693.642c52.833-.046 96.293-43.507 96.339-96.34v-15.414c-.073-52.822-43.517-96.266-96.339-96.339z" fill-rule="nonzero"/><path d="M4197.44 3439.98h100.193v647.399H4197.44z"/><path d="M3912.27 4083.86c0 10.826 151.826 4.188 339.113 4.188 187.288 0 339.114 6.638 339.114-4.188 0-10.825-151.826-96.673-339.114-96.673-187.287 0-339.113 85.848-339.113 96.673z" fill-rule="nonzero"/></g><path d="M4002.72 4007.98l-94.482-.008-44.956-245.063 139.453.007-.015 245.064z" fill="#ffb8b8" fill-rule="nonzero"/><path d="M4026.82 4099.57l-304.666-.011v-3.855c0-65.052 53.53-118.582 118.582-118.582l186.09.007-.006 122.441z" fill="#282c34" fill-rule="nonzero"/><path d="M3861.4 3856.01l-188.369-422.41c-32.439-73.433-2.648-160.535 67.966-198.722l408.581-219.096 186.444-15.859 171.983-15.632 1.24 2.1c1.586 2.679 38.563 66.549 13.568 136.583-18.96 53.122-68.277 94.616-146.58 123.329-182.77 67.016-393.905 124.293-476.196 145.804a26.613 26.613 0 00-17.042 13.562 26.976 26.976 0 00-1.513 21.571l175.003 393.177a34.686 34.686 0 012.118 11.935c0 17.82-13.734 32.887-31.477 34.533l-130.764 9.521c-1.11.106-2.215.158-3.315.158-13.656-.004-26.09-8.08-31.647-20.554z" fill="#20232a" fill-rule="nonzero"/><path d="M4048.96 4007.98l-94.481-.008-44.956-245.063 139.453.007-.016 245.064z" fill="#ffb8b8" fill-rule="nonzero"/><path d="M4073.06 4099.57l-304.667-.011v-3.855c0-65.052 53.53-118.582 118.583-118.582l186.09.007-.006 122.441zM3915.35 3879.14l-188.37-422.41c-32.438-73.432-2.648-160.534 67.967-198.722l408.581-219.096 186.444-15.858 171.983-15.633 1.24 2.1c1.586 2.68 38.563 66.55 13.568 136.583-18.96 53.123-68.277 94.616-146.58 123.33-182.77 67.016-393.905 124.292-476.196 145.803a26.608 26.608 0 00-17.042 13.563 26.976 26.976 0 00-1.513 21.571l175.003 393.176a34.691 34.691 0 012.118 11.936c0 17.819-13.734 32.886-31.477 34.533l-130.764 9.521c-1.11.105-2.215.158-3.315.158-13.657-.005-26.09-8.08-31.647-20.555z" fill="#20232a" fill-rule="nonzero"/><path d="M3821.46 2588.72a1291.026 1291.026 0 01-185.553-346.295c-5.22-15.28 1.442-32.263 15.66-39.918l270.869-145.138a32.752 32.752 0 0128.713-1.165 33.31 33.31 0 0118.97 22.227 788.688 788.688 0 00172.991 322.857 33.301 33.301 0 018.002 28.105 32.754 32.754 0 01-16.874 23.261l-270.869 145.138c-14.249 7.597-32.078 3.738-41.909-9.072z" fill="#f2f8fa" fill-rule="nonzero"/><path d="M3839.95 2574.84c2.994 3.737 8.272 4.827 12.501 2.582l270.871-145.141a9.605 9.605 0 005.03-6.913 10.165 10.165 0 00-2.505-8.693 811.91 811.91 0 01-178.088-332.37 10.171 10.171 0 00-5.843-6.898 9.615 9.615 0 00-8.557.354l-270.865 145.137c-4.216 2.278-6.233 7.281-4.776 11.846a1267.875 1267.875 0 00182.232 340.096z" fill="#fff" fill-rule="nonzero"/><path d="M4721.33 2550.01l-212.137 80.612-51.791-143.866c-14.14-39.278 2.231-83.462 38.551-104.043 36.761-20.831 83.696-11.668 109.922 21.46l115.455 145.837z" fill="#08355c" fill-rule="nonzero"/><path d="M4181.76 3120.03a38.545 38.545 0 01-16.058-27.351c-27.17-253.639-8.245-452.131 57.849-606.82 23.57-54.018 70.674-94.335 127.683-109.284l171.48-8.656.888.429c79.232 38.808 123.955 125.579 109.59 212.627-55.154 145.382-101.337 296.747-66.117 418.854a39.487 39.487 0 01-3.729 30.7 37.654 37.654 0 01-24.013 17.796l-326.616 77.696a38.274 38.274 0 01-30.957-5.991z" fill="#174291" fill-rule="nonzero"/><circle cx="4465.48" cy="2114.57" r="189.295" fill="#ffb8b8"/><path d="M3940.22 2264.5l-147.527 65.122c-11.604 5.107-25.356-.222-30.489-11.815l-3.649-8.266c-5.107-11.605.222-25.357 11.815-30.49l147.527-65.122c11.604-5.107 25.357.222 30.489 11.816l3.649 8.265c5.108 11.605-.222 25.357-11.815 30.49zM3994.17 2364.69l-147.527 65.121c-11.604 5.108-25.356-.221-30.489-11.815l-3.649-8.266c-5.107-11.604.222-25.356 11.815-30.489l147.527-65.122c11.604-5.107 25.356.222 30.489 11.815l3.649 8.266c5.107 11.605-.222 25.357-11.815 30.49z" fill="#f2f8fa" fill-rule="nonzero"/><path d="M4107.94 2756.04l-328.896-259.468a81.013 81.013 0 01-7.986 2.356 85.026 85.026 0 01-67.961-13.036 84.148 84.148 0 01-35.656-59.602c-4.525-39.035 18.596-76.362 55.56-89.697a84.815 84.815 0 0128.633-4.98c39.22 0 73.57 27.206 82.553 65.384a81.54 81.54 0 011.765 11.192l327.409 188.881 81.478-46.909 90.258 118.166-126.505 90.167c-30.326 21.436-71.407 20.434-100.652-2.454z" fill="#ffb8b8" fill-rule="nonzero"/><path d="M4375.23 2705.12l-187.658-127.61 88.192-124.908c24.077-34.102 69.665-46.016 107.349-28.054 38.142 18.18 57.54 61.89 45.429 102.37l-53.312 178.202z" fill="#08355c" fill-rule="nonzero"/><path d="M4396.08 2086.38c-48.653 33.299-112.535 67.528-162.227 32.067-32.628-23.284-42.908-66.4-29.677-104.238 23.794-68.042 89.168-97.998 151.681-120.96 81.267-29.85 169.755-53.597 253.65-32.22 83.895 21.377 158.039 102.605 142.895 187.846-12.179 68.549-76.84 125.587-67.661 194.601 9.238 69.458 87.351 106.019 156.312 118.433 68.961 12.413 146.13 16.402 195.69 65.936 63.222 63.189 47.434 176.132-12.056 242.848-59.489 66.715-149.262 96.956-236.252 117.515-115.257 27.238-239.916 41.554-349.381-3.652-109.464-45.205-194.648-166.892-162.938-281 13.394-48.199 44.947-88.933 75.442-128.59 30.494-39.656 61.372-81.125 73.004-129.779 9.694-40.545 2.519-87.62-24.368-118.033-10.007-10.893-11.864-27.099-4.581-39.973l.467-.801z" fill="#20232a" fill-rule="nonzero"/><g fill-rule="nonzero"><g fill="#f2f8fa"><path d="M840.633 3006.1c-99.088 34.831-209.499 15.381-290.721-51.212-101.827-85.466-133.752-226.27-159.729-356.647l-76.834-385.631 160.86 110.762c115.681 79.654 233.969 161.86 314.066 277.234 80.097 115.375 115.06 272.872 50.704 397.713M670.066 3263.13c-42.498 64.589-115.834 102.44-193.101 99.663-97.75-4.64-179.243-72.864-252.602-137.634L7.382 3033.581l143.606-6.873c103.272-4.942 209.209-9.552 307.572 22.295 98.364 31.848 189.08 108.493 207.066 210.307"/></g><path d="M998.456 3687.11c-5.373-62.272-45.11-116.583-102.834-140.554v-80.161h-134.45v82.688c-54.823 25.12-92.037 77.947-97.234 138.027l-31.615 367.504h397.749l-31.616-367.504z" fill="#f2f8fa"/><g fill="#f2f2f2"><path d="M826.883 3472.98c16.281-118.593 33.023-238.709 21.602-358.573-10.142-106.453-42.619-210.427-108.738-295.678a491.884 491.884 0 00-126.195-114.354c-12.62-7.966-24.235 12.033-11.67 19.964a467.682 467.682 0 01184.962 223.171c40.269 102.423 46.735 214.074 39.796 322.877-4.196 65.798-13.09 131.164-22.053 196.447-1.457 6.092 2.096 12.351 8.075 14.221 6.112 1.647 12.503-1.982 14.221-8.075z"/><path d="M872.895 3541.16c-78.364-138.66-169.259-292.765-331.674-342.019a370.127 370.127 0 00-139.508-14.405c-14.811 1.277-11.113 24.109 3.672 22.834a343.916 343.916 0 01222.632 58.9c62.774 42.729 111.65 102.132 153.018 165.127 25.34 38.587 48.037 78.81 70.739 118.979 7.255 12.838 28.461 3.571 21.121-9.416z"/></g></g></svg>