<svg viewBox="0 0 3100 2248" xmlns="http://www.w3.org/2000/svg" fill-rule="evenodd" clip-rule="evenodd" stroke-linejoin="round" stroke-miterlimit="2"><path d="M1975.48 1684.53v541.666H618.4c-154.621 0-280.422-121.499-280.422-270.833 0-149.334 125.801-270.833 280.422-270.833h1357.08z" fill="#f2f2f2" fill-rule="nonzero"/><path d="M2008.81 2222.03c-.005 11.427-9.406 20.829-20.833 20.833H594.227c-156.575 0-285.417-128.842-285.417-285.417 0-156.574 128.842-285.416 285.417-285.416h1393.75c11.429 0 20.833 9.404 20.833 20.833 0 11.429-9.404 20.833-20.833 20.833H594.227c-133.718 0-243.75 110.033-243.75 243.75 0 133.718 110.032 243.75 243.75 243.75h1393.75c11.427.005 20.828 9.407 20.833 20.834z" fill="#174291" fill-rule="nonzero"/><path d="M1975.48 1809.53H517.15c-2.285 0-4.166-1.881-4.166-4.167 0-2.286 1.881-4.167 4.166-4.167h1458.33c2.285 0 4.166 1.881 4.166 4.167 0 2.286-1.881 4.167-4.166 4.167zM1975.48 1909.53H517.15c-2.285 0-4.166-1.881-4.166-4.167 0-2.286 1.881-4.167 4.166-4.167h1458.33c2.285 0 4.166 1.881 4.166 4.167 0 2.286-1.881 4.167-4.166 4.167zM1975.48 2009.53H517.15c-2.285 0-4.166-1.881-4.166-4.167 0-2.286 1.881-4.167 4.166-4.167h1458.33c2.285 0 4.166 1.881 4.166 4.167 0 2.286-1.881 4.167-4.166 4.167zM1975.48 2109.53H517.15c-2.285 0-4.166-1.881-4.166-4.167 0-2.286 1.881-4.167 4.166-4.167h1458.33c2.285 0 4.166 1.881 4.166 4.167 0 2.286-1.881 4.167-4.166 4.167z" fill="#ccc" fill-rule="nonzero"/><path d="M3024.3 1786.49l-339.853 421.785-1056.73-851.459c-120.4-97.013-142.127-270.552-48.432-386.835 93.695-116.284 267.885-131.963 388.285-34.95L3024.3 1786.49z" fill="#f2f2f2" fill-rule="nonzero"/><path d="M2713.02 2225.94c-7.174 8.895-20.393 10.317-29.294 3.151l-1085.29-874.468c-67.2-54.146-106.34-135.949-106.34-222.248 0-156.575 128.842-285.417 285.417-285.417a285.475 285.475 0 01179.076 63.168l1085.29 874.468a20.848 20.848 0 017.771 16.23c0 11.429-9.404 20.834-20.833 20.834a20.838 20.838 0 01-13.081-4.619l-1085.29-874.468a243.8 243.8 0 00-153.008-54.007c-133.718 0-243.75 110.033-243.75 243.75 0 73.735 33.457 143.624 90.891 189.864l1085.29 874.468c8.895 7.173 10.317 20.393 3.151 29.293z" fill="#9cc0ff" fill-rule="nonzero"/><path d="M2945.87 1883.82L1810.29 968.831a4.167 4.167 0 01-1.552-3.244c0-2.286 1.881-4.167 4.167-4.167.95 0 1.873.326 2.614.922l1135.58 914.989a4.169 4.169 0 011.557 3.248c0 2.286-1.881 4.167-4.167 4.167a4.165 4.165 0 01-2.618-.926zM2883.13 1961.69l-1135.58-914.989a4.17 4.17 0 01-1.548-3.241c0-2.286 1.881-4.167 4.167-4.167.949 0 1.87.325 2.61.919l1135.58 914.989a4.17 4.17 0 011.557 3.248c0 2.286-1.881 4.167-4.167 4.167a4.165 4.165 0 01-2.618-.926zM2820.39 2039.56l-1135.58-914.989a4.167 4.167 0 01-1.552-3.244c0-2.286 1.881-4.167 4.166-4.167.951 0 1.874.325 2.615.922l1135.58 914.989a4.169 4.169 0 011.552 3.245c0 2.285-1.881 4.166-4.166 4.166a4.168 4.168 0 01-2.615-.922zM2757.64 2117.43l-1135.58-914.989a4.167 4.167 0 01-1.552-3.244c0-2.286 1.88-4.167 4.166-4.167.951 0 1.874.326 2.615.922l1135.58 914.989a4.17 4.17 0 011.556 3.248c0 2.286-1.881 4.167-4.166 4.167a4.167 4.167 0 01-2.619-.926zM3095.83 2247.03H4.16c-2.286 0-4.167-1.881-4.167-4.167 0-2.286 1.881-4.167 4.167-4.167h3091.67c2.286 0 4.167 1.881 4.167 4.167 0 2.286-1.881 4.167-4.167 4.167z" fill="#ccc" fill-rule="nonzero"/><path d="M1408.67 1627.59l-47.633-.005-22.655-183.733 70.304.008-.016 183.73z" fill="#ffb8b8" fill-rule="nonzero"/><path d="M1327.01 1613.98h91.866v57.842h-149.707c0-31.731 26.11-57.842 57.841-57.842z" fill="#282c34" fill-rule="nonzero"/><path d="M922.025 1627.59l-47.633-.005-22.654-183.733 70.304.008-.017 183.73z" fill="#ffb8b8" fill-rule="nonzero"/><path d="M840.366 1613.98h91.866v57.842H782.525c0-31.731 26.11-57.842 57.841-57.842z" fill="#282c34" fill-rule="nonzero"/><path d="M1081.13 264.721v-20.833c0-73.716 60.659-134.375 134.375-134.375 73.716 0 134.375 60.659 134.375 134.375v20.833c0 53.144-43.731 96.875-96.875 96.875h-75c-53.145 0-96.875-43.731-96.875-96.875z" fill="#20232a" fill-rule="nonzero"/><circle cx="1215.5" cy="266.427" r="102.338" fill="#ffb8b8"/><path d="M658.852 618.148a39.083 39.083 0 0126.825-10.663 39.106 39.106 0 0132.677 17.652l87.727-16.594 23.087 50.852-124.217 21.695a39.29 39.29 0 01-19.314 5.076c-21.55 0-39.283-17.733-39.283-39.283a39.302 39.302 0 0112.498-28.735z" fill="#ffb8b8" fill-rule="nonzero"/><path d="M1135.72 433.213l1.147 1.739L993.01 529.72l-242.743 77.514c-6.61 2.124-10.839 8.678-10.05 15.576l5.295 45.611c.852 7.318 7.121 12.9 14.489 12.9 1.026 0 2.05-.108 3.054-.323l228.457-48.97a82.52 82.52 0 0030.715-13.523l161.616-114.987a41.79 41.79 0 0017.326-37.281c-1.767-21.443-19.907-38.149-41.423-38.149a41.569 41.569 0 00-22.879 6.864l-1.147-1.739z" fill="#929096" fill-rule="nonzero"/><path d="M1361.89 1575.45a18.857 18.857 0 01-17.24-11.255l-218.375-539.588a6.258 6.258 0 00-5.729-3.753 6.263 6.263 0 00-5.973 4.413l-178.16 525.307c-2.414 7.847-9.714 13.239-17.924 13.239-2.248 0-4.478-.404-6.582-1.193l-59.744-22.404a18.728 18.728 0 01-12.071-15.436c-26.876-234.134 207.501-825.124 209.872-831.064l.656-1.646 213.655 47.261.444.485c85.241 92.991 155.306 679.508 168.487 796.14 1.008 8.647-4.162 16.906-12.38 19.778l-52.735 18.65a18.578 18.578 0 01-6.201 1.066z" fill="#20232a" fill-rule="nonzero"/><path d="M1177.8 758.357c-51.765 0-109.477-10.321-127.241-52.92l-.409-.978.553-.908c14.021-23.006 32.554-62.251 22.593-69.618-19.622-14.508-29.144-38.375-28.298-70.94 1.835-70.69 50.002-133.453 119.858-156.176h.001a531.974 531.974 0 0159.428-15.302 101.226 101.226 0 0183.886 20.716 102.248 102.248 0 0137.9 78.627c.732 75.545-10.898 180.764-70.467 253.001a18.537 18.537 0 01-10.971 6.38 509.25 509.25 0 01-86.833 8.118z" fill="#929096" fill-rule="nonzero"/><path d="M1158.55 755.528c5.825-20.895 27.708-33.382 48.661-27.767a39.163 39.163 0 016.032 2.234l66.611-60.62 46.325 31.21-95.257 84.295c-8.822 15.905-27.489 23.823-45.055 19.111-16.961-4.642-28.81-20.17-28.81-37.754 0-3.622.503-7.226 1.493-10.709z" fill="#ffb8b8" fill-rule="nonzero"/><path d="M1269.3 756.298a18.703 18.703 0 01-11.856-4.23l-26.269-21.466a18.762 18.762 0 01-6.885-14.518 18.759 18.759 0 017.34-14.878l110.174-84.499c2.7-2.082 3.231-6.005 1.181-8.729l-68.002-89.9c-16.244-21.405-14.673-51.7 3.698-71.31 19.407-20.96 52.041-23.57 74.532-5.961l.43.454 71.009 101.676a63.344 63.344 0 0124.244 49.817 63.345 63.345 0 01-25.745 50.956l-142.69 108.912a18.786 18.786 0 01-11.161 3.676z" fill="#929096" fill-rule="nonzero"/><path d="M1124.86 237.638v-50.776l90.649-39.583 86.435 39.583v50.776c0 4.571-3.762 8.333-8.334 8.333h-160.416c-4.572 0-8.334-3.762-8.334-8.333z" fill="#20232a" fill-rule="nonzero"/><path d="M1211.34 116.248c-13.328-42.66 14.664-91.551 56.045-108.437 41.382-16.886 90.89-5.082 125.807 22.816 34.918 27.899 56.582 69.685 68.061 112.88 11.479 43.195 13.658 88.237 15.777 132.881 50.843 9.339 85.429 69.643 67.816 118.243-17.613 48.6-82.803 72.745-127.824 47.343-45.022-25.402-58.061-93.686-25.569-133.891a109.909 109.909 0 0024.423-69.074c0-60.284-49.606-109.891-109.891-109.891a109.89 109.89 0 00-42.397 8.508c-25.058 10.479-56.498-16.747-52.248-21.378z" fill="#20232a" fill-rule="nonzero"/><path d="M640.059 421.178a435.208 435.208 0 01-176.451-38.645 18.666 18.666 0 01-11.049-17.1V213.692c.011-10.282 8.468-18.739 18.75-18.75h337.5c10.282.011 18.738 8.468 18.75 18.75v151.741a18.666 18.666 0 01-11.049 17.1 435.204 435.204 0 01-176.451 38.645z" fill="#174291" fill-rule="nonzero"/><path d="M640.013 298.249a18.752 18.752 0 01-7.286-1.464L365.094 183.87a18.78 18.78 0 01-11.462-17.275c0-7.772 4.833-14.773 12.099-17.53L633.368 47.533a18.686 18.686 0 0113.38.029l264.051 101.532a18.784 18.784 0 0112.02 17.501c0 7.491-4.49 14.294-11.378 17.24L647.387 296.748a18.76 18.76 0 01-7.374 1.501z" fill="#174291" fill-rule="nonzero"/><circle cx="483.809" cy="367.858" r="25" fill="#20232a"/><path d="M912.353 167.807L648.299 280.721a16.675 16.675 0 01-13.031.031L367.635 167.84a16.344 16.344 0 01-7.969-7.004 16.657 16.657 0 00-2.228 8.32 16.683 16.683 0 0010.197 15.351l267.633 112.912a16.67 16.67 0 0013.031-.032l264.054-112.913a16.681 16.681 0 0010.121-15.319c0-2.92-.768-5.79-2.227-8.319a16.364 16.364 0 01-7.894 6.971z" fill-opacity=".2" fill-rule="nonzero"/><path d="M485.91 367.76c2.285 0 4.166-1.881 4.166-4.166V224.171l137.422-50.063h.062c2.286 0 4.167-1.881 4.167-4.167 0-2.262-1.843-4.133-4.105-4.166L490.2 215.838a8.176 8.176 0 00-5.972 2.396 8.277 8.277 0 00-2.485 5.937v139.423c0 2.285 1.881 4.166 4.167 4.166z" fill="#20232a" fill-rule="nonzero"/></svg>