<svg viewBox="0 0 72 73" xmlns="http://www.w3.org/2000/svg" fill-rule="evenodd" clip-rule="evenodd" stroke-linejoin="round" stroke-miterlimit="2"><path d="M34.261 9.874c-9.811.626-18.718 9.535-19.344 19.346a20.694 20.694 0 006.597 16.567c2.41 2.237 3.859 5.318 3.859 8.607l20.503.001c0-3.181 1.267-6.273 3.632-8.401 4.215-3.797 6.865-9.294 6.865-15.415 0-11.91-10.035-21.478-22.112-20.705z" fill="#eaecea" fill-rule="nonzero" stroke="#32363e" stroke-width="1.04"/><path d="M37.35 55.951h-3.752a.721.721 0 01-.707-.583l-3.376-17.493c-.01-.045 0 .045 0 0v-5.63a.719.719 0 011.227-.507 6.651 6.651 0 004.732 1.964 6.656 6.656 0 004.734-1.964.717.717 0 01.782-.157c.269.111.747.536.747.826l-.303 5.468c0 .045.009-.045 0 0l-3.378 17.493a.718.718 0 01-.706.583zm-3.16-1.437h2.567l2.819-16.676.421-4.072c-1.328.893-2.987 2.385-4.621 2.385-1.633 0-3.095-1.492-4.424-2.385l.215 4.18 3.023 16.568z" fill="#747474" fill-rule="nonzero"/><g fill="#e01a4f" fill-rule="nonzero"><path d="M35.623 6.906a1.244 1.244 0 01-1.245-1.245V1.507a1.245 1.245 0 112.492 0v4.154c0 .688-.559 1.245-1.247 1.245zM21.617 11.458a1.244 1.244 0 01-1.739-.277l-2.442-3.36a1.245 1.245 0 112.016-1.464l2.44 3.36a1.245 1.245 0 01-.275 1.741zM12.96 23.371a1.246 1.246 0 01-1.569.802L7.44 22.889a1.246 1.246 0 11.772-2.37l3.949 1.283c.654.212 1.013.915.799 1.569zM58.286 23.371a1.245 1.245 0 01.799-1.569l3.951-1.283a1.244 1.244 0 011.57.799 1.247 1.247 0 01-.8 1.571l-3.949 1.284a1.248 1.248 0 01-1.571-.802zM49.629 11.458a1.249 1.249 0 01-.275-1.741l2.442-3.36a1.243 1.243 0 011.739-.275c.558.404.681 1.183.276 1.739l-2.441 3.36a1.246 1.246 0 01-1.741.277z"/></g><g fill-rule="nonzero"><path d="M29.738 67.789c0 2.399 2.716 4.343 6.066 4.343 3.348 0 6.064-1.944 6.064-4.343h-12.13zM48.244 56.702a2.306 2.306 0 00-2.305-2.307h-20.63c-.822 0-1.54.434-1.947 1.084l23.547 3.308a2.302 2.302 0 001.335-2.085z" fill="#20232a"/><path d="M23.362 55.479a2.278 2.278 0 00-.359 1.223 2.305 2.305 0 002.306 2.305h20.63c.347 0 .674-.082.97-.22l-23.547-3.308z" fill="#32363e"/><path d="M48.244 61.092a2.304 2.304 0 00-2.305-2.305h-20.63c-.822 0-1.54.434-1.947 1.082l23.547 3.31a2.304 2.304 0 001.335-2.087z" fill="#20232a"/><path d="M23.362 59.869a2.283 2.283 0 00-.359 1.223 2.307 2.307 0 002.306 2.307h20.63c.347 0 .674-.084.97-.222l-23.547-3.308z" fill="#32363e"/><path d="M48.244 65.484a2.305 2.305 0 00-2.305-2.307h-20.63c-.822 0-1.54.434-1.947 1.083l23.547 3.309a2.303 2.303 0 001.335-2.085z" fill="#20232a"/><path d="M23.362 64.26a2.289 2.289 0 00-.359 1.224 2.306 2.306 0 002.306 2.305h20.63c.347 0 .674-.082.97-.22L23.362 64.26z" fill="#32363e"/></g><path fill="none" d="M0 0h72v72H0z"/></svg>