<svg viewBox="0 0 5334 4267" xmlns="http://www.w3.org/2000/svg" fill-rule="evenodd" clip-rule="evenodd" stroke-linejoin="round" stroke-miterlimit="2"><g fill="#f2f8fa" fill-rule="nonzero"><path d="M1684.53 3165.28l-441.057-434.584-109.377-107.779-326.461-321.664-404.688 432.011L-.004 3163.473"/><path d="M3856.59 3167.91H874.52l368.953-399.945 681.67-799.562 45.941-53.881 616.619-723.285 426.667 675.756 11.17 17.686 542.806 859.576 288.241 423.655z"/><path d="M5333.33 3165.28l-736.575-869.103-361.089-426.037-348.994 437.58-318.325 399.26-364.079 456.493"/></g><g fill="#9aabbb" fill-opacity=".1" fill-rule="nonzero"><path d="M1134.1 2622.92l-194.349 130.306-229.459-90.393-307.341 70.434 404.688-432.011L1134.1 2622.92zM3014.37 1866.99l-65.106 114.387-145.983-152.936-159.945 152.936-90.404-173.798-146.037 173.798-41.724-111.211-97.304 111.211-173.853-111.211-122.93 44.353 616.619-723.285 426.667 675.756zM4596.76 2296.18l-180.304 220.627-146.02-173.832-222.505 180.786-161.254-216.038 348.994-437.58 361.089 426.037z"/></g><path fill="#282c34" d="M0 3160.24h5333.33v10.951H0z"/><clipPath id="a"><path d="M1009.9 161.3h3313.53v3944.07H1009.9z"/></clipPath><g clip-path="url(#a)"><path d="M4321.51 4075.23H3021.77v-10.621h1301.66l-1.926 10.621z" fill="#20232a" fill-rule="nonzero"/><g fill="#fbbebe"><path d="M3480.05 3867.15h70.6v151.286h-70.6V3867.15zm549.671 5.043h70.6v151.286h-70.6v-151.286zM4054.65 2629.18s-119.218 124.402-51.835 155.501c67.382 31.1 108.85-139.949 108.85-139.949l-57.015-15.552zm-610.185 10.086s-119.218 124.402-51.836 155.501c67.383 31.099 108.85-139.949 108.85-139.949l-57.014-15.552z" fill-rule="nonzero"/><circle cx="3807.83" cy="1597.87" r="141.2"/><path d="M3971.72 1892.88l-252.143 25.214c23.308-104.916 28.956-202.934 0-287.442h176.5c-9.587 70.418 26.253 163.015 75.643 262.228z" fill-rule="nonzero"/><ellipse cx="3880.95" cy="1605.43" rx="17.65" ry="22.693"/></g><path d="M4107.88 3945.32l-85.729-10.086-221.886-1023.7-242.057 1028.74-85.728-10.086c-14.145-465.491 27.196-931.163 63.036-1318.71l511.849-42.865c96.44 381.886 100.399 857.159 60.515 1376.7z" fill="#282c34" fill-rule="nonzero"/><g fill="#174291" fill-rule="nonzero"><path d="M4042.32 2624.09c-94.21 113.333-292.198 75.441-519.413-5.043 64.477-210.454 54.477-432.49-3.46-661.976-6.499-25.362 6.353-51.976 30.257-62.657l185.002-82.224 70.6 15.129 121.029-30.257 171.8 35.143c28.742 5.882 49.088 32.142 47.604 61.442-14.372 281.679-39.788 542.359-103.419 730.443z"/><path d="M4092.75 2714.86l-45.386-75.643 85.729-322.742-45.386-484.114c59.913 5.99 109.397 50.337 121.891 109.238l68.855 324.598a224.925 224.925 0 01-17.7 144.912L4092.75 2714.86zm-590.014-55.471l-103.378 17.65 65.925-645.299c1.303-65.703 41.995-124.543 103.01-148.951l32.779 426.121-98.336 350.479z"/></g><path d="M3523.8 4071.31l-190.282 33.419a42.43 42.43 0 01-25.461-3.424c-14.814-7-24.303-21.979-24.303-38.363a42.45 42.45 0 0113.612-31.143l81.508-75.42 21.25-37.136c12.128-21.818 34.372-36.208 59.244-38.326 36.338-2.521 48.33 25.134 40.736 77.065 27.599 20.303 31.961 17.186 50.539-10.136l8.437 85.602c-1.972 19.03-16.437 34.553-35.28 37.862zm549.671 0l-190.282 33.419a42.43 42.43 0 01-25.461-3.424c-14.814-7-24.303-21.979-24.303-38.363a42.45 42.45 0 0113.612-31.143l81.508-75.42 21.25-37.136c12.128-21.818 34.372-36.208 59.244-38.326 36.338-2.521 48.33 25.134 40.736 77.065 27.599 20.303 31.961 17.186 50.539-10.136l8.437 85.602c-1.972 19.03-16.437 34.553-35.28 37.862zm-377.745-2553.89c63.641-36.409 127.373-13.146 191.215 86.208l13.051 105.834c95.814-90.771 90.973-214.644-16.475-265.027-10.565-4.957-20.802-10.59-32.3-8.598-46.894-25.171-106.04-9.282-134.008 36.001-19.849 3.439-48.311 42.879-47.287 63l25.804-17.418z" fill="#20232a" fill-rule="nonzero"/><g fill="#174291" fill-rule="nonzero"><path d="M2135.9 2423.05v-107.786c0-130.236 141.643-253.428 233.534-341.315 129.521-123.817 197.605-290.166 197.605-485.032l.002-1.627c0-354.775-291.936-646.71-646.711-646.71-354.031 0-645.63 290.712-646.708 644.741v3.596c0 187.907 71.003 365.526 197.604 485.032 91.392 86.273 233.535 209.732 233.535 341.315v107.786M2064.04 2632.3h-287.422c-13.833 0-25.215-11.383-25.215-25.215s11.382-25.214 25.215-25.214h287.422c13.832 0 25.214 11.382 25.214 25.214 0 13.832-11.382 25.215-25.214 25.215zM2135.9 2542.8h-431.139c-13.832 0-25.214-11.382-25.214-25.214 0-13.832 11.382-25.215 25.214-25.215H2135.9c13.832 0 25.214 11.383 25.214 25.215s-11.382 25.214-25.214 25.214z"/></g><g fill="#9cc0ff" fill-rule="nonzero"><path d="M1773.41 2682.73h293.832c0 63.628-52.358 115.986-115.985 115.986h-61.861c-63.628 0-115.986-52.358-115.986-115.986zM2135.9 2438.17c-8.3 0-15.129-6.829-15.129-15.129V2315.25c0-126.701 124.962-244.982 216.202-331.345 7.57-7.171 14.932-14.141 22.002-20.903 126.223-120.66 192.935-284.604 192.935-474.099 0-354.16-277.423-631.577-631.582-631.577l-1.78-.005c-344.684.383-628.446 283.345-629.802 628.027v3.525c0 185.587 70.297 358.36 192.864 474.063a5284.173 5284.173 0 0019.283 18.094c92.421 86.535 218.996 205.038 218.996 334.22v107.786c0 8.3-6.829 15.129-15.128 15.129s-15.129-6.829-15.129-15.129V2315.25c0-116.061-121.043-229.379-209.419-312.132a6048.187 6048.187 0 01-19.37-18.18c-128.593-121.391-202.349-302.188-202.349-496.035v-3.631c1.008-363.312 296.948-658.208 660.008-658.208h1.866c1.143-.006 2.286-.009 3.428-.009 361.177 0 658.38 297.203 658.38 658.38 0 1.156-.003 2.312-.009 3.468 0 197.957-69.949 369.46-202.279 495.97a6176.764 6176.764 0 01-22.118 21.003c-87.251 82.587-206.742 195.693-206.742 309.374v107.786c0 8.3-6.829 15.129-15.128 15.129v.005zM1251.64 894.561a25.118 25.118 0 01-16.571-6.223l-216.545-189.011a25.228 25.228 0 01-8.631-18.994c0-13.832 11.382-25.214 25.215-25.214a25.223 25.223 0 0116.583 6.22l216.535 189.012a25.226 25.226 0 018.635 18.996c0 13.832-11.383 25.214-25.215 25.214h-.011.005zm1301.45 0h-.011c-13.832 0-25.214-11.382-25.214-25.214a25.225 25.225 0 018.634-18.996l216.535-189.012a25.223 25.223 0 0116.39-6.053c13.832 0 25.214 11.382 25.214 25.214a25.225 25.225 0 01-8.442 18.827l-216.53 189.011a25.119 25.119 0 01-16.576 6.223zM1920.33 642.867c-13.832 0-25.214-11.382-25.214-25.214V186.514c0-13.832 11.382-25.214 25.214-25.214 13.832 0 25.214 11.382 25.214 25.214v431.139c0 13.832-11.382 25.214-25.214 25.214z"/></g><g fill="#fff" fill-rule="nonzero"><path d="M1920.33 2448.26c-13.832 0-25.214-11.383-25.214-25.215v-574.85c0-13.832 11.382-25.214 25.214-25.214 13.832 0 25.214 11.382 25.214 25.214v574.85c0 13.832-11.382 25.215-25.214 25.215z"/><path d="M1920.33 1873.41c-81.468 0-181.493-73.707-185.708-76.844a25.229 25.229 0 01-10.266-20.304c0-13.832 11.383-25.215 25.215-25.215a25.215 25.215 0 0115.151 5.061c25.063 18.593 101.891 66.868 155.608 66.868 53.716 0 130.554-48.275 155.622-66.878a25.217 25.217 0 0115.046-4.981c13.832 0 25.215 11.383 25.215 25.215a25.232 25.232 0 01-10.17 20.234c-4.221 3.137-104.241 76.844-185.713 76.844z"/></g></g></svg>