<svg viewBox="0 0 300 300" xmlns="http://www.w3.org/2000/svg" fill-rule="evenodd" clip-rule="evenodd" stroke-linejoin="round" stroke-miterlimit="2"><path fill="#eaecea" d="M203.813 143.034h10.572v5.124h-10.572zM85.385 143.034h10.572v5.124H85.385z"/><path d="M201.774 146.047v25.794c0 28.527-23.127 51.654-51.654 51.654-28.527 0-51.654-23.127-51.654-51.654v-25.794h103.308z" fill="#20232a" fill-rule="nonzero"/><path d="M201.774 61.038v85.009H98.466V61.038a51.48 51.48 0 01.911-9.683 50.735 50.735 0 013.878-12.024c12-25.888 42.714-37.145 68.6-25.145a51.645 51.645 0 0114.797 10.333 51.849 51.849 0 0114.212 26.835c.606 3.192.912 6.434.91 9.684z" fill="#eaecea" fill-rule="nonzero" stroke="#32363e" stroke-width=".08"/><path d="M212.921 139.533v13.007h5.615v19.633c0 37.854-30.685 68.543-68.541 68.543-37.854.002-68.542-30.685-68.544-68.539v-19.631h6.503V139.54H68.445v32.646c0 45.042 36.514 81.555 81.555 81.555 45.041 0 81.555-36.513 81.555-81.555v-32.653h-18.634z" fill="#282c34" fill-rule="nonzero"/><path fill="#32363e" d="M93.852 139.533h112.555v13.013H93.852z"/><g fill="#32363e" fill-rule="nonzero"><path d="M200.861 51.355h-33.264a6.014 6.014 0 010-12.024h29.386a50.889 50.889 0 013.878 12.024zM201.774 63.898v12.025h-34.177a6.015 6.015 0 01-6.012-6.013 6.047 6.047 0 016.012-6.015l34.177.003zM201.774 88.465v12.024h-34.177a6.034 6.034 0 01-6.012-6.015c.02-3.31 2.7-5.99 6.012-6.009h34.177zM201.774 113.016v12.052h-34.177a6.033 6.033 0 01-6.012-6.015v-.027a6.031 6.031 0 016.012-6.013l34.177.003zM138.654 45.337a6.015 6.015 0 01-6.014 6.015H99.377a50.765 50.765 0 013.878-12.026h29.385a6.046 6.046 0 016.014 6.011zM138.654 69.913a6.014 6.014 0 01-6.014 6.013H98.466V63.898h34.174a6.008 6.008 0 014.241 1.77 5.913 5.913 0 011.773 4.245zM138.654 94.486a6.03 6.03 0 01-6.014 6.013H98.466V88.465h34.174a5.999 5.999 0 014.241 1.769 5.912 5.912 0 011.773 4.252zM138.654 119.027v.028a6.03 6.03 0 01-6.014 6.013H98.466v-12.05h34.174a6.029 6.029 0 016.014 6.009z"/></g><path fill="#282c34" d="M138.496 246.253h22.99v43.815h-22.99z"/><ellipse cx="151.008" cy="174.802" rx="10.771" ry="10.542" fill="#32363e" stroke="#e01a4f" stroke-width=".83" stroke-linecap="round" stroke-miterlimit="1.5"/><path fill="none" d="M0 0h300v299.45H0z"/></svg>