<svg viewBox="0 0 5334 4267" xmlns="http://www.w3.org/2000/svg" fill-rule="evenodd" clip-rule="evenodd" stroke-miterlimit="10"><path d="M5122.31 1039.12a874.565 874.565 0 00-11.449-57.188c-46.86-201.881-156.569-362.995-357.486-450.192-17.231-7.481-35.137-14.344-53.72-20.589a866.864 866.864 0 00-129.275-32.944c-421.447-75.1-775.842-39.377-1095.31 28.363-18.019 3.757-35.893 7.721-53.719 11.736-447.824 100.837-829.175 257.061-1236.08 243.42a1449.518 1449.518 0 01-53.672-2.728c-177.39-12.559-360.384-58.835-556.374-157.253-231.641-116.28-467.196-77.211-679.707 61.254-119.951 78.035-232.559 187.778-332.993 319.139l-.339.412a2009.683 2009.683 0 00-41.739 56.622c-326.81 462.648-508.258 1154.46-359.418 1690.56a1190.022 1190.022 0 0017.391 57.239c42.995 130.692 106.956 250.833 194.685 354.502 50.901 59.965 116.199 104.018 188.84 127.398 12.464 4.118 25.169 7.464 38.019 10.295 3.623-65.115-.58-130.178-18.406-192.307-9.662-33.87-23.285-66.402-31.642-100.632a677.842 677.842 0 01-13.865-93.22l-22.995-226.485c-4.831-46.327-9.662-93.374-8.357-140.267 1.317-49.564 9.221-98.679 23.478-145.878-6.957-13.692-8.164-30.061-8.937-45.76-2.416-49.621-3.479-99.242-3.817-148.915-7.536 7.155-15.12 14.156-22.753 21.156l-38.889 35.775c-5.149 5.528-11.458 9.675-18.406 12.096-16.956 4.427-31.98-11.633-42.946-26.149-10.966-14.515-22.995-30.421-28.986-48.694a162.144 162.144 0 01-5.265-52.298c.386-22.597 1.449-45.142 2.56-67.688l9.13-188.601c1.74-36.032 3.479-71.755 6.522-107.529 2.174-25.737 5.266-51.886 17.681-73.866 23.333-41.179 73.381-55.54 118.84-52.04-2.292-4.819-2.452-10.485-.435-15.442 2.843-4.6 6.916-8.186 11.691-10.295l67.198-38.657c4.76-3.219 10.146-5.244 15.749-5.919a17.585 17.585 0 018.599 1.904l12.995-9.677a32.26 32.26 0 019.662-5.611 21.476 21.476 0 0113.188.67c3.273-6.961 5.165-14.566 5.555-22.34a84.024 84.024 0 00-5.7-28.105c-31.377-25.304-50.037-64.728-50.483-106.654-14.493-8.648-33.14-13.486-39.034-31.708-4.009-12.406.773-26.098-.869-39.018-3.209-3.385-5.654-7.504-7.15-12.045-4.154-12.817 1.256-27.126-.966-40.51-1.256-7.36-4.831-14.567-3.43-21.876 1.42-5.192 4.045-9.919 7.633-13.744l47.488-59.915c10.483-13.178 21.304-26.715 35.7-34.591 34.493-18.891 75.797 0 114.54 0 12.996 0 26.425-2.162 38.648 2.316 8.794 3.83 16.876 9.304 23.864 16.163l53.14 46.327c17.874 15.442 37.15 33.818 38.889 58.32a58.094 58.094 0 01-2.995 21.876c6.158 8.416 9.96 18.517 10.966 29.135 1.208 16.986-6.522 33.252-15.411 47.407-13.348 21.107-29.638 39.923-48.309 55.798-4.371 24.426-14.95 47.112-30.579 65.578a448.867 448.867 0 0013.719 52.967c.134.3.247.609.339.926 4.515.278 8.868 1.901 12.56 4.685a69.915 69.915 0 0110.435 10.294c1.684-2.819 4.149-5.014 7.053-6.279 7.15-3.037 15.169.411 22.174 3.809 21.304 10.294 42.995 21.053 60.337 37.782 6.315 6.111 11.637 13.295 15.749 21.258 24.288-3.61 48.992 2.48 69.324 17.09 36.521 26.663 51.545 75.358 64.25 120.552a76254.237 76254.237 0 0028.454 101.404c12.464 44.37 25.024 89.256 27.923 135.48 2.657 42.054-2.754 84.16-8.164 125.905-7.488 57.805 10.145 121.17 10.386 179.49 0 14.979 0 30.164-.338 45.297 19.689-12.961 43.012-18.223 65.942-14.876 4.112-7.963 9.434-15.147 15.748-21.259 17.343-16.729 39.034-27.384 60.338-37.782 7.005-3.397 15.024-6.846 22.174-3.809 2.904 1.266 5.369 3.461 7.053 6.28a69.97 69.97 0 0110.435-10.295c3.692-2.783 8.045-4.406 12.56-4.684.092-.317.205-.626.339-.926a448.867 448.867 0 0013.719-52.967c-15.629-18.466-26.208-41.152-30.579-65.578-18.671-15.875-34.961-34.691-48.309-55.798-8.889-14.155-16.619-30.421-15.411-47.407 1.006-10.618 4.808-20.719 10.966-29.135a58.094 58.094 0 01-2.995-21.876c1.739-24.502 21.015-42.827 38.889-58.32l53.14-46.327c6.987-6.859 15.07-12.333 23.864-16.163 12.271-4.478 25.701-2.316 38.648-2.316 38.647 0 80.047-18.788 114.54 0 14.493 7.875 25.217 21.413 35.7 34.59l48.116 59.968c3.588 3.824 6.213 8.552 7.633 13.743 1.353 7.31-2.174 14.516-3.43 21.877-2.222 13.383 3.188 27.693-.966 40.51-1.496 4.54-3.941 8.659-7.15 12.045-1.642 12.92 3.14 26.612-.87 39.017-5.893 18.222-24.444 23.06-39.033 31.708-.446 41.927-19.106 81.35-50.483 106.654a84.024 84.024 0 00-5.7 28.105c.39 7.774 2.282 15.38 5.555 22.34a21.468 21.468 0 0113.188-.669 32.248 32.248 0 019.662 5.61l12.995 9.677a17.585 17.585 0 018.599-1.904c5.603.676 10.989 2.7 15.749 5.919l67.053 38.246a42.49 42.49 0 018.212 5.816c.532-13.846 1.111-27.744 1.788-41.591l9.13-188.601c1.739-36.032 3.478-71.755 6.522-107.529 2.174-25.737 5.266-51.886 17.681-73.865 23.333-41.179 73.381-55.541 118.84-52.04-2.292-4.82-2.452-10.486-.435-15.443 2.843-4.599 6.916-8.186 11.691-10.295l67.005-38.605c4.76-3.219 10.146-5.244 15.748-5.92a17.597 17.597 0 018.599 1.905l12.995-9.677a32.23 32.23 0 019.662-5.611 21.483 21.483 0 0113.188.669c3.274-6.96 5.165-14.565 5.556-22.339a84.064 84.064 0 00-5.7-28.105c-31.377-25.305-50.038-64.728-50.483-106.654-14.493-8.648-33.14-13.487-39.034-31.708-4.01-12.406.773-26.098-.87-39.018-3.208-3.386-5.653-7.505-7.149-12.045-4.155-12.817 1.256-27.127-.966-40.51a137.463 137.463 0 01-3.672-17.707 155.303 155.303 0 00-12.077 33.407c-6.812 29.186-5.604 59.761-9.662 89.462-1.449 10.294-4.203 21.31-12.367 26.766-6.328 4.17-14.493 3.861-21.304 6.898-11.401 5.147-17.73 18.479-19.324 31.553-1.594 13.075.338 26.252.338 39.429 0 34.437-15.507 70.057-43.719 86.837-37.15 22.083-83.285 7.464-123.43-7.567 17.89-6.876 33.781-18.626 46.087-34.075l-44.203-9.369c25.703-12.674 49.478-29.383 70.531-49.569 7.869-6.638 14.049-15.276 17.971-25.119 4.831-14.413.339-30.885 4.831-45.349 7.488-24.708 35.942-34.127 50.435-54.974 12.705-18.222 13.14-42.672 13.092-65.372l-.242-86.374c0-24.862 1.498-53.481 20.097-68.563 20.724-16.884 50.096-7.258 76.183-7.464 27.488 0 53.671-12.148 81.014-15.442 25.797-3.192 68.84 16.111 68.116 37.885a279.02 279.02 0 0043.478 4.838c12.995 0 26.425-2.162 38.647 2.317 8.794 3.83 16.877 9.303 23.864 16.162l53.14 46.327c17.875 15.442 37.15 33.818 38.647 58.32a58.062 58.062 0 01-2.995 21.877c6.159 8.415 9.961 18.516 10.966 29.134 1.208 16.986-6.521 33.252-15.41 47.407-13.348 21.107-29.639 39.923-48.309 55.798-4.372 24.426-14.95 47.112-30.58 65.578a448.82 448.82 0 0013.72 52.967c.134.3.247.61.338.927 4.516.277 8.868 1.9 12.561 4.684a69.867 69.867 0 0110.434 10.295c1.685-2.82 4.15-5.015 7.053-6.28 7.15-3.037 15.169.412 22.174 3.809 18.784 8.283 36.614 18.835 53.14 31.45v-3.139c.386-22.598 1.449-45.143 2.56-67.689l9.131-188.601c1.739-36.032 3.478-71.755 6.521-107.529 2.174-25.737 5.266-51.886 17.682-73.865 23.333-41.18 73.381-55.541 118.84-52.041-2.293-4.819-2.452-10.485-.435-15.442 2.842-4.599 6.916-8.186 11.691-10.295l67.439-38.914c4.76-3.219 10.146-5.244 15.749-5.919a17.585 17.585 0 018.599 1.904l12.995-9.677a32.225 32.225 0 019.661-5.611 21.486 21.486 0 0113.189.669c3.273-6.96 5.165-14.565 5.555-22.339a84.014 84.014 0 00-5.7-28.105c-31.377-25.304-50.037-64.728-50.483-106.654-14.493-8.648-33.14-13.487-39.034-31.708-4.009-12.406.773-26.098-.869-39.018-3.209-3.386-5.654-7.505-7.15-12.045-4.154-12.817 1.256-27.126-.966-40.51-1.256-7.36-4.831-14.567-3.43-21.876 1.42-5.192 4.045-9.919 7.633-13.744l47.488-59.916c10.483-13.177 21.304-26.715 35.7-34.59 34.492-18.891 75.797 0 114.54 0 12.995 0 26.425-2.162 38.648 2.316 8.794 3.83 16.876 9.304 23.864 16.163l53.14 46.327c17.874 15.442 37.15 33.818 38.647 58.32a58.054 58.054 0 01-2.995 21.876c6.159 8.416 9.961 18.517 10.966 29.135 1.208 16.986-6.522 33.252-15.41 47.407-13.349 21.107-29.639 39.923-48.309 55.798-4.372 24.426-14.951 47.112-30.58 65.578a448.871 448.871 0 0013.72 52.967c.133.3.246.609.338.926 4.515.278 8.868 1.901 12.56 4.684a69.922 69.922 0 0110.435 10.295c1.685-2.819 4.15-5.014 7.053-6.28 7.15-3.037 15.169.412 22.174 3.81 21.304 10.294 42.995 21.052 60.338 37.781 6.314 6.112 11.636 13.296 15.749 21.259 24.288-3.61 48.991 2.48 69.323 17.09 36.521 26.663 51.546 75.358 64.251 120.552a73736.777 73736.777 0 0028.454 101.404c12.464 44.37 25.024 89.256 27.922 135.479 2.464 39.327-2.125 78.653-7.149 117.722 1.207-1.339 2.415-2.626 3.768-3.912 17.343-16.73 39.033-27.385 60.338-37.782 7.004-3.398 15.024-6.846 22.173-3.809 2.904 1.265 5.369 3.46 7.054 6.279a69.908 69.908 0 0110.434-10.294c3.692-2.784 8.045-4.407 12.561-4.685.091-.317.204-.626.338-.926a449.066 449.066 0 0013.72-52.967c-15.63-18.466-26.208-41.152-30.58-65.578-18.67-15.875-34.961-34.691-48.309-55.798-8.889-14.155-16.618-30.421-15.411-47.407 1.006-10.618 4.808-20.719 10.967-29.135a58.074 58.074 0 01-2.996-21.876c1.74-24.502 21.015-42.827 38.648-58.32l53.139-46.327c6.988-6.859 15.07-12.333 23.865-16.163 12.271-4.478 25.7-2.316 38.647-2.316a278.9 278.9 0 0043.478-4.839c-.724-21.773 42.319-41.179 68.116-37.884 27.294 3.345 53.526 15.442 81.014 15.442 26.087 0 55.459-9.42 76.183 7.463 18.599 15.082 20.145 43.702 20.097 68.564l-.242 86.373c0 22.7.387 47.151 13.092 65.372 13.816 19.869 40.241 29.341 49.178 51.474 10.918-29.906 25.701-57.65 50.145-75.512 20.332-14.61 45.035-20.7 69.324-17.089 4.112-7.964 9.434-15.148 15.748-21.259 17.343-16.729 39.034-27.384 60.338-37.782 7.005-3.397 15.024-6.846 22.174-3.809 2.903 1.265 5.368 3.46 7.053 6.28a69.874 69.874 0 0110.435-10.295c3.692-2.784 8.045-4.407 12.56-4.684.092-.317.205-.627.338-.927a448.626 448.626 0 0013.72-52.967c-15.629-18.466-26.208-41.152-30.58-65.578-18.67-15.875-34.96-34.691-48.309-55.797-8.888-14.156-16.618-30.422-15.41-47.408 1.005-10.618 4.807-20.719 10.966-29.134a58.062 58.062 0 01-2.995-21.877c1.739-24.501 21.014-42.826 38.647-58.32l53.14-46.327c6.988-6.859 15.07-12.332 23.865-16.162 12.27-4.479 25.7-2.317 38.647-2.317a279.033 279.033 0 0043.478-4.838c-.725-21.774 42.318-41.18 68.115-37.885 27.295 3.346 53.527 15.442 81.014 15.442 26.087 0 55.459-9.42 76.184 7.464 18.599 15.082 20.145 43.701 20.096 68.563l-.241 86.374c0 22.7.386 47.15 13.091 65.372 14.493 20.847 42.947 30.266 50.435 54.974 4.348 14.567 0 30.884 4.831 45.349 4.219 10.144 10.846 18.945 19.227 25.531a282.898 282.898 0 0034.541 28.413c1.983-6.833 5.073-13.244 9.13-18.942a58.076 58.076 0 01-2.995-21.877c1.739-24.501 21.014-42.826 38.647-58.32l53.14-46.326c6.988-6.859 15.07-12.333 23.865-16.163 12.27-4.478 25.7-2.316 38.647-2.316 38.647 0 80.048-18.788 114.54 0 14.493 7.875 25.218 21.413 35.701 34.59l47.487 59.916c3.588 3.825 6.213 8.552 7.633 13.743 1.353 7.31-2.174 14.516-3.43 21.877-2.222 13.383 3.189 27.693-.966 40.51-1.496 4.54-3.941 8.659-7.15 12.045-1.642 12.92 3.14 26.612-.869 39.017-5.894 18.222-24.445 23.061-39.034 31.708-.445 41.927-19.106 81.35-50.483 106.655a84.038 84.038 0 00-5.7 28.104c.39 7.774 2.282 15.38 5.555 22.34a21.471 21.471 0 0113.189-.669 32.225 32.225 0 019.661 5.611l12.996 9.677a17.583 17.583 0 018.599-1.905c5.602.676 10.988 2.7 15.748 5.92l67.053 38.245c4.775 2.108 8.848 5.695 11.691 10.295 2.017 4.957 1.857 10.623-.435 15.442 45.459-3.5 95.507 10.861 118.84 52.04 12.416 21.98 15.507 48.334 17.681 73.865 3.044 35.775 4.831 71.652 6.522 107.53l9.13 188.601c1.111 22.545 2.174 45.091 2.561 67.688a162.175 162.175 0 01-5.266 52.298c-5.845 18.273-17.44 33.664-28.985 48.694-11.546 15.031-25.991 30.576-42.947 26.149-6.948-2.421-13.257-6.568-18.406-12.096l-38.888-35.569c-7.633-7.001-15.218-14.001-22.754-21.156-.338 49.673-1.401 99.294-3.816 148.915-.773 15.699-1.981 32.068-8.938 45.76 14.257 47.199 22.162 96.314 23.479 145.877a983.1 983.1 0 01-6.377 120.964 7856.217 7856.217 0 0012.222-27.847c209.999-477.937 452.075-1166.76 369.66-1652.32z" fill="#f2f8fa" fill-rule="nonzero"/><path fill="#20232a" d="M2748.9 3822.4h2130.26v8.731H2748.9z"/><path d="M4117.93 1922.21s-90.537 15.074-137.056 6.619c-46.518-8.455-138.821 39.533-138.821 39.533l-243.921 90.306s-220.626 180.769-251.651 54.816c-17.375-70.539 210.002-127.234 210.002-127.234l399.666-191.443 145.419-50.263 16.362 177.666z" fill="#ffb9b9" fill-rule="nonzero"/><path d="M4135.35 2448.97l-63.76 61.114 11.377 266.283s13.096 349.223 8.73 362.319c-4.365 13.096-82.94 545.662-82.94 545.662s91.671 43.653 174.612 17.461c0 0 82.94-392.876 82.94-506.374l96.037-397.242 148.419 453.991s8.731 305.57 26.192 405.972c17.461 100.402 17.461 113.498 17.461 113.498s139.69 39.287 174.612 0c0 0-17.461-515.105-30.557-567.488l-30.557-624.237-532.566-130.959z" fill="#282c34" fill-rule="nonzero"/><path d="M4043.68 3684.35s-8.73-13.096-34.922 21.826c-26.192 34.923-109.133 100.402-109.133 100.402s-226.995 161.516-56.748 170.246c170.246 8.731 200.803-78.575 200.803-78.575s144.055-26.192 148.42-56.749c4.365-30.557-17.461-152.785-17.461-152.785l-130.959-4.365zM4563.15 3762.92s-30.557 104.767-21.826 148.42c8.73 43.653-17.462 205.169 104.767 192.073 122.228-13.096 82.94-152.785 82.94-152.785l-39.288-178.977-126.593-8.731z" fill="#20232a" fill-rule="nonzero"/><circle cx="4390.72" cy="1333.64" r="144.055" fill="#ffb9b9"/><path d="M4305.6 1410.03s43.653 152.785 8.73 209.534c-34.922 56.749 235.726 8.731 253.187-43.653 0 0-87.306-96.036-74.21-187.707L4305.6 1410.03z" fill="#ffb9b9" fill-rule="nonzero"/><path d="M4375.44 1615.2s119.497 8.079 177.612-57.075l155.475 66.445c34.86 14.898 54.96 52.23 48.207 89.533l-80.088 442.393s36.641 279.379 17.461 467.087c-17.328 169.587-646.064 0-624.237-144.055 2.338-15.434 4.496-31.22 6.485-47.103A3715.83 3715.83 0 014155.836 2011c11.608-47.427-20.487-317.225-20.487-317.225l192.151-127.313s8.653 48.738 47.94 48.738z" fill="#174291" fill-rule="nonzero"/><path d="M4245.9 1682.49l-36.528-37.547-267.557 150.669s78.379 136.908 109.243 137.332c11.829.163 152.203 7.029 186.412-38.364 55.049-73.047 8.43-212.09 8.43-212.09z" fill="#174291" fill-rule="nonzero"/><path d="M4355.33 1239.38a575.998 575.998 0 0164.549-6.399c15.664-.666 31.983-.56 46.138 6.181 21.343 10.164 33.301 33.141 41.13 55.447 7.829 22.305 13.382 46.143 27.906 64.795 24.165-25.224 28.994-62.724 32.591-97.469 2.531-24.439 4.774-50.497-6.526-72.314-6.96-13.437-18.443-23.908-30.074-33.589-55.525-46.214-126.046-82.578-197.537-72.198l-1.673 11.038c-12.2-.367-24.408.4-36.466 2.291l2.554 27.384-37.974 2.409-1.457 28.539-38.404 1.331a44.51 44.51 0 0013.396 28.93 54.1 54.1 0 01-19.725 8.91c6.404 24.79 12.621 49.637 19.237 74.372 4.873 18.221 4.003 34.32 23.546 25.427 14.881-6.77 24.949-28.3 39.993-37.196 17.724-10.479 38.7-14.745 58.796-17.889z" fill="#20232a" fill-rule="nonzero"/><path d="M4828.26 1875.42l2.117 153.847-44.316 440.93s23.904 233.117-48.343 240.733c-129.003 13.599-33.916-255.31-33.916-255.31l2.091-260.093s13.783-103.114-9.969-143.996c-23.752-40.881-40.325-131.156-40.325-131.156l172.661-44.955z" fill="#ffb9b9" fill-rule="nonzero"/><path d="M4707.2 1637.02c36.218-.01 68.305 24.114 78.356 58.911 27.878 96.6 78.509 278.38 65.698 281.582-17.461 4.366-222.63 17.461-222.63 17.461l78.576-357.954z" fill="#174291" fill-rule="nonzero"/><g><path d="M3059.35 2660.56l20.593-252.792 58.838 267.32s-.776 67.44-2.726 141.314h-75.38c-2.539-84.447-1.325-155.842-1.325-155.842zM4118.17 2750.46a508.792 508.792 0 0012.242-71.865l8.236-87.446c3.464-23.95 7.022-45.051 10.599-63.677 26.23-132.802 53.307-137.604 53.307-137.604 1.164.88 2.295 1.854 3.459 2.86a86.625 86.625 0 018.865 9.239c43.125 54.136 72.38 194.547 87.751 287.691 8.487 51.452 12.715 88.475 12.715 88.475s-3.843 15.771-9.084 38.268h-196.789a341.427 341.427 0 018.699-65.941z" fill="#f2f2f2" fill-rule="nonzero"/><path d="M4394.88 2472.12l-334.307 1534.12-898.06-17.461-149.283-1858.85 1381.65 342.199z" fill="#282c34" fill-rule="nonzero"/><path d="M2966.75 2084.02l-12.675 62.598 1580.24 375.584v-54.251l-1567.56-383.931z" fill="#20232a" fill-rule="nonzero"/><path d="M3634.34 2196.69l8.45 70.943-92.955-12.519 38.027-70.944 46.478 12.52z" fill="#20232a" fill-rule="nonzero"/><path d="M4145.59 1478.91s-185.91-12.52-236.612 129.368c-50.703 141.887-169.01 396.449-215.487 434.008-46.478 37.558-97.18 137.714-88.73 171.099" fill="none" stroke="#20232a" stroke-width="21"/><path d="M4118.12 1476.82c0 19.591 21.092 35.472 54.928 35.472 33.837 0 50.703-15.881 50.703-35.472 0-19.59-16.866-35.472-50.703-35.472-33.836 0-54.928 15.882-54.928 35.472z" fill="#174291" fill-rule="nonzero"/></g></svg>