<svg viewBox="0 0 449 449" xmlns="http://www.w3.org/2000/svg" fill-rule="evenodd" clip-rule="evenodd" stroke-linejoin="round" stroke-miterlimit="2"><path fill="none" d="M0 0h449v449H0z"/><path fill="#d9e2ef" d="M304.226 214.587h15.663v7.591h-15.663zM128.771 214.587h15.663v7.591h-15.663z"/><path d="M301.205 219.051v38.214c0 42.264-34.263 76.527-76.527 76.527-42.263 0-76.527-34.263-76.527-76.527v-38.214h153.054z" fill="#161c2d" fill-rule="nonzero"/><path d="M301.205 93.108v125.943H148.151V93.108a76.351 76.351 0 011.349-14.345 75.191 75.191 0 015.746-17.815c17.778-38.354 63.282-55.031 101.633-37.253a76.54 76.54 0 0121.922 15.31 76.8 76.8 0 0121.055 39.755 76.573 76.573 0 011.349 14.348z" fill="#d9e2ef" fill-rule="nonzero" stroke="#61dafb" stroke-width="5.09"/><path d="M317.719 209.401v19.269h8.318v29.087c0 56.081-45.46 101.549-101.544 101.549-56.082.002-101.547-45.461-101.549-101.542V228.68h9.633v-19.27h-28.903v48.366c0 66.732 54.097 120.826 120.826 120.826 66.729 0 120.826-54.094 120.826-120.826v-48.375h-27.607z" fill="#2d3242" fill-rule="nonzero"/><path fill="#2d3242" d="M141.315 209.401h166.754v19.279H141.315z"/><g fill="#2d3242" fill-rule="nonzero" stroke="#61dafb" stroke-width="4.17"><path d="M299.851 78.763H250.57a8.91 8.91 0 010-17.815h43.536a75.373 75.373 0 015.745 17.815zM301.205 97.346v17.814H250.57a8.909 8.909 0 01-8.906-8.908 8.958 8.958 0 018.906-8.911l50.635.005zM301.205 133.741v17.815H250.57c-4.914-.017-8.889-3.997-8.906-8.911a8.958 8.958 0 018.906-8.904h50.635zM301.205 170.115v17.855H250.57c-4.914-.017-8.889-3.996-8.906-8.911v-.041a8.936 8.936 0 018.906-8.908l50.635.005zM207.69 69.847c0 4.919-3.989 8.911-8.909 8.911H149.5a75.236 75.236 0 015.746-17.817h43.535a8.957 8.957 0 018.909 8.906zM207.69 106.257a8.91 8.91 0 01-8.909 8.908h-50.63V97.346h50.63a8.9 8.9 0 016.283 2.621 8.757 8.757 0 012.626 6.29zM207.69 142.662c-.012 4.914-3.994 8.894-8.909 8.908h-50.63v-17.829h50.63a8.892 8.892 0 016.283 2.621 8.766 8.766 0 012.626 6.3zM207.69 179.021v.041a8.931 8.931 0 01-8.909 8.908h-50.63v-17.853h50.63c4.912.012 8.892 3.989 8.909 8.904z"/></g><path fill="#2d3242" d="M207.456 367.508h34.061v64.913h-34.061z"/><ellipse cx="225.994" cy="261.652" rx="15.957" ry="15.618" fill="#2d3242" stroke="#e01a4f" stroke-width="4.17" stroke-linecap="round" stroke-miterlimit="1.5"/></svg>