<svg viewBox="0 0 5334 4267" xmlns="http://www.w3.org/2000/svg" fill-rule="evenodd" clip-rule="evenodd" stroke-linejoin="round" stroke-miterlimit="2"><path d="M2756.11 174.431c-525.26-114.532-1053.86 213.161-1184.9 734.548a1094.454 1094.454 0 00-6.98 29.954c-117.226 536.619 227.882 1074.65 764.502 1191.88 536.619 117.227 1074.65-227.881 1191.88-764.501 117.227-536.62-227.881-1074.65-764.501-1191.88zm-421.274 1928.43c-520.963-114.376-855.948-636.626-742.658-1157.83a898.651 898.651 0 019.264-38.385c131.185-501.802 641.862-814.906 1148.58-704.212 521.272 113.874 856.51 636.521 742.636 1157.79-113.874 521.273-636.52 856.511-1157.79 742.637l-.027-.006z" fill="#282c34" fill-rule="nonzero"/><path d="M3366.9 1332.73c-98.806 452.294-552.292 743.171-1004.59 644.366-452.293-98.806-743.17-552.292-644.365-1004.59 5.709-26.131 12.581-51.569 20.511-76.484 131.713-412.677 560.867-660.328 984.073-567.877 452.293 98.805 743.169 552.288 644.367 1004.58z" fill="#f2f8fa" fill-rule="nonzero" stroke="#9aabbb" stroke-width="4.17"/><path d="M2775.98 1261.04a200.942 200.942 0 00-63.217-77.206 760.087 760.087 0 00-106.628-62.824l49.026-224.425a334.674 334.674 0 01147.087 110.168l66.775-87.168a308.386 308.386 0 00-76.883-74.334 447.146 447.146 0 00-106.45-53.562l24.849-113.749-105.502-23.048-25.093 114.868a295.692 295.692 0 00-123.743 13.524 234.578 234.578 0 00-94.849 59.512 196.997 196.997 0 00-50.06 95.798 178.302 178.302 0 008.19 115.989 207.575 207.575 0 0065.85 80.563 753.798 753.798 0 00108.373 64.23l-46.981 215.062a357.47 357.47 0 01-177.44-120.02l-66.799 87.309a351.59 351.59 0 0091.085 81.683 488.621 488.621 0 00122.84 54.946l-24.635 112.771 105.502 23.048 25.093-114.868a279.523 279.523 0 00172.342-37.606c46.384-28.401 78.783-75.006 89.247-128.378a172.466 172.466 0 00-7.979-112.283zm-255.624-183.658a207.4 207.4 0 01-62.052-53.087 76.144 76.144 0 01-12.11-63.845 96.233 96.233 0 0140.114-61.66 131.636 131.636 0 0177.641-20.959l-43.593 199.551zm92.248 331.713a122.423 122.423 0 01-73.781 20.045l40.418-185.018a189.366 189.366 0 0159.005 47.59 66.665 66.665 0 0111.482 56.68 97.355 97.355 0 01-37.124 60.703z" fill="#174291" fill-rule="nonzero"/><path d="M4687.87 3694.87a1688.132 1688.132 0 01139.712-532.777 1685.196 1685.196 0 0169.412-137.779c6.487-11.55-11.267-21.928-17.754-10.377a1711.438 1711.438 0 00-190.439 525.377 1716.56 1716.56 0 00-21.492 155.556c-1.219 13.17 19.35 13.087 20.561 0z" fill="#f2f8fa" fill-rule="nonzero"/><path d="M4701.19 3698.33a1095.146 1095.146 0 0190.638-345.637 1093.284 1093.284 0 0145.03-89.383 6.68 6.68 0 00.8-3.169c0-3.662-3.013-6.675-6.674-6.675a6.683 6.683 0 00-5.644 3.111 1110.319 1110.319 0 00-123.546 340.837 1113.831 1113.831 0 00-13.943 100.916c-.79 8.544 12.554 8.49 13.339 0z" fill="#f2f8fa" fill-rule="nonzero"/><circle cx="4946.79" cy="2927.07" r="130.221" fill="#f2f8fa"/><circle cx="4869.17" cy="3200.22" r="84.481" fill="#f2f8fa"/><path d="M4684.36 3690.36a1095.164 1095.164 0 01-141.121-328.275 1093.737 1093.737 0 01-19.471-98.173 6.696 6.696 0 00-6.581-5.56c-3.661 0-6.674 3.013-6.674 6.675 0 .22.011.441.033.66a1110.28 1110.28 0 00112.221 344.732 1113.81 1113.81 0 0051.075 88.146c4.632 7.223 15.121-1.027 10.518-8.204v-.001z" fill="#f2f8fa" fill-rule="nonzero"/><circle cx="4510.43" cy="3194.29" r="84.481" fill="#f2f8fa"/><path d="M2916.78 1961.61a79.536 79.536 0 0164.773-33.423 79.523 79.523 0 0162.702 30.641l267.198-90.82-37.041 141.897-248.057 64.489a79.857 79.857 0 01-44.789 13.744c-43.805 0-79.85-36.045-79.85-79.85a79.86 79.86 0 0115.064-46.678zM4232.72 2524.8a79.431 79.431 0 0013.122-43.727c0-31.659-18.931-60.421-48.01-72.941l20.46-281.468-127.958 71.646.188 256.303a79.832 79.832 0 00-4.581 26.655c0 43.802 36.043 79.845 79.845 79.845 26.991 0 52.218-13.687 66.934-36.313z" fill="#ffb8b8" fill-rule="nonzero"/><path d="M4200.88 1430.65l34.988 895.704-142.152-7.897-31.59-939.786 29.979-14.108a76.338 76.338 0 0132.502-7.265c40.75 0 74.683 32.633 76.273 73.352z" fill="#174291" fill-rule="nonzero"/><path d="M3761.26 3849.26l-96.822-.008-46.057-373.45 142.895.008-.016 373.45z" fill="#ffb8b8" fill-rule="nonzero"/><path d="M3595.28 3821.59h186.724v117.567h-304.291c0-64.496 53.072-117.567 117.567-117.567z" fill="#20232a" fill-rule="nonzero"/><path d="M4566.81 3733.55l-87.866 40.679-198.697-319.543 129.675-60.028 156.888 338.892z" fill="#ffb8b8" fill-rule="nonzero"/><path d="M4404.57 3778.18l169.448-78.443 49.39 106.689-276.137 127.834c-27.094-58.528-1.229-128.985 57.299-156.08z" fill="#20232a" fill-rule="nonzero"/><path d="M3531.36 2630.49l99.853 1139.5 134.255-15.795 99.222-1040.87 548.362 993.487 142.152-39.487s-457.541-1368.61-493.08-1483.12c-38.958-125.532-347.483-173.742-347.483-173.742l-11.846-11.846c-132.571 178.461-185.672 410.018-171.435 631.875z" fill="#282c34" fill-rule="nonzero"/><circle cx="4063.31" cy="1071.73" r="193.967" fill="#ffb8b8"/><path d="M4185.09 1446l-134.807 702.628s-204.861-40.908-277.83-90.188c-28.906-19.585-55.124-39.803-77.239-58.125-4.342-3.553-8.449-7.107-12.474-10.503-36.487-31.195-58.915-54.413-58.915-54.413s11.684-57.256 25.979-125.015c15.953-75.894 35.303-165.055 45.175-201.462 21.717-79.842 96.268-172.873 154.392-236.21 42.824-46.738 108.186-66.1 169.558-50.227l105.191 27.167c42.333 10.92 69.225 53.415 60.97 96.348z" fill="#174291" fill-rule="nonzero"/><path d="M3859.08 1752.89s-72.495 150.682-176.344 236.921c-36.487-31.195-58.915-54.413-58.915-54.413s11.684-57.256 25.979-125.015c87.029-45.963 176.746-74.946 209.28-57.493z" fill-opacity=".2" fill-rule="nonzero"/><path d="M3987.65 1477.07a128.948 128.948 0 00-22.356-8.881c-31.96-8.758-66.271-.852-91.176 21.009l-426.122 312.127-338.909 113.998 61.234 144.843 505.24-123.388 335.082-297.79a100.76 100.76 0 0031.003-72.691c0-37.416-20.85-71.869-53.996-89.227z" fill="#174291" fill-rule="nonzero"/><path d="M4074.79 1263.91c27.607-41.321 49.393-98.619 18.999-137.935-30.003-38.809-89.178-33.091-135.128-50.264-64.001-23.918-101.119-99.106-89.543-166.442 11.577-67.335 65.63-123.154 130.023-145.994 64.392-22.839 137.006-15.411 200.064 10.89 77.626 32.376 144.215 95.007 172.138 174.344 27.923 79.337 12.996 174.595-44.93 235.575-62.104 65.377-159.571 82.8-249.737 81.743" fill="#20232a" fill-rule="nonzero"/><path d="M4379.38 1035.21c7.903 44.154 56.34 69.232 100.856 74.744 44.516 5.511 90.566-1.556 133.902 10.021 76.4 20.411 126.79 93.885 154.526 167.941 27.735 74.057 40.035 153.985 76.071 224.377 36.036 70.391 105.908 132.449 184.713 125.865-30.675 77.229-105.764 128.199-188.862 128.199-87.873 0-166.247-56.996-193.325-140.592-28.95-89.374 4.282-195.956-46.345-275.093-28.016-43.791-76.392-69.55-123.037-92.501-46.645-22.952-95.603-46.51-126.876-88.037-31.274-41.527-37.522-107.111 1.016-142" fill="#20232a" fill-rule="nonzero"/><path d="M5323.93 3943.32H2794.45c-5.159 0-9.403-4.245-9.403-9.404 0-5.158 4.244-9.403 9.403-9.403h2529.48c5.159 0 9.403 4.245 9.403 9.403 0 5.159-4.244 9.404-9.403 9.404zM2539.63 4050H9.41c-5.16 0-9.406-4.246-9.406-9.406s4.246-9.406 9.406-9.406h2530.22c5.16 0 9.406 4.246 9.406 9.406s-4.246 9.406-9.406 9.406z" fill="#282c34" fill-rule="nonzero"/><path d="M1625.76 3947.22l92.592-28.415-65.535-370.646-136.649 41.94 109.592 357.121z" fill="#a0616a" fill-rule="nonzero"/><path d="M1923.3 3949.98l-290.986 89.302-34.503-112.427 178.56-54.798c61.675-18.928 128.001 16.248 146.929 77.923z" fill="#20232a" fill-rule="nonzero"/><path d="M804.212 3949.35h96.85l46.071-373.56-142.937.008.016 373.552z" fill="#a0616a" fill-rule="nonzero"/><path d="M1087.84 4039.27l-304.381.014-.005-117.602 186.779-.008c64.514-.003 117.604 53.081 117.607 117.596z" fill="#20232a" fill-rule="nonzero"/><path d="M828.863 2708.49a72.413 72.413 0 01-24.666-54.426 72.422 72.422 0 0127.178-56.529l75.09-945.55 152.708 38.153-122.269 922.356a72.779 72.779 0 0113.054 41.587c0 39.921-32.85 72.771-72.771 72.771a72.793 72.793 0 01-48.324-18.362z" fill="#a0616a" fill-rule="nonzero"/><circle cx="1189.96" cy="1099.12" r="194.024" fill="#a0616a"/><path d="M924.957 1670.74c-46.108-63.3-47.529-150.482 2.139-211.029 32.414-39.513 86.632-71.132 177.153-71.132 241.279 0 332.799 191.36 332.799 191.36s99.84 183.039 41.6 349.439c-58.24 166.399-58.24 183.039-58.24 183.039l-382.719-33.28s64.565-164.999-112.732-408.397z" fill="#9aabbb" fill-rule="nonzero"/><path d="M806.938 1836.38l82.448-269.741c16.533-54.077 66.792-91.267 123.34-91.267a128.98 128.98 0 0159.119 14.348c60.097 31.126 86.076 104.465 58.971 166.481l-104.818 238.711-219.06-58.532z" fill="#9aabbb" fill-rule="nonzero"/><path d="M1412.09 2070.82l324.479 1680.63-174.719 49.92-424.319-1106.56-191.359 1131.52-183.04 24.96s-80.29-1497.14 274.559-1772.15l374.399-8.32z" fill="#282c34" fill-rule="nonzero"/><path d="M1848.2 1896.38a83.006 83.006 0 00-7.605 10.659l-391.311 18.972-75.35-230.035-130.834 62.182 123.139 342.62 483.951-94.645a82.946 82.946 0 0061.141 26.91c45.485 0 82.914-37.428 82.914-82.913s-37.429-82.914-82.914-82.914a82.953 82.953 0 00-63.131 29.164z" fill="#a0616a" fill-rule="nonzero"/><path d="M1184.15 1604.1a128.886 128.886 0 01-.884-15.072c0-70.749 58.218-128.967 128.967-128.967 2.686 0 5.371.084 8.051.252 67.542 4.335 120.815 61.043 120.928 128.724v260.706l-224.107 34.482-32.955-280.125z" fill="#9aabbb" fill-rule="nonzero"/><path d="M1232.63 1294.91c-29.122-.127-51.587-30.787-50.281-59.879 1.305-29.092 20.844-54.688 44.385-71.831 23.541-17.143 51.149-27.585 77.401-40.189 26.253-12.604 52.276-28.325 68.485-52.519 19.853-32.106 22.872-71.949 8.084-106.68a171.208 171.208 0 00-73.73-80.768 226.692 226.692 0 00-161.286-25.501c-54.416 11.939-135.514 44.99-167.397 90.676l-33.242 90.514c-33.873 40.732-7.647 101.221 13.175 149.934 20.822 48.712 65.158 85.362 115.186 102.785a282.784 282.784 0 00156.739 4.7" fill="#20232a" fill-rule="nonzero"/><path d="M1055.31 993.452c-14.29-22.903-39.059-37.47-64.666-46.019a203.239 203.239 0 00-64.352-10.458c-107.319 0-197.083 85.013-202.914 192.174-2.714 49.881 12.906 98.66 22.083 147.765 9.178 49.105 11.004 103.34-16.071 145.322-20.623 31.977-55.013 52.109-88.957 69.3-28.291 14.328-58.893 27.774-90.476 24.919-31.584-2.855-63.328-27.871-62.49-59.572a253.23 253.23 0 00-21.184 71.732c-2.222 24.931 3.923 51.831 21.93 69.216 26.172 25.268 67.641 23.42 103.61 17.967 77.867-11.803 156.715-33.932 218.233-83.107 61.517-49.174 102.338-130.147 86.137-207.219-6.767-32.195-22.671-61.586-35.523-91.87-12.852-30.285-22.885-63.411-16.981-95.776a116.463 116.463 0 0159.189-78.853 154.875 154.875 0 0198.925-15.002c22.111 3.629 49.721 9.263 62.835-8.906 7.082-11.727 6.793-26.544-.74-37.986a104.645 104.645 0 00-28.38-28.12" fill="#20232a" fill-rule="nonzero"/></svg>