<svg xmlns="http://www.w3.org/2000/svg" viewBox="0 0 301 301" fill-rule="evenodd" stroke-linejoin="round" stroke-miterlimit="2"><g fill-rule="nonzero"><path d="M203.619 105.099l-106.654.182-45.809 15.445 99.077 49.478 99.078-49.478-45.692-15.627z" fill="#9b8868"/><path d="M247.251 121.554l-97.018 48.65v123.807l97.112-46.954V121.73l-.094-.176z" fill="#e0c59d"/><path d="M53.133 121.513l-.012.017v125.527l97.112 46.954V170.204l-97.1-48.691z" fill="#ffe6bb"/><path d="M150.233 6.455c34.994 0 63.784 28.789 63.784 63.775s-28.79 63.776-63.776 63.776-63.775-28.79-63.775-63.776a63.795 63.795 0 0118.68-45.095 63.57 63.57 0 0145.087-18.68z" fill="#999"/></g><circle cx="150.233" cy="70.222" r="45.545" fill="#b3b3b3"/><g fill-rule="nonzero"><path d="M249.311 120.726l-99.078 49.478 20.634 41.267 98.584-52.423-20.14-38.322z" fill="#d3bd94"/><path d="M53.133 121.513l-.012.017v125.527l17.606 8.512V130.335l-17.594-8.822z" fill="#e2c8a3"/><path d="M122.293 70.222c.003-21.676 15.476-40.495 36.743-44.687a45.566 45.566 0 00-8.803-.859c-24.986 0-45.546 20.56-45.546 45.546s20.56 45.546 45.546 45.546c2.955 0 5.903-.288 8.803-.859-21.266-4.194-36.738-23.012-36.743-44.687z" fill="#747474"/><path d="M51.156 120.726l-20.141 38.322 98.584 52.423 20.634-41.267-99.077-49.478z" fill="#d3bd94"/><path d="M51.156 120.726l-20.141 38.322 17.617 9.367 20.129-38.299-17.605-9.39z" fill="#bca784"/><path d="M29.359 162.156l20.24 10.763v74.137a3.53 3.53 0 001.988 3.169L148.7 297.18a3.523 3.523 0 003.066 0l97.113-46.954a3.526 3.526 0 001.988-3.169v-74.138l20.24-10.763a3.54 3.54 0 001.464-4.747l-20.143-38.321a3.507 3.507 0 00-1.978-1.691l-41.566-14.219a66.816 66.816 0 007.267-19.398 67.76 67.76 0 001.368-13.557 67.095 67.095 0 00-19.484-47.304 1.777 1.777 0 00-.5-.5c-26.014-25.807-68.592-25.807-94.607 0a1.803 1.803 0 00-.5.5c-18.131 18.278-23.954 45.167-15.9 68.924a66.82 66.82 0 005.155 11.501l-41.65 14.044a3.51 3.51 0 00-1.992 1.698l-20.143 38.321a3.54 3.54 0 001.461 4.749zm117.353 126.241l-90.071-43.55v-68.183l71.302 37.916a3.53 3.53 0 001.653.412 3.527 3.527 0 003.15-1.946l13.966-27.928v103.279zm97.113-43.55l-90.071 43.55V185.118l13.967 27.928a3.526 3.526 0 004.802 1.534l71.302-37.916v68.183zm20.882-87.264l-92.305 49.084-17.444-34.888 92.839-46.361 16.91 32.165zM90.094 73.742h2.999a3.54 3.54 0 003.521-3.521 3.54 3.54 0 00-3.521-3.521h-2.999a60.01 60.01 0 0115.145-36.494l2.1 2.1a3.52 3.52 0 002.49 1.031 3.54 3.54 0 003.521-3.521 3.52 3.52 0 00-1.031-2.489l-2.1-2.1a60.006 60.006 0 0136.493-15.145v2.998a3.54 3.54 0 003.521 3.521 3.54 3.54 0 003.521-3.521v-2.998a60.006 60.006 0 0136.493 15.145l-2.099 2.1a3.52 3.52 0 00-1.032 2.489 3.54 3.54 0 003.522 3.521c.933 0 1.829-.371 2.49-1.031l2.099-2.1A60.01 60.01 0 01210.372 66.7h-2.999a3.54 3.54 0 00-3.521 3.521 3.54 3.54 0 003.521 3.521h2.999a59.854 59.854 0 01-15.128 36.512l-2.118-2.118a3.52 3.52 0 00-2.49-1.032 3.54 3.54 0 00-3.521 3.521 3.52 3.52 0 001.031 2.49l2.119 2.119a59.942 59.942 0 01-36.511 15.123v-2.993a3.54 3.54 0 00-3.521-3.521 3.54 3.54 0 00-3.521 3.521v2.998a60.006 60.006 0 01-36.493-15.145l2.1-2.1a3.52 3.52 0 001.031-2.489 3.54 3.54 0 00-3.521-3.522c-.934 0-1.83.372-2.49 1.032l-2.1 2.1a60.017 60.017 0 01-15.145-36.496zm5.512 35.712a67.907 67.907 0 006.824 8.071 3.68 3.68 0 00.224.275c.088.079.18.154.276.225 26.084 25.898 68.832 25.819 94.82-.177.02-.018.042-.031.062-.05s.031-.042.05-.059a67.78 67.78 0 007.134-8.45l35.215 12.046-89.978 44.933-89.931-44.908 35.304-11.906zm-42.939 15.962l92.84 46.361-17.444 34.889-92.303-49.083 16.907-32.167z" fill="#32363e"/><path d="M66.699 191.691a3.54 3.54 0 00-3.521 3.521v3.425a3.54 3.54 0 003.521 3.522 3.54 3.54 0 003.521-3.522v-3.425a3.54 3.54 0 00-3.521-3.521zm0 15.701a3.54 3.54 0 00-3.521 3.521v25.855a3.54 3.54 0 003.521 3.522 3.54 3.54 0 003.521-3.522v-25.855a3.54 3.54 0 00-3.521-3.521zM239.121 56.168a3.54 3.54 0 003.521 3.521h18.218a3.54 3.54 0 003.521-3.521 3.54 3.54 0 00-3.521-3.521h-18.218a3.54 3.54 0 00-3.521 3.521zm-3.301-18.316c.761 0 1.501-.247 2.109-.705l18.218-13.648a3.524 3.524 0 001.473-2.864 3.54 3.54 0 00-3.521-3.521c-.789 0-1.555.265-2.175.751l-18.218 13.649a3.52 3.52 0 00-1.408 2.817 3.54 3.54 0 003.521 3.521h.001zm-2.114 42.972l18.218 13.648a3.52 3.52 0 002.175.751 3.54 3.54 0 003.521-3.521c0-1.135-.55-2.203-1.473-2.864L237.929 75.19a3.52 3.52 0 00-2.174-.752 3.54 3.54 0 00-3.522 3.522c0 1.135.55 2.203 1.473 2.864zm-194.1-21.135h18.218a3.54 3.54 0 003.522-3.521 3.54 3.54 0 00-3.522-3.521H39.606a3.54 3.54 0 00-3.521 3.521 3.54 3.54 0 003.521 3.521zm22.931 15.499L44.319 88.836a3.527 3.527 0 00-1.473 2.865 3.54 3.54 0 003.522 3.521 3.52 3.52 0 002.174-.752L66.76 80.822a3.52 3.52 0 001.408-2.816 3.54 3.54 0 00-3.521-3.522 3.52 3.52 0 00-2.112.705l.002-.001zM44.319 23.5l18.218 13.647a3.52 3.52 0 002.113.705 3.54 3.54 0 003.521-3.521 3.52 3.52 0 00-1.408-2.817L48.542 17.865a3.52 3.52 0 00-2.174-.752 3.54 3.54 0 00-3.522 3.521c0 1.136.55 2.204 1.473 2.865v.001z" fill="#20232a"/><path d="M150.233 119.289c26.918 0 49.068-22.15 49.068-49.068s-22.15-49.068-49.068-49.068-49.068 22.15-49.068 49.068c.03 26.906 22.162 49.038 49.068 49.068zm0-91.094c23.055 0 42.026 18.971 42.026 42.026s-18.971 42.026-42.026 42.026-42.026-18.971-42.026-42.026c.019-16.785 10.08-31.4 24.449-38.112a41.55 41.55 0 0117.577-3.914zm.073 58.968c-.024 0-.048-.003-.073-.003l-.073.003a6.87 6.87 0 01-6.757-6.824 3.54 3.54 0 00-3.521-3.521 3.54 3.54 0 00-3.521 3.521c.009 6.282 4.277 11.814 10.351 13.416v3.092a3.54 3.54 0 003.521 3.521 3.54 3.54 0 003.521-3.521v-3.092a13.91 13.91 0 0010.339-13.415c0-7.606-6.254-13.866-13.86-13.873-3.747 0-6.83-3.083-6.83-6.83s3.083-6.831 6.83-6.831 6.83 3.084 6.83 6.831a3.54 3.54 0 003.521 3.521 3.54 3.54 0 003.522-3.521c-.007-6.284-4.276-11.819-10.352-13.422v-2.62a3.54 3.54 0 00-3.521-3.522 3.54 3.54 0 00-3.521 3.522v2.62a13.91 13.91 0 00-10.343 13.416 13.74 13.74 0 002.346 7.679c2.497 3.721 6.741 6.191 11.518 6.194h.037c3.746 0 6.828 3.082 6.828 6.828 0 3.733-3.059 6.809-6.792 6.829v.002z" fill="#32363e"/></g></svg>