<svg viewBox="0 0 300 300" xmlns="http://www.w3.org/2000/svg" style="fill-rule:evenodd;clip-rule:evenodd;stroke-linejoin:round;stroke-miterlimit:2;"><g id="wu-change-icon"><g id="heart-icon"><g><path d="M255.679,163.235c29.116,-32.272 29.095,-84.529 -0.066,-116.77c-28.05,-31.014 -72.85,-32.217 -102.201,-3.61c-1.954,1.905 -4.869,1.905 -6.824,0c-29.351,-28.607 -74.15,-27.404 -102.202,3.61c-29.16,32.241 -29.181,84.498 -0.065,116.77l102.051,112.837c2.004,2.216 5.253,2.216 7.257,0l102.05,-112.837Z" style="fill:#ea4672;fill-rule:nonzero;stroke:#282c34;stroke-width:3.13px;"/><g><path d="M160.522,200.156l-38.394,42.45l-45.289,-50.075l38.393,-42.45c9.098,-10.058 23.848,-10.058 32.945,0l12.345,13.649c9.097,10.057 9.097,26.368 -0,36.426Z" style="fill:#e01a4f;fill-rule:nonzero;"/><path d="M255.511,160.919c-0,-0 -100.724,107.854 -105.526,112.417l-12.533,-13.735l99.419,-106.087c29.142,-31.181 29.122,-81.673 -0.066,-112.82c-4.86,-5.185 -10.37,-7.784 -16.07,-11.242c13.148,3.26 25.771,8.633 36.022,19.572c23.83,33.301 24.647,78.873 -1.246,111.895Z" style="fill:#e01a4f;fill-rule:nonzero;"/></g></g><path d="M94.622,179.085l-30.831,29.414l20.05,21.092l30.831,-29.414l-20.05,-21.092Z" style="fill:#747474;"/><path d="M146.881,191.73l-45.336,50.119c-2.119,2.343 -5.551,2.343 -7.67,0l-10.395,-11.493l28.332,-31.326l-16.829,-18.607l-28.332,31.326l-4.433,-4.902c-5.412,-5.984 -5.412,-15.679 -0,-21.665l39.369,-43.528c9.101,-10.063 23.853,-10.063 32.949,-0l12.345,13.644c9.097,10.063 9.097,26.374 -0,36.432Z" style="fill:#eaecea;fill-rule:nonzero;"/></g><rect x="0" y="0" width="300" height="300" style="fill:none;"/></g></svg>