<svg xmlns="http://www.w3.org/2000/svg" viewBox="0 0 300 300"  fill-rule="nonzero" stroke-linejoin="round" stroke-miterlimit="2"><path d="M261.534 152.363H38.466c-2.302.003-4.278 1.662-4.715 3.956L12.675 266.107c-.546 2.869.2 5.835 2.036 8.085s4.566 3.548 7.443 3.539h103.788c0 5.372 10.778 9.769 24.059 9.769s24.058-4.397 24.058-9.769h103.787c2.877.009 5.609-1.288 7.443-3.539s2.582-5.216 2.036-8.085l-21.076-109.788c-.437-2.294-2.413-3.953-4.715-3.956z" fill="#32363e"/><path d="M150.001 166.574v91.622c-7.04-3.104-14.378-5.46-21.894-7.034-28.573-6.304-58.285-4.77-86.079 4.446-1.599.493-3.334.12-4.597-.992a4.96 4.96 0 0 1-1.61-4.478l17.369-106.03c.345-2.094 1.974-3.729 4.042-4.053l10.007-1.367c5.881 11.6 17.653 18.894 30.507 18.9.866 0 1.684-.049 2.501-.098 3.205-.254 6.361-.944 9.384-2.051.009.104.043.204.095.293 3.601 10.236 13.16 17.061 23.866 17.046 6.03.02 11.862-2.186 16.409-6.204z" fill="#eaecea"/><path d="M257.974 255.608c-27.796-9.216-57.508-10.75-86.081-4.446-7.516 1.574-14.854 3.93-21.892 7.034v-91.622c1.011-.84 1.945-1.771 2.79-2.784 4.807 1.941 9.935 2.936 15.109 2.93h.288a17.06 17.06 0 0 0 3.754 9.525c4.67 4.686 10.508 7.994 16.889 9.572 4.629 1.5 8.76 4.273 11.932 8.009 2.829 3.558 7.621 4.808 11.789 3.078 3.668-1.609 6.05-5.272 6.062-9.328.005-1.062-.157-2.117-.48-3.126-.482-1.514-1.012-3.028-1.637-4.494-1.206-3.026-2.792-5.883-4.715-8.498 9.542-5.238 16.244-14.571 18.236-25.395.143-.197.336-.391.481-.588a25.8 25.8 0 0 0 3.994-6.543l8.275 1.123c2.068.324 3.697 1.959 4.042 4.053l1.348 8.255 16.023 97.775c.257 1.674-.351 3.367-1.612 4.478a4.8 4.8 0 0 1-4.595.992z" fill="#e6e8e6"/><path d="M237.098 129.261a25.79 25.79 0 0 1-2.117 10.207c-1.001 2.372-2.347 4.578-3.994 6.545-.143.194-.336.391-.481.585-1.992 10.825-8.694 20.158-18.236 25.396a38.32 38.32 0 0 1 4.715 8.498c.625 1.466 1.155 2.98 1.637 4.494a10.1 10.1 0 0 1 .48 3.126c-.012 4.055-2.393 7.719-6.062 9.328-4.168 1.73-8.96.479-11.789-3.076-3.172-3.739-7.303-6.511-11.932-8.011-6.381-1.578-12.219-4.886-16.889-9.573-2.193-2.703-3.503-6.03-3.754-9.522h-.288c-5.174.004-10.302-.989-15.109-2.932a21.53 21.53 0 0 1-2.79 2.785c-4.547 4.019-10.379 6.223-16.409 6.202-10.706.017-20.265-6.809-23.865-17.044a.7.7 0 0 1-.096-.294 35.27 35.27 0 0 1-9.384 2.051 40.25 40.25 0 0 1-2.5.098c-13.006-.009-24.892-7.465-30.715-19.267s-4.589-25.93 3.192-36.507a14.45 14.45 0 0 1-.867-4.981c-.028-7.218 4.966-13.452 11.933-14.896.027-.027.06-.044.096-.049-.048-.585-.096-1.172-.096-1.806a19.5 19.5 0 0 1 1.636-7.864c3.07-7.207 10.067-11.872 17.803-11.867a18.75 18.75 0 0 1 8.42 1.953c5.123-8.754 14.413-14.118 24.443-14.115 6.883-.025 13.532 2.531 18.669 7.179 2.951-4.828 8.315-7.574 13.894-7.112s10.434 4.059 12.572 9.31a38.11 38.11 0 0 1 4.137-.243c18.643.031 34.158 14.547 35.703 33.404h.144c3.964 0 7.766 1.603 10.564 4.453s4.365 6.713 4.351 10.737c-.009 2.632-.671 5.217-1.925 7.521 3.194 4.437 4.913 9.792 4.909 15.287z" fill="#ea4672"/><path d="M230.987 146.013c-.143.194-.336.391-.481.585-.848 4.704-2.614 9.187-5.197 13.186-2.519.726-5.127 1.088-7.746 1.075a29.98 29.98 0 0 1-13.713-3.369 31.48 31.48 0 0 1-5.629-3.908 16.95 16.95 0 0 1-6.015 1.173c-6.356.033-12.178-3.604-15.013-9.378a4.96 4.96 0 0 1 .278-4.884c.946-1.461 2.587-2.299 4.306-2.198s3.255 1.125 4.03 2.687a7.23 7.23 0 0 0 4.627 3.716c1.994.514 4.108.139 5.813-1.029 1.924-1.334 3.076-3.545 3.079-5.91a7.51 7.51 0 0 0-.722-3.272c-.968-2.361.023-5.082 2.271-6.237s4.996-.352 6.295 1.841c1.169 2.382 1.779 5.006 1.78 7.668a17.06 17.06 0 0 1-3.032 9.523c.77.537 1.54 1.075 2.31 1.514 2.887 1.509 6.087 2.296 9.335 2.296 4.936.028 9.711-1.779 13.424-5.079zm-58.846-19.175c6.233-4.358 10.52-11.039 11.929-18.588.357-1.727-.231-3.518-1.542-4.68a4.76 4.76 0 0 0-4.775-.929 4.87 4.87 0 0 0-3.135 3.773c-.942 5.037-3.806 9.493-7.967 12.399-8.006 5.474-18.741 4.232-25.329-2.929a4.77 4.77 0 0 0-6.806-.32c-1.966 1.819-2.108 4.913-.315 6.908 4.082 4.574 9.476 7.732 15.421 9.026-2.695 3.846-7.062 6.124-11.71 6.113-2.658 0-4.812 2.187-4.812 4.885s2.154 4.884 4.812 4.884c9.959.041 18.896-6.205 22.416-15.662a28.75 28.75 0 0 0 11.813-4.88zm44.844 53.654c-3.537 1.833-7.337 3.086-11.259 3.712-.254.04-.513.057-.77.05-2.533.023-4.652-1.952-4.843-4.517s1.612-4.841 4.121-5.203a27.53 27.53 0 0 0 8.036-2.54 38.32 38.32 0 0 1 4.715 8.498zm-107.203-34.088a25.2 25.2 0 0 0-.385 4.15c-.009 1.832.234 3.658.722 5.421a35.27 35.27 0 0 1-9.384 2.051 30.66 30.66 0 0 1-.961-7.325c-8.476-.938-14.901-8.196-14.916-16.85-.017-2.719 2.131-4.943 4.811-4.981 1.27-.007 2.491.497 3.393 1.405a4.88 4.88 0 0 1 1.418 3.43v.146c.073 3.86 3.083 7 6.882 7.179a29.37 29.37 0 0 1 2.742-6.3 4.75 4.75 0 0 1 2.951-2.24 4.69 4.69 0 0 1 3.641.579c2.263 1.421 2.989 4.416 1.636 6.742-1.221 2.029-2.085 4.261-2.55 6.593zm71.55 28.57c-2.892.939-5.878 1.545-8.902 1.806-2.193-2.703-3.503-6.03-3.754-9.522a12.79 12.79 0 0 0 1.397-.05c2.856-.184 5.683-.709 8.419-1.562 1.66-.578 3.497-.194 4.797 1.004s1.852 3.017 1.444 4.749-1.71 3.101-3.401 3.575zm-49.049-84.14c0-2.698-2.154-4.885-4.81-4.885-12.219.014-22.121 10.065-22.134 22.466 0 2.698 2.155 4.885 4.811 4.885s4.812-2.187 4.812-4.885c0-3.367 1.318-6.596 3.665-8.978s5.528-3.719 8.846-3.719c2.656 0 4.81-2.187 4.81-4.884zm-55.181 24.425c-.875 0-1.732-.243-2.479-.704-3.967-2.43-6.97-6.196-8.483-10.641a20.03 20.03 0 0 1-1.101-6.579c0-11.068 8.823-20.051 19.727-20.083 6.248-.024 12.13 2.987 15.826 8.102 1.026 1.402 1.237 3.252.553 4.853s-2.156 2.714-3.864 2.913a4.78 4.78 0 0 1-4.417-1.939c-1.885-2.612-4.888-4.151-8.078-4.142-4.555.027-8.537 3.123-9.746 7.581s.65 9.185 4.549 11.574c1.854 1.132 2.736 3.38 2.156 5.495s-2.481 3.578-4.643 3.575v-.005zm103.252-46.455c-2.658 0-4.812-2.187-4.812-4.885 0-5.674-4.53-10.273-10.121-10.273s-10.122 4.599-10.122 10.273c0 2.698-2.154 4.885-4.81 4.885s-4.812-2.187-4.812-4.885c0-11.068 8.84-20.041 19.744-20.041s19.745 8.973 19.745 20.041a4.92 4.92 0 0 1-1.409 3.453c-.902.916-2.126 1.432-3.403 1.432zm45.134 56.31c-2.234-.022-4.159-1.602-4.649-3.815s.589-4.476 2.598-5.464c1.919-.914 3.509-2.409 4.558-4.278 2.447-4.235 1.595-9.635-2.031-12.883a9.99 9.99 0 0 0-12.847-.436c-2.126 1.618-5.141 1.181-6.737-.976s-1.164-5.22.963-6.838c3.367-2.587 7.469-4 11.692-4.025 9.296-.064 17.381 6.452 19.429 15.657s-2.496 18.612-10.917 22.609a4.69 4.69 0 0 1-2.059.449z" fill="#e01a4f"/><path d="M148.723 27.152c-2.658 0-4.812-2.187-4.812-4.883v-4.885c0-2.697 2.154-4.884 4.812-4.884s4.812 2.187 4.812 4.884v4.885c0 2.696-2.155 4.883-4.812 4.883zm77.549 33.616c-1.946-.001-3.7-1.191-4.444-3.015a4.94 4.94 0 0 1 1.042-5.322l4.812-4.883c1.208-1.271 2.997-1.779 4.678-1.333a4.85 4.85 0 0 1 3.437 3.489 4.93 4.93 0 0 1-1.312 4.748l-4.812 4.885c-.902.916-2.125 1.431-3.401 1.431zm-155.098 0a4.77 4.77 0 0 1-3.402-1.431l-4.812-4.885c-1.25-1.225-1.752-3.041-1.312-4.748a4.85 4.85 0 0 1 3.436-3.489c1.683-.446 3.472.062 4.679 1.333l4.812 4.883a4.94 4.94 0 0 1 1.043 5.322c-.744 1.824-2.5 3.014-4.444 3.015z" fill="#20232a"/><path d="M108.213 40.216c-1.945 0-3.7-1.188-4.446-3.013l-5.523-13.539a4.94 4.94 0 0 1 .565-4.91c1.05-1.412 2.772-2.137 4.499-1.894s3.189 1.415 3.822 3.063l5.53 13.538c.489 1.198.491 2.544.003 3.743s-1.426 2.15-2.607 2.646c-.585.242-1.21.366-1.843.366zm81.018 0a4.82 4.82 0 0 1-1.842-.37c-1.179-.497-2.117-1.447-2.605-2.645a4.96 4.96 0 0 1 .002-3.74l5.529-13.538c.633-1.648 2.096-2.82 3.822-3.063s3.449.482 4.499 1.894a4.94 4.94 0 0 1 .566 4.91l-5.524 13.539c-.745 1.825-2.501 3.013-4.447 3.013zm57.288 58.153c-2.3.006-4.285-1.64-4.733-3.931s.762-4.583 2.89-5.47l13.338-5.608c1.589-.666 3.408-.423 4.77.639s2.065 2.783 1.841 4.512-1.342 3.207-2.929 3.875l-13.334 5.606c-.583.248-1.21.375-1.843.377zm-195.593 0a4.75 4.75 0 0 1-1.843-.377L35.75 92.386c-1.588-.668-2.706-2.144-2.931-3.875a4.92 4.92 0 0 1 1.842-4.512c1.363-1.062 3.181-1.305 4.77-.639l13.338 5.608c2.129.887 3.34 3.18 2.891 5.47s-2.433 3.937-4.734 3.931z" fill="#32363e"/></svg>