<svg viewBox="0 0 72 73" version="1.1" xmlns="http://www.w3.org/2000/svg" xmlns:xlink="http://www.w3.org/1999/xlink" xml:space="preserve" xmlns:serif="http://www.serif.com/" style="fill-rule:evenodd;clip-rule:evenodd;stroke-linejoin:round;stroke-miterlimit:2;"><g id="number-icon-6"></g><g id="number-icon-5"></g><g id="number-icon-4"></g><g id="number-icon-3"></g><g id="number-icon-2"></g><g id="number-icon-1"></g><g id="wu-provide-icon-2"></g><g id="wu-provide-icon"></g><g id="wu-inspire-icon"><path id="bulb-glass" d="M34.261,9.874c-9.811,0.626 -18.718,9.535 -19.344,19.346c-0.417,6.55 2.208,12.496 6.597,16.567c2.41,2.237 3.859,5.318 3.859,8.607l20.503,0.001c-0,-3.181 1.267,-6.273 3.632,-8.401c4.215,-3.797 6.865,-9.294 6.865,-15.415c0,-11.91 -10.035,-21.478 -22.112,-20.705Z" style="fill:#eaecea;fill-rule:nonzero;stroke:#32363e;stroke-width:1.04px;"/><path id="inner-bulb" d="M37.35,55.951l-3.752,-0c-0.344,-0 -0.64,-0.244 -0.707,-0.583l-3.376,-17.493c-0.01,-0.045 -0,0.045 -0,0l-0,-5.63c-0,-0.29 0.175,-0.553 0.444,-0.664c0.267,-0.109 0.577,-0.049 0.783,0.157c1.266,1.266 2.947,1.964 4.732,1.964c1.786,0 3.467,-0.698 4.734,-1.964c0.205,-0.206 0.514,-0.268 0.782,-0.157c0.269,0.111 0.747,0.536 0.747,0.826l-0.303,5.468c0,0.045 0.009,-0.045 0,0l-3.378,17.493c-0.065,0.339 -0.361,0.583 -0.706,0.583Zm-3.16,-1.437l2.567,-0l2.819,-16.676l0.421,-4.072c-1.328,0.893 -2.987,2.385 -4.621,2.385c-1.633,0 -3.095,-1.492 -4.424,-2.385l0.215,4.18l3.023,16.568Z" style="fill:#747474;fill-rule:nonzero;"/><g id="light-group"><path id="light" d="M35.623,6.906c-0.688,0 -1.245,-0.557 -1.245,-1.245l-0,-4.154c-0,-0.688 0.557,-1.246 1.245,-1.246c0.688,0 1.247,0.558 1.247,1.246l0,4.154c0,0.688 -0.559,1.245 -1.247,1.245Z" style="fill:#e01a4f;fill-rule:nonzero;"/><path id="light1" serif:id="light" d="M21.617,11.458c-0.556,0.404 -1.335,0.281 -1.739,-0.277l-2.442,-3.36c-0.404,-0.556 -0.281,-1.335 0.275,-1.739c0.557,-0.406 1.337,-0.282 1.741,0.275l2.44,3.36c0.406,0.556 0.282,1.336 -0.275,1.741Z" style="fill:#e01a4f;fill-rule:nonzero;"/><path id="light2" serif:id="light" d="M12.96,23.371c-0.212,0.655 -0.914,1.014 -1.569,0.802l-3.951,-1.284c-0.654,-0.214 -1.011,-0.916 -0.799,-1.571c0.213,-0.654 0.916,-1.013 1.571,-0.799l3.949,1.283c0.654,0.212 1.013,0.915 0.799,1.569Z" style="fill:#e01a4f;fill-rule:nonzero;"/><path id="light3" serif:id="light" d="M58.286,23.371c-0.212,-0.654 0.145,-1.357 0.799,-1.569l3.951,-1.283c0.655,-0.214 1.358,0.145 1.57,0.799c0.213,0.655 -0.146,1.357 -0.8,1.571l-3.949,1.284c-0.655,0.212 -1.359,-0.147 -1.571,-0.802Z" style="fill:#e01a4f;fill-rule:nonzero;"/><path id="light4" serif:id="light" d="M49.629,11.458c-0.555,-0.405 -0.679,-1.185 -0.275,-1.741l2.442,-3.36c0.404,-0.557 1.184,-0.681 1.739,-0.275c0.558,0.404 0.681,1.183 0.276,1.739l-2.441,3.36c-0.404,0.558 -1.183,0.681 -1.741,0.277Z" style="fill:#e01a4f;fill-rule:nonzero;"/></g><g id="bulb-base"><path d="M29.738,67.789c-0,2.399 2.716,4.343 6.066,4.343c3.348,0 6.064,-1.944 6.064,-4.343l-12.13,-0Z" style="fill:#20232a;fill-rule:nonzero;"/><path d="M48.244,56.702c0,-1.273 -1.031,-2.307 -2.305,-2.307l-20.63,0c-0.822,0 -1.54,0.434 -1.947,1.084l23.547,3.308c0.786,-0.367 1.335,-1.16 1.335,-2.085Z" style="fill:#20232a;fill-rule:nonzero;"/><path d="M23.362,55.479c-0.224,0.353 -0.359,0.772 -0.359,1.223c-0,1.274 1.033,2.305 2.306,2.305l20.63,0c0.347,0 0.674,-0.082 0.97,-0.22l-23.547,-3.308Z" style="fill:#32363e;fill-rule:nonzero;"/><path d="M48.244,61.092c0,-1.273 -1.031,-2.305 -2.305,-2.305l-20.63,-0c-0.822,-0 -1.54,0.434 -1.947,1.082l23.547,3.31c0.786,-0.368 1.335,-1.16 1.335,-2.087Z" style="fill:#20232a;fill-rule:nonzero;"/><path d="M23.362,59.869c-0.224,0.355 -0.359,0.772 -0.359,1.223c-0,1.274 1.033,2.307 2.306,2.307l20.63,-0c0.347,-0 0.674,-0.084 0.97,-0.222l-23.547,-3.308Z" style="fill:#32363e;fill-rule:nonzero;"/><path d="M48.244,65.484c0,-1.274 -1.031,-2.307 -2.305,-2.307l-20.63,-0c-0.822,-0 -1.54,0.434 -1.947,1.083l23.547,3.309c0.786,-0.368 1.335,-1.16 1.335,-2.085Z" style="fill:#20232a;fill-rule:nonzero;"/><path d="M23.362,64.26c-0.224,0.356 -0.359,0.773 -0.359,1.224c-0,1.273 1.033,2.305 2.306,2.305l20.63,-0c0.347,-0 0.674,-0.082 0.97,-0.22l-23.547,-3.309Z" style="fill:#32363e;fill-rule:nonzero;"/></g><rect x="0" y="0" width="72" height="72" style="fill:none;"/></g><g id="wu-motivate-icon"></g><g id="wu-change-icon"></g><g id="wu-educate-icon"><g id="Book"><g id="pages"></g></g><g id="Brain"></g></g></svg>