<svg viewBox="0 0 300 300"  xmlns="http://www.w3.org/2000/svg" style="fill-rule:evenodd;clip-rule:evenodd;stroke-linejoin:round;stroke-miterlimit:2;"><g id="wu-motivate-icon"><g><rect x="203.813" y="143.034" width="10.572" height="5.124" style="fill:#eaecea;"/><rect x="85.385" y="143.034" width="10.572" height="5.124" style="fill:#eaecea;"/><path d="M201.774,146.047l0,25.794c0,28.527 -23.127,51.654 -51.654,51.654c-28.527,-0 -51.654,-23.127 -51.654,-51.654l0,-25.794l103.308,0Z" style="fill:#20232a;fill-rule:nonzero;"/><path d="M201.774,61.038l0,85.009l-103.308,0l0,-85.009c-0.003,-3.25 0.303,-6.492 0.911,-9.683c0.787,-4.154 2.089,-8.193 3.878,-12.024c12,-25.888 42.714,-37.145 68.6,-25.145c5.5,2.549 10.51,6.047 14.797,10.333c7.309,7.326 12.259,16.672 14.212,26.835c0.606,3.192 0.912,6.434 0.91,9.684Z" style="fill:#eaecea;fill-rule:nonzero;stroke:#32363e;stroke-width:0.08px;"/><path d="M212.921,139.533l-0,13.007l5.615,-0l-0,19.633c-0,37.854 -30.685,68.543 -68.541,68.543c-37.854,0.002 -68.542,-30.685 -68.544,-68.539l0,-19.631l6.503,0l-0,-13.006l-19.509,-0l-0,32.646c-0,45.042 36.514,81.555 81.555,81.555c45.041,-0 81.555,-36.513 81.555,-81.555l0,-32.653l-18.634,0Z" style="fill:#282c34;fill-rule:nonzero;"/><rect x="93.852" y="139.533" width="112.555" height="13.013" style="fill:#32363e;"/><g><path d="M200.861,51.355l-33.264,0c-3.32,-0.079 -5.948,-2.836 -5.868,-6.156c0.076,-3.21 2.66,-5.792 5.868,-5.868l29.386,-0c1.787,3.829 3.089,7.87 3.878,12.024Z" style="fill:#32363e;fill-rule:nonzero;"/><path d="M201.774,63.898l0,12.025l-34.177,-0c-3.32,-0.002 -6.012,-2.693 -6.012,-6.013c0.018,-3.314 2.698,-5.995 6.012,-6.015l34.177,0.003Z" style="fill:#32363e;fill-rule:nonzero;"/><path d="M201.774,88.465l0,12.024l-34.177,0c-3.317,-0.011 -6,-2.698 -6.012,-6.015c0.02,-3.31 2.7,-5.99 6.012,-6.009l34.177,-0Z" style="fill:#32363e;fill-rule:nonzero;"/><path d="M201.774,113.016l0,12.052l-34.177,0c-3.317,-0.011 -6,-2.697 -6.012,-6.015l0,-0.027c0.01,-3.316 2.695,-6.002 6.012,-6.013l34.177,0.003Z" style="fill:#32363e;fill-rule:nonzero;"/><path d="M138.654,45.337c-0,3.321 -2.693,6.015 -6.014,6.015l-33.263,0c0.787,-4.154 2.089,-8.194 3.878,-12.026l29.385,-0c3.313,0.018 5.994,2.697 6.014,6.011Z" style="fill:#32363e;fill-rule:nonzero;"/><path d="M138.654,69.913c-0,3.321 -2.693,6.013 -6.014,6.013l-34.174,0l0,-12.028l34.174,0c1.592,0.005 3.118,0.641 4.241,1.77c1.14,1.118 1.779,2.648 1.773,4.245Z" style="fill:#32363e;fill-rule:nonzero;"/><path d="M138.654,94.486c-0.009,3.317 -2.696,6.003 -6.014,6.013l-34.174,-0l0,-12.034l34.174,-0c1.592,0.003 3.118,0.64 4.241,1.769c1.142,1.12 1.781,2.653 1.773,4.252Z" style="fill:#32363e;fill-rule:nonzero;"/><path d="M138.654,119.027l-0,0.028c-0.009,3.317 -2.696,6.005 -6.014,6.013l-34.174,0l0,-12.05l34.174,-0c3.316,0.008 6.002,2.692 6.014,6.009Z" style="fill:#32363e;fill-rule:nonzero;"/></g><rect x="138.496" y="246.253" width="22.99" height="43.815" style="fill:#282c34;"/><ellipse cx="151.008" cy="174.802" rx="10.771" ry="10.542" style="fill:#32363e;stroke:#e01a4f;stroke-width:0.83px;stroke-linecap:round;stroke-miterlimit:1.5;"/></g><rect x="0" y="0" width="300" height="299.45" style="fill:none;"/></g></svg>