<svg viewBox="0 0 300 300" version="1.1" xmlns="http://www.w3.org/2000/svg" xml:space="preserve" style="fill-rule:evenodd;clip-rule:evenodd;stroke-linejoin:round;stroke-miterlimit:2;"><g id="wu-provide-icon"><g id="piggy-bank-icon"><path d="M266.626,161.656l-10.446,-3.417c-2.496,-0.813 -4.44,-2.829 -5.225,-5.382c-12.021,-39.003 -56.654,-56.914 -101.581,-56.914c-52.556,-0 -95.165,24.508 -95.165,78.631c0,31.192 14.996,53.04 38.156,65.657c0.57,0.313 0.975,0.864 1.098,1.508l5.189,27.506c0.484,2.591 2.704,4.469 5.287,4.469l17.523,-0c2.588,-0 4.808,-1.878 5.286,-4.469l2.834,-15.289c0.209,-1.127 1.245,-1.89 2.361,-1.759c5.649,0.67 11.476,1.008 17.431,1.008c7.961,-0 15.91,-0.601 23.675,-1.796c1.141,-0.176 2.214,0.588 2.429,1.746l2.987,16.09c0.478,2.591 2.699,4.469 5.287,4.469l17.523,-0c2.582,-0 4.802,-1.878 5.287,-4.469l5.385,-29.12c0.122,-0.658 0.54,-1.221 1.122,-1.527c13.757,-7.298 25.135,-17.336 32.397,-30.141c0.962,-1.702 2.496,-3.004 4.336,-3.605l16.824,-5.501c4.268,-1.396 7.163,-5.439 7.163,-10.014l0,-17.673c0,-4.569 -2.895,-8.618 -7.163,-10.008Z" style="fill:#ea4672;fill-rule:nonzero;"/><g><path d="M272.477,166.55c-0.454,-0.832 -1.012,-1.602 -1.668,-2.278c-0.013,-0.012 -0.025,-0.031 -0.043,-0.043c-1.135,-1.158 -2.54,-2.053 -4.14,-2.573l-7.741,-2.534l0,9.293c0,11.547 -7.213,21.811 -17.927,25.522c-4.876,1.59 -9.09,4.744 -12.175,8.906c-3.778,5.101 -8.274,9.682 -13.334,13.75c-5.968,4.794 -9.997,11.653 -11.144,19.313c-0.822,5.464 -1.46,12.811 -1.865,16.942c-0.313,3.173 -2.932,5.595 -6.06,5.595l-8.672,0c-2.582,0 -4.803,-1.877 -5.281,-4.468l-2.987,-17.605c-0.215,-1.158 -1.288,-1.922 -2.429,-1.747c-7.765,1.196 -19.676,1.797 -27.637,1.797c-5.955,-0 -16.725,-0.338 -22.38,-1.008c-1.116,-0.131 -2.147,0.626 -2.355,1.759l-2.84,16.303c-0.479,2.591 -2.699,4.462 -5.281,4.462l-8.623,0c-2.583,0 -4.803,-1.871 -5.281,-4.462l-4.202,-25.491c-0.122,-0.644 -0.527,-1.195 -1.097,-1.508c-21.05,-11.465 -40.297,-33.583 -42.731,-60.381l-0,0.006c-0.062,0.657 -0.111,1.32 -0.154,1.984c-0.006,0.012 -0.006,0.025 -0.006,0.037c0,0.069 -0.006,0.138 -0.012,0.201c-0.037,0.6 -0.074,1.201 -0.098,1.808c-0.013,0.251 -0.019,0.507 -0.031,0.764c-0.018,0.463 -0.037,0.92 -0.043,1.389c-0.018,0.757 -0.031,1.521 -0.031,2.291c0,3.899 0.233,7.654 0.687,11.259c0.558,4.418 1.454,8.618 2.65,12.598c0.067,0.219 0.135,0.438 0.202,0.651c0.166,0.538 0.338,1.07 0.516,1.602c0.073,0.213 0.141,0.426 0.214,0.632c0.491,1.421 1.024,2.81 1.595,4.168c0.061,0.144 0.123,0.288 0.184,0.432c0.282,0.657 0.57,1.308 0.871,1.953c0.055,0.106 0.104,0.212 0.153,0.319c0.282,0.594 0.571,1.183 0.865,1.765c0.049,0.1 0.104,0.2 0.153,0.3c0.325,0.626 0.657,1.246 0.994,1.859c0.073,0.138 0.153,0.269 0.227,0.4c1.104,1.959 2.294,3.843 3.576,5.652c0.116,0.175 0.245,0.35 0.368,0.519c0.312,0.432 0.625,0.858 0.944,1.283c0.129,0.163 0.252,0.332 0.38,0.501c0.43,0.557 0.871,1.114 1.319,1.665c0.006,0.006 0.012,0.006 0.012,0.012c0.454,0.551 0.914,1.089 1.38,1.621c0.141,0.163 0.282,0.319 0.43,0.482c0.349,0.388 0.699,0.776 1.055,1.158c0.147,0.156 0.288,0.306 0.435,0.463c0.491,0.513 0.988,1.02 1.49,1.521c0,-0 0,0.006 0.007,0.006c0.558,0.557 1.134,1.101 1.717,1.64c1.165,1.082 2.367,2.121 3.612,3.129c1.239,1.001 2.521,1.971 3.834,2.904c0.656,0.469 1.318,0.926 1.993,1.37c0.607,0.407 1.227,0.801 1.846,1.19c0.178,0.112 0.356,0.225 0.54,0.331c0.466,0.288 0.938,0.576 1.411,0.851c0.19,0.113 0.38,0.226 0.564,0.332c0.638,0.369 1.282,0.739 1.932,1.089c0.147,0.081 0.276,0.175 0.399,0.275c0.104,0.101 0.202,0.207 0.288,0.32c0.024,0.031 0.049,0.068 0.073,0.106c0.056,0.088 0.111,0.181 0.154,0.275c0.018,0.038 0.043,0.075 0.055,0.119c0.055,0.132 0.104,0.269 0.129,0.42l5.189,27.505c0.061,0.32 0.147,0.632 0.263,0.933c0.056,0.15 0.117,0.294 0.184,0.438c0.068,0.144 0.141,0.282 0.221,0.419c0.08,0.132 0.166,0.263 0.252,0.395c0.092,0.125 0.184,0.25 0.288,0.369c0.11,0.131 0.233,0.256 0.356,0.382c0.043,0.037 0.079,0.075 0.122,0.112c0.092,0.082 0.184,0.163 0.276,0.238c0.049,0.038 0.098,0.075 0.147,0.113c0.099,0.075 0.203,0.144 0.301,0.212c0.049,0.026 0.092,0.057 0.141,0.088c0.147,0.088 0.301,0.175 0.46,0.25l0.006,0c0.154,0.076 0.319,0.144 0.485,0.201c0.049,0.018 0.104,0.037 0.159,0.05c0.117,0.044 0.233,0.075 0.356,0.106c0.061,0.013 0.123,0.025 0.184,0.044c0.123,0.025 0.245,0.044 0.368,0.063c0.055,0.006 0.117,0.012 0.172,0.018c0.178,0.019 0.362,0.032 0.546,0.032l17.523,-0c0.809,-0 1.582,-0.182 2.275,-0.514c0.276,-0.131 0.546,-0.287 0.791,-0.463c0.252,-0.181 0.491,-0.375 0.706,-0.594c0.325,-0.332 0.613,-0.701 0.846,-1.102c0.319,-0.544 0.546,-1.145 0.668,-1.796l2.834,-15.289c0.025,-0.125 0.061,-0.251 0.104,-0.363c0.013,-0.038 0.031,-0.069 0.043,-0.107c0.037,-0.081 0.08,-0.162 0.123,-0.237c0.018,-0.032 0.037,-0.063 0.055,-0.094c0.068,-0.1 0.141,-0.201 0.221,-0.282c0.221,-0.238 0.491,-0.419 0.791,-0.532c0.031,-0.012 0.061,-0.025 0.092,-0.037c0.068,-0.025 0.141,-0.044 0.215,-0.063c0.061,-0.013 0.116,-0.019 0.178,-0.031c0.055,-0.007 0.11,-0.013 0.165,-0.019c0.123,-0.006 0.246,-0.006 0.374,0.006c0.939,0.113 1.889,0.213 2.84,0.307c0.239,0.025 0.479,0.044 0.718,0.069c0.95,0.087 1.901,0.169 2.864,0.237l0.012,0c0.963,0.069 1.926,0.132 2.895,0.182c0.246,0.012 0.491,0.025 0.736,0.038c0.969,0.043 1.945,0.087 2.926,0.112c1.472,0.044 2.956,0.063 4.44,0.063c1.994,-0 3.981,-0.038 5.968,-0.113c1.018,-0.037 2.036,-0.088 3.048,-0.144c0.105,-0.006 0.209,-0.012 0.307,-0.019c0.926,-0.056 1.846,-0.119 2.766,-0.187c0.019,-0 0.043,-0.007 0.062,-0.007c2.017,-0.156 4.029,-0.35 6.029,-0.582c0.006,-0.006 0.012,-0.006 0.018,-0.006c0.914,-0.106 1.828,-0.219 2.736,-0.344c0.441,-0.056 0.877,-0.125 1.318,-0.188c0.485,-0.069 0.969,-0.138 1.448,-0.213c0.975,-0.15 1.901,0.413 2.269,1.308c0.006,0.007 0.012,0.019 0.018,0.032c0.049,0.131 0.092,0.269 0.117,0.413l2.987,16.096c0.478,2.591 2.699,4.463 5.287,4.463l17.523,-0c0.184,-0 0.368,-0.013 0.546,-0.032c0.055,-0.006 0.11,-0.012 0.171,-0.018c0.123,-0.019 0.246,-0.038 0.368,-0.063c0.062,-0.013 0.123,-0.031 0.184,-0.044c0.123,-0.031 0.24,-0.062 0.356,-0.106c0.055,-0.013 0.111,-0.032 0.16,-0.05c0.165,-0.057 0.331,-0.125 0.484,-0.201l0.006,0c0.16,-0.075 0.313,-0.162 0.46,-0.25c0.049,-0.031 0.092,-0.062 0.141,-0.088c0.098,-0.068 0.203,-0.137 0.301,-0.212c0.049,-0.038 0.098,-0.075 0.141,-0.113c0.098,-0.075 0.19,-0.156 0.282,-0.238c0.037,-0.037 0.08,-0.075 0.123,-0.112c0.122,-0.126 0.245,-0.251 0.355,-0.382c0.043,-0.057 0.086,-0.113 0.129,-0.163c0.147,-0.194 0.289,-0.394 0.411,-0.601c0.16,-0.269 0.295,-0.557 0.405,-0.857c0.11,-0.301 0.202,-0.613 0.258,-0.933l1.183,-6.383l1.227,-6.634l0.773,-4.156l2.208,-11.953l0.202,-1.071c0.362,-0.181 0.509,-0.256 0.871,-0.438c0.012,0 0.025,0 0.031,-0.006c0.006,0 0.012,-0.006 0.018,-0.012c0.417,-0.219 0.828,-0.457 1.245,-0.683c0.436,-0.237 0.877,-0.469 1.307,-0.719c0.368,-0.207 0.736,-0.432 1.104,-0.645c0.466,-0.275 0.932,-0.538 1.392,-0.82c0.374,-0.225 0.742,-0.469 1.116,-0.701c0.436,-0.275 0.883,-0.544 1.313,-0.826c0.392,-0.256 0.766,-0.519 1.153,-0.776c0.405,-0.269 0.816,-0.538 1.22,-0.82c0.381,-0.263 0.749,-0.538 1.123,-0.807c0.392,-0.282 0.791,-0.563 1.177,-0.851c0.362,-0.269 0.718,-0.551 1.074,-0.826c0.386,-0.301 0.779,-0.595 1.165,-0.902c0.343,-0.275 0.681,-0.563 1.024,-0.838c0.381,-0.319 0.767,-0.626 1.141,-0.945c0.344,-0.294 0.675,-0.601 1.012,-0.901c0.362,-0.32 0.724,-0.633 1.08,-0.952c0.325,-0.306 0.644,-0.613 0.963,-0.92c0.349,-0.331 0.705,-0.663 1.048,-1.001c0.313,-0.307 0.614,-0.626 0.92,-0.939c0.344,-0.35 0.687,-0.688 1.018,-1.039c0.301,-0.325 0.589,-0.657 0.884,-0.982c0.325,-0.357 0.656,-0.708 0.969,-1.064c0.288,-0.332 0.564,-0.676 0.846,-1.008c0.307,-0.369 0.626,-0.732 0.926,-1.108c0.27,-0.338 0.534,-0.688 0.804,-1.032c0.294,-0.382 0.595,-0.758 0.877,-1.139c0.264,-0.357 0.515,-0.72 0.773,-1.083c0.276,-0.388 0.558,-0.77 0.821,-1.158c0.252,-0.369 0.491,-0.745 0.73,-1.12c0.258,-0.394 0.528,-0.789 0.773,-1.189c0.313,-0.501 0.595,-1.014 0.908,-1.515c0.184,-0.294 0.356,-0.594 0.527,-0.901c0.951,-1.658 2.441,-2.929 4.238,-3.511l0.062,-0.019l8.58,-2.81l8.244,-2.691c4.268,-1.395 7.163,-5.445 7.163,-10.013l0,-17.68c0,-1.559 -0.343,-3.055 -0.963,-4.413c-0.11,-0.237 -0.227,-0.475 -0.349,-0.701Z" style="fill:#e01a4f;fill-rule:nonzero;"/><path d="M190.198,105.487c0.534,-2.579 2.288,-4.725 4.637,-5.82c9.034,-4.225 32.046,-14.376 37.959,-11.209c7.409,3.955 3.533,46.706 -7.759,53.228c-10.905,6.302 -42.547,1.145 -34.837,-36.199Z" style="fill:#ea4672;fill-rule:nonzero;"/></g><ellipse cx="137.39" cy="74.188" rx="46.938" ry="47.896" style="fill:#747474;"/><path d="M229.654,93.408c-5.152,0 -17.627,4.331 -32.556,11.303c-0.816,0.382 -1.405,1.101 -1.57,1.921c-2.178,10.539 -1.012,19.02 3.361,24.521c0.515,0.644 1.073,1.251 1.68,1.821c0.706,0.657 1.84,0.288 2.074,-0.657c5.188,-20.966 30.372,-38.909 27.011,-38.909Z" style="fill:#e01a4f;fill-rule:nonzero;"/><path d="M136.31,97.952c-8.114,-0.132 -13.61,-4.606 -13.61,-7.88c0,-1.602 1.374,-3.805 3.012,-3.805c2.159,0 3.925,4.675 10.598,5.207l0,-15.683c-5.888,-2.141 -12.432,-4.544 -12.432,-13.087c0,-8.411 6.219,-11.747 12.432,-12.417l0,-1.933c0,-0.801 0.785,-1.54 1.896,-1.54c0.981,0 1.962,0.739 1.962,1.54l0,1.802c4.453,0.131 10.734,1.533 10.734,4.807c-0,1.264 -0.92,3.805 -2.883,3.805c-1.57,-0 -3.269,-2.141 -7.851,-2.472l0,13.549c5.692,2.14 11.911,5.076 11.911,14.157c0,8.211 -4.845,12.748 -11.911,13.749l0,2.272c0,0.801 -0.981,1.534 -1.962,1.534c-1.111,-0 -1.896,-0.733 -1.896,-1.534l0,-2.071Zm0.393,-29.371l-0,-12.154c-3.662,0.469 -6.281,2.14 -6.281,5.608c0,3.805 2.816,5.207 6.281,6.546Zm3.073,8.674l-0,14.088c3.533,-0.67 5.759,-2.804 5.759,-6.609c-0,-4.206 -2.552,-6.077 -5.759,-7.479Z" style="fill:#e6e8e6;fill-rule:nonzero;"/><path d="M236.634,161.212c-0,-2.09 -1.656,-3.786 -3.711,-3.786c-2.049,-0 -3.711,1.696 -3.711,3.786c0,2.654 -2.11,4.813 -4.71,4.813c-2.595,-0 -4.711,-2.159 -4.711,-4.813c0,-2.09 -1.662,-3.786 -3.71,-3.786c-2.049,-0 -3.711,1.696 -3.711,3.786c-0,6.828 5.44,12.385 12.132,12.385c6.691,0 12.132,-5.557 12.132,-12.385Z" style="fill:#282c34;fill-rule:nonzero;"/><path d="M267.76,158.045l-10.445,-3.411c-1.337,-0.438 -2.392,-1.527 -2.821,-2.916c-2.202,-7.141 -5.526,-13.844 -9.875,-19.927c-1.981,-2.772 -4.189,-5.42 -6.593,-7.942c1.539,-6.897 2.38,-14.701 2.269,-21.448c-0.159,-9.65 -2.048,-15.308 -5.777,-17.304c-2.012,-1.07 -8.127,-4.337 -41.229,11.121c-0.785,0.369 -1.515,0.82 -2.196,1.333c-2.232,-0.607 -4.514,-1.176 -6.808,-1.683c-0.276,-0.063 -0.558,-0.119 -0.84,-0.176c2.687,-5.983 4.251,-12.473 4.545,-19.182c0.092,-2.084 -1.49,-3.855 -3.539,-3.949c-2.042,-0.106 -3.784,1.521 -3.876,3.611c-0.485,11.028 -4.962,21.398 -12.617,29.208c-4.575,4.663 -9.929,8.055 -15.633,10.189c-9.894,-1.414 -19.977,-1.414 -29.87,0c-5.71,-2.134 -11.058,-5.526 -15.634,-10.189c-8.163,-8.33 -12.659,-19.407 -12.659,-31.192c0,-11.784 4.496,-22.862 12.659,-31.192c8.164,-8.33 19.02,-12.917 30.569,-12.917c11.549,-0 22.405,4.587 30.568,12.917c3.282,3.349 5.993,7.166 8.06,11.353c0.92,1.871 3.152,2.622 4.98,1.684c1.834,-0.945 2.57,-3.217 1.65,-5.088c-2.423,-4.907 -5.6,-9.382 -9.439,-13.306c-9.568,-9.763 -22.289,-15.139 -35.819,-15.139c-13.53,0 -26.251,5.376 -35.819,15.139c-9.562,9.763 -14.83,22.743 -14.83,36.549c-0,13.807 5.268,26.787 14.83,36.543c2.76,2.817 5.765,5.239 8.943,7.266c-2.307,0.614 -4.6,1.302 -6.864,2.072c-1.944,0.663 -2.993,2.81 -2.343,4.794c0.65,1.984 2.754,3.054 4.699,2.391c20.24,-6.903 42.528,-6.903 62.768,-0c0.393,0.131 0.785,0.2 1.178,0.2c1.552,-0 2.999,-1.008 3.52,-2.591c0.65,-1.984 -0.398,-4.131 -2.343,-4.794c-2.263,-0.77 -4.557,-1.458 -6.863,-2.072c3.177,-2.027 6.183,-4.449 8.943,-7.266c2.441,-2.49 4.593,-5.207 6.464,-8.098c1.024,0.2 2.036,0.413 3.042,0.632c1.331,0.301 2.656,0.613 3.975,0.951c-0.043,0.163 -0.086,0.326 -0.123,0.495c-1.809,8.762 -1.693,16.516 0.35,23.037c1.833,5.858 5.145,10.608 9.844,14.113c5.532,4.13 12.211,5.914 18.265,5.914c4.557,0 8.752,-1.007 11.837,-2.791c3.49,-2.015 6.409,-6.265 8.722,-12.642c1.073,1.277 2.085,2.578 3.042,3.911c3.87,5.414 6.826,11.384 8.789,17.737c1.147,3.73 4.005,6.671 7.636,7.854l10.445,3.417c2.742,0.895 4.582,3.467 4.582,6.409l-0,17.667c-0,2.942 -1.84,5.514 -4.582,6.409l-16.83,5.501c-2.692,0.883 -4.974,2.766 -6.415,5.314c-6.612,11.659 -17.008,21.31 -30.9,28.682c-1.601,0.851 -2.717,2.372 -3.048,4.181l-5.392,29.12c-0.147,0.801 -0.834,1.383 -1.637,1.383l-17.523,0c-0.804,0 -1.491,-0.582 -1.638,-1.383l-2.987,-16.097c-0.589,-3.166 -3.496,-5.269 -6.63,-4.781c-7.55,1.164 -15.327,1.752 -23.116,1.752c-5.796,0 -11.519,-0.331 -17.014,-0.982c-3.03,-0.357 -5.864,1.758 -6.428,4.819l-2.84,15.289c-0.147,0.801 -0.834,1.383 -1.637,1.383l-17.523,0c-0.798,0 -1.491,-0.582 -1.638,-1.395l-5.189,-27.506c-0.337,-1.771 -1.429,-3.28 -2.999,-4.131c-23.675,-12.898 -36.193,-34.452 -36.193,-62.321c0,-14.082 3.018,-26.53 8.973,-37.006c5.557,-9.782 13.671,-17.862 24.123,-24.033c1.772,-1.045 2.379,-3.361 1.355,-5.176c-1.03,-1.808 -3.3,-2.428 -5.072,-1.376c-20.259,11.953 -32.482,30.403 -35.843,53.841c-0.362,-0.038 -0.718,-0.069 -1.074,-0.106c0.068,-2.529 -0.38,-5.076 -1.361,-7.554c-2.153,-5.464 -6.575,-9.401 -11.267,-10.045c-3.699,-0.501 -7.213,1.101 -9.654,4.393c-3.545,4.775 -2.969,8.549 -1.859,10.877c1.871,3.931 6.673,6.709 14.647,8.462c-0.221,0.332 -0.46,0.669 -0.724,1.007c-4.71,6.027 -10.261,7.36 -13.867,7.486c-2.11,0.075 -3.797,1.802 -3.797,3.955l-0,0.019c-0,2.128 1.644,3.861 3.723,3.955c0.27,0.012 0.546,0.019 0.834,0.019c4.563,-0 11.88,-1.715 18.909,-10.708c1.11,-1.421 2.018,-2.923 2.711,-4.469c0.699,0.081 1.374,0.15 2.018,0.213l-0,-0.006c-0.123,2.052 -0.196,4.136 -0.196,6.252c-0,15.771 3.686,29.827 10.948,41.787c6.697,11.034 16.29,20.059 28.52,26.849l5.041,26.742c0.81,4.375 4.57,7.548 8.931,7.548l17.523,0c4.366,0 8.12,-3.173 8.936,-7.548l2.564,-13.825c5.323,0.576 10.837,0.864 16.419,0.864c7.648,0 15.29,-0.544 22.736,-1.615l2.705,14.576c0.809,4.375 4.563,7.548 8.93,7.548l17.523,-0c4.361,-0 8.12,-3.173 8.93,-7.548l5.25,-28.357c14.824,-7.998 25.999,-18.506 33.218,-31.242c0.522,-0.913 1.325,-1.589 2.257,-1.896l16.83,-5.495c5.827,-1.909 9.74,-7.379 9.74,-13.625l-0,-17.673c-0,-6.24 -3.913,-11.71 -9.74,-13.619Zm-35.444,-45.004c-1.429,12.467 -5.263,23.125 -9.108,25.353c-4.38,2.528 -14.481,3.016 -22.068,-2.648c-7.593,-5.663 -10.12,-15.858 -7.311,-29.477c0.282,-1.364 1.239,-2.547 2.551,-3.16c18.578,-8.681 29.287,-11.516 33.268,-11.516c0.601,0 1.048,0.063 1.343,0.182c1.196,1.295 2.766,8.686 1.325,21.266Zm-199.395,42.044c-0.387,-0.807 0.521,-2.228 1.097,-3.004c0.908,-1.227 1.748,-1.477 2.38,-1.477c0.135,-0 0.264,0.006 0.374,0.025c1.712,0.232 4.097,2.147 5.367,5.363c0.294,0.751 0.687,2.009 0.773,3.568c-5.134,-1.083 -9.127,-2.654 -9.991,-4.475Z" style="fill:#282c34;fill-rule:nonzero;"/></g><rect x="0" y="0" width="300" height="300" style="fill:none;"/></g></svg>