<svg width="100%" height="100%" viewBox="0 0 10417 3255" version="1.1" xmlns="http://www.w3.org/2000/svg" xml:space="preserve"  style="fill-rule:evenodd;clip-rule:evenodd;stroke-linejoin:round;stroke-miterlimit:2;">
    <path d="M5489.92,816.846c-0,117.162 -94.409,211.5 -211.571,211.5c-117.159,-0 -211.5,-94.338 -211.5,-211.5c-0,-117.163 91.125,-211.5 211.5,-211.5c120.479,3.25 211.571,97.625 211.571,211.5Zm-872.15,426.321l-0,52.083c-0,0 -100.842,-130.233 -315.625,-130.233c-354.671,-0 -631.321,270.116 -631.321,644.325c-0,370.987 273.396,644.325 631.321,644.325c218.033,-0 315.625,-133.417 315.625,-133.417l-0,55.296c-0,26.042 19.57,45.512 45.579,45.512l263.55,0l-0,-1223.6l-263.55,0c-26.008,0.1 -45.579,22.917 -45.579,45.709Zm-0,784.208c-48.763,71.621 -146.417,133.45 -263.546,133.45c-208.25,0 -367.742,-130.167 -367.742,-351.483c0,-221.292 159.488,-351.454 367.742,-351.454c113.908,-0 218.033,65.083 263.546,133.416l-0,436.075l-0,-0.004Zm504.408,-829.817l312.375,0l-0,1223.6l-312.375,0l-0,-1223.6l-0,0.004Zm4666.46,-32.575c-214.783,0 -315.691,130.23 -315.691,130.23l-0,-686.617l-312.375,-0l-0,1812.56l263.612,0c26.042,0 45.513,-22.791 45.513,-45.583l-0,-55.292c-0,0 100.908,133.417 315.625,133.417c354.737,-0 631.325,-273.271 631.325,-644.263c-0,-370.991 -276.584,-644.454 -628.009,-644.454Zm-52.079,992.559c-120.442,-0 -214.783,-61.767 -263.612,-133.417l-0,-436.071c48.829,-65.083 152.954,-133.417 263.612,-133.417c208.25,0 367.708,130.167 367.708,351.455c0,221.287 -159.42,351.45 -367.708,351.45Zm-738.667,-462.046l0,728.912l-312.437,0l-0,-693.154c-0,-201.716 -65.083,-283.121 -240.696,-283.121c-94.342,0 -192,48.834 -253.925,120.446l0,852.609l-312.312,-0l-0,-1223.59l247.229,-0c26.041,-0 45.575,22.787 45.575,45.575l-0,52.083c91.125,-94.408 211.5,-130.233 331.883,-130.233c136.7,-0 250.613,39.108 341.733,117.191c110.596,91.125 152.955,208.25 152.955,413.288l-0.005,-0.004Zm-1877.71,-530.513c-214.717,0 -315.625,130.23 -315.625,130.23l0,-686.617l-312.375,-0l0,1812.56l263.546,0c26.042,0 45.579,-22.791 45.579,-45.583l0,-55.292c0,0 100.908,133.417 315.625,133.417c354.738,-0 631.325,-273.271 631.325,-644.263c3.25,-371.02 -273.333,-644.454 -628.071,-644.454l-0.004,0Zm-52.075,992.559c-120.379,-0 -214.721,-61.767 -263.55,-133.417l0,-436.071c48.829,-65.083 152.954,-133.417 263.55,-133.417c208.317,0 367.738,130.167 367.738,351.455c-0,221.287 -159.421,351.45 -367.738,351.45Zm-846.042,-992.559c94.338,0 143.167,16.321 143.167,16.321l0,289.583c0,0 -260.333,-87.866 -423,97.659l0,855.829l-312.45,0l0,-1226.82l263.613,0c26.041,0 45.512,22.788 45.512,45.575l0,52.083c58.646,-68.37 185.563,-130.233 283.154,-130.233l0.004,0.004Zm-3244.35,1145.51c-16.255,-39.042 -32.542,-81.334 -48.796,-117.163c-26.075,-58.546 -52.113,-113.908 -74.834,-165.958l-3.254,-3.25c-224.571,-488.15 -465.333,-982.742 -719.191,-1470.83l-9.75,-19.567c-26.705,-50.633 -52.725,-101.625 -78.059,-152.958c-32.571,-58.613 -65.083,-120.375 -117.162,-178.992c-104.125,-130.167 -253.825,-201.779 -413.25,-201.779c-162.738,-0 -309.159,71.617 -416.5,195.246c-48.834,58.55 -84.654,120.379 -117.167,178.991c-25.4,51.3 -51.417,102.292 -78.05,152.959l-9.787,19.566c-250.575,488.088 -494.621,982.709 -719.159,1470.83l-3.283,6.466c-22.758,52.142 -48.829,107.442 -74.867,165.959c-16.254,35.821 -32.512,74.866 -48.766,117.158c-42.325,120.384 -55.363,234.292 -39.042,351.488c35.792,244.075 198.467,449.012 423.037,540.196c84.621,35.825 172.492,52.083 263.584,52.083c26.037,-0 58.546,-3.25 84.616,-6.538c107.413,-13 218.042,-48.762 325.446,-110.595c133.417,-74.867 260.334,-182.209 403.5,-338.417c143.167,156.208 273.334,263.55 403.5,338.417c107.442,61.833 218.038,97.591 325.417,110.595c26.037,3.317 58.608,6.534 84.65,6.534c91.125,-0 182.208,-16.25 263.55,-52.079c227.821,-91.184 387.242,-299.375 423.067,-540.196c25.845,-113.879 12.841,-227.725 -29.45,-348.167l-0,-0.004Zm-1467.58,169.208c-175.741,-221.287 -289.654,-429.542 -328.666,-605.217c-16.25,-74.866 -19.534,-139.95 -9.75,-198.529c6.471,-52.083 26.041,-97.658 52.079,-136.7c61.833,-87.808 165.958,-143.166 286.371,-143.166c120.446,-0 227.821,52.075 286.4,143.166c26.041,39.042 45.546,84.65 52.112,136.7c9.721,58.613 6.471,126.917 -9.783,198.529c-39.175,172.43 -153.083,380.709 -328.763,605.217Zm1298.33,152.958c-22.75,169.209 -136.667,315.688 -296.084,380.771c-78.091,32.509 -162.741,42.292 -247.3,32.509c-81.333,-9.784 -162.737,-35.825 -247.291,-84.584c-117.163,-65.15 -234.292,-165.958 -370.992,-315.696c214.75,-263.55 344.917,-504.408 393.75,-719.125c22.788,-100.908 26.071,-192 16.25,-276.654c-12.971,-81.333 -42.292,-156.204 -87.837,-221.287c-100.942,-146.484 -270.18,-231.042 -458.863,-231.042c-188.679,0 -357.921,87.875 -458.796,231.042c-45.541,65.083 -74.866,139.95 -87.875,221.291c-13,84.65 -9.783,178.992 16.259,276.646c48.791,214.721 182.208,458.8 393.712,722.379c-133.417,149.705 -253.829,250.613 -370.987,315.692c-84.625,48.833 -165.925,74.871 -247.263,84.592c-83.858,9.362 -168.746,-1.796 -247.329,-32.513c-159.421,-65.083 -273.333,-211.566 -296.088,-380.775c-9.754,-81.333 -3.283,-162.675 29.292,-253.791c9.717,-32.58 26.038,-65.084 42.292,-104.13c22.791,-52.079 48.762,-107.441 74.833,-162.737l3.283,-6.471c224.509,-484.9 465.3,-979.521 715.875,-1461.11l9.755,-19.571c26.075,-48.763 52.112,-100.842 78.12,-149.667c26.042,-52.083 55.296,-100.912 91.125,-143.237c68.334,-78.021 159.417,-120.379 260.325,-120.379c100.909,-0 192,42.358 260.334,120.379c35.825,42.425 65.083,91.25 91.125,143.233c26.066,48.829 52.108,100.908 78.083,149.671l9.783,19.571c246.755,483.587 484.35,971.791 712.659,1464.36l-0,3.25c26.071,52.146 48.829,110.663 74.866,162.804c16.255,38.979 32.542,71.488 42.292,104.063c25.979,84.521 35.729,165.925 22.696,250.512l-0.004,0.004Z" fill="currentColor" style="fill-rule:nonzero;"/></svg>