<svg viewBox="0 0 1667 2292" xmlns="http://www.w3.org/2000/svg" fill-rule="evenodd" clip-rule="evenodd" stroke-linejoin="round" stroke-miterlimit="2"><path fill="#31343b" d="M0 0h1666.67v2291.67H0z"/><path fill="#61dafb" d="M164.131 223.815h1336.98v1359.55H164.131z"/><path d="M214.65 258.323h1258.52v1272.98h-67.508V330.653H214.652v-72.329z" fill="#20232a" fill-rule="nonzero"/><path d="M214.65 258.323h1258.52v1272.98h-67.508V330.653H214.652v-72.329z" fill="#515258" fill-opacity=".3" fill-rule="nonzero"/><path d="M214.65 330.652h1191.01v173.587H460.569v1027.07H214.653V330.659z" fill="#31343b" fill-opacity=".1" fill-rule="nonzero"/><path d="M137.5 181.172v1427.28h1412.82V181.172H137.5zm77.15 77.15h1258.52v1272.98H214.65V258.322z" fill="#515258" fill-rule="nonzero"/><g><path d="M737.892 1242.78l-8.325 149.801 244.115 24.965 8.325-155.347-83.225-52.704-160.89 33.285z" fill="#a0616a" fill-rule="nonzero"/><path d="M1393.95 1571.5c-7.321-70.767-297.951-102.89-367.797-109.597l-26.116-15.235-8.323-88.769s-257.985-22.192-277.403-24.966c-19.419-2.774-36.063 33.288-36.063 41.61 0 6.015-3.629 48.966-18.204 74.423-31.474 25.291-127.433 104.868-127.433 135.017 0 36.063 76.286 489.618 76.286 489.618l8.322 94.317 77.673 13.87-5.548-294.048s27.741-169.216-11.096-216.374v-19.419s113.909-29.677 154.055-61.989c11.632-2.5 44.323-8.659 62.377-3.303 2.476 1.458 5.331 2.956 8.504 4.479.407.366.791.757 1.148 1.171l.313-.479c51.934 24.308 185.158 54.968 239.641 46.251a190.712 190.712 0 01122.058 22.192c-30.514 38.837-8.322 149.798-8.322 149.798l2.774 238.568 38.836 47.158h52.707v-130.379s49.933-313.467 41.611-393.914z" fill="#303846" fill-rule="nonzero"/><path d="M1023.01 703.324c-39.557-66.84-117.818-69.955-117.818-69.955s-76.261-9.752-125.182 92.045c-45.598 94.884-108.529 186.496-10.131 208.708l17.773-55.319 11.007 59.437a385.001 385.001 0 0042.101.72c105.376-3.402 205.732.995 202.5-36.818-4.295-50.268 17.812-134.505-20.25-198.818z" fill="#2f2e41" fill-rule="nonzero"/><path d="M1065.23 1073.56s8.322 97.091 0 141.475c-8.322 44.385-5.548 110.962-5.548 110.962l-61.028-11.096v-149.798l13.87-80.447 52.706-11.096z" fill="#a0616a" fill-rule="nonzero"/><path d="M825.272 853.027s13.87 61.029-5.548 66.577a262.54 262.54 0 00-44.385 19.419l-22.192 72.125v72.125l269.082 30.514 8.322-24.966v-36.063l-30.514-55.481-13.871-13.87s-61.028-66.577-47.158-130.38H825.272z" fill="#a0616a" fill-rule="nonzero"/><circle cx="880.753" cy="794.773" r="91.543" fill="#a0616a"/><circle cx="914.771" cy="633.708" r="56.587" fill="#2f2e41"/><path d="M852.228 618.816c.003-28.8 21.99-53.236 50.63-56.269a57.245 57.245 0 00-5.956-.318c-31.043 0-56.587 25.544-56.587 56.587 0 31.043 25.544 56.587 56.587 56.587a56.97 56.97 0 005.956-.318c-28.639-3.033-50.627-27.469-50.63-56.269z" fill="#2f2e41" fill-rule="nonzero"/><path d="M1005.52 696.88l-77.316-40.499L821.43 672.95l-22.089 97.567 54.989-2.115 15.364-35.844v35.253l25.373-.977 14.727-57.068 9.203 60.751 90.206-1.842-3.683-71.795z" fill="#2f2e41" fill-rule="nonzero"/><g fill="#d0cde1" fill-rule="nonzero"><path d="M690.577 2074.76s39.363 18.524 50.941 25.471c11.578 6.946 57.888-6.947 48.626 34.732-9.262 41.68-48.626 81.043-48.626 81.043s-18.524 20.84-18.524 34.733c0 13.893-46.31 120.407-101.883 115.776-55.573-4.631-46.31-60.203-46.31-60.203l11.577-60.204s23.155-101.883 27.786-99.567c4.632 2.315 16.209 18.524 16.209 18.524s57.888-23.155 60.204-90.305zM1267.89 2005.41s-39.364 18.524-50.942 25.471c-11.577 6.946-57.888-6.947-48.626 34.732 9.263 41.68 48.626 81.043 48.626 81.043s18.525 20.84 18.525 34.733c0 13.893 46.31 120.407 101.882 115.776 55.573-4.631 46.311-60.203 46.311-60.203l-11.578-60.204s-23.155-101.883-27.786-99.567c-4.631 2.315-16.209 18.524-16.209 18.524s-57.888-23.155-60.203-90.305z"/></g><g><path d="M962.684 1345.4v-22.016h-4.892v-9.784c0-9.394-7.73-17.123-17.123-17.123h-58.708c-9.393 0-17.123 7.729-17.123 17.123v163.892c0 9.393 7.73 17.123 17.123 17.123h58.708c9.393 0 17.123-7.73 17.123-17.123v-102.738h4.892v-22.016h-4.892v-7.338h4.892z" fill="#d0cde1" fill-rule="nonzero"/><circle cx="913.761" cy="1345.4" r="9.785" fill="#174291"/></g><path d="M668.539 1026.4l-49.933 205.279s-19.418 44.384 24.967 72.125c44.384 27.74 144.25 63.802 144.25 63.802s88.769 122.058 99.865 72.126c11.096-49.933-66.577-113.736-66.577-113.736l-135.928-85.995 52.707-144.25-69.351-69.351zM1029.16 1284.39s41.61-5.548 38.836 41.611c-2.774 47.159-58.254 52.707-58.254 52.707s-24.967 105.413-61.029 85.995c-36.062-19.419 19.418-124.832 19.418-124.832l47.159-36.062 13.87-19.419z" fill="#a0616a" fill-rule="nonzero"/><path d="M761.469 1008.37l44.385-91.543-88.769 30.514s-49.933 24.966-52.707 83.221c-2.774 58.255 63.803 88.769 63.803 88.769s11.096 83.221 5.548 94.317c-5.548 11.097 0 55.481 0 55.481s106.8-29.127 159.507 6.935c52.707 36.063 95.704 15.257 95.704 15.257s-2.774-69.35 19.419-80.447c22.192-11.096 41.61-63.803 22.192-97.091 0 0 44.385 5.548 41.611-36.063-2.774-41.61-24.967-77.673-61.029-94.317-36.062-16.644-40.049-19.303-40.049-19.303l51.145 94.202v24.967s-90.541-57.793-180.12-62.609a119.344 119.344 0 00-80.638 26.545l-.001.001-.001-38.836z" fill="#303846" fill-rule="nonzero"/></g></svg>