<svg viewBox="0 0 1667 2292" xmlns="http://www.w3.org/2000/svg" fill-rule="evenodd" clip-rule="evenodd" stroke-linecap="round" stroke-miterlimit="1.5"><path fill="#61dafb" d="M0 0h1666.67v2291.67H0z"/><g fill-rule="nonzero"><path d="M1562.92 1527.84c0 284.598-320.257 196.566-712.377 196.566-392.12 0-707.621 88.032-707.621-196.566 0-284.594 320.215-346.489 712.335-346.489 392.12 0 707.663 61.895 707.663 346.489z" fill-opacity=".1"/><path d="M1562.92 1457.78c0 284.594-320.257 196.566-712.377 196.566-392.12 0-707.621 88.028-707.621-196.566 0-284.593 320.215-346.493 712.335-346.493 392.12 0 707.663 61.9 707.663 346.493z" fill="#3e4149"/></g><path d="M25 1662.5l1616.67-2.953" fill="none" stroke="#404040" stroke-width="4.17"/><g fill-rule="nonzero"><path d="M542.565 457.119a132.871 132.871 0 0135.799-17.29c81.048-29.043 165.973-46.848 252.227-52.876 75-5.123 156.283.961 214.863 46.355 9.113 6.439 16.565 14.807 21.796 24.456 7.368 15.313 5.136 33.119 2.749 49.842a54.64 54.64 0 01-5.021 18.762c-7.879 14.457-27.288 19.519-44.145 17.784-16.856-1.731-32.675-8.602-49.3-11.787a229.156 229.156 0 00-31.141-3.055l-104.279-5.434c-64.843-3.384-130.544-6.707-194.154 5.897-19.58 3.388-38.503 9.671-56.092 18.615-14.529 7.858-24.314 19.13-37.795 4.621-23.683-25.494-36.793-72.342-5.507-95.89z" fill="#262b35"/><path d="M704.154 501.536s140.259-60.556 193.462 9.316c53.203 69.871-29.018 41.924-29.018 41.924l-91.897 27.947-101.566-18.631 29.019-60.556z" fill="#f2f2f2"/><path d="M711.416 457.284s19.35 88.504 4.84 111.796c-14.509 23.287 82.222 55.895 82.222 55.895l91.896-37.263s-24.184-144.4 0-172.348l-178.958 41.92z" fill="#ffb9b9"/><path d="M711.416 457.284s19.35 88.504 4.84 111.796c-14.509 23.287 82.222 55.895 82.222 55.895l91.896-37.263s-24.184-144.4 0-172.348l-178.958 41.92z" fill-opacity=".1"/><path d="M620.784 1521.47a498.574 498.574 0 0131.958 80.668c.476 3.219 3.37 5.633 6.746 5.633.581 0 1.158-.069 1.72-.212l86.033-.091c10.613-.012 24.856-3.297 24.751-13.521-.08-7.183-7.704-11.661-13.381-16.326-15.748-12.942-19.846-34.278-26.371-53.204-12.674-36.442-37.113-68.055-69.733-90.2a41.42 41.42 0 00-14.911-7.097 43.122 43.122 0 00-16.34.853c-15.101 2.938-71.499 12.976-60.846 34.131 4.589 9.108 21.586 18.589 28.713 27.1a194.083 194.083 0 0121.661 32.266zM919.945 1425.37a186.403 186.403 0 01-10.116 17.905c-12.463 19.796-27.173 38.264-38.779 58.54-7.824 12.384-12.654 26.308-14.133 40.734-1.344 14.625 4.789 29.004 16.42 38.497 12.488 9.126 29.611 9.55 45.133 7.425 15.518-2.129 30.95-6.412 46.583-5.283-5.271-28.727 19.886-54.005 26.175-82.541 1.765-8.014 2.031-16.326 4.398-24.197a116.598 116.598 0 019.735-20.735c12.528-23.491 21.38-48.639 26.275-74.627.592-3.15-76.474-3.665-83.701-2.159-22.559 4.695-19.259 28.424-27.99 46.441z" fill="#9cc0ff"/><path d="M325.957 974.088c-21.997 33.158-16.932 77.098-1.48 113.523 15.453 36.428 40.048 68.63 56.879 104.483 10.728 22.859 18.256 47.095 30.338 69.318 14.966 27.519 36.808 51.776 46.854 81.295 6.399 18.818 7.864 39.44 18.235 56.54a174.415 174.415 0 0021.361 25.525c22.333 24.638 39.099 53.482 49.235 84.696 9.474-27.186 37.851-45.013 66.995-50.889 29.145-5.881 59.342-1.887 88.827 2.124-16.45-24.538-33.056-49.388-42.856-77.028-9.484-26.728-12.282-55.165-18.667-82.736-13.1-56.536-41.081-108.681-68.78-160.098l142.375-10.878a577.178 577.178 0 0169.949-2.497c36.753 1.67 72.753 10.346 109.305 14.353 36.552 4.011 75.22 2.959 107.795-13.505-62.281 86.059-94.73 188.924-92.684 293.806 20.703-15.447 46.156-23.833 72.347-23.833 45.323 0 86.815 25.127 106.45 64.472 55.796-73.433 49.166-175.658 93.376-256.075 9.093-16.533 20.232-31.937 30.042-48.085a695.903 695.903 0 0047.475-101.035c12.368-30.462 24.826-64.359 12.965-95.007-4.925-11.631-12.097-22.254-21.14-31.306-25.508-27.082-61.011-47.12-98.973-47.956-58.273-1.28-106.41 40.319-157.527 67.293-61.016 31.232-130.048 45.023-198.929 39.735-70.214-4.79-137.275-26.927-204.169-46.42a1002.387 1002.387 0 00-101.892-25.313c-28.688-5.183-56.007.559-84.278 7.625-30.779 7.693-61.714 21.176-79.428 47.873z" fill="#303846"/><path d="M933.902 368.784c-.065 76.635-65.525 139.675-145.099 139.74a147.077 147.077 0 01-25.779-2.237c-68.79-11.964-119.305-70.188-119.305-137.511 0-76.657 65.496-139.731 145.089-139.731 79.599 0 145.094 63.074 145.094 139.731v.008z" fill="#ffb9b9"/><path d="M704.154 501.536s26.602 11.643 36.276 20.959c9.67 9.316 38.694 60.556 87.057 27.948 48.368-32.603 53.203-51.235 67.712-51.235s33.859 27.948 33.859 27.948l133.002 384.286c-35.845 38.969-77.392 72.706-123.333 100.148-77.387 46.58-169.278 69.868-212.811 51.236-43.528-18.632-125.75-32.604-140.259-69.868-14.51-37.264-38.694-149.06-38.694-149.06l67.712-284.139 89.479-58.223z" fill="#174291"/><path d="M685.477 890.188c10.547-21.933 12.077-46.766 12.97-70.923a414.157 414.157 0 00-1.966-71.741c-4.288-31.159-14.821-61.179-21.476-91.948a375.166 375.166 0 01-8.461-82.061c.1-12.579 1.043-25.819 8.16-36.368 4.965-7.356 12.734-13.055 15.834-21.306 6.083-16.179-8.948-33.119-25.418-39.778-20.057-7.244-42.014-8.096-62.612-2.423a304.445 304.445 0 00-58.89 23.205c-14.153 5.811-27.168 13.911-38.483 23.954-15.011 14.963-21.611 35.802-26.942 55.965-4.268 16.14-8.06 32.967-4.815 49.328 5.271 26.559 27.755 46.536 39.742 70.992 13.917 28.403 12.984 61.495 7.447 92.442-5.537 30.946-15.362 61.209-18.396 92.476-3.029 31.266 1.62 64.878 21.962 89.421 8.291 9.999 30.775 33.707 45.951 31.024 11.921-2.107 29.204-27.381 38.804-35.39 27.745-23.145 60.66-43.728 76.589-76.869z" fill="#262b35"/><path d="M938.888 486.339c.421 25.979-11.47 50.673-25.453 72.892-13.983 22.219-30.408 43.235-40.715 67.25-12.804 30.051-15.417 63.247-7.468 94.817a297.56 297.56 0 0010.668 31.73l26.501 70.006c3.566 11.008 8.742 21.466 15.367 31.072a102.606 102.606 0 0020.884 19.346c20.127 15.655 43.292 27.294 68.138 34.235 25.017 6.892 51.734 5.421 75.772-4.163 2.553-94.899 18.387-189.037 47.064-279.86 5.302-16.767 11.089-34.416 7.002-51.495-4.574-19.129-20.533-33.495-35.699-46.61-46.382-40.111-97.383-82.247-159.468-87.656-35.935-3.128-2.899 29.653-2.593 48.436z" fill="#282c34"/><path d="M621.481 1027.91c3.682 6.932 5.969 14.487 9.605 21.44a120.41 120.41 0 0019.735 25.56c32.339 34.533 71.87 68.937 120.108 71.018a34.079 34.079 0 0014.158-1.718c8.275-4.076 13.928-11.86 15.066-20.743 3.421-18.039-4.85-36.04-13.125-52.551-17.945-35.789-38.132-72.49-71.725-95.57-33.964-22.414-76.8-28.619-116.105-16.823-17.499 5.192-46.517 14.257-23.346 29.631 17.573 11.665 35.438 20.544 45.629 39.756zM830.004 572.251c-5.03-13.097-12.754-25.083-22.694-35.247-10.031-8.165-21.907-13.959-34.671-16.914a196.25 196.25 0 00-50.866-7.023c-20.483-.125-44.235 5.166-52.932 23.028-6.906 14.184-1.555 30.977 5.402 45.139 2.969 7.339 7.919 13.777 14.339 18.654 8.832 5.75 20.257 5.568 30.729 7.494 16.234 3.968 31.611 10.679 45.419 19.817l35.874 20.887 61.624 35.875c-1.625-.948-1.048-41.643-2.939-48.315-6.099-21.488-19.826-43.049-29.285-63.395z" fill="#ffb9b9"/><path d="M650.5 1591.58c-14.419 18.87-11.53 45.849-24.304 65.787-11.069 17.287-31.933 26.352-45.785 41.669a111.794 111.794 0 00-11.771 16.308c-12.845 20.722-23.287 47.281-10.638 68.116 10.181 16.762 31.572 23.313 51.192 27.774 24.801 5.643 50.564 10.16 75.651 5.85 25.087-4.314 49.602-19.107 58.544-42.084a159.272 159.272 0 016.259-17.013c13.597-25.78 56.243-26.057 70.16-51.677 9.735-17.931.783-39.605-8.165-57.912l-27.328-55.913c-9.068-18.555-45.831-7.884-64.999-12.332-24.997-5.798-50.836-12.189-68.816 11.427z" fill="#3e4149"/><path d="M861.877 1543.55c-11.189 8.485-19.745 19.774-24.726 32.625-13.526 30.046-18.17 62.992-22.679 95.457a111.388 111.388 0 00-.788 39.151c5.833 26.511 30.775 46.034 57.627 54.143 26.852 8.104 55.65 6.854 83.751 5.53a62.073 62.073 0 0026.331-5.149c14.123-7.503 19.64-25.136 17.217-40.492-2.417-15.357-11.134-29.021-19.66-42.205-8.526-13.189-17.248-26.845-19.69-42.197-4.108-25.832 7.488-63.745-8.993-87.11-16.51-23.418-66.353-24.625-88.39-9.753z" fill="#3e4149"/><path d="M930.241 295.953c-2.578-8.351-8.27-15.504-15.974-20.082a78.56 78.56 0 00-3.37-26.498c-8.787-25.019-29.606-23.582-49.246-34.646-8.521-4.799-7.994-9.039-12.428-16.923-5.813-10.333-14.524-18.887-25.132-24.69-12.598-7.732-25.899-15.698-40.81-16.676-31.325-2.055-55.344 26.321-85.286 35.429-13.195 4.012-27.373 4.18-40.644 7.975-13.266 3.795-26.501 12.856-28.477 26.048-.913 6.088.697 12.337-.231 18.425-1.84 12.102-12.864 20.579-20.242 30.531-16.32 22.011-14.454 53.105-1.404 77.054a108.126 108.126 0 009.409 14.184c1.088 11.32 4.463 22.323 9.935 32.396 13.055 23.95 35.509 41.846 58.971 56.714a129.277 129.277 0 01-3.481-24.184 16.107 16.107 0 011.068-8.013c2.613-5.262 9.514-6.659 14.78-9.541 10.899-5.963 15.177-19.169 15.493-31.241.316-12.072-2.342-24.166-1.028-36.173.1-5.582 2.658-10.87 7.026-14.539a25.002 25.002 0 0113.246-3.042c22.333-.878 45.675-1.272 65.375-11.445a98.285 98.285 0 0120.352-9.917c16.741-4.206 33.854 7.101 43.503 20.934 9.65 13.829 14.464 30.293 23.367 44.581 8.902 14.292 24.284 27.035 41.497 25.343a7.02 7.02 0 005.14-2.203 7.187 7.187 0 00.948-4.219l.963-63.372a92.475 92.475 0 00-3.32-32.21z" fill="#2b2d33"/><path d="M471.056 627.446c-13.842 19.67-29.806 38.584-37.415 61.188-4.473 13.288-5.863 27.333-9.102 40.946-10.783 45.346-41.944 85.622-45.073 132.046-1.099 10.315.476 20.73 4.574 30.319 8.942 18.723 30.332 28.593 50.735 34.802 20.407 6.205 42.319 10.679 58.609 24.045a174.795 174.795 0 0122.208 24.793c26.566 31.829 62.326 55.39 102.75 67.709-3.19-21.194-4.69-46.74 12.899-59.842 9.524-7.092 22.248-8.356 34.245-9.351l56.668-4.716c-37.79-35.304-79.443-66.553-124.225-93.203-15.673-9.32-32.725-19.156-39.882-35.503a82.828 82.828 0 01-4.519-32.751 778.454 778.454 0 00-10.672-121.168c-4.67-27.827-10.844-55.402-17.91-82.753-1.981-7.68-13.707-42.123-28.136-34.062-3.396 1.9-6.58 23.746-8.561 28.281a169.836 169.836 0 01-17.193 29.22zM1123.75 553.117l23.141 46.351c11.149 19.056 16.225 40.864 14.59 62.68l1.374 139.043a195.352 195.352 0 01-4.744 55.368 43.6 43.6 0 01-7.985 16.529 53.176 53.176 0 01-13.687 10.618c-43.799 26.356-100.593 41.34-146.864 19.251a203.485 203.485 0 01-30.112-18.93c-18.442-13.15-37.159-26.564-50.956-44.222-14.44-18.485-22.715-40.617-32.43-61.772-17.433-37.947-39.962-73.532-67.005-105.842-4.478-4.27-7.392-9.831-8.295-15.841-.286-12.185 14.725-18.186 26.431-22.82 20.001-7.923 38.859-23.21 42.209-43.785 42.53 53.711 89.459 110.463 156.574 130.091a7.14 7.14 0 003.727 1.047c3.796 0 6.926-3.008 6.926-6.668 0-.026-.005-.052-.005-.082 3.811-15.348 5.156-31.155 7.944-46.71 5.111-28.32 14.956-55.658 29.144-80.949 7.95-14.175 33.688-66.077 50.023-33.357z" fill="#262b35"/><path d="M549.476 687.154c.642 32.902-6.62 65.51-21.205 95.267a76.867 76.867 0 00-8.305 20.986c-2.538 15.659 6.715 30.821 17.287 42.966 20.864 23.877 47.932 42.011 78.436 52.547M1052 659.427c-3.406 8.831-.311 18.597 2.317 27.671a269.239 269.239 0 0110.552 80.905c.045.212.07.424.07.641 0 1.618-1.379 2.946-3.054 2.946a3.3 3.3 0 01-.592-.056c-11.164.658-23.948.727-31.521-7.196" fill-opacity=".1"/></g></svg>