<svg viewBox="0 0 1667 2292" xmlns="http://www.w3.org/2000/svg" fill-rule="evenodd" clip-rule="evenodd" stroke-linejoin="round" stroke-miterlimit="2"><path fill="#d8e6fb" d="M0 0h1666.67v2291.67H0z"/><path fill="#2b2d33" d="M173.201 1661.31h1388.95v.499H173.201zM0 1890.47h1666.67v.499H0z"/><path d="M221.994 1647.37c.557 55.178-33.148 74.762-74.961 75.158-.97.009-1.937.007-2.899-.004a122.268 122.268 0 01-5.754-.202c-37.765-2.229-67.289-22.207-67.807-73.525-.535-53.106 68.928-120.786 74.138-125.792l.011-.005c.196-.191.298-.285.298-.285s76.419 69.478 76.974 124.655z" fill="#174291" fill-rule="nonzero"/><ellipse cx="231.745" cy="164.765" rx="531.946" ry="514.765" fill="#174291"/><path d="M283.019 1715.26H174.066L223.735 87.23l59.284 1628.03z" fill="#282c34" fill-rule="nonzero"/><path d="M233.349 395.789l116.962-156.601L231.745 434.55l-12.818-21.706 14.422-17.055zM220.529 553.939L103.567 397.338l118.564 195.365 12.82-21.709-14.422-17.055z" fill="#262b35" fill-rule="nonzero"/><path d="M280.542 868.443l-52.728 29.458 16.021 26.856 52.728-29.459-16.021-26.855z" fill="#262b35"/><g><g fill-rule="nonzero"><path d="M1276.26 1807.58c.618 61.405-36.888 83.199-83.419 83.64-1.08.009-2.155.007-3.226-.005a133.65 133.65 0 01-6.406-.226c-42.023-2.48-74.881-24.712-75.458-81.818-.596-59.098 76.707-134.418 82.506-139.989l.01-.005.331-.317s85.042 77.318 85.662 138.72z" fill="#174291"/><path d="M677.315 1375.84c293.445 0 534.912 233.668 534.912 517.635H374.198v-224.309c0-160.913 136.831-293.326 303.117-293.326z" fill="#262b35"/></g><g fill-rule="nonzero"><path d="M464.565 1403.23s-119.799 57.966-66.557 135.252c30.95 44.922 90.007 132.279 134.038 197.559 36.852 54.635 65.116 114.265 83.862 176.934l8.388 28.038 33.277 38.644 69.882-77.286s-103.159-183.555-103.159-218.978-83.194-148.133-83.194-148.133l83.194-51.522s-93.177-103.05-159.731-80.508zM853.91 1602.88s3.328 90.167 6.656 125.59c2.744 29.223-23.955 111.05-14.698 202.082a828.26 828.26 0 01-2.017 176.955l-13.237 116.882 99.833 9.662 33.277-264.063s19.966-186.774 9.984-247.958l3.326-128.811s-73.21-25.762-123.124 9.661z" fill="#ffb9b9"/><path d="M675.874 1227.72s-232.941 144.913-236.269 189.996c0 0 133.11-12.881 136.438 99.828 0 0 79.866-28.982 99.831-35.423 19.968-6.44 126.455-74.067 126.455-74.067s43.261 32.204 43.261 83.729c0 51.522-3.328 141.689 0 148.13 3.328 6.44 79.866-86.946 143.092-6.441l43.26-222.197s13.312-135.251-13.311-144.911l-186.353-67.627-156.404 28.983z" fill="#515258"/></g><g fill="#20232a" fill-rule="nonzero"><path d="M640.933 1934.57s-23.293-25.761-36.605 9.661c-13.311 35.423-49.916 80.508-49.916 80.508s-79.866 86.946-23.293 90.167c56.572 3.219 136.438-77.286 136.438-77.286l93.175-83.727s-30.881-72.781-45.39-73.425c-14.508-.642-11.18 86.306-74.409 54.102zM857.238 2201.85s-23.453 6.624-21.71-20.84c0 0-84.78 43.382-61.484 75.584 23.293 32.204 49.914 64.405 49.914 64.405s123.127 67.625 133.111 51.525c9.983-16.102 9.983-48.303 3.328-61.184-6.656-12.883-39.933-35.423-29.95-54.746 9.982-19.321-3.327-70.846-19.967-70.846-16.637 0-53.242 16.102-53.242 16.102z"/></g><g fill="#ffb9b9" fill-rule="nonzero"><path d="M685.858 1353.31s29.949 164.234 69.882 141.692c39.933-22.542-9.984-141.692-9.984-141.692h-59.898zM824.874 1374.57s-51.893 159.031-5.716 156.905c46.179-2.127 58.832-130.11 58.832-130.11l-53.116-26.795z"/></g><g fill="#31343b" fill-rule="nonzero"><path d="M1025.29 873.495s-79.866 209.316-73.21 235.078c6.656 25.763 0 28.982-9.984 35.423-9.982 6.44-36.605 74.067-36.605 74.067s-16.637 38.642-29.949 48.303c-13.312 9.66-13.312 35.423-13.312 35.423s-33.277 32.202-26.621 38.642c6.656 6.441 6.656 16.102-6.656 25.764-13.309 9.659-26.621 22.54-19.965 25.761 6.656 3.219 53.242 38.642 66.554 35.423 13.312-3.221-6.656-16.102 9.984-22.542 16.637-6.44 26.621-16.102 19.965-19.321-6.654-3.221-26.621-3.221-6.654-9.662 19.966-6.44 89.848-48.303 113.143-99.828 23.293-51.523 134.903-363.255 67.45-407.046 0 0-27.517-34.129-54.14 4.515z"/><path d="M792.345 789.768s112.605 28.779 127.85-25.863c0 0 138.369 25.863 161.664 112.809 23.293 86.948-56.572 296.264-56.572 302.705 0 6.44 66.556 45.084 36.604 64.405-29.949 19.321-56.57-3.221-43.26 22.542 13.311 25.762 36.607 32.202 16.639 38.642-19.965 6.441-139.764-93.385-232.941-67.624-93.178 25.761-139.764 6.44-139.764 6.44l-41.781-349.436c-3.311-27.174 7.874-54.19 29.656-71.636 20.854-16.61 48.527-34.558 75.351-39.424 53.245-9.662 55.456-14.949 55.456-14.949l11.098 21.389z"/><path d="M655.909 838.072l-1.351.545c-25.498 10.289-44.153 32.138-49.786 58.309-7.267 33.657-14.414 82.336-8.763 127.92 9.983 80.508 16.639 115.931 29.951 141.692 13.309 25.761 16.637 16.102 13.309 35.423-3.328 19.321-19.965 3.221-3.328 28.982 16.64 25.762 26.624 19.321 19.968 32.202-6.656 12.881-16.64 12.881-3.328 28.983 13.312 16.102 13.312 22.542 16.638 28.982 3.327 6.441 13.311 54.744 13.311 54.744s53.245-16.102 83.194-9.659c0 0-26.621-45.085-19.968-54.746 6.656-9.66 16.64-12.881 6.656-22.54-9.984-9.662-26.621-6.443-9.981-16.102 16.637-9.662-13.312-109.49-13.312-109.49l-73.21-325.245z"/></g><path d="M769.052 677.059s23.293 74.065 9.984 96.607c-13.312 22.543 23.293 70.846 83.191 48.304 59.901-22.542 63.229-48.304 63.229-48.304s-23.296-35.423-29.95-109.488l-126.454 12.881z" fill="#ffb9b9" fill-rule="nonzero"/><ellipse cx="817.305" cy="620.704" rx="99.831" ry="96.607" fill="#ffb9b9"/><path d="M730.182 538.845s32.115-67.336 93.667-51.796c61.555 15.538 96.346 38.845 99.022 62.156 2.677 23.307-1.337 58.27-1.337 58.27s-6.692-47.911-49.512-37.552c-42.82 10.359-109.725 2.589-109.725 2.589l-10.706 93.234s-12.042-16.834-25.424-6.475c-13.38 10.36-38.805-99.707 4.015-120.426z" fill="#20232a" fill-rule="nonzero"/></g></svg>